<?xml version="1.0" encoding="utf-8"?>
<!-- Generator: Adobe Illustrator 26.4.1, SVG Export Plug-In . SVG Version: 6.00 Build 0)  -->
<svg version="1.1" id="Calque_1" xmlns="http://www.w3.org/2000/svg" xmlns:xlink="http://www.w3.org/1999/xlink" x="0px" y="0px"
	 viewBox="0 0 512 512" style="enable-background:new 0 0 512 512;" xml:space="preserve">
<style type="text/css">
	.st0{fill:#B52D3E;stroke:#000000;stroke-miterlimit:10;}
	.st1{fill:#226B40;stroke:#000000;stroke-miterlimit:10;}
	.st2{fill:#FFFFFF;}
</style>
<polygon class="st0" points="245.8,148.5 201,157.2 157.8,168.2 135,197 115.3,234 110,271 115.3,317 135,361 161.2,398.9 
	200,417.6 225,423 251.6,410 286.2,417.6 299,423 345.3,403.9 388.9,343.8 402,280 402,249 396.8,224 377,205.1 366.1,177.6 
	340.3,160 295,149.5 264.2,159.2 258.3,174 "/>
<polygon class="st1" points="255.9,125.2 234.2,95 186,90 143,107.6 135,117.8 150,136 180,149.5 206,153 239.5,142.8 "/>
<path d="M286.2,147c-6.7,0-13.4,0.4-20,1.5c3.7-18.5,10.6-42.6,23.1-55.9h0c1-1,1.5-2.3,1.5-3.6c0-1.4-0.5-2.7-1.5-3.6
	c-2-2-5.2-2-7.2,0C274,94.9,267.8,106,264,118c-9-9.3-34.2-32.2-65.9-34.2c-39.3-1.9-72.6,28.8-73.9,29.9l-3.5,3.3l3.1,3.7
	c1.1,1.3,23.4,27.6,55.3,35.8c-22,9.4-40.7,25-53.9,45S105,244.9,105,268.8c0,64.1,50.7,159,120.8,159c6.5-0.4,12.8-2.1,18.5-5.1
	c8.5-4,18.4-3.7,26.7,0.8c4.7,2.8,9.9,4.3,15.4,4.5c69.8-0.1,120.6-95.1,120.6-159.1c0.1-32.2-12.5-63.1-35.2-85.9
	C349.1,160.1,318.4,147.2,286.2,147L286.2,147z M255.5,149.5c-3.3-0.1-6.5-0.4-9.7-1c-2.1-0.3-4.2-0.5-6.3-0.8h0
	c6.6-3.4,12.9-7.3,18.8-11.7C257.2,140.9,256.3,145.4,255.5,149.5L255.5,149.5z M197.1,94.5c27.5,1.6,50.3,22.1,58.8,30.7
	c-9.4,7.5-34.5,25-62.1,23.4c-27.5-1.6-50.4-22.2-58.8-30.9C144.4,110.4,169.5,92.9,197.1,94.5z M286.2,417.6
	c-3.6-0.2-7.1-1.4-10.2-3.2c-11.1-6-24.4-6.4-35.8-1.1c-4.4,2.4-9.3,3.8-14.3,4.3c-58.5,0-110.5-83.2-110.5-148.8l0,0
	c-0.1-29.4,11.5-57.7,32.2-78.6c20.7-20.9,48.9-32.8,78.3-32.9c6.1,0,12.2,0.5,18.3,1.5c3.2,0.5,6.4,0.8,9.7,0.9
	c-1.1,7.4-1.5,12.4-1.6,13.1c-0.1,0.7,0,0,0,0.3c-3.3-0.2-6.6-0.8-9.7-1.9c-2.6-1.2-5.6,0-6.8,2.6s0,5.6,2.6,6.8
	c6.3,2.2,13,3.3,19.7,3.1c7.2,0.3,14.4-0.9,21-3.7c1.2-0.7,2.1-1.8,2.4-3.1c0.4-1.3,0.2-2.7-0.5-3.9c-0.7-1.2-1.8-2.1-3.1-2.4
	c-1.3-0.4-2.7-0.2-3.9,0.5c-3.7,1.4-7.6,2.2-11.6,2.2c0-1.5,0.7-6.7,1.8-13.9l3.8-0.5c6-1,12.1-1.5,18.2-1.5
	c29.4,0.2,57.6,12,78.3,32.9c20.7,20.9,32.3,49.2,32.2,78.6C396.8,334.4,344.7,417.6,286.2,417.6L286.2,417.6z"/>
<ellipse transform="matrix(0.5 -0.866 0.866 0.5 -14.6022 383.7083)" class="st2" cx="325" cy="204.5" rx="12.5" ry="21"/>
</svg>
