<?xml version="1.0" encoding="utf-8"?>
<!-- Generator: Adobe Illustrator 26.4.1, SVG Export Plug-In . SVG Version: 6.00 Build 0)  -->
<svg version="1.1" id="Calque_1" xmlns="http://www.w3.org/2000/svg" xmlns:xlink="http://www.w3.org/1999/xlink" x="0px" y="0px"
	 viewBox="0 0 512 512" style="enable-background:new 0 0 512 512;" xml:space="preserve">
<style type="text/css">
	.st0{fill:#C1B04D;stroke:#000000;stroke-miterlimit:10;}
	.st1{fill:#F7E879;stroke:#000000;stroke-miterlimit:10;}
	.st2{fill:#BAB3AE;stroke:#000000;stroke-miterlimit:10;}
</style>
<polygon class="st0" points="196.3,108.2 222.2,134.1 254.5,140.7 293.3,128.7 318.5,113.6 315.7,108.2 293.3,93.1 257.4,87 
	218.8,93.1 "/>
<polygon class="st1" points="184.3,109.5 186.3,146.9 236,164.9 259.8,172 274.1,165.5 285,167.4 324.8,140.7 318.5,113.6 
	284,134.1 259.7,136.7 243,136.7 213,128.7 "/>
<polyline class="st1" points="364,143.4 364,256 387,239 409,134.1 397.8,128.7 378,125 "/>
<polygon class="st1" points="103,136.7 119,232 131,247.7 147,255.9 147,143.3 137,128.7 108.4,125 "/>
<polygon class="st2" points="147,143.3 147,255.9 167.3,402.8 180,418.9 193.5,425 324.8,425 344.7,410 364,256 364,143.4 
	318.5,139.8 285,167.4 259.8,172 243,172 220.2,158.7 197.9,156.6 183.3,136.7 "/>
<path d="M410.2,124.2c-3.1-3.6-7.6-5.7-12.3-5.7H387c-5.3,0.3-10.5,2.2-14.7,5.5c-4.3,3.2-7.5,7.7-9.2,12.7h-34.4V113
	c0-1.3-0.3-2.5-1-3.6c0.2-0.5,0.3-1,0.4-1.5c0-1.8-0.8-3.5-2-4.8c-7.2-6.9-35.8-20.5-70-20.5s-62.9,13.4-70,20.5
	c-1.3,1.2-2.1,3-2,4.8c0,0.5,0.2,1,0.3,1.5c-0.6,1.1-1,2.3-1,3.6v23.6h-34.4c-1.7-5.1-4.9-9.5-9.2-12.7c-4.3-3.2-9.4-5.1-14.7-5.5
	h-10.8c-4.8,0-9.3,2.1-12.4,5.7c-3.1,3.6-4.4,8.5-3.5,13.2l15.4,87.8c3.1,17.8,14.5,30.7,28.4,33.1l20.5,143v0
	c1.1,7.7,5,14.7,10.9,19.8c5.9,5.1,13.4,7.9,21.2,8h122.5c7.8,0,15.3-2.8,21.2-7.9c5.9-5.1,9.8-12.1,10.9-19.9l20.5-143
	c13.9-2.5,25.2-15.4,28.3-33.1l15.4-87.8v0C414.2,132.7,413.1,127.9,410.2,124.2L410.2,124.2z M316.9,141l-0.4,0.4l-1.7,1.4
	l-0.7,0.7l-1.8,1.4l-1,0.8l-2,1.5l-1.2,0.9l-2.3,1.6l-1.3,0.9l-2.4,1.8l-1.2,0.8l-4.2,2.6c-1.5,0.9-3,1.7-4.7,2.5l-1.4,0.7
	c-1.2,0.6-2.3,1.1-3.5,1.6l-1.9,0.8l-3.3,1.3l-2.1,0.8l-3.4,1.1l-2.3,0.7l-3.5,0.8l-2.2,0.5c-1.3,0-2.7,0.4-4,0.6h-3.2
	c0-0.2,0-0.5,0-0.7v-22.5c15.4-1.4,30.3-6.5,43.3-14.9c4.9-3,9.6-6.3,14.1-9.9v20.5L316.9,141z M248,167.4c-1.3,0-2.7-0.3-3.9-0.6
	l-2.3-0.5l-3.5-0.8l-2.3-0.7c-1.1-0.3-2.2-0.7-3.3-1.1l-2.3-0.8l-3.3-1.3l-1.8-0.8l-3.4-1.6l-1.7-0.5c-1.6-0.8-3.1-1.6-4.6-2.5h-0.3
	c-1.4-0.8-2.7-1.6-4-2.4l-1.3-1.3l-2.6-1.7l-1.4-1l-2.2-1.5l-1.3-1l-1.9-1.4l-0.9-0.9l-1.7-1.5l-0.8-0.7l-1.6-1.4l-0.4-0.4l-1.5-1.4
	V119c4.5,3.6,9.2,6.9,14.1,9.9c13,8.4,27.8,13.7,43.3,15.2V167c0,0.3,0,0.5,0,0.8h-1.1L248,167.4z M315.7,108.2
	c-5.2,4.5-10.8,8.6-16.7,12.2c-12.8,8.4-27.7,13.1-43,13.6c-15.3-0.6-30.2-5.3-43-13.6c-5.9-3.6-11.5-7.7-16.7-12.2
	C233.6,88.1,278.5,88.1,315.7,108.2L315.7,108.2z M141.7,247.7c-8.6-2.7-15.7-12.1-17.8-24.2l-15.4-87.8c-0.3-1.7,0.2-3.5,1.3-4.8
	c1.1-1.3,2.8-2.1,4.5-2.1h10.8c9.3,0,16.7,10.6,16.7,23.6L141.7,247.7z M360,255.3L339,399.9c-0.8,5.3-3.4,10.1-7.5,13.6
	c-4,3.5-9.2,5.4-14.5,5.4H194.9c-5.3,0-10.5-2-14.5-5.4c-4-3.5-6.7-8.3-7.5-13.6L152,255.3V146.9h34.3l0.6,0.6l1.1,1h0
	c0.3,0.3,0.6,0.6,0.9,0.8l1.3,1.2l1.1,1l1.7,1.4l1.3,1.1l2,1.5l1.5,1.1c0.8,0.6,1.6,1.2,2.5,1.8l1.5,1l3.5,2.3l0.9,0.6
	c1.5,0.9,3.1,1.9,4.7,2.8l1.4,0.8l3.7,2l1.9,0.9l3.5,1.6l2.3,1l3.5,1.3l2.5,0.9l3.7,1.2l2.5,0.7l3.9,0.9l2.5,0.5l4.5,0.6
	c0.7,0,1.4,0.3,2.2,0.3c2.3,0,4.5,0.3,6.9,0.3s4.6,0,6.8-0.3c0.8,0,1.5,0,2.3-0.3c0.8-0.3,3-0.4,4.4-0.6l2.6-0.5
	c1.3-0.3,2.6-0.6,3.9-0.9l2.6-0.7l3.7-1.2l2.5-0.8l3.5-1.4l2.3-1l3.4-1.6l2-0.9l3.6-2l1.4-0.8l4.8-2.8l0.9-0.6l3.4-2.3l1.5-1.1
	l2.4-1.7l0,0c0.5-0.3,1-0.7,1.5-1.1l2-1.5l1.3-1.1l1.7-1.4l1.1-1l1.4-1.2l0.9-0.8l1.7-1.5h34.4L360,255.3z M388.1,223.4
	c-2.2,12.1-9.3,21.5-17.9,24.2l0-95.3c0-13,7.5-23.6,16.7-23.6h10.9c1.7,0,3.4,0.8,4.5,2.1c1.1,1.3,1.6,3.1,1.3,4.8L388.1,223.4z
	 M324.8,364.1c0,11.9-2,23.7-5.9,35c-0.8,2.2-2.8,3.6-5.1,3.4c-0.6,0-1.1-0.1-1.7-0.3c-1.3-0.5-2.3-1.4-2.9-2.6
	c-0.6-1.2-0.7-2.6-0.2-3.9c3.5-10.1,5.2-20.8,5.1-31.5c0-41.9-26.3-76.1-58.5-76.1c-32.3,0-58,34.2-58,76.1
	c-0.1,10.7,1.6,21.4,5.1,31.5c0.6,1.3,0.6,2.8,0,4.1c-0.6,1.3-1.6,2.3-3,2.8c-1.3,0.5-2.8,0.4-4.1-0.3c-1.3-0.6-2.2-1.8-2.6-3.1
	c-4-11.2-5.9-23.1-5.9-35c0-47.6,30.7-86.3,68.7-86.3C293.8,277.8,324.8,316.5,324.8,364.1L324.8,364.1z M281.1,259.5l58.3-2.2v0
	c2.8-0.1,5.2,2.1,5.3,4.9s-2.1,5.2-4.9,5.3l-58.9,2.2c-8.5-0.6-16.6-3.6-23.3-8.7L256,260l-1.5,1.2v0c-6.7,5-14.7,8-23.1,8.6h-0.3
	l-58.8-2.2h0c-1.4,0-2.6-0.6-3.6-1.6c-0.9-1-1.4-2.3-1.4-3.7c0.1-2.8,2.5-5,5.3-4.9l58.3,2.2v0c6.3-0.5,12.3-2.8,17.4-6.6l2.6-2.1
	v-51.6c0-2.8,2.3-5.1,5.1-5.1s5.1,2.3,5.1,5.1v51.6l2.6,1.9C268.7,256.6,274.8,259,281.1,259.5L281.1,259.5z M252.4,310.7l0,1.6
	c-0.2,5.1-2.5,9.9-6.3,13.4c-3.8,3.5-8.8,5.3-13.9,5h-8.2c-2.8,0-5.1-2.3-5.1-5.1s2.3-5.1,5.1-5.1h8.2c5,0.4,9.4-3.2,10-8.2v-1.5
	c0-2.8,2.3-5.1,5.1-5.1S252.4,308,252.4,310.7L252.4,310.7z M293.3,325.6L293.3,325.6c0,1.4-0.5,2.7-1.5,3.6c-1,1-2.3,1.5-3.6,1.5
	H280c-5.1,0.3-10.2-1.5-14-5c-3.8-3.4-6.1-8.3-6.4-13.4v-1.5c0-2.8,2.3-5.1,5.1-5.1c2.8,0,5.1,2.3,5.1,5.1v1.5
	c0.5,5,4.9,8.6,9.9,8.2h8.2c2.8,0,5,2.2,5.1,4.9L293.3,325.6z M252.4,340.3v1.5l0,0c-0.3,5.1-2.5,9.9-6.3,13.4
	c-3.8,3.4-8.8,5.2-13.9,5h-8.2c-2.8,0-5.1-2.3-5.1-5.1c0-2.8,2.3-5.1,5.1-5.1h8.2c5,0.4,9.4-3.2,10-8.1v-1.5c0-2.8,2.3-5.1,5.1-5.1
	S252.4,337.4,252.4,340.3L252.4,340.3z M293.3,355.1L293.3,355.1c0,1.4-0.5,2.7-1.5,3.6c-1,1-2.3,1.5-3.6,1.5H280
	c-5.1,0.2-10.1-1.6-13.9-5c-3.8-3.4-6-8.2-6.3-13.4v-1.5c0-2.8,2.3-5.1,5.1-5.1s5.1,2.3,5.1,5.1v1.5c0.5,5,5,8.6,9.9,8.1h8.2
	c2.7,0.1,4.9,2.3,5,5L293.3,355.1z M252.4,369.8v1.5l0,0c-0.3,5.1-2.5,9.9-6.3,13.4c-3.8,3.4-8.8,5.2-13.9,5h-8.2
	c-2.8,0-5.1-2.3-5.1-5.1s2.3-5.1,5.1-5.1h8.2c5,0.4,9.4-3.2,10-8.1v-1.5c0-2.8,2.3-5.1,5.1-5.1S252.4,367,252.4,369.8L252.4,369.8z
	 M293.3,384.6L293.3,384.6c0,1.4-0.5,2.7-1.5,3.6c-1,1-2.3,1.5-3.6,1.5H280c-5.1,0.2-10.1-1.6-13.9-5c-3.8-3.4-6-8.2-6.3-13.3v-1.5
	c0-2.8,2.3-5.1,5.1-5.1s5.1,2.3,5.1,5.1v1.5c0.5,5,5,8.6,9.9,8.1h8.2c2.7,0.1,4.9,2.3,5,5L293.3,384.6z"/>
</svg>
