<?xml version="1.0" encoding="utf-8"?>
<!-- Generator: Adobe Illustrator 26.4.1, SVG Export Plug-In . SVG Version: 6.00 Build 0)  -->
<svg version="1.1" id="Calque_1" xmlns="http://www.w3.org/2000/svg" xmlns:xlink="http://www.w3.org/1999/xlink" x="0px" y="0px"
	 viewBox="0 0 512 512" style="enable-background:new 0 0 512 512;" xml:space="preserve">
<style type="text/css">
	.st0{fill:#B57E55;}
	.st1{fill:#514136;}
	.st2{fill:#7F6654;}
</style>
<polygon class="st0" points="353.1,158.6 377.6,168.9 400.5,202.7 415.2,248.5 423.4,300.3 417.7,336.8 406.5,364.1 389.5,374.8 
	353.1,379.1 350.9,356.5 365.1,347.1 387.2,339.5 394,310.1 396.2,276.3 389.5,240.9 376.5,212.5 361.8,191.3 350.9,188 "/>
<polygon class="st1" points="106.8,244.1 91,231.6 91,160.2 122.6,131.9 334.5,136 350.9,137.9 350.9,146.6 310.2,163.1 
	305.3,199.7 303,230 290.1,243.6 "/>
<polygon class="st1" points="106.8,374.8 106.8,400.5 120.4,408.7 338.4,408.7 350.9,397.2 350.9,356.5 300,353.8 295.9,368.9 
	276.8,374.8 233.2,372.2 233.2,356.5 151,356.5 151,368.9 146.3,374.8 "/>
<polygon class="st2" points="106.8,244.1 106.8,306.8 111.4,312.8 146.3,312.8 151,319.9 151,356.5 233.2,356.5 233.2,316.9 
	241.9,306.7 293.2,312.8 300.3,364.1 350.9,356.5 350.9,146.6 330.8,153.3 310.2,163.1 304.1,209.2 303,230 290.1,243.6 "/>
<polygon class="st0" points="233.2,316.9 248.5,310.1 293.2,312.8 295.9,333.8 295.9,368.9 286.3,379.1 233.2,372.2 "/>
<polygon class="st0" points="94.4,312.8 146.3,312.8 151,319.9 151,368.9 146.3,374.8 94.4,372.2 88.3,368.9 88.3,328.6 "/>
<path d="M356.7,153.6v-5.7c0-5.9-2.3-11.6-6.5-15.7c-4.2-4.1-9.8-6.4-15.7-6.4h-46.9c-3.6-15.8-23.9-27.6-49.2-27.6
	s-45.5,11.8-49.2,27.6h-53c-13.8,0-27.1,5.5-36.8,15.3c-9.8,9.8-15.2,23-15.2,36.8v45.2v0c0,5.3,1.7,10.4,4.7,14.7
	c3.1,4.3,7.3,7.5,12.3,9.3v59.6h-1.7c-4.1,0-8,1.6-10.9,4.5c-2.9,2.9-4.5,6.8-4.5,10.9v41.7c0,4.1,1.6,8,4.5,10.9
	c2.9,2.9,6.8,4.5,10.9,4.5h1.7v12.6c0,5.8,2.3,11.4,6.5,15.6c4.1,4.1,9.7,6.4,15.6,6.5h211.5c5.8,0,11.4-2.3,15.5-6.5
	c4.1-4.1,6.4-9.7,6.4-15.6v-6.7c32.1-0.9,71.2-11.9,71.2-79.9C427.9,246.4,398.3,160.5,356.7,153.6L356.7,153.6z M356.7,194.6
	c16.3,8.9,32.9,57.6,32.9,100.9c0,39.9-15.4,48.3-32.9,49.5V194.6z M238.4,108.4c18.4,0,34.3,7.5,38.5,17.4H200
	C204.1,116,220.2,108.4,238.4,108.4z M94.4,223.1v-45.2c0-11.1,4.4-21.7,12.2-29.6c7.8-7.9,18.5-12.3,29.6-12.3h198.4
	c3.2,0,6.2,1.2,8.4,3.4c1.1,1.1,1.9,2.3,2.5,3.7h-1.3l-2.3,0.4l-2.4,0.6l-2.5,0.6l-2.1,0.7l-2.5,0.9l-1.9,0.8
	c-0.9,0.4-1.7,0.7-2.5,1.2l-1.7,0.9l-2.4,1.4l-1.7,1.1l-2.2,1.5l-1.7,1.4l-1.9,1.6c-0.6,0.5-1.1,1.1-1.7,1.6l-1.6,1.6l-1.7,2
	c-0.4,0.5-0.9,1-1.3,1.6s-1.1,1.6-1.7,2.4c-0.6,0.8-0.7,1-1,1.5c-0.4,0.5-1.1,1.8-1.6,2.8s-0.5,0.9-0.7,1.4c-0.2,0.5-1,2-1.4,3.1
	l0,0c-0.2,0.4-0.4,0.8-0.6,1.3c-0.5,1.1-0.8,2.2-1.2,3.3h0c-0.2,0.4-0.3,0.8-0.4,1.2c-0.4,1.2-0.6,2.4-0.9,3.5l-0.3,1.2
	c0,1.2-0.4,2.5-0.5,3.7v1.2v5.1V223h0c0,4.1-1.6,8-4.5,10.9c-2.9,2.9-6.8,4.5-10.9,4.5h-92.7v-10.2c6.2-1.7,11.2-6.3,13.4-12.3
	c2.2-6,1.3-12.8-2.4-18c-3.7-5.3-9.7-8.4-16.1-8.4c-6.4,0-12.5,3.1-16.1,8.4c-3.7,5.3-4.6,12-2.4,18s7.2,10.6,13.4,12.3v10.2h-72
	c-0.8,0.1-1.6,0.1-2.5,0c-3.6-0.6-6.8-2.5-9.2-5.3C95.6,230.3,94.3,226.7,94.4,223.1L94.4,223.1z M186.5,218.7
	c-3.8,0-7.3-2.3-8.8-5.8c-1.5-3.5-0.7-7.6,2-10.3c2.7-2.7,6.8-3.5,10.3-2c3.5,1.5,5.8,5,5.8,8.8c0,5.1-4.1,9.3-9.3,9.4L186.5,218.7z
	 M111.3,248.5h70.1V260c-6.2,1.7-11.2,6.3-13.4,12.3c-2.2,6-1.3,12.7,2.4,18s9.7,8.4,16.1,8.4c6.4,0,12.4-3.1,16.1-8.4
	c3.7-5.2,4.6-12,2.4-18c-2.2-6-7.2-10.6-13.4-12.3v-11.6h92.6c6.8,0,13.3-2.7,18.1-7.5c4.8-4.8,7.5-11.3,7.5-18.1v-28.2
	c-0.1-1.4-0.1-2.7,0-4.1c0-0.5,0-1,0-1.5c0-0.9,0-1.7,0.4-2.5c0.4-0.8,0.3-1.2,0.4-1.7c0.1-0.6,0.4-1.4,0.6-2.2
	c0.2-0.7,0.4-1.2,0.6-1.7c0.2-0.6,0.5-1.3,0.7-1.9l0,0c0.2-0.6,0.4-1.2,0.7-1.7l0.9-1.8l0.9-1.6l1.1-1.8l1-1.5l1.3-1.7
	c0.3-0.5,0.7-0.9,1-1.3l1.6-1.8l1-1l2-1.8l0.9-0.8l2.5-1.8l0.7-0.5c1-0.7,2.1-1.3,3.2-1.9l0,0c2.4-1.3,4.9-2.4,7.5-3.2h0.4
	c1.1-0.4,2.3-0.6,3.4-0.9l1.6-0.3l1.9-0.3l0,200.5H300l0-33.1c0-7.7-6.2-14-14-14h-44.1c-7.7,0-14,6.3-14,14v33.1h-71.3V322
	c0-4.1-1.6-8-4.5-10.9c-2.9-2.9-6.8-4.5-10.9-4.5h-29.8L111.3,248.5z M186.5,269.5c3.8,0,7.3,2.3,8.8,5.8c1.5,3.5,0.7,7.6-2.1,10.3
	c-2.7,2.7-6.8,3.5-10.3,2.1c-3.5-1.5-5.8-4.9-5.8-8.8c0-2.5,1-5,2.8-6.8c1.8-1.8,4.3-2.8,6.8-2.7L186.5,269.5z M290.1,333.8h-20.8
	v-3.6c0-2.8-2.3-5.1-5.1-5.1s-5.1,2.3-5.1,5.1v3.6h-20.9v-13.1c0-2.1,1.7-3.8,3.8-3.8h44.4c2.1,0,3.7,1.7,3.7,3.8L290.1,333.8z
	 M238.1,344.1H259v3.1c0,2.8,2.3,5.1,5.1,5.1s5.1-2.3,5.1-5.1v-3.1h20.8v21.1h0c0,1-0.4,1.9-1.1,2.6c-0.7,0.7-1.7,1.1-2.6,1.1h-44.4
	c-2.1,0-3.8-1.7-3.8-3.7L238.1,344.1z M94.4,322c0-2.8,2.3-5.1,5.1-5.1h41.7c1.4,0,2.7,0.5,3.6,1.5c1,1,1.5,2.3,1.5,3.6v11.8h-20.8
	v-3.6c0-2.8-2.3-5.1-5.1-5.1s-5.1,2.3-5.1,5.1v3.6H94.4L94.4,322z M99.5,368.9L99.5,368.9c-2.8,0-5.1-2.3-5.1-5.1v-19.7h20.9v3.1
	l0,0c0,2.8,2.3,5.1,5.1,5.1s5.1-2.3,5.1-5.1v-3.1h20.8v19.7h0c0,1.4-0.5,2.7-1.5,3.6c-1,1-2.3,1.5-3.6,1.5L99.5,368.9L99.5,368.9z
	 M346.4,391.8L346.4,391.8c0,6.5-5.2,11.8-11.7,11.8H123.2c-6.5,0-11.8-5.3-11.8-11.8v-12.6h29.8c4,0,7.9-1.6,10.8-4.4
	c2.9-2.8,4.5-6.6,4.6-10.7h71.3v1.1c0,7.7,6.3,14,14,14h44.4c7.7,0,14-6.3,14-14v-1.1h46.1L346.4,391.8z M356.7,374.8v-19.5
	c29.4-1.9,43.1-21,43.1-59.8c0-42.1-17-104.5-43.1-111.8v-19.5c32.1,7.4,61,82.2,61,141C417.6,363.9,387.6,373.8,356.7,374.8
	L356.7,374.8z"/>
</svg>
