<?xml version="1.0" encoding="utf-8"?>
<!-- Generator: Adobe Illustrator 26.4.1, SVG Export Plug-In . SVG Version: 6.00 Build 0)  -->
<svg version="1.1" id="Calque_1" xmlns="http://www.w3.org/2000/svg" xmlns:xlink="http://www.w3.org/1999/xlink" x="0px" y="0px"
	 viewBox="0 0 512 512" style="enable-background:new 0 0 512 512;" xml:space="preserve">
<style type="text/css">
	.st0{fill:#E2E1C9;stroke:#000000;stroke-miterlimit:10;}
	.st1{fill:#B2B097;stroke:#000000;stroke-miterlimit:10;}
	.st2{fill:#6D6C5E;stroke:#000000;stroke-miterlimit:10;}
</style>
<polygon class="st0" points="52,164.3 52,412.8 220,407 255.5,381.9 290,407 460,407 460,164.3 451,164.3 439.2,164.3 439.2,150.4 
	432.9,146.4 427,133.1 412,143.4 406.5,124 372.4,124 328.7,107 292,107 270.8,119 256,135 238.1,124.2 219,107 184.6,103.6 
	146,116 126.8,124 105.5,122 101,132 85,139 84,150.4 67,150.4 68,164.3 "/>
<polygon class="st1" points="52,170.2 89.3,143.4 101,143.4 101,363.5 141.2,363.5 191.6,343.1 226,351 250.9,370 250.9,385.2 
	220,407 52,407 "/>
<polygon class="st1" points="410,137 427,133.1 427,150.4 444,150.4 444,164.3 460,164.3 460,407 285.3,407 255.5,381.9 
	270.5,363.5 297,349 328.7,348 356.2,357 372.4,363.5 394,363.5 406.5,363.5 413,363.5 "/>
<polygon class="st2" points="226,402.7 255.5,381.9 285.3,407 "/>
<path d="M449.5,159.9v-13.6h-16.6v-13.3h-16.1v-14.3h-36.7c-8.3-0.9-16.4-3.1-24.1-6.6c-15.2-6.5-31.4-10.2-47.9-11
	c-10.5-0.2-20.8,2.3-30,7.4c-9.2,5.1-16.8,12.5-22.2,21.5c-5.4-9-13-16.4-22.2-21.5c-9.2-5.1-19.5-7.6-30-7.4
	c-16.5,0.7-32.7,4.5-47.9,11c-7.6,3.4-15.8,5.6-24.1,6.6H95.2v14.3H79.1v13.5H62.5v13.6H46.1v252.6h419.8V159.9L449.5,159.9z
	 M439.2,156.6v231.9h-33.6c-16.8,0-33.6-1.3-50.3-3.8c-7.2-1-15.4-2-25.6-3.2c-22-2.5-42.2,0.6-53.9,8.2l-2.6-1.8
	c7-8.2,17.4-15.8,39.8-15.8h0c13.6,0.1,27.2,2.2,40.2,6.2c12.9,4,26.2,6.1,39.7,6.3H433V156.6L439.2,156.6z M422.7,143.4v231h-29.9
	c-12.5-0.1-25-2-37-5.7c-13.8-4.2-28.2-6.4-42.6-6.6c-26.3,0-39.5,9.7-48.3,20.5l-2.6-1.8h0c4.1-8.6,10.6-15.8,18.7-20.8
	c8.1-5,17.5-7.5,27-7.3c15.3,0.7,30.3,4.2,44.3,10.2c8.8,3.9,18.1,6.4,27.6,7.2h36.7V143.4L422.7,143.4z M308.1,111.6
	c15.3,0.7,30.3,4.2,44.3,10.2c8.8,3.9,18.1,6.3,27.6,7.2h26.4v230.4h-26.4c-8.3-0.9-16.4-3.1-24.1-6.6c-15.2-6.5-31.4-10.3-47.9-11
	c-18.2-0.4-35.5,7.6-47,21.7V142.4c3.8-9.3,10.3-17.2,18.7-22.7S298.1,111.4,308.1,111.6L308.1,111.6z M105.5,129.1h26.4
	c9.6-0.8,18.9-3.3,27.6-7.2c14-6.1,29.1-9.5,44.3-10.2c10-0.3,19.9,2.5,28.3,8c8.4,5.5,14.9,13.4,18.7,22.7v221.1
	c-11.5-14.1-28.8-22-47-21.6c-16.5,0.7-32.8,4.5-47.9,11c-7.6,3.4-15.8,5.6-24.1,6.6h-26.4L105.5,129.1z M89.3,143.4h5.9v226.3h36.7
	c9.6-0.9,18.9-3.3,27.6-7.2c14-6.1,29.1-9.5,44.3-10.2c9.5-0.2,18.8,2.3,26.9,7.3c8.1,5,14.6,12.1,18.7,20.7l-2.7,1.7
	c-8.8-10.2-22-20-48.1-20h0c-14.4,0.2-28.8,2.5-42.6,6.8c-12,3.7-24.5,5.7-37,5.9H89.3L89.3,143.4z M72.7,156.9h6.3l0,227.7h40.1
	c13.4-0.2,26.7-2.3,39.5-6.3c12.9-4,26.4-6.1,39.9-6.2c22,0,32.4,7.3,39.4,15.4l-2.6,1.7c-11.8-7.3-31.6-10.2-53.4-7.8
	c-10.2,1.2-18.3,2.3-25.6,3.2l0,0c-16.6,2.6-33.4,3.9-50.3,3.8H72.7L72.7,156.9z M56.3,402.6V170.2h6l0,228.7h5.1h38.7
	c17.3,0,34.6-1.3,51.7-3.9c7.1-0.9,15.4-2,25.2-3.2c14.5-2.1,29.3-0.6,43,4.4l-9,6.6L56.3,402.6z M234.5,402.6l9.9-7.2l2.9-1.8
	c0.5-0.2,1-0.4,1.5-0.8l0.4-0.4l6.9-4.2l20.5,14.4L234.5,402.6z M455.3,402.6H294.5l-9.2-6.4h0c13.9-5.1,28.8-6.7,43.4-4.5
	c10.2,1.1,18.1,2.3,25.2,3.2c16.7,2.6,33.6,4,50.6,3.9h1.1h38.7h5.1V170.2h6.2L455.3,402.6z M126.8,173.1c0-2.8,2.3-5.1,5.1-5.1
	c8.3-0.9,16.4-3.1,24.1-6.6c15.2-6.5,31.4-10.3,47.9-11c13.2-0.2,26.2,4,36.8,11.9c2.1,1.8,2.5,4.9,0.8,7c-1.7,2.2-4.7,2.7-7,1.1
	c-8.9-6.6-19.7-10-30.7-9.8c-15.3,0.7-30.3,4.2-44.3,10.2c-8.7,3.9-18.1,6.4-27.6,7.2C129,178,126.8,175.8,126.8,173.1L126.8,173.1z
	 M126.8,202L126.8,202c0-2.8,2.3-5.1,5.1-5.1c8.3-0.9,16.4-3.2,24.1-6.6c15.2-6.5,31.4-10.3,47.9-11.1c9.8-0.1,19.6,2.1,28.4,6.5
	c2.5,1.3,3.5,4.4,2.2,6.9c-1.3,2.5-4.4,3.5-6.9,2.2c-7.4-3.6-15.5-5.3-23.7-5.1c-15.3,0.7-30.3,4.2-44.3,10.2
	c-8.8,3.9-18.1,6.4-27.6,7.2c-1.4,0-2.7-0.5-3.6-1.5C127.3,204.7,126.7,203.4,126.8,202L126.8,202z M237.6,223.6L237.6,223.6
	c-0.7,1.2-1.9,2.1-3.3,2.4s-2.8,0-4-0.7c-8.1-4.8-17.3-7.2-26.7-7c-15.3,0.7-30.3,4.2-44.3,10.2c-8.7,3.9-18.1,6.4-27.6,7.2
	c-2.8,0-5.1-2.3-5.1-5.1s2.3-5.1,5.1-5.1c8.3-0.9,16.4-3.1,24.1-6.6c15.2-6.5,31.4-10.3,47.9-11c11.2-0.2,22.3,2.8,32,8.5
	c1.2,0.7,2.1,1.8,2.5,3.2C238.6,221,238.4,222.4,237.6,223.6L237.6,223.6z M126.8,259.5L126.8,259.5c0-2.8,2.3-5.1,5.1-5.1
	c8.3-0.9,16.4-3.1,24.1-6.6c15.2-6.5,31.4-10.2,47.9-11c7.3,0.1,14.5,1.3,21.4,3.8c2.6,0.9,4,3.8,3.1,6.5c-0.9,2.7-3.8,4.1-6.5,3.2
	c-5.8-2-11.9-3-18-2.9c-15.3,0.7-30.3,4.2-44.3,10.2c-8.7,3.9-18.1,6.4-27.6,7.2c-1.4,0-2.7-0.6-3.7-1.5c-1-1-1.5-2.3-1.5-3.7
	L126.8,259.5z M234.3,279L234.3,279c-1.3,2.5-4.3,3.5-6.9,2.3c-7.4-3.6-15.5-5.3-23.7-5.1c-15.3,0.7-30.3,4.2-44.3,10.2
	c-8.8,3.9-18.1,6.4-27.6,7.2c-2.8,0-5.1-2.3-5.1-5.1s2.3-5.1,5.1-5.1c8.3-0.9,16.4-3.2,24.1-6.6c15.2-6.5,31.4-10.2,47.9-11
	c9.8-0.1,19.5,2.1,28.3,6.5c1.2,0.6,2.2,1.6,2.7,2.9c0.5,1.3,0.4,2.7-0.2,4L234.3,279z M159.4,314.8L159.4,314.8
	c-8.7,4.1-18,6.7-27.5,7.7c-2.8,0-5.1-2.3-5.1-5.1s2.3-5.1,5.1-5.1c8.3-0.9,16.4-3.1,24.1-6.6c15.2-6.5,31.4-10.3,47.9-11h1.3
	c2.8,0,5.1,2.3,5.1,5.1s-2.3,5.1-5.1,5.1h-1.3c-15.3,0.7-30.3,4.2-44.3,10.2L159.4,314.8z M271.9,169.5c-1.7-2.3-1.2-5.5,1-7.2
	c10.6-8,23.6-12.2,36.9-11.9c16.5,0.7,32.7,4.5,47.9,11c7.6,3.4,15.8,5.6,24.1,6.6c2.8,0,5.1,2.3,5.1,5.1c0,2.8-2.3,5.1-5.1,5.1
	c-9.5-0.8-18.9-3.3-27.6-7.2c-14.1-6.1-29.1-9.5-44.4-10.2c-11-0.3-21.9,3.2-30.7,9.8c-1.1,0.8-2.5,1.2-3.8,1
	C273.9,171.3,272.7,170.6,271.9,169.5L271.9,169.5z M271.9,198.3c-1.7-2.3-1.2-5.5,1-7.2c10.6-8,23.6-12.2,36.9-11.9
	c16.4,0.7,32.5,4.4,47.6,10.8l4.5,1.7l0,0c2.3,0.8,3.7,3.2,3.3,5.7c-0.4,2.4-2.6,4.2-5,4.2c-0.6,0-1.2-0.1-1.7-0.3l-4.5-1.6
	c-14-6-28.9-9.5-44.1-10.2c-11-0.2-21.8,3.2-30.7,9.7c-1.1,0.8-2.4,1.2-3.8,1.1C273.9,200.1,272.7,199.4,271.9,198.3L271.9,198.3z
	 M386.9,230.8c0,1.4-0.5,2.7-1.5,3.6c-1,1-2.3,1.5-3.6,1.5c-9.5-0.8-18.9-3.3-27.6-7.2c-14.1-6.1-29.1-9.5-44.4-10.2
	c-11-0.3-21.9,3.2-30.7,9.8c-1.1,1-2.5,1.5-3.9,1.4c-1.4-0.1-2.8-0.8-3.6-2c-0.9-1.1-1.2-2.6-1-4c0.3-1.4,1.1-2.7,2.3-3.4
	c10.6-7.9,23.6-12.1,36.9-11.8c16.5,0.7,32.7,4.5,47.9,11c7.6,3.4,15.8,5.6,24.1,6.6C384.5,225.9,386.8,228.1,386.9,230.8
	L386.9,230.8z M271.9,256c-0.8-1.1-1.2-2.5-1-3.8s0.9-2.6,2-3.4c10.7-7.9,23.7-12.1,37-11.8c16.6,0.7,32.8,4.5,48.1,11
	c3.9,1.4,7.5,2.8,11,3.9c2.4,0.8,3.9,3.2,3.5,5.7c-0.4,2.5-2.5,4.3-5,4.3c-0.5,0.1-1,0.1-1.5,0c-3.6-1.2-7.4-2.6-11.5-4.1v0
	c-14.1-6.1-29.2-9.5-44.5-10.2c-11-0.3-21.8,3.2-30.7,9.7c-1.1,0.8-2.5,1.1-3.9,0.9C273.8,257.9,272.6,257.1,271.9,256L271.9,256z
	 M386.9,288.5c0,1.4-0.5,2.7-1.5,3.6c-1,1-2.3,1.5-3.6,1.5c-9.5-0.9-18.9-3.3-27.6-7.2c-14.1-6.1-29.1-9.5-44.4-10.2
	c-11-0.3-21.9,3.2-30.7,9.8c-1.1,0.8-2.5,1.2-3.8,1c-1.4-0.2-2.6-0.9-3.4-2c-1.7-2.3-1.2-5.5,1-7.2c10.6-7.9,23.6-12.1,36.9-11.8
	c16.5,0.7,32.7,4.4,47.9,11c7.6,3.4,15.7,5.7,24.1,6.6C384.6,283.4,386.9,285.7,386.9,288.5L386.9,288.5z M364.6,313.7
	c-0.7,2-2.6,3.3-4.8,3.3c-0.6,0-1.2-0.1-1.8-0.3l-3.9-1.4c-14.1-6.1-29.1-9.5-44.4-10.2c-11-0.2-21.8,3.2-30.7,9.8
	c-1.1,1-2.5,1.4-3.9,1.3c-1.4-0.1-2.7-0.9-3.6-2c-0.9-1.1-1.2-2.6-0.9-4c0.3-1.4,1.1-2.6,2.3-3.4c10.6-8,23.6-12.1,36.9-11.9
	c16.5,0.8,32.8,4.5,48,11.1l3.8,1.4C364.3,308.2,365.6,311.1,364.6,313.7L364.6,313.7z"/>
</svg>
