<?xml version="1.0" encoding="utf-8"?>
<!-- Generator: Adobe Illustrator 26.4.1, SVG Export Plug-In . SVG Version: 6.00 Build 0)  -->
<svg version="1.1" id="Calque_1" xmlns="http://www.w3.org/2000/svg" xmlns:xlink="http://www.w3.org/1999/xlink" x="0px" y="0px"
	 viewBox="0 0 512 512" style="enable-background:new 0 0 512 512;" xml:space="preserve">
<style type="text/css">
	.st0{fill:#775029;stroke:#000000;stroke-miterlimit:10;}
	.st1{fill:#B5743A;stroke:#000000;stroke-miterlimit:10;}
	.st2{fill:#4C2E13;stroke:#000000;stroke-miterlimit:10;}
	.st3{fill:#8E8C8B;stroke:#000000;stroke-miterlimit:10;}
</style>
<polygon class="st0" points="89.9,231 106,208.3 256,102 422.1,225.6 407,239.6 393.9,250 400.5,292 393.9,318.2 405,344.2 
	393.9,375.6 405,404 393.9,430 400.5,454.5 111.5,454.5 118.2,432.8 107,404 118.2,386 111.5,344.2 118.2,318.4 111.5,291 
	118.2,261.2 111.5,239.6 "/>
<polygon class="st1" points="68.3,239.6 61,261.2 77,289 61,311 77,344.2 61,370 77,404 61,430 69,454.5 89.9,460 111.5,454.5 
	118.2,432.8 117.9,419 107,404 118.2,386 118.2,364 107,344.2 118.2,327 117.9,304 107,290 118.2,261.2 111.5,239.6 98.2,234.3 "/>
<polygon class="st1" points="417.2,230.2 393.9,250 400.5,282.9 393.9,318.2 405,344.2 393.9,375.6 405,404 393.9,430 403,462.8 
	428,462.8 450,448.8 450,425 437,403 450,388 450,366 443.3,347 444.4,331 450,324 455.8,307 436,292 444.4,278.2 457.3,255.8 
	444.4,239.6 "/>
<polygon class="st2" points="28.8,214 23,234.3 38,249 93.7,225.6 256,102 457.3,249 489.4,246.5 489.4,217 413.8,159.7 291,67 
	259.1,48 216.1,74.1 "/>
<rect x="163.6" y="234.3" class="st1" width="102.4" height="220.1"/>
<polygon class="st3" points="383,68 449,68 449,186.4 379,128.4 "/>
<path d="M497,222.9c-0.9-8.6-5.4-16.4-12.3-21.5l-26.3-19.3V67.2c0-1.9-0.7-3.6-2.1-5s-3.1-2-4.9-2H383c-3.9,0-7,3.1-7,7v54.5
	l-95.5-70.1c-7.1-5.2-15.7-7.9-24.5-7.9c-8.8,0-17.4,2.8-24.5,7.9L27.3,201.4c-7,5.1-11.4,12.9-12.3,21.5
	c-0.9,8.6,1.9,17.1,7.6,23.6l0.3,0.4c3.9,4.4,9,7.6,14.6,9.2c5.7,1.6,11.6,1.5,17.2-0.2c-1,6.4-0.2,13,2.2,19
	c2.5,6,6.5,11.2,11.8,15.1c-9.1,6.7-14.4,17.3-14.4,28.6s5.4,21.9,14.4,28.6c-9.1,6.7-14.4,17.3-14.4,28.6
	c0,11.3,5.4,21.9,14.4,28.6c-10,7.4-15.5,19.4-14.4,31.8c1.1,12.4,8.6,23.3,19.8,28.8c11.2,5.5,24.4,4.7,34.9-2h294
	c10.5,6.6,23.6,7.4,34.8,1.9c11.1-5.5,18.6-16.3,19.7-28.7c1.1-12.3-4.3-24.4-14.2-31.8c9.1-6.7,14.4-17.3,14.4-28.6
	c0-11.3-5.4-21.9-14.4-28.6c9.1-6.7,14.4-17.3,14.4-28.6s-5.4-21.9-14.4-28.6c5.2-3.9,9.3-9.1,11.8-15.1c2.5-6,3.2-12.6,2.2-19
	c5.6,1.7,11.6,1.8,17.2,0.2c5.6-1.6,10.7-4.8,14.6-9.2l0.3-0.4C495.2,240,497.9,231.5,497,222.9L497,222.9z M390,74.1h54.4v97.7
	L390,131.9V74.1z M210.3,142.4h91.4l46.6,34.6l-184.7,0L210.3,142.4z M229.1,128.4l23.3-17.3c2.1-1.6,5.1-1.6,7.2,0l23.3,17.3H229.1
	z M144.8,191h222.3l46.6,34.6H98.2L144.8,191z M159.2,282.8h-41h0c4.8-6.2,7.3-13.8,7.3-21.6s-2.6-15.4-7.3-21.6h41L159.2,282.8z
	 M159.2,296.8v42.9l-40.7,0c4.6-6.2,7.1-13.7,7.1-21.5c-0.1-7.7-2.6-15.2-7.3-21.4L159.2,296.8z M159.2,353.6v43.6h-41l0,0
	c4.8-6.3,7.4-14,7.3-21.9c-0.1-7.9-2.7-15.6-7.6-21.8L159.2,353.6z M159.2,411.2v37.6l-37.5,0c3-6,4.3-12.7,3.7-19.3
	c-0.6-6.7-3.1-13-7.2-18.3L159.2,411.2z M173.2,239.6h85.9v209.2h-86L173.2,239.6z M273,411.2h120.9c-4.1,5.3-6.6,11.6-7.2,18.3
	c-0.6,6.7,0.7,13.4,3.7,19.3H273L273,411.2z M273,397.2v-43.6h121.2c-4.9,6.2-7.6,13.9-7.6,21.8c-0.1,7.9,2.5,15.6,7.4,21.9
	L273,397.2z M273,339.6v-42.8h120.9c-4.7,6.1-7.3,13.6-7.3,21.4c-0.1,7.7,2.4,15.3,7.1,21.5L273,339.6z M273,282.8v-43.2h120.9
	c-4.8,6.2-7.4,13.8-7.4,21.6c0,7.8,2.6,15.4,7.4,21.6L273,282.8z M68.3,261.2c0-5.7,2.3-11.2,6.3-15.3c4.1-4.1,9.6-6.3,15.3-6.3
	c5.7,0,11.2,2.3,15.3,6.3c4.1,4.1,6.3,9.6,6.3,15.3c0,5.7-2.3,11.2-6.3,15.3c-4.1,4.1-9.6,6.3-15.3,6.3c-5.7,0-11.2-2.3-15.3-6.3
	C70.6,272.5,68.3,267,68.3,261.2L68.3,261.2z M68.3,318.4c0-5.7,2.3-11.2,6.3-15.3c4.1-4.1,9.6-6.3,15.3-6.3
	c5.7,0,11.2,2.3,15.3,6.3c4.1,4.1,6.3,9.6,6.3,15.3c0,5.7-2.3,11.2-6.3,15.3c-4.1,4.1-9.6,6.3-15.3,6.3c-5.7,0-11.2-2.3-15.3-6.3
	C70.6,329.7,68.3,324.2,68.3,318.4L68.3,318.4z M68.3,375.6L68.3,375.6c0-5.7,2.3-11.2,6.3-15.3c4.1-4.1,9.6-6.3,15.3-6.3
	c5.7,0,11.2,2.3,15.3,6.3c4.1,4.1,6.3,9.6,6.3,15.3c0,5.7-2.3,11.2-6.3,15.3c-4.1,4.1-9.6,6.3-15.3,6.3c-5.7,0-11.2-2.3-15.3-6.3
	C70.6,386.9,68.3,381.4,68.3,375.6L68.3,375.6z M68.3,432.8L68.3,432.8c0-7.5,3.9-14.4,10.2-18.4c6.4-4,14.3-4.3,21-1
	c6.7,3.3,11.2,9.9,11.9,17.3c0.7,7.4-2.5,14.7-8.4,19.3c-0.2,0.1-0.4,0.3-0.6,0.5c-4.3,3.1-9.6,4.4-14.9,3.9
	c-5.3-0.6-10.1-3.1-13.7-7.1C70.2,443.3,68.3,438.1,68.3,432.8L68.3,432.8z M443.7,432.8L443.7,432.8c0,5.3-1.9,10.4-5.5,14.4
	c-3.5,4-8.4,6.5-13.7,7.1c-5.3,0.6-10.6-0.8-14.9-3.9c-0.2-0.2-0.4-0.3-0.6-0.4c-5.9-4.5-9.1-11.8-8.4-19.3
	c0.7-7.4,5.2-14,11.9-17.3c6.7-3.3,14.6-2.9,21,1C439.9,418.4,443.7,425.4,443.7,432.8L443.7,432.8z M443.7,375.6L443.7,375.6
	c0,5.7-2.3,11.2-6.3,15.3c-4.1,4.1-9.6,6.3-15.3,6.3c-5.7,0-11.2-2.3-15.3-6.3c-4.1-4.1-6.3-9.6-6.3-15.3c0-5.7,2.3-11.2,6.3-15.3
	c4.1-4.1,9.6-6.3,15.3-6.3c5.7,0,11.2,2.3,15.3,6.3C441.4,364.4,443.7,369.9,443.7,375.6L443.7,375.6z M443.7,318.4
	c0,5.7-2.3,11.2-6.3,15.3c-4.1,4.1-9.6,6.3-15.3,6.3c-5.7,0-11.2-2.3-15.3-6.3c-4.1-4.1-6.3-9.6-6.3-15.3c0-5.7,2.3-11.2,6.3-15.3
	c4.1-4.1,9.6-6.3,15.3-6.3c5.7,0,11.2,2.3,15.3,6.3C441.4,307.2,443.7,312.7,443.7,318.4L443.7,318.4z M422.1,282.9
	c-5.7,0-11.2-2.3-15.3-6.3c-4.1-4.1-6.3-9.6-6.3-15.3c0-5.7,2.3-11.2,6.3-15.3c4.1-4.1,9.6-6.3,15.3-6.3c5.7,0,11.2,2.3,15.3,6.3
	c4.1,4.1,6.3,9.6,6.3,15.3c0,5.7-2.3,11.2-6.3,15.3C433.3,280.6,427.8,282.8,422.1,282.9L422.1,282.9z M479,237.2l-0.3,0.4
	c-2.8,3.1-6.6,5.1-10.8,5.5c-4.1,0.4-8.3-0.7-11.6-3.2l-82-61c-0.3-0.3-0.7-0.6-1.1-0.8L268,99.9c-3.4-2.6-7.6-4-11.9-4
	c-4.3,0-8.5,1.4-11.9,4l-105.2,78.1c-0.4,0.2-0.8,0.5-1.1,0.8l-82.1,61c-3.3,2.5-7.5,3.7-11.6,3.2c-4.2-0.4-8-2.4-10.8-5.5l-0.3-0.4
	v0c-3.1-3.5-4.6-8.2-4.1-12.8c0.5-4.7,2.9-8.9,6.7-11.7L239.7,62.8c4.8-3.4,10.5-5.3,16.3-5.3c5.9,0,11.6,1.8,16.3,5.3l204.1,149.8
	c3.8,2.8,6.2,7,6.7,11.7C483.6,229,482.1,233.7,479,237.2L479,237.2z"/>
</svg>
