<?xml version="1.0" encoding="utf-8"?>
<!-- Generator: Adobe Illustrator 26.4.1, SVG Export Plug-In . SVG Version: 6.00 Build 0)  -->
<svg version="1.1" id="Calque_1" xmlns="http://www.w3.org/2000/svg" xmlns:xlink="http://www.w3.org/1999/xlink" x="0px" y="0px"
	 viewBox="0 0 512 512" style="enable-background:new 0 0 512 512;" xml:space="preserve">
<style type="text/css">
	.st0{fill:#72706E;stroke:#000000;stroke-miterlimit:10;}
	.st1{fill:#E5C505;stroke:#000000;stroke-miterlimit:10;}
	.st2{fill:#E07E3B;}
	.st3{fill:#939158;}
</style>
<polygon class="st0" points="99,386 66,416 66,457 92,472.2 123,480 158,451 180,471.8 217,480 255.8,456 280,471.8 312,480 
	338,466 352,453 384,480 424,472.2 445,452 445,414 425,391.8 400,386 364,401 352,413 335,392 312,386 280,391.8 264,408 239,392 
	208.2,383 178,392 168.3,410 156,411 145,392 "/>
<polygon class="st1" points="208.2,383 159,360 132.8,311 125,267 125,225.3 132.8,214 158,250 176,256 168.3,206 168.3,160 
	179,118 193,103 208.2,147 219,157 235,133 248,84 256,42 280,69 296,113 304,150 312,151 333,134 338,115 352,161 360,206 354,234 
	360,238 384,225.3 400,212.5 400,256 383,315 365,351 336,376 304,383 264,398 248,398 "/>
<ellipse class="st2" cx="255.5" cy="329" rx="43.1" ry="69"/>
<ellipse class="st3" cx="119.4" cy="397.9" rx="24.4" ry="9.9"/>
<ellipse class="st3" cx="216.5" cy="396.4" rx="15.5" ry="11.4"/>
<ellipse class="st3" cx="297" cy="399.4" rx="15" ry="8.4"/>
<ellipse class="st3" cx="395.5" cy="397.9" rx="15.5" ry="9.9"/>
<path d="M280.3,350.1c-1.2-4.2,1.2-8.7,5.4-9.9c11.1-3.2,21.2-9.3,29.1-17.8c5.7-6.3,10.3-13.4,13.9-21.1c2-3.9,6.7-5.5,10.7-3.7
	c1.9,0.9,3.4,2.6,4.1,4.6c0.7,2,0.6,4.2-0.4,6.1c-4,9.1-9.4,17.5-16,25c-9.9,10.5-22.4,18.2-36.3,22.2h-2.2
	C284.9,355.9,281.5,353.6,280.3,350.1L280.3,350.1z M456,432c0,16.5-7.2,32.1-19.8,42.7c-12.6,10.6-29.2,15.2-45.4,12.4
	c-16.2-2.8-30.4-12.6-38.7-26.8c-9.9,17.1-28.2,27.6-48,27.6s-38.1-10.5-48-27.6c-9.9,17.1-28.2,27.6-48,27.6s-38.1-10.5-48-27.6
	c-8.3,14.2-22.6,24.1-38.8,26.9c-16.3,2.8-32.9-1.7-45.6-12.4C63,464.2,55.7,448.5,55.7,432s7.3-32.2,19.9-42.8
	c12.6-10.6,29.3-15.2,45.6-12.4c16.3,2.8,30.5,12.6,38.8,26.9c4.5-7.9,10.8-14.7,18.4-19.7c-17.8-10.9-32.2-26.5-41.6-45.1
	c-20-41.5-25.6-88.4-16-133.4c1-3.2,3.9-5.3,7.2-5.4c3.6-0.2,6.8,2,7.8,5.4c5.1,15.8,15.1,29.6,28.6,39.4
	c-6.9-25.6-8.5-52.3-4.9-78.6c3.6-26.3,12.4-51.5,25.9-74.4c1.9-3,5.5-4.5,9-3.5c3.4,1,5.7,4.2,5.6,7.7c0.1,19.2,7.2,37.6,20,51.8
	c14.9-37,24.3-76.1,28-115.8c0-3.6,2.4-6.8,5.8-7.8c3.5-1,7.2,0.5,9,3.6c1.8,3,40.8,68.5,48,117.8c10.3-8.2,16.6-20.4,17.1-33.6
	c-0.1-3.9,2.7-7.2,6.6-7.8c3.7-0.8,7.5,1.2,8.8,4.8c1.3,3.2,28.2,71.2,19.4,121.1v0c13.2-3.8,24.2-13.1,30.1-25.6
	c1.6-3.3,5.1-5.1,8.7-4.4c3.6,0.7,6.2,3.7,6.5,7.3c0,5.4,9.4,128-71.5,179.2c6.5,4.5,12,10.3,16,17.1c8.5-13.9,22.6-23.4,38.6-26
	c16.1-2.6,32.5,1.8,44.9,12.3C448.5,400.4,455.8,415.7,456,432L456,432z M197.1,377.1c17.8-3.4,36.1,1.9,49.3,14.2
	c6.3,0.6,12.6,0.6,18.9,0c7.1-6.9,15.9-11.8,25.6-14.1c9.6-2.3,19.7-2,29.2,1c60.8-30.9,71.5-108,73-146.7
	c-11.2,9.8-25.3,15.4-40.2,16c-2.6,0-5-1.3-6.6-3.4c-1.5-2.1-1.9-4.8-1-7.2c9.6-29,0-71.5-7.7-98.1v0c-7.1,11.7-17.2,21.3-29.3,27.8
	c-2.4,1.2-5.3,1.2-7.7,0c-2.6-1.3-4.4-3.8-4.6-6.7c0-30.1-20.5-74.6-34.4-101.3c-6.7,35.7-16.8,70.6-30.2,104.3
	c-0.8,2.1-2.4,3.7-4.5,4.5c-2,0.9-4.4,0.9-6.4,0c-16.6-9.8-28.2-26.2-32-45.1c-16.9,41.8-18.5,88.2-4.3,131c1.1,2.4,0.8,5.2-0.8,7.4
	c-1.4,2.2-3.9,3.6-6.6,3.5c-18.5-1.6-34.9-12.5-43.5-29c-2.4,33.6,4.1,67.1,18.7,97.4C161.8,352.1,177.6,367.7,197.1,377.1
	L197.1,377.1z M152,432c0-10.6-4.2-20.8-11.7-28.3c-7.5-7.5-17.7-11.7-28.3-11.7s-20.8,4.2-28.3,11.7C76.2,411.2,72,421.4,72,432
	s4.2,20.8,11.7,28.3c7.5,7.5,17.7,11.7,28.3,11.7s20.8-4.2,28.3-11.7C147.8,452.8,152,442.6,152,432z M248,432
	c-0.1-10.6-4.4-20.7-11.9-28.1c-7.5-7.5-17.6-11.7-28.1-11.9c-3.4,0.1-6.7,0.5-9.9,1.4c-9.7,2.5-18,8.6-23.4,17
	c-5.4,8.4-7.5,18.5-5.8,28.3c1.7,9.8,7,18.7,14.9,24.8c7.9,6.1,17.8,9,27.7,8.2c9.9-0.8,19.2-5.4,26-12.7S248,442,248,432L248,432z
	 M344,432c-0.1-8.3-2.6-16.3-7.4-23c-4.8-6.7-11.5-11.8-19.3-14.6c-4.3-1.6-8.8-2.4-13.3-2.4c-11.2,0-21.8,4.7-29.3,13
	c-9,9.7-12.7,23.2-9.7,36.2c3,12.9,12.1,23.5,24.5,28.4c12.3,4.8,26.3,3.2,37.2-4.3S344.1,445.3,344,432L344,432z M440,432
	c0-10.6-4.2-20.8-11.7-28.3c-7.5-7.5-17.7-11.7-28.3-11.7s-20.8,4.2-28.3,11.7c-7.5,7.5-11.7,17.7-11.7,28.3s4.2,20.8,11.7,28.3
	c7.5,7.5,17.7,11.7,28.3,11.7s20.8-4.2,28.3-11.7C435.8,452.8,440,442.6,440,432z"/>
</svg>
