<?xml version="1.0" encoding="utf-8"?>
<!-- Generator: Adobe Illustrator 26.4.1, SVG Export Plug-In . SVG Version: 6.00 Build 0)  -->
<svg version="1.1" id="Calque_1" xmlns="http://www.w3.org/2000/svg" xmlns:xlink="http://www.w3.org/1999/xlink" x="0px" y="0px"
	 viewBox="0 0 512 512" style="enable-background:new 0 0 512 512;" xml:space="preserve">
<style type="text/css">
	.st0{fill:#93AAC1;}
	.st1{fill:#093472;}
	.st2{fill:#3F81E0;}
	.st3{fill:#BFAF94;}
	.st4{fill:#363E44;}
</style>
<polygon class="st0" points="209,15.7 167.8,51.4 139.5,96.9 134,150 134,227.5 134,256.5 150,271.8 187,276 273,276 343.9,276 
	367,271.8 378,256 378,158.4 378,96.9 348,51.4 313.5,23 279.5,11 "/>
<polygon class="st1" points="223,51.4 187,83 173.9,118 178.7,158.4 198.4,187 234.1,208 267.6,208 296.7,199.8 321,178.9 
	337.8,143.8 337.8,113.6 326.9,76.3 303,60 279.5,47 "/>
<polygon class="st2" points="244.6,83 219,96.9 209,124.9 214.9,149 234.1,168 262.8,172 292,158.4 303,130.4 296.7,101 275,83 "/>
<polygon class="st0" points="238,271.8 238,304.8 204,321 173.9,358.3 167.8,388 167.8,429.5 173.9,441 222,436 217.4,412.2 
	192,412.2 193,373.4 209,349 238,330 267.6,329 296.7,342 313.5,361.9 319,392 319,412.2 289,417 288,436 333,441 343.9,436 
	343.9,373.4 322,334.6 292,310.6 273,310.6 273,276 "/>
<polygon class="st0" points="97.7,199.8 105.4,220 115.7,234.5 111,256.5 105.4,267 97.7,261.7 79.7,256.5 65.7,254.9 "/>
<polygon class="st0" points="60.7,291.6 47,356.4 30.1,373.3 25,402 45.6,415.8 51.8,379.1 79.1,389.1 70,412.2 90.7,415.8 
	97.7,384 85,361.9 91.3,300.4 79.7,304.8 "/>
<polygon class="st0" points="390,233.4 406.3,267 420.5,256.5 441,256 411.9,199.8 406.3,223 "/>
<polygon class="st0" points="415.5,300.4 427,358.4 413.9,383 420.5,415.8 441,412.2 437.1,382.8 466.1,383.6 469.7,404.2 486,406 
	481.5,369 469.6,355.8 451,291.6 441,304.9 "/>
<polygon class="st3" points="134,168 117,168 105.4,184 99.9,205.6 110.8,227.5 134,237.9 "/>
<polygon class="st3" points="79.7,256.5 60.7,261.8 55,280.7 61.4,299.7 79.7,304.8 101,302.7 105.4,280.6 99.9,267 "/>
<polygon class="st3" points="378,168 378,233.4 395.9,227.5 411.9,208 413.9,184.3 396,172 "/>
<polygon class="st3" points="420.5,256.5 406.3,271.8 410.6,302.4 431.9,304.9 451,291.6 455,271.8 441,256 "/>
<polygon class="st4" points="228.4,373.3 224,471 234.1,497.2 262.8,502 283.3,490 289,451 289,373.4 279.5,358.4 255.8,353.7 
	234.1,358.3 "/>
<g>
	<path d="M246,150.6l25.8-25.8l7.7,7.7l-25.8,25.8L246,150.6z"/>
	<path d="M234.1,122.7l25.8-25.8l7.7,7.7l-25.8,25.8L234.1,122.7z"/>
	<path d="M459.9,411.4c0.5,3,3.4,4.9,6.3,4.4l22.5-3.9c1.4-0.2,2.7-1.1,3.5-2.2c0.8-1.2,1.2-2.7,0.9-4.1l-4.6-25.9
		c-1.9-10.9-9-19.8-19-23.9l-11.9-61.5c2.1-4.1,3.5-8.7,3.5-13.6c0-11.1-6.2-20.7-15.2-25.9l-29.3-61.6
		c-2.9-16.7-16.4-29.8-33.3-32.2v-30.2c0-69.4-57.1-126-127.3-126s-127.3,56.5-127.3,126V161c-17.1,2.3-30.7,15.5-33.5,32.2
		l-29.4,61.7c-9,5.2-15.2,14.7-15.2,25.8c0,4.9,1.3,9.5,3.5,13.6l-12,61.5c-10,4.2-17.1,13.1-19,23.9l-4.6,26
		c-0.3,1.4,0.1,2.9,0.9,4.1s2.1,2,3.5,2.2l22.8,3.9c1.4,0.2,2.9-0.1,4.1-0.9c1.2-0.8,2-2.1,2.2-3.5l3.5-20.6l12,1.9L64,413.6
		c-0.2,1.4,0.1,2.9,0.9,4.1s2.1,2,3.6,2.2l22.5,3.7c0.3,0.1,0.6,0.1,0.9,0.1c2.6,0,4.9-1.9,5.4-4.5l4.6-26.1
		c1.8-11.6-3-23.5-12.3-30.6l11.4-59.7c6-5.5,9.9-13.3,9.9-22c0-2.2-0.3-4.3-0.7-6.4l15.9-36.1c0.8,0.2,1.7,0.3,2.5,0.4v8.2
		c0,19.8,16.2,36,36.1,36h68.9v19.8c-40.5,9.9-70.7,46-70.7,89v50c0,3,2.4,5.5,5.5,5.5h49v30.2c0,17.1,14,31,31.3,31h14.2
		c17.2,0,31.3-13.9,31.3-31v-30.2h49c3,0,5.5-2.4,5.5-5.5v-50c0-43-30.1-79.1-70.4-89v-19.8H347c20,0,36.3-16.1,36.3-36v-8.2
		c0.8-0.1,1.6-0.2,2.3-0.4l16,36.4c-0.4,2-0.6,4-0.6,6.1c0,8.6,3.7,16.3,9.6,21.8l11.7,59.9c-9.5,7.1-14.3,19-12.2,30.7l4.4,26
		c0.4,2.7,2.8,4.6,5.4,4.6c0.3,0,0.6,0,0.9-0.1l22.8-3.7c1.4-0.2,2.7-1,3.6-2.2c0.8-1.2,1.2-2.7,0.9-4.1l-3.6-20.7l12-1.9
		L459.9,411.4z M80.7,261.7c10.6,0,19.3,8.5,19.3,19s-8.6,19-19.3,19c-10.6,0-19.3-8.5-19.3-19C61.4,270.2,70.1,261.7,80.7,261.7z
		 M80.8,369.5c7.5,4.4,11.6,13.1,10.3,21.6l-3.7,20.7l-11.8-1.9l3.5-20.8c0.2-1.4-0.1-2.9-1-4.1c-0.8-1.2-2.1-2-3.6-2.2l-22.8-3.7
		c-3-0.5-5.8,1.5-6.3,4.5l-3.5,20.6l-11.9-2l3.6-20.6c1.3-7.7,7.1-14.2,14.6-16.5c1.9-0.6,3.4-2.2,3.8-4.2l11-56.1
		c5,3.6,11,5.8,17.7,5.8c2.8,0,5.4-0.5,7.9-1.2l-10.4,54.4C77.7,366.1,78.8,368.4,80.8,369.5L80.8,369.5z M103.8,261.7
		c-5.5-6.6-13.8-10.9-23.1-10.9c-0.3,0-0.6,0.1-1,0.1l17.5-36.8c3.5,8.8,10.1,16.1,18.5,20.4L103.8,261.7z M105.4,199.8
		c0-13.8,10-25.2,23.2-27.7v55.5C115.4,225,105.4,213.5,105.4,199.8z M283.3,477.1c0,11.1-9.1,20.1-20.4,20.1h-14.2
		c-11.2,0-20.4-9-20.4-20.1v-95.2c0-11.1,9.1-20.1,20.4-20.1h14.2c11.2,0,20.4,9,20.4,20.1V477.1z M262.9,350.9h-14.2
		c-17.2,0-31.3,13.9-31.3,31v30.2h-19.3v-20.7c0-31.3,25.9-56.8,57.8-56.8c31.7,0,57.5,25.5,57.5,56.8v20.7h-19.3v-30.2
		C294.2,364.8,280.2,350.9,262.9,350.9L262.9,350.9z M337.8,391.4V436h-43.6v-12.9h24.7c3,0,5.5-2.4,5.5-5.5v-26.2
		c0-37.4-30.7-67.8-68.5-67.8c-37.9,0-68.7,30.4-68.7,67.8v26.2c0,3,2.4,5.5,5.5,5.5h24.7V436h-43.6v-44.5
		c0-44.6,36.8-80.9,82.1-80.9C301.1,310.6,337.8,346.9,337.8,391.4L337.8,391.4z M267.3,300.4c-3.7-0.5-7.5-0.8-11.4-0.8
		s-7.6,0.3-11.4,0.8v-17.7h22.8V300.4z M372.3,246.7c0,13.8-11.4,25-25.4,25H164.7c-10.2,0-18.9-6.1-22.9-14.8h60.5V246h-62.8v-14.9
		h43.4v-10.9h-43.4v-14.9h27.4v-10.9h-27.4v-63.8c0-63.4,52.2-115,116.4-115s116.4,51.6,116.4,115V246.7z M431.2,299.7
		c-10.6,0-19.3-8.5-19.3-19s8.6-19,19.3-19c10.5,0,19,8.5,19,19S441.7,299.7,431.2,299.7z M383.3,172c13.1,2.5,23,14,23,27.7
		s-9.9,25.2-23,27.7V172z M395.9,234.6c8.4-4.4,15-11.6,18.5-20.5l17.5,36.8c-0.3,0-0.5-0.1-0.8-0.1c-9.4,0-17.7,4.4-23.2,11.1
		L395.9,234.6z M437.1,382.8c-1.4,0.2-2.7,1-3.6,2.2c-0.8,1.2-1.2,2.7-0.9,4.1l3.6,20.7l-11.9,1.9l-3.5-20.7
		c-1.5-8.5,2.6-17.2,10.3-21.6c2-1.2,3.1-3.5,2.6-5.8l-10.6-54.4c2.6,0.7,5.3,1.2,8.1,1.2c6.5,0,12.5-2.1,17.4-5.7l10.9,56
		c0.4,2,1.9,3.6,3.8,4.2c7.6,2.3,13.2,8.6,14.6,16.5l3.6,20.6l-11.8,2l-3.7-20.6c-0.5-2.9-3.3-4.9-6.2-4.4L437.1,382.8z"/>
	<path d="M255.9,40.5c-48.6,0-88.2,39.1-88.2,87.2c0,48,39.5,87,88.2,87c48.5,0,87.9-39,87.9-87C343.9,79.6,304.4,40.5,255.9,40.5
		L255.9,40.5z M255.9,203.8c-42.6,0-77.2-34.1-77.2-76.1c0-42.1,34.7-76.3,77.2-76.3s77,34.2,77,76.3
		C333,169.7,298.4,203.8,255.9,203.8z"/>
	<path d="M256,76.3c-28.7,0-52,23.1-52,51.5c0,28.2,23.3,51.1,52,51.1c28.5,0,51.6-22.9,51.6-51.1C307.6,99.4,284.5,76.3,256,76.3
		L256,76.3z M256,168c-22.6,0-41.1-18-41.1-40.2c0-22.4,18.4-40.6,41.1-40.6c22.4,0,40.7,18.2,40.7,40.6
		C296.7,150,278.5,168,256,168L256,168z"/>
</g>
</svg>
