<?xml version="1.0" encoding="utf-8"?>
<!-- Generator: Adobe Illustrator 26.4.1, SVG Export Plug-In . SVG Version: 6.00 Build 0)  -->
<svg version="1.1" id="Calque_1" xmlns="http://www.w3.org/2000/svg" xmlns:xlink="http://www.w3.org/1999/xlink" x="0px" y="0px"
	 viewBox="0 0 512 512" style="enable-background:new 0 0 512 512;" xml:space="preserve">
<style type="text/css">
	.st0{fill:#755832;stroke:#000000;stroke-miterlimit:10;}
	.st1{fill:#B7B6B3;}
	.st2{fill:#F4CC67;}
</style>
<polygon class="st0" points="112.6,219.7 113.2,190.6 133,156.9 144,145 367,145 347.3,169.4 343,199 338,231.5 281,236.5 
	241.5,230.9 227,229.8 222.3,226 208.7,230.9 204,236.5 125,236.5 109,231.5 "/>
<polygon class="st0" points="109,268 109,324 109,351 337,351 337,268 238,268 230,273.6 222.3,283.8 215,273.6 198.9,268 "/>
<polygon class="st1" points="386,145 356.8,184.7 347.3,268 425,236.5 419,181 405,156.9 "/>
<polygon class="st0" points="385.3,159.7 375.1,186 373,211 373,225 405,211 405,194.6 399.4,177 398.9,166 "/>
<polygon class="st0" points="367,257.7 367,342 405,324 405,246.7 "/>
<polygon class="st1" points="144,145 123.8,141.6 97.3,190.6 93,256 93,322 93,367 163,367 234.8,367 318,367 356.3,367 356.3,351 
	309.5,351 214,350 137,350 109,351 109,262.8 109,231.5 109.6,194.6 125.6,169.4 "/>
<polygon class="st1" points="102.4,236.3 204,236.5 222.3,226 245.8,236.5 337,236.5 345,177 367,145 390.4,140.3 356.8,184.7 
	357.5,256 331.9,268 238,268 222.3,283.8 203,268 97.3,268 "/>
<polygon class="st1" points="337,268 337,367 356.3,367 419,335.1 405,324 367,342 362.8,242.2 "/>
<polygon class="st1" points="405,246.7 405,331.7 419,335.1 419,229.8 "/>
<polygon class="st2" points="215.6,229.8 204,236.5 203,268 222.3,283.8 238,268 235.9,245.1 234.8,229.8 "/>
<path d="M403.9,144.6c-2.6-2.2-5.8-3.7-9.2-4.3h-1.1c-1.1-0.1-2.2-0.1-3.2,0H127.9c-1.4,0.3-2.7,0.7-4,1.3
	c-22.1,10.2-35.8,60.7-36.6,105.8l0,124.7h264.4c0.9,0,1.8-0.2,2.6-0.7c0.5,0,1-0.1,1.5-0.3l69.3-31.6V213.9
	C423.6,180.8,415.8,154.6,403.9,144.6L403.9,144.6z M222.3,283.8c8.1,0,15.6-4.1,20-10.8h89.7v73.4H112.6V273h89.8
	C206.8,279.8,214.3,283.8,222.3,283.8L222.3,283.8z M235.9,257.7v2.3c0,7.5-6.1,13.6-13.6,13.6c-7.5,0-13.6-6.1-13.6-13.6v-14.8
	c0-7.5,6.1-13.6,13.6-13.6c7.5,0,13.6,6.1,13.6,13.6V257.7z M146.9,151c0.3-0.2,0.6-0.4,0.9-0.7h208.5
	c-13.3,16.3-21.5,49.4-24.1,80.5h-90.8h0c-4.5-6.1-11.5-9.7-19.1-9.7c-7.5,0-14.6,3.6-19.1,9.7h-90.1
	C117,190.9,133.6,157.1,146.9,151L146.9,151z M245.8,241.1h91.3c2.5,0,4.7-1.7,5.1-4.2v-0.7c2.8-43,15-78.8,29-85.2v0
	c0.3-0.2,0.6-0.4,0.9-0.7h1.2l-0.7,0.9l-1.2,1.5c-0.8,1-1.5,2-2.2,3.2c-0.7,1.1-0.7,1.1-1,1.6c-0.9,1.4-1.7,2.9-2.5,4.4l-0.5,0.9
	c-1,1.9-1.9,3.9-2.8,5.9c-0.3,0.5-0.5,1.1-0.7,1.7c-0.6,1.5-1.2,3.1-1.8,4.8l-0.8,2.2c-0.6,1.6-1.1,3.2-1.6,5.1
	c0,0.7-0.5,1.4-0.7,2.2c-0.7,2.2-1.3,4.3-1.8,6.6v0.7c-0.7,2.5-1.2,5.1-1.8,7.6l-0.5,2.1c-0.4,1.9-0.8,3.8-1.1,5.8l-0.5,2.6
	c-0.3,1.9-0.6,3.8-0.9,5.7c0,0.8-0.3,1.6-0.4,2.4c-0.4,2.6-0.7,5.1-1,7.7l0,0c0,0.1,0,0.3,0,0.4c0,2.7-0.5,5.5-0.7,8.2v2.4l-0.3,5.8
	v2.8v2.2H246.2v-2.3C246.2,244,246,242.5,245.8,241.1L245.8,241.1z M414.7,218.6l-57,26v-0.8v-4.1c0-1.4,0-3.4,0.3-5.1
	c0.3-1.7,0-2.8,0.3-4.1l0.5-5.1l0.5-3.9l0.6-4.7l0.6-3.8c0-1.5,0.5-3,0.7-4.4c0.3-1.4,0.5-2.5,0.7-3.7c0.2-1.2,0.6-2.8,0.9-4.1
	s0.6-2.4,0.8-3.5s0.7-2.6,1-3.9c0.4-1.3,0.6-2.3,0.9-3.3l1.1-3.6c0.4-1,0.7-2.1,1-3.1c0.4-1,0.8-2.3,1.2-3.4c0.4-1.1,0.7-1.9,1-2.9
	l1.3-3.1c0.4-0.9,0.7-1.7,1.1-2.6c0.4-0.8,0.9-1.9,1.3-2.8c0.5-0.9,0.7-1.5,1.1-2.3c0.4-0.7,0.9-1.7,1.4-2.5l1.2-2l1.5-2.2
	c0.4-0.6,0.8-1.1,1.2-1.6c0.5-0.6,1-1.3,1.6-1.8l1.1-1.3c0.6-0.6,1.2-1.1,1.8-1.5c0.3-0.3,0.6-0.6,0.9-0.8c0.8-0.6,1.7-1.2,2.7-1.6
	c0.7-0.4,1.5-0.6,2.3-0.7h1.1c2.1,0.1,4,0.9,5.5,2.3C405.7,159.4,414.1,182.5,414.7,218.6L414.7,218.6z M128,151
	c0.7-0.3,1.4-0.6,2.2-0.7h1.5c-14.9,16.4-26.8,50.1-29.2,85.2c0,0.3,0,0.5,0,0.8c0,0.3,0,0.7,0,1c0.1,0.3,0.3,0.6,0.5,0.8
	c0.1,0.3,0.3,0.6,0.5,0.8l0.8,0.6l0,0c0.3,0.2,0.5,0.4,0.8,0.5c0.3,0,0.6,0,1,0c0.3,0.1,0.5,0.2,0.8,0.3h92.1
	c-0.2,1.3-0.4,2.7-0.4,4v2.3H97.3C98.4,197.5,113.7,157.5,128,151L128,151z M347.3,361.8h-250V257.7h101.2v2.3v0
	c0,0.9,0.1,1.9,0.3,2.8h-96.4v93.9h239.8v-93.9h-96.4c0.1-0.9,0.1-1.9,0-2.8v-2.3l101.5,0L347.3,361.8z M414.7,332.8L357.5,359V256
	l57.2-26.2V332.8z M385.3,159.7c-8.2,9.4-18,34-21.4,67.9l-0.9,8.9l46.6-21.2v-3.4c-1.4-32.5-9.2-47.3-11.6-51.2l0,0
	c-1.3-2.1-3.6-3.5-6-3.7C389.4,156.6,386.9,157.7,385.3,159.7L385.3,159.7z M398.9,208.8l-23.8,10.9h0c1.9-17.6,7.2-34.7,15.7-50.3
	C395.8,182,398.5,195.3,398.9,208.8L398.9,208.8z M409.6,237.8l-46.8,21.4V351l46.8-21.4V237.8z M399.4,323.1l-26.4,12v-69.4
	l26.4-12V323.1z"/>
</svg>
