<?xml version="1.0" encoding="utf-8"?>
<!-- Generator: Adobe Illustrator 26.4.1, SVG Export Plug-In . SVG Version: 6.00 Build 0)  -->
<svg version="1.1" id="Calque_1" xmlns="http://www.w3.org/2000/svg" xmlns:xlink="http://www.w3.org/1999/xlink" x="0px" y="0px"
	 viewBox="0 0 512 512" style="enable-background:new 0 0 512 512;" xml:space="preserve">
<style type="text/css">
	.st0{fill:#3F342C;}
</style>
<g>
	<path class="st0" d="M71.6,462.1c1.7,1,2.6,0.2,3.5-0.4c0.9-0.6,1.5-1.1,0.8-2.2c-0.7-1-0.9-1.3-2-1.5c-1.1-0.2-1.2-1-1.8,0
		s0.2,0.3-0.6,1c-0.8,0.7-1.5,0.8-0.7,1.9C71.6,462.1,71.6,462.1,71.6,462.1L71.6,462.1z"/>
	<path class="st0" d="M80.8,459.6c1.7,1,2.6,0.2,3.5-0.4c0.9-0.6,1.5-1.1,0.8-2.2c-0.7-1-0.9-1.3-2-1.5c-1.1-0.2-1.2-1-1.8,0
		c-0.6,1,0.2,0.3-0.6,1c-0.8,0.7-1.5,0.8-0.7,1.9C80.7,459.6,80.8,459.6,80.8,459.6L80.8,459.6z"/>
	<path class="st0" d="M66.3,472.2c1.7,1,2.6,0.2,3.5-0.4c0.9-0.6,1.5-1.1,0.8-2.2c-0.7-1-0.9-1.3-2-1.5c-1.1-0.2-1.2-1-1.8,0
		s0.2,0.3-0.6,1c-0.8,0.7-1.5,0.8-0.7,1.9C66.3,472.2,66.3,472.2,66.3,472.2L66.3,472.2z"/>
	<path class="st0" d="M30.7,462.1c1.7,1,2.6,0.2,3.5-0.4c0.9-0.6,1.5-1.1,0.8-2.2c-0.7-1-0.9-1.3-2-1.5c-1.1-0.2-1.2-1-1.8,0
		s0.2,0.3-0.6,1c-0.8,0.7-1.5,0.8-0.7,1.9C30.7,462.1,30.7,462.1,30.7,462.1L30.7,462.1z"/>
	<path class="st0" d="M47.9,454.4c1.7,1,2.6,0.2,3.5-0.4c0.9-0.6,1.5-1.1,0.8-2.2c-0.7-1-0.9-1.3-2-1.5c-1.1-0.2-1.2-1-1.8,0
		c-0.6,1,0.2,0.3-0.6,1c-0.8,0.7-1.5,0.8-0.7,1.9C47.9,454.4,47.9,454.4,47.9,454.4L47.9,454.4z"/>
	<path class="st0" d="M71.7,449.6c-0.2,2.5,0.4,2.8,1.4,2.8c1,0,1.5-0.2,1.8-0.8c0.3-0.6,0-1.6,0-1.6s0.4-2-0.8-1.7
		c-1.2,0.3-1.2-0.5-1.8,0.4L71.7,449.6L71.7,449.6z"/>
	<path class="st0" d="M54.3,462.5c-0.2,2.5,0.4,2.8,1.4,2.8s1.5-0.2,1.8-0.8c0.3-0.6,0-1.6,0-1.6s0.4-2-0.8-1.7
		c-1.2,0.3-1.2-0.5-1.8,0.4C54.3,462.5,54.3,462.5,54.3,462.5L54.3,462.5z"/>
	<path class="st0" d="M62,450.3c1.3,0.6,2.5-0.2,4.1-1.3c1.5-1.1,0.7-1.5,0.5-2.2c-0.2-0.6,0.1-0.8-0.5-1.6
		c-2.8-1.9-3.4-2.2-4.6-1.5c-1.2,0.6-3.7,1.2-3.2,3c0.5,1.8,2.6,1,2.9,1.7c0.3,0.7,0,0,0,0C61.1,448.4,60.6,449.7,62,450.3L62,450.3
		z"/>
	<path class="st0" d="M95.8,450.5c-1,0.2-1.3,1-1.1,1.7c0.2,0.7-0.2,0.9,0.8,1.1c1,0.2,0.8,1.8,3.1,0.5c2.3-1.3,4.8-1,2.8-1.8
		c-2-0.8-3-0.7-3-0.7s-0.4-1-1-1.1C96.8,450.2,95.8,450.5,95.8,450.5L95.8,450.5z"/>
	<path class="st0" d="M82.3,442.6c-1,0.2-1.3,1-1.1,1.7c0.2,0.7-0.2,0.9,0.8,1.1c0.9,0.2,0.8,1.8,3.1,0.5c2.3-1.3,4.8-1,2.8-1.8
		c-2-0.8-3.1-0.7-3.1-0.7s-0.4-1-1-1.1C83.3,442.2,82.3,442.6,82.3,442.6L82.3,442.6z"/>
	<path class="st0" d="M90.4,465.1c-1.2-2.2-1.8-2.2-2.8-1.5c-0.8,0.5-1.1,1-1,1.6c0.1,0.6,0.9,1.3,0.9,1.3s0.8,1.9,1.6,1
		c0.8-0.9,1.2-0.3,1.2-1.3L90.4,465.1L90.4,465.1z"/>
	<path class="st0" d="M98.1,459.1c-1.4,0.3-1.9,1.5-2.7,3.4c-0.7,1.8,0.2,1.6,0.7,2c0.5,0.3,0.3,0.8,1.3,1c3.4,0,4-0.1,4.7-1.3
		c0.7-1.2,2.5-3.1,1-4.3c-1.4-1.2-2.8,0.5-3.4,0.2c-0.6-0.3,0,0,0,0S99.5,458.8,98.1,459.1L98.1,459.1z"/>
	<path class="st0" d="M108.8,442.3c-1.4,0.3-2,1.5-2.7,3.4c-0.7,1.8,0.2,1.6,0.7,2c0.5,0.3,0.3,0.8,1.3,1c3.4,0,4-0.1,4.7-1.3
		c0.7-1.2,2.5-3.1,1-4.3c-1.4-1.2-2.8,0.5-3.4,0.2c-0.6-0.3,0,0,0,0C110.5,443.4,110.2,442.1,108.8,442.3L108.8,442.3z"/>
</g>
<g>
	<path class="st0" d="M408.7,391.6c1.7,1,2.6,0.2,3.5-0.4c0.9-0.6,1.5-1.1,0.8-2.2c-0.7-1-0.9-1.3-2-1.5c-1.1-0.2-1.2-1-1.8,0
		c-0.6,1,0.2,0.3-0.6,1c-0.8,0.7-1.5,0.8-0.7,1.9C408.7,391.6,408.7,391.6,408.7,391.6L408.7,391.6z"/>
	<path class="st0" d="M417.9,389.1c1.7,1,2.6,0.2,3.5-0.4c0.9-0.6,1.5-1.1,0.8-2.2c-0.7-1-0.9-1.3-2-1.5c-1.1-0.2-1.2-1-1.8,0
		c-0.6,1,0.2,0.3-0.6,1c-0.8,0.7-1.5,0.8-0.7,1.9C417.8,389.1,417.9,389.1,417.9,389.1L417.9,389.1z"/>
	<path class="st0" d="M403.4,401.7c1.7,1,2.6,0.2,3.5-0.4c0.9-0.6,1.5-1.1,0.8-2.2c-0.7-1-0.9-1.3-2-1.5c-1.1-0.2-1.2-1-1.8,0
		c-0.6,1,0.2,0.3-0.6,1c-0.8,0.7-1.5,0.8-0.7,1.9C403.4,401.7,403.4,401.7,403.4,401.7L403.4,401.7z"/>
	<path class="st0" d="M367.8,391.6c1.7,1,2.6,0.2,3.5-0.4c0.9-0.6,1.5-1.1,0.8-2.2c-0.7-1-0.9-1.3-2-1.5c-1.1-0.2-1.2-1-1.8,0
		c-0.6,1,0.2,0.3-0.6,1c-0.8,0.7-1.5,0.8-0.7,1.9C367.8,391.6,367.8,391.6,367.8,391.6L367.8,391.6z"/>
	<path class="st0" d="M385.1,383.9c1.7,1,2.6,0.2,3.5-0.4c0.9-0.6,1.5-1.1,0.8-2.2c-0.7-1-0.9-1.3-2-1.5c-1.1-0.2-1.2-1-1.8,0
		c-0.6,1,0.2,0.3-0.6,1c-0.8,0.7-1.5,0.8-0.7,1.9C385.1,383.9,385.1,383.9,385.1,383.9L385.1,383.9z"/>
	<path class="st0" d="M408.8,379.1c-0.2,2.5,0.4,2.8,1.4,2.8c1,0,1.5-0.2,1.8-0.8c0.3-0.6,0-1.6,0-1.6s0.4-2-0.8-1.7
		c-1.2,0.3-1.2-0.5-1.8,0.4L408.8,379.1L408.8,379.1z"/>
	<path class="st0" d="M391.4,392c-0.2,2.5,0.4,2.8,1.4,2.8c1,0,1.5-0.2,1.8-0.8c0.3-0.6,0-1.6,0-1.6s0.4-2-0.8-1.7
		c-1.2,0.3-1.2-0.5-1.8,0.4C391.4,392,391.4,392,391.4,392L391.4,392z"/>
	<path class="st0" d="M399.1,379.8c1.3,0.6,2.5-0.2,4.1-1.3c1.5-1.1,0.7-1.5,0.5-2.2c-0.2-0.6,0.1-0.8-0.5-1.6
		c-2.8-1.9-3.4-2.2-4.6-1.5c-1.2,0.6-3.7,1.2-3.2,3c0.5,1.8,2.6,1,2.9,1.7c0.3,0.7,0,0,0,0C398.3,377.9,397.7,379.2,399.1,379.8
		L399.1,379.8z"/>
	<path class="st0" d="M432.9,380c-1,0.2-1.3,1-1.1,1.7c0.2,0.7-0.2,0.9,0.8,1.1s0.8,1.8,3.1,0.5c2.3-1.3,4.8-1,2.8-1.8
		c-2-0.8-3-0.7-3-0.7s-0.4-1-1-1.1C433.9,379.7,432.9,380,432.9,380L432.9,380z"/>
	<path class="st0" d="M419.5,372.1c-1,0.2-1.3,1-1.1,1.7c0.2,0.7-0.2,0.9,0.8,1.1c0.9,0.2,0.8,1.8,3.1,0.5c2.3-1.3,4.8-1,2.8-1.8
		c-2-0.8-3.1-0.7-3.1-0.7s-0.4-1-1-1.1C420.4,371.7,419.5,372.1,419.5,372.1L419.5,372.1z"/>
	<path class="st0" d="M427.5,394.6c-1.2-2.2-1.8-2.2-2.8-1.5c-0.8,0.5-1.1,1-1,1.6c0.1,0.6,0.9,1.3,0.9,1.3s0.8,1.9,1.6,1
		c0.8-0.9,1.2-0.3,1.2-1.3L427.5,394.6L427.5,394.6z"/>
	<path class="st0" d="M435.2,388.6c-1.4,0.3-1.9,1.5-2.7,3.4c-0.7,1.8,0.2,1.6,0.7,2c0.5,0.3,0.3,0.8,1.3,1c3.4,0,4-0.1,4.7-1.3
		c0.7-1.2,2.5-3.1,1-4.3c-1.4-1.2-2.8,0.5-3.4,0.2c-0.6-0.3,0,0,0,0S436.7,388.3,435.2,388.6L435.2,388.6z"/>
	<path class="st0" d="M445.9,371.8c-1.4,0.3-2,1.5-2.7,3.4c-0.7,1.8,0.2,1.6,0.7,2c0.5,0.3,0.3,0.8,1.3,1c3.4,0,4-0.1,4.7-1.3
		c0.7-1.2,2.5-3.1,1-4.3c-1.4-1.2-2.8,0.5-3.4,0.2c-0.6-0.3,0,0,0,0C447.6,372.8,447.3,371.6,445.9,371.8L445.9,371.8z"/>
</g>
<g>
	<path class="st0" d="M148,306.6c1.7,1,2.6,0.2,3.5-0.4c0.9-0.6,1.5-1.1,0.8-2.2c-0.7-1-0.9-1.3-2-1.5c-1.1-0.2-1.2-1-1.8,0
		c-0.6,1,0.2,0.3-0.6,1c-0.8,0.7-1.5,0.8-0.7,1.9C148,306.6,148,306.6,148,306.6L148,306.6z"/>
	<path class="st0" d="M157.2,304.1c1.7,1,2.6,0.2,3.5-0.4c0.9-0.6,1.5-1.1,0.8-2.2c-0.7-1-0.9-1.3-2-1.5c-1.1-0.2-1.2-1-1.8,0
		c-0.6,1,0.2,0.3-0.6,1c-0.8,0.7-1.5,0.8-0.7,1.9C157.1,304.1,157.2,304.1,157.2,304.1L157.2,304.1z"/>
	<path class="st0" d="M142.7,316.7c1.7,1,2.6,0.2,3.5-0.4c0.9-0.6,1.5-1.1,0.8-2.2c-0.7-1-0.9-1.3-2-1.5c-1.1-0.2-1.2-1-1.8,0
		c-0.6,1,0.2,0.3-0.6,1c-0.8,0.7-1.5,0.8-0.7,1.9C142.7,316.7,142.7,316.7,142.7,316.7L142.7,316.7z"/>
	<path class="st0" d="M107.1,306.6c1.7,1,2.6,0.2,3.5-0.4c0.9-0.6,1.5-1.1,0.8-2.2c-0.7-1-0.9-1.3-2-1.5c-1.1-0.2-1.2-1-1.8,0
		c-0.6,1,0.2,0.3-0.6,1c-0.8,0.7-1.5,0.8-0.7,1.9C107.1,306.6,107.1,306.6,107.1,306.6L107.1,306.6z"/>
	<path class="st0" d="M124.3,298.9c1.7,1,2.6,0.2,3.5-0.4c0.9-0.6,1.5-1.1,0.8-2.2c-0.7-1-0.9-1.3-2-1.5c-1.1-0.2-1.2-1-1.8,0
		c-0.6,1,0.2,0.3-0.6,1c-0.8,0.7-1.5,0.8-0.7,1.9C124.3,298.9,124.3,298.9,124.3,298.9L124.3,298.9z"/>
	<path class="st0" d="M148.1,294.1c-0.2,2.5,0.4,2.8,1.4,2.8c1,0,1.5-0.2,1.8-0.8c0.3-0.6,0-1.6,0-1.6s0.4-2-0.8-1.7
		c-1.2,0.3-1.2-0.5-1.8,0.4L148.1,294.1L148.1,294.1z"/>
	<path class="st0" d="M130.7,307c-0.2,2.5,0.4,2.8,1.4,2.8s1.5-0.2,1.8-0.8c0.3-0.6,0-1.6,0-1.6s0.4-2-0.8-1.7
		c-1.2,0.3-1.2-0.5-1.8,0.4C130.7,307,130.7,307,130.7,307L130.7,307z"/>
	<path class="st0" d="M138.4,294.8c1.3,0.6,2.5-0.2,4.1-1.3c1.5-1.1,0.7-1.5,0.5-2.2c-0.2-0.6,0.1-0.8-0.5-1.6
		c-2.8-1.9-3.4-2.2-4.6-1.5c-1.2,0.6-3.7,1.2-3.2,3c0.5,1.8,2.6,1,2.9,1.7c0.3,0.7,0,0,0,0C137.5,292.8,137,294.2,138.4,294.8
		L138.4,294.8z"/>
	<path class="st0" d="M172.1,295c-1,0.2-1.3,1-1.1,1.7c0.2,0.7-0.2,0.9,0.8,1.1s0.8,1.8,3.1,0.5c2.3-1.3,4.8-1,2.8-1.8
		c-2-0.8-3-0.7-3-0.7s-0.4-1-1-1.1C173.2,294.7,172.1,295,172.1,295L172.1,295z"/>
	<path class="st0" d="M158.7,287.1c-1,0.2-1.3,1-1.1,1.7c0.2,0.7-0.2,0.9,0.8,1.1c0.9,0.2,0.8,1.8,3.1,0.5c2.3-1.3,4.8-1,2.8-1.8
		c-2-0.8-3.1-0.7-3.1-0.7s-0.4-1-1-1.1C159.7,286.7,158.7,287.1,158.7,287.1L158.7,287.1z"/>
	<path class="st0" d="M166.8,309.5c-1.2-2.2-1.8-2.2-2.8-1.5c-0.8,0.5-1.1,1-1,1.6s0.9,1.3,0.9,1.3s0.8,1.9,1.6,1
		c0.8-0.9,1.2-0.3,1.2-1.3L166.8,309.5L166.8,309.5z"/>
	<path class="st0" d="M174.5,303.6c-1.4,0.3-1.9,1.5-2.7,3.4c-0.7,1.8,0.2,1.6,0.7,2c0.5,0.3,0.3,0.8,1.3,1c3.4,0,4-0.1,4.7-1.3
		c0.7-1.2,2.5-3.1,1-4.3c-1.4-1.2-2.8,0.5-3.4,0.2c-0.6-0.3,0,0,0,0S175.9,303.3,174.5,303.6L174.5,303.6z"/>
	<path class="st0" d="M185.1,286.8c-1.4,0.3-2,1.5-2.7,3.4c-0.7,1.8,0.2,1.6,0.7,2c0.5,0.3,0.3,0.8,1.3,1c3.4,0,4-0.1,4.7-1.3
		c0.7-1.2,2.5-3.1,1-4.3c-1.4-1.2-2.8,0.5-3.4,0.2c-0.6-0.3,0,0,0,0C186.9,287.8,186.6,286.6,185.1,286.8L185.1,286.8z"/>
</g>
<g>
	<path class="st0" d="M401.7,108.6c1.7,1,2.6,0.2,3.5-0.4c0.9-0.6,1.5-1.1,0.8-2.2c-0.7-1-0.9-1.3-2-1.5c-1.1-0.2-1.2-1-1.8,0
		c-0.6,1,0.2,0.3-0.6,1c-0.8,0.7-1.5,0.8-0.7,1.9C401.7,108.6,401.7,108.6,401.7,108.6L401.7,108.6z"/>
	<path class="st0" d="M411,106.1c1.7,1,2.6,0.2,3.5-0.4c0.9-0.6,1.5-1.1,0.8-2.2c-0.7-1-0.9-1.3-2-1.5c-1.1-0.2-1.2-1-1.8,0
		c-0.6,1,0.2,0.3-0.6,1c-0.8,0.7-1.5,0.8-0.7,1.9C410.9,106.1,411,106.1,411,106.1L411,106.1z"/>
	<path class="st0" d="M396.4,118.7c1.7,1,2.6,0.2,3.5-0.4c0.9-0.6,1.5-1.1,0.8-2.2c-0.7-1-0.9-1.3-2-1.5c-1.1-0.2-1.2-1-1.8,0
		c-0.6,1,0.2,0.3-0.6,1c-0.8,0.7-1.5,0.8-0.7,1.9C396.4,118.7,396.4,118.7,396.4,118.7L396.4,118.7z"/>
	<path class="st0" d="M360.9,108.6c1.7,1,2.6,0.2,3.5-0.4c0.9-0.6,1.5-1.1,0.8-2.2c-0.7-1-0.9-1.3-2-1.5c-1.1-0.2-1.2-1-1.8,0
		c-0.6,1,0.2,0.3-0.6,1c-0.8,0.7-1.5,0.8-0.7,1.9C360.9,108.6,360.9,108.6,360.9,108.6L360.9,108.6z"/>
	<path class="st0" d="M378.1,100.9c1.7,1,2.6,0.2,3.5-0.4c0.9-0.6,1.5-1.1,0.8-2.2c-0.7-1-0.9-1.3-2-1.5c-1.1-0.2-1.2-1-1.8,0
		c-0.6,1,0.2,0.3-0.6,1c-0.8,0.7-1.5,0.8-0.7,1.9C378.1,100.9,378.1,100.9,378.1,100.9L378.1,100.9z"/>
	<path class="st0" d="M401.9,96.1c-0.2,2.5,0.4,2.8,1.4,2.8s1.5-0.2,1.8-0.8c0.3-0.6,0-1.6,0-1.6s0.4-2-0.8-1.7
		c-1.2,0.3-1.2-0.5-1.8,0.4L401.9,96.1L401.9,96.1z"/>
	<path class="st0" d="M384.4,109c-0.2,2.5,0.4,2.8,1.4,2.8s1.5-0.2,1.8-0.8c0.3-0.6,0-1.6,0-1.6s0.4-2-0.8-1.7
		c-1.2,0.3-1.2-0.5-1.8,0.4C384.4,109,384.4,109,384.4,109L384.4,109z"/>
	<path class="st0" d="M392.1,96.8c1.3,0.6,2.5-0.2,4.1-1.3c1.5-1.1,0.7-1.5,0.5-2.2c-0.2-0.6,0.1-0.8-0.5-1.6
		c-2.8-1.9-3.4-2.2-4.6-1.5c-1.2,0.6-3.7,1.2-3.2,3c0.5,1.8,2.6,1,2.9,1.7c0.3,0.7,0,0,0,0C391.3,94.8,390.8,96.2,392.1,96.8
		L392.1,96.8z"/>
	<path class="st0" d="M425.9,97c-1,0.2-1.3,1-1.1,1.7c0.2,0.7-0.2,0.9,0.8,1.1c1,0.2,0.8,1.8,3.1,0.5c2.3-1.3,4.8-1,2.8-1.8
		c-2-0.8-3-0.7-3-0.7s-0.4-1-1-1.1C426.9,96.7,425.9,97,425.9,97L425.9,97z"/>
	<path class="st0" d="M412.5,89.1c-1,0.2-1.3,1-1.1,1.7c0.2,0.7-0.2,0.9,0.8,1.1c0.9,0.2,0.8,1.8,3.1,0.5c2.3-1.3,4.8-1,2.8-1.8
		c-2-0.8-3.1-0.7-3.1-0.7s-0.4-1-1-1.1C413.4,88.7,412.5,89.1,412.5,89.1L412.5,89.1z"/>
	<path class="st0" d="M420.6,111.5c-1.2-2.2-1.8-2.2-2.8-1.5c-0.8,0.5-1.1,1-1,1.6s0.9,1.3,0.9,1.3s0.8,1.9,1.6,1
		c0.8-0.9,1.2-0.3,1.2-1.3L420.6,111.5L420.6,111.5z"/>
	<path class="st0" d="M428.3,105.6c-1.4,0.3-1.9,1.5-2.7,3.4c-0.7,1.8,0.2,1.6,0.7,2c0.5,0.3,0.3,0.8,1.3,1c3.4,0,4-0.1,4.7-1.3
		c0.7-1.2,2.5-3.1,1-4.3c-1.4-1.2-2.8,0.5-3.4,0.2c-0.6-0.3,0,0,0,0S429.7,105.3,428.3,105.6L428.3,105.6z"/>
	<path class="st0" d="M438.9,88.8c-1.4,0.3-2,1.5-2.7,3.4c-0.7,1.8,0.2,1.6,0.7,2c0.5,0.3,0.3,0.8,1.3,1c3.4,0,4-0.1,4.7-1.3
		c0.7-1.2,2.5-3.1,1-4.3c-1.4-1.2-2.8,0.5-3.4,0.2c-0.6-0.3,0,0,0,0C440.7,89.8,440.4,88.6,438.9,88.8L438.9,88.8z"/>
</g>
<g>
	<path class="st0" d="M91.3,84c1.7,1,2.6,0.2,3.5-0.4c0.9-0.6,1.5-1.1,0.8-2.2c-0.7-1-0.9-1.3-2-1.5c-1.1-0.2-1.2-1-1.8,0
		c-0.6,1,0.2,0.3-0.6,1c-0.8,0.7-1.5,0.8-0.7,1.9C91.3,84,91.3,84,91.3,84L91.3,84z"/>
	<path class="st0" d="M100.5,81.5c1.7,1,2.6,0.2,3.5-0.4c0.9-0.6,1.5-1.1,0.8-2.2c-0.7-1-0.9-1.3-2-1.5c-1.1-0.2-1.2-1-1.8,0
		c-0.6,1,0.2,0.3-0.6,1c-0.8,0.7-1.5,0.8-0.7,1.9C100.4,81.5,100.5,81.5,100.5,81.5L100.5,81.5z"/>
	<path class="st0" d="M86,94.1c1.7,1,2.6,0.2,3.5-0.4c0.9-0.6,1.5-1.1,0.8-2.2c-0.7-1-0.9-1.3-2-1.5c-1.1-0.2-1.2-1-1.8,0
		c-0.6,1,0.2,0.3-0.6,1c-0.8,0.7-1.5,0.8-0.7,1.9C86,94.1,86,94.1,86,94.1L86,94.1z"/>
	<path class="st0" d="M50.5,84c1.7,1,2.6,0.2,3.5-0.4c0.9-0.6,1.5-1.1,0.8-2.2c-0.7-1-0.9-1.3-2-1.5c-1.1-0.2-1.2-1-1.8,0
		c-0.6,1,0.2,0.3-0.6,1c-0.8,0.7-1.5,0.8-0.7,1.9C50.5,84,50.5,84,50.5,84L50.5,84z"/>
	<path class="st0" d="M67.7,76.3c1.7,1,2.6,0.2,3.5-0.4c0.9-0.6,1.5-1.1,0.8-2.2c-0.7-1-0.9-1.3-2-1.5c-1.1-0.2-1.2-1-1.8,0
		c-0.6,1,0.2,0.3-0.6,1c-0.8,0.7-1.5,0.8-0.7,1.9C67.7,76.3,67.7,76.3,67.7,76.3L67.7,76.3z"/>
	<path class="st0" d="M91.4,71.5c-0.2,2.5,0.4,2.8,1.4,2.8c1,0,1.5-0.2,1.8-0.8c0.3-0.6,0-1.6,0-1.6s0.4-2-0.8-1.7
		c-1.2,0.3-1.2-0.5-1.8,0.4L91.4,71.5L91.4,71.5z"/>
	<path class="st0" d="M74,84.4c-0.2,2.5,0.4,2.8,1.4,2.8c1,0,1.5-0.2,1.8-0.8c0.3-0.6,0-1.6,0-1.6s0.4-2-0.8-1.7
		c-1.2,0.3-1.2-0.5-1.8,0.4C74,84.4,74,84.4,74,84.4L74,84.4z"/>
	<path class="st0" d="M81.7,72.2c1.3,0.6,2.5-0.2,4.1-1.3c1.5-1.1,0.7-1.5,0.5-2.2c-0.2-0.6,0.1-0.8-0.5-1.6
		c-2.8-1.9-3.4-2.2-4.6-1.5c-1.2,0.6-3.7,1.2-3.2,3c0.5,1.8,2.6,1,2.9,1.7c0.3,0.7,0,0,0,0C80.9,70.2,80.4,71.6,81.7,72.2L81.7,72.2
		z"/>
	<path class="st0" d="M115.5,72.4c-1,0.2-1.3,1-1.1,1.7c0.2,0.7-0.2,0.9,0.8,1.1c1,0.2,0.8,1.8,3.1,0.5c2.3-1.3,4.8-1,2.8-1.8
		c-2-0.8-3-0.7-3-0.7s-0.4-1-1-1.1C116.5,72.1,115.5,72.4,115.5,72.4L115.5,72.4z"/>
	<path class="st0" d="M102.1,64.5c-1,0.2-1.3,1-1.1,1.7c0.2,0.7-0.2,0.9,0.8,1.1c0.9,0.2,0.8,1.8,3.1,0.5c2.3-1.3,4.8-1,2.8-1.8
		c-2-0.8-3.1-0.7-3.1-0.7s-0.4-1-1-1.1C103,64.1,102.1,64.5,102.1,64.5L102.1,64.5z"/>
	<path class="st0" d="M110.2,86.9c-1.2-2.2-1.8-2.2-2.8-1.5c-0.8,0.5-1.1,1-1,1.6c0.1,0.6,0.9,1.3,0.9,1.3s0.8,1.9,1.6,1
		c0.8-0.9,1.2-0.3,1.2-1.3L110.2,86.9L110.2,86.9z"/>
	<path class="st0" d="M117.9,81c-1.4,0.3-1.9,1.5-2.7,3.4c-0.7,1.8,0.2,1.6,0.7,2c0.5,0.3,0.3,0.8,1.3,1c3.4,0,4-0.1,4.7-1.3
		c0.7-1.2,2.5-3.1,1-4.3c-1.4-1.2-2.8,0.5-3.4,0.2c-0.6-0.3,0,0,0,0S119.3,80.7,117.9,81L117.9,81z"/>
	<path class="st0" d="M128.5,64.2c-1.4,0.3-2,1.5-2.7,3.4c-0.7,1.8,0.2,1.6,0.7,2c0.5,0.3,0.3,0.8,1.3,1c3.4,0,4-0.1,4.7-1.3
		c0.7-1.2,2.5-3.1,1-4.3c-1.4-1.2-2.8,0.5-3.4,0.2c-0.6-0.3,0,0,0,0C130.2,65.2,129.9,64,128.5,64.2L128.5,64.2z"/>
</g>
<g>
	<path class="st0" d="M323.7,227.6c1.7,1,2.6,0.2,3.5-0.4c0.9-0.6,1.5-1.1,0.8-2.2c-0.7-1-0.9-1.3-2-1.5c-1.1-0.2-1.2-1-1.8,0
		c-0.6,1,0.2,0.3-0.6,1c-0.8,0.7-1.5,0.8-0.7,1.9C323.7,227.6,323.7,227.6,323.7,227.6L323.7,227.6z"/>
	<path class="st0" d="M332.9,225.1c1.7,1,2.6,0.2,3.5-0.4c0.9-0.6,1.5-1.1,0.8-2.2c-0.7-1-0.9-1.3-2-1.5c-1.1-0.2-1.2-1-1.8,0
		c-0.6,1,0.2,0.3-0.6,1c-0.8,0.7-1.5,0.8-0.7,1.9C332.8,225.1,332.9,225.1,332.9,225.1L332.9,225.1z"/>
	<path class="st0" d="M318.4,237.7c1.7,1,2.6,0.2,3.5-0.4c0.9-0.6,1.5-1.1,0.8-2.2c-0.7-1-0.9-1.3-2-1.5c-1.1-0.2-1.2-1-1.8,0
		c-0.6,1,0.2,0.3-0.6,1c-0.8,0.7-1.5,0.8-0.7,1.9C318.4,237.7,318.4,237.7,318.4,237.7L318.4,237.7z"/>
	<path class="st0" d="M282.9,227.6c1.7,1,2.6,0.2,3.5-0.4c0.9-0.6,1.5-1.1,0.8-2.2c-0.7-1-0.9-1.3-2-1.5c-1.1-0.2-1.2-1-1.8,0
		c-0.6,1,0.2,0.3-0.6,1c-0.8,0.7-1.5,0.8-0.7,1.9C282.9,227.6,282.9,227.6,282.9,227.6L282.9,227.6z"/>
	<path class="st0" d="M300.1,219.9c1.7,1,2.6,0.2,3.5-0.4c0.9-0.6,1.5-1.1,0.8-2.2c-0.7-1-0.9-1.3-2-1.5c-1.1-0.2-1.2-1-1.8,0
		c-0.6,1,0.2,0.3-0.6,1c-0.8,0.7-1.5,0.8-0.7,1.9C300.1,219.9,300.1,219.9,300.1,219.9L300.1,219.9z"/>
	<path class="st0" d="M323.8,215.1c-0.2,2.5,0.4,2.8,1.4,2.8c1,0,1.5-0.2,1.8-0.8c0.3-0.6,0-1.6,0-1.6s0.4-2-0.8-1.7
		c-1.2,0.3-1.2-0.5-1.8,0.4L323.8,215.1L323.8,215.1z"/>
	<path class="st0" d="M306.4,228c-0.2,2.5,0.4,2.8,1.4,2.8c1,0,1.5-0.2,1.8-0.8c0.3-0.6,0-1.6,0-1.6s0.4-2-0.8-1.7
		c-1.2,0.3-1.2-0.5-1.8,0.4C306.4,228,306.4,228,306.4,228L306.4,228z"/>
	<path class="st0" d="M314.1,215.8c1.3,0.6,2.5-0.2,4.1-1.3c1.5-1.1,0.7-1.5,0.5-2.2c-0.2-0.6,0.1-0.8-0.5-1.6
		c-2.8-1.9-3.4-2.2-4.6-1.5c-1.2,0.6-3.7,1.2-3.2,3c0.5,1.8,2.6,1,2.9,1.7c0.3,0.7,0,0,0,0C313.3,213.9,312.8,215.2,314.1,215.8
		L314.1,215.8z"/>
	<path class="st0" d="M347.9,216c-1,0.2-1.3,1-1.1,1.7c0.2,0.7-0.2,0.9,0.8,1.1c1,0.2,0.8,1.8,3.1,0.5c2.3-1.3,4.8-1,2.8-1.8
		c-2-0.8-3-0.7-3-0.7s-0.4-1-1-1.1C348.9,215.7,347.9,216,347.9,216L347.9,216z"/>
	<path class="st0" d="M334.5,208.1c-1,0.2-1.3,1-1.1,1.7c0.2,0.7-0.2,0.9,0.8,1.1c0.9,0.2,0.8,1.8,3.1,0.5c2.3-1.3,4.8-1,2.8-1.8
		c-2-0.8-3.1-0.7-3.1-0.7s-0.4-1-1-1.1C335.4,207.7,334.5,208.1,334.5,208.1L334.5,208.1z"/>
	<path class="st0" d="M342.6,230.6c-1.2-2.2-1.8-2.2-2.8-1.5c-0.8,0.5-1.1,1-1,1.6c0.1,0.6,0.9,1.3,0.9,1.3s0.8,1.9,1.6,1
		c0.8-0.9,1.2-0.3,1.2-1.3L342.6,230.6L342.6,230.6z"/>
	<path class="st0" d="M350.2,224.6c-1.4,0.3-1.9,1.5-2.7,3.4c-0.7,1.8,0.2,1.6,0.7,2c0.5,0.3,0.3,0.8,1.3,1c3.4,0,4-0.1,4.7-1.3
		c0.7-1.2,2.5-3.1,1-4.3c-1.4-1.2-2.8,0.5-3.4,0.2c-0.6-0.3,0,0,0,0S351.7,224.3,350.2,224.6L350.2,224.6z"/>
	<path class="st0" d="M360.9,207.8c-1.4,0.3-2,1.5-2.7,3.4c-0.7,1.8,0.2,1.6,0.7,2c0.5,0.3,0.3,0.8,1.3,1c3.4,0,4-0.1,4.7-1.3
		c0.7-1.2,2.5-3.1,1-4.3c-1.4-1.2-2.8,0.5-3.4,0.2c-0.6-0.3,0,0,0,0C362.6,208.9,362.3,207.6,360.9,207.8L360.9,207.8z"/>
</g>
<g>
	<path class="st0" d="M57.4,258c1.7,1,2.6,0.2,3.5-0.4c0.9-0.6,1.5-1.1,0.8-2.2c-0.7-1-0.9-1.3-2-1.5c-1.1-0.2-1.2-1-1.8,0
		c-0.6,1,0.2,0.3-0.6,1c-0.8,0.7-1.5,0.8-0.7,1.9C57.4,258,57.4,258,57.4,258L57.4,258z"/>
	<path class="st0" d="M66.7,255.5c1.7,1,2.6,0.2,3.5-0.4c0.9-0.6,1.5-1.1,0.8-2.2c-0.7-1-0.9-1.3-2-1.5c-1.1-0.2-1.2-1-1.8,0
		s0.2,0.3-0.6,1c-0.8,0.7-1.5,0.8-0.7,1.9C66.5,255.5,66.7,255.5,66.7,255.5L66.7,255.5z"/>
	<path class="st0" d="M52.1,268.1c1.7,1,2.6,0.2,3.5-0.4c0.9-0.6,1.5-1.1,0.8-2.2c-0.7-1-0.9-1.3-2-1.5c-1.1-0.2-1.2-1-1.8,0
		c-0.6,1,0.2,0.3-0.6,1c-0.8,0.7-1.5,0.8-0.7,1.9C52.1,268.1,52.1,268.1,52.1,268.1L52.1,268.1z"/>
	<path class="st0" d="M16.6,258c1.7,1,2.6,0.2,3.5-0.4c0.9-0.6,1.5-1.1,0.8-2.2c-0.7-1-0.9-1.3-2-1.5c-1.1-0.2-1.2-1-1.8,0
		c-0.6,1,0.2,0.3-0.6,1c-0.8,0.7-1.5,0.8-0.7,1.9C16.6,258,16.6,258,16.6,258L16.6,258z"/>
	<path class="st0" d="M33.8,250.3c1.7,1,2.6,0.2,3.5-0.4c0.9-0.6,1.5-1.1,0.8-2.2c-0.7-1-0.9-1.3-2-1.5c-1.1-0.2-1.2-1-1.8,0
		s0.2,0.3-0.6,1c-0.8,0.7-1.5,0.8-0.7,1.9C33.8,250.3,33.8,250.3,33.8,250.3L33.8,250.3z"/>
	<path class="st0" d="M57.5,245.5c-0.2,2.5,0.4,2.8,1.4,2.8c1,0,1.5-0.2,1.8-0.8c0.3-0.6,0-1.6,0-1.6s0.4-2-0.8-1.7
		c-1.2,0.3-1.2-0.5-1.8,0.4L57.5,245.5L57.5,245.5z"/>
	<path class="st0" d="M40.1,258.4c-0.2,2.5,0.4,2.8,1.4,2.8s1.5-0.2,1.8-0.8c0.3-0.6,0-1.6,0-1.6s0.4-2-0.8-1.7
		c-1.2,0.3-1.2-0.5-1.8,0.4C40.1,258.4,40.1,258.4,40.1,258.4L40.1,258.4z"/>
	<path class="st0" d="M47.8,246.2c1.3,0.6,2.5-0.2,4.1-1.3c1.5-1.1,0.7-1.5,0.5-2.2c-0.2-0.6,0.1-0.8-0.5-1.6
		c-2.8-1.9-3.4-2.2-4.6-1.5c-1.2,0.6-3.7,1.2-3.2,3c0.5,1.8,2.6,1,2.9,1.7c0.3,0.7,0,0,0,0C47,244.3,46.5,245.6,47.8,246.2
		L47.8,246.2z"/>
	<path class="st0" d="M81.6,246.4c-1,0.2-1.3,1-1.1,1.7c0.2,0.7-0.2,0.9,0.8,1.1c1,0.2,0.8,1.8,3.1,0.5c2.3-1.3,4.8-1,2.8-1.8
		c-2-0.8-3-0.7-3-0.7s-0.4-1-1-1.1C82.6,246.1,81.6,246.4,81.6,246.4L81.6,246.4z"/>
	<path class="st0" d="M68.2,238.5c-1,0.2-1.3,1-1.1,1.7c0.2,0.7-0.2,0.9,0.8,1.1c0.9,0.2,0.8,1.8,3.1,0.5c2.3-1.3,4.8-1,2.8-1.8
		c-2-0.8-3.1-0.7-3.1-0.7s-0.4-1-1-1.1C69.1,238.1,68.2,238.5,68.2,238.5L68.2,238.5z"/>
	<path class="st0" d="M76.3,261c-1.2-2.2-1.8-2.2-2.8-1.5c-0.8,0.5-1.1,1-1,1.6c0.1,0.6,0.9,1.3,0.9,1.3s0.8,1.9,1.6,1
		c0.8-0.9,1.2-0.3,1.2-1.3L76.3,261L76.3,261z"/>
	<path class="st0" d="M84,255c-1.4,0.3-1.9,1.5-2.7,3.4c-0.7,1.8,0.2,1.6,0.7,2c0.5,0.3,0.3,0.8,1.3,1c3.4,0,4-0.1,4.7-1.3
		c0.7-1.2,2.5-3.1,1-4.3c-1.4-1.2-2.8,0.5-3.4,0.2c-0.6-0.3,0,0,0,0S85.4,254.7,84,255L84,255z"/>
	<path class="st0" d="M94.6,238.2c-1.4,0.3-2,1.5-2.7,3.4c-0.7,1.8,0.2,1.6,0.7,2c0.5,0.3,0.3,0.8,1.3,1c3.4,0,4-0.1,4.7-1.3
		c0.7-1.2,2.5-3.1,1-4.3c-1.4-1.2-2.8,0.5-3.4,0.2c-0.6-0.3,0,0,0,0C96.3,239.3,96,238,94.6,238.2L94.6,238.2z"/>
</g>
<g>
	<path class="st0" d="M74.8,383.9c1.7,1,2.6,0.2,3.5-0.4c0.9-0.6,1.5-1.1,0.8-2.2c-0.7-1-0.9-1.3-2-1.5c-1.1-0.2-1.2-1-1.8,0
		s0.2,0.3-0.6,1c-0.8,0.7-1.5,0.8-0.7,1.9C74.8,383.9,74.8,383.9,74.8,383.9L74.8,383.9z"/>
	<path class="st0" d="M84,381.4c1.7,1,2.6,0.2,3.5-0.4c0.9-0.6,1.5-1.1,0.8-2.2c-0.7-1-0.9-1.3-2-1.5c-1.1-0.2-1.2-1-1.8,0
		c-0.6,1,0.2,0.3-0.6,1c-0.8,0.7-1.5,0.8-0.7,1.9C83.9,381.4,84,381.4,84,381.4L84,381.4z"/>
	<path class="st0" d="M69.4,394c1.7,1,2.6,0.2,3.5-0.4c0.9-0.6,1.5-1.1,0.8-2.2c-0.7-1-0.9-1.3-2-1.5c-1.1-0.2-1.2-1-1.8,0
		s0.2,0.3-0.6,1c-0.8,0.7-1.5,0.8-0.7,1.9C69.4,394,69.4,394,69.4,394L69.4,394z"/>
	<path class="st0" d="M33.9,383.9c1.7,1,2.6,0.2,3.5-0.4c0.9-0.6,1.5-1.1,0.8-2.2c-0.7-1-0.9-1.3-2-1.5c-1.1-0.2-1.2-1-1.8,0
		s0.2,0.3-0.6,1c-0.8,0.7-1.5,0.8-0.7,1.9C33.9,383.9,33.9,383.9,33.9,383.9L33.9,383.9z"/>
	<path class="st0" d="M51.1,376.2c1.7,1,2.6,0.2,3.5-0.4c0.9-0.6,1.5-1.1,0.8-2.2c-0.7-1-0.9-1.3-2-1.5c-1.1-0.2-1.2-1-1.8,0
		c-0.6,1,0.2,0.3-0.6,1c-0.8,0.7-1.5,0.8-0.7,1.9C51.1,376.2,51.1,376.2,51.1,376.2L51.1,376.2z"/>
	<path class="st0" d="M74.9,371.4c-0.2,2.5,0.4,2.8,1.4,2.8s1.5-0.2,1.8-0.8c0.3-0.6,0-1.6,0-1.6s0.4-2-0.8-1.7
		c-1.2,0.3-1.2-0.5-1.8,0.4L74.9,371.4L74.9,371.4z"/>
	<path class="st0" d="M57.4,384.3c-0.2,2.5,0.4,2.8,1.4,2.8c1,0,1.5-0.2,1.8-0.8c0.3-0.6,0-1.6,0-1.6s0.4-2-0.8-1.7
		c-1.2,0.3-1.2-0.5-1.8,0.4C57.4,384.3,57.4,384.3,57.4,384.3L57.4,384.3z"/>
	<path class="st0" d="M65.1,372.1c1.3,0.6,2.5-0.2,4.1-1.3c1.5-1.1,0.7-1.5,0.5-2.2c-0.2-0.6,0.1-0.8-0.5-1.6
		c-2.8-1.9-3.4-2.2-4.6-1.5c-1.2,0.6-3.7,1.2-3.2,3c0.5,1.8,2.6,1,2.9,1.7c0.3,0.7,0,0,0,0C64.3,370.2,63.8,371.5,65.1,372.1
		L65.1,372.1z"/>
	<path class="st0" d="M98.9,372.3c-1,0.2-1.3,1-1.1,1.7c0.2,0.7-0.2,0.9,0.8,1.1s0.8,1.8,3.1,0.5c2.3-1.3,4.8-1,2.8-1.8
		c-2-0.8-3-0.7-3-0.7s-0.4-1-1-1.1C99.9,372,98.9,372.3,98.9,372.3L98.9,372.3z"/>
	<path class="st0" d="M85.5,364.4c-1,0.2-1.3,1-1.1,1.7c0.2,0.7-0.2,0.9,0.8,1.1c0.9,0.2,0.8,1.8,3.1,0.5c2.3-1.3,4.8-1,2.8-1.8
		c-2-0.8-3.1-0.7-3.1-0.7s-0.4-1-1-1.1C86.4,364,85.5,364.4,85.5,364.4L85.5,364.4z"/>
	<path class="st0" d="M93.6,386.9c-1.2-2.2-1.8-2.2-2.8-1.5c-0.8,0.5-1.1,1-1,1.6c0.1,0.6,0.9,1.3,0.9,1.3s0.8,1.9,1.6,1
		c0.8-0.9,1.2-0.3,1.2-1.3L93.6,386.9L93.6,386.9z"/>
	<path class="st0" d="M101.3,380.9c-1.4,0.3-1.9,1.5-2.7,3.4c-0.7,1.8,0.2,1.6,0.7,2c0.5,0.3,0.3,0.8,1.3,1c3.4,0,4-0.1,4.7-1.3
		c0.7-1.2,2.5-3.1,1-4.3c-1.4-1.2-2.8,0.5-3.4,0.2c-0.6-0.3,0,0,0,0S102.7,380.6,101.3,380.9L101.3,380.9z"/>
	<path class="st0" d="M111.9,364.1c-1.4,0.3-2,1.5-2.7,3.4c-0.7,1.8,0.2,1.6,0.7,2c0.5,0.3,0.3,0.8,1.3,1c3.4,0,4-0.1,4.7-1.3
		c0.7-1.2,2.5-3.1,1-4.3c-1.4-1.2-2.8,0.5-3.4,0.2c-0.6-0.3,0,0,0,0C113.7,365.1,113.4,363.9,111.9,364.1L111.9,364.1z"/>
</g>
<g>
	<path class="st0" d="M194.7,227.6c1.7,1,2.6,0.2,3.5-0.4c0.9-0.6,1.5-1.1,0.8-2.2c-0.7-1-0.9-1.3-2-1.5c-1.1-0.2-1.2-1-1.8,0
		s0.2,0.3-0.6,1c-0.8,0.7-1.5,0.8-0.7,1.9C194.7,227.6,194.7,227.6,194.7,227.6L194.7,227.6z"/>
	<path class="st0" d="M203.9,225.1c1.7,1,2.6,0.2,3.5-0.4c0.9-0.6,1.5-1.1,0.8-2.2c-0.7-1-0.9-1.3-2-1.5c-1.1-0.2-1.2-1-1.8,0
		c-0.6,1,0.2,0.3-0.6,1c-0.8,0.7-1.5,0.8-0.7,1.9C203.8,225.1,203.9,225.1,203.9,225.1L203.9,225.1z"/>
	<path class="st0" d="M189.4,237.7c1.7,1,2.6,0.2,3.5-0.4c0.9-0.6,1.5-1.1,0.8-2.2c-0.7-1-0.9-1.3-2-1.5c-1.1-0.2-1.2-1-1.8,0
		s0.2,0.3-0.6,1c-0.8,0.7-1.5,0.8-0.7,1.9C189.4,237.7,189.4,237.7,189.4,237.7L189.4,237.7z"/>
	<path class="st0" d="M153.9,227.6c1.7,1,2.6,0.2,3.5-0.4c0.9-0.6,1.5-1.1,0.8-2.2c-0.7-1-0.9-1.3-2-1.5c-1.1-0.2-1.2-1-1.8,0
		s0.2,0.3-0.6,1c-0.8,0.7-1.5,0.8-0.7,1.9C153.9,227.6,153.9,227.6,153.9,227.6L153.9,227.6z"/>
	<path class="st0" d="M171.1,219.9c1.7,1,2.6,0.2,3.5-0.4c0.9-0.6,1.5-1.1,0.8-2.2c-0.7-1-0.9-1.3-2-1.5c-1.1-0.2-1.2-1-1.8,0
		c-0.6,1,0.2,0.3-0.6,1c-0.8,0.7-1.5,0.8-0.7,1.9C171.1,219.9,171.1,219.9,171.1,219.9L171.1,219.9z"/>
	<path class="st0" d="M194.8,215.1c-0.2,2.5,0.4,2.8,1.4,2.8c1,0,1.5-0.2,1.8-0.8c0.3-0.6,0-1.6,0-1.6s0.4-2-0.8-1.7
		c-1.2,0.3-1.2-0.5-1.8,0.4L194.8,215.1L194.8,215.1z"/>
	<path class="st0" d="M177.4,228c-0.2,2.5,0.4,2.8,1.4,2.8s1.5-0.2,1.8-0.8c0.3-0.6,0-1.6,0-1.6s0.4-2-0.8-1.7
		c-1.2,0.3-1.2-0.5-1.8,0.4C177.4,228,177.4,228,177.4,228L177.4,228z"/>
	<path class="st0" d="M185.1,215.8c1.3,0.6,2.5-0.2,4.1-1.3c1.5-1.1,0.7-1.5,0.5-2.2c-0.2-0.6,0.1-0.8-0.5-1.6
		c-2.8-1.9-3.4-2.2-4.6-1.5c-1.2,0.6-3.7,1.2-3.2,3c0.5,1.8,2.6,1,2.9,1.7c0.3,0.7,0,0,0,0C184.3,213.9,183.8,215.2,185.1,215.8
		L185.1,215.8z"/>
	<path class="st0" d="M218.9,216c-1,0.2-1.3,1-1.1,1.7c0.2,0.7-0.2,0.9,0.8,1.1s0.8,1.8,3.1,0.5c2.3-1.3,4.8-1,2.8-1.8
		c-2-0.8-3-0.7-3-0.7s-0.4-1-1-1.1C219.9,215.7,218.9,216,218.9,216L218.9,216z"/>
	<path class="st0" d="M205.5,208.1c-1,0.2-1.3,1-1.1,1.7c0.2,0.7-0.2,0.9,0.8,1.1c0.9,0.2,0.8,1.8,3.1,0.5c2.3-1.3,4.8-1,2.8-1.8
		c-2-0.8-3.1-0.7-3.1-0.7s-0.4-1-1-1.1C206.4,207.7,205.5,208.1,205.5,208.1L205.5,208.1z"/>
	<path class="st0" d="M213.6,230.5c-1.2-2.2-1.8-2.2-2.8-1.5c-0.8,0.5-1.1,1-1,1.6c0.1,0.6,0.9,1.3,0.9,1.3s0.8,1.9,1.6,1
		c0.8-0.9,1.2-0.3,1.2-1.3L213.6,230.5L213.6,230.5z"/>
	<path class="st0" d="M221.3,224.6c-1.4,0.3-1.9,1.5-2.7,3.4c-0.7,1.8,0.2,1.6,0.7,2c0.5,0.3,0.3,0.8,1.3,1c3.4,0,4-0.1,4.7-1.3
		c0.7-1.2,2.5-3.1,1-4.3c-1.4-1.2-2.8,0.5-3.4,0.2c-0.6-0.3,0,0,0,0S222.7,224.3,221.3,224.6L221.3,224.6z"/>
	<path class="st0" d="M231.9,207.8c-1.4,0.3-2,1.5-2.7,3.4c-0.7,1.8,0.2,1.6,0.7,2c0.5,0.3,0.3,0.8,1.3,1c3.4,0,4-0.1,4.7-1.3
		c0.7-1.2,2.5-3.1,1-4.3c-1.4-1.2-2.8,0.5-3.4,0.2c-0.6-0.3,0,0,0,0C233.6,208.8,233.3,207.6,231.9,207.8L231.9,207.8z"/>
</g>
<g>
	<path class="st0" d="M73.6,158c1.7,1,2.6,0.2,3.5-0.4c0.9-0.6,1.5-1.1,0.8-2.2c-0.7-1-0.9-1.3-2-1.5c-1.1-0.2-1.2-1-1.8,0
		c-0.6,1,0.2,0.3-0.6,1c-0.8,0.7-1.5,0.8-0.7,1.9C73.6,158,73.6,158,73.6,158L73.6,158z"/>
	<path class="st0" d="M82.9,155.6c1.7,1,2.6,0.2,3.5-0.4c0.9-0.6,1.5-1.1,0.8-2.2c-0.7-1-0.9-1.3-2-1.5c-1.1-0.2-1.2-1-1.8,0
		c-0.6,1,0.2,0.3-0.6,1c-0.8,0.7-1.5,0.8-0.7,1.9C82.7,155.6,82.9,155.6,82.9,155.6L82.9,155.6z"/>
	<path class="st0" d="M68.3,168.2c1.7,1,2.6,0.2,3.5-0.4c0.9-0.6,1.5-1.1,0.8-2.2c-0.7-1-0.9-1.3-2-1.5c-1.1-0.2-1.2-1-1.8,0
		c-0.6,1,0.2,0.3-0.6,1c-0.8,0.7-1.5,0.8-0.7,1.9C68.3,168.2,68.3,168.2,68.3,168.2L68.3,168.2z"/>
	<path class="st0" d="M32.8,158c1.7,1,2.6,0.2,3.5-0.4c0.9-0.6,1.5-1.1,0.8-2.2c-0.7-1-0.9-1.3-2-1.5c-1.1-0.2-1.2-1-1.8,0
		c-0.6,1,0.2,0.3-0.6,1c-0.8,0.7-1.5,0.8-0.7,1.9C32.8,158,32.8,158,32.8,158L32.8,158z"/>
	<path class="st0" d="M50,150.3c1.7,1,2.6,0.2,3.5-0.4c0.9-0.6,1.5-1.1,0.8-2.2c-0.7-1-0.9-1.3-2-1.5c-1.1-0.2-1.2-1-1.8,0
		s0.2,0.3-0.6,1c-0.8,0.7-1.5,0.8-0.7,1.9C50,150.3,50,150.3,50,150.3L50,150.3z"/>
	<path class="st0" d="M73.7,145.5c-0.2,2.5,0.4,2.8,1.4,2.8s1.5-0.2,1.8-0.8c0.3-0.6,0-1.6,0-1.6s0.4-2-0.8-1.7
		c-1.2,0.3-1.2-0.5-1.8,0.4L73.7,145.5L73.7,145.5z"/>
	<path class="st0" d="M56.3,158.4c-0.2,2.5,0.4,2.8,1.4,2.8s1.5-0.2,1.8-0.8c0.3-0.6,0-1.6,0-1.6s0.4-2-0.8-1.7
		c-1.2,0.3-1.2-0.5-1.8,0.4C56.3,158.4,56.3,158.4,56.3,158.4L56.3,158.4z"/>
	<path class="st0" d="M64,146.2c1.3,0.6,2.5-0.2,4.1-1.3c1.5-1.1,0.7-1.5,0.5-2.2c-0.2-0.6,0.1-0.8-0.5-1.6
		c-2.8-1.9-3.4-2.2-4.6-1.5c-1.2,0.6-3.7,1.2-3.2,3c0.5,1.8,2.6,1,2.9,1.7c0.3,0.7,0,0,0,0C63.2,144.3,62.7,145.6,64,146.2L64,146.2
		z"/>
	<path class="st0" d="M97.8,146.4c-1,0.2-1.3,1-1.1,1.7c0.2,0.7-0.2,0.9,0.8,1.1s0.8,1.8,3.1,0.5c2.3-1.3,4.8-1,2.8-1.8
		c-2-0.8-3-0.7-3-0.7s-0.4-1-1-1.1C98.8,146.1,97.8,146.4,97.8,146.4L97.8,146.4z"/>
	<path class="st0" d="M84.4,138.6c-1,0.2-1.3,1-1.1,1.7c0.2,0.7-0.2,0.9,0.8,1.1c0.9,0.2,0.8,1.8,3.1,0.5c2.3-1.3,4.8-1,2.8-1.8
		c-2-0.8-3.1-0.7-3.1-0.7s-0.4-1-1-1.1C85.3,138.2,84.4,138.6,84.4,138.6L84.4,138.6z"/>
	<path class="st0" d="M92.5,161c-1.2-2.2-1.8-2.2-2.8-1.5c-0.8,0.5-1.1,1-1,1.6c0.1,0.6,0.9,1.3,0.9,1.3s0.8,1.9,1.6,1
		c0.8-0.9,1.2-0.3,1.2-1.3L92.5,161L92.5,161z"/>
	<path class="st0" d="M100.2,155c-1.4,0.3-1.9,1.5-2.7,3.4c-0.7,1.8,0.2,1.6,0.7,2c0.5,0.3,0.3,0.8,1.3,1c3.4,0,4-0.1,4.7-1.3
		c0.7-1.2,2.5-3.1,1-4.3c-1.4-1.2-2.8,0.5-3.4,0.2c-0.6-0.3,0,0,0,0S101.6,154.7,100.2,155L100.2,155z"/>
	<path class="st0" d="M110.8,138.3c-1.4,0.3-2,1.5-2.7,3.4c-0.7,1.8,0.2,1.6,0.7,2c0.5,0.3,0.3,0.8,1.3,1c3.4,0,4-0.1,4.7-1.3
		c0.7-1.2,2.5-3.1,1-4.3c-1.4-1.2-2.8,0.5-3.4,0.2c-0.6-0.3,0,0,0,0C112.5,139.3,112.2,138,110.8,138.3L110.8,138.3z"/>
</g>
<g>
	<path class="st0" d="M197.9,416.9c1.7,1,2.6,0.2,3.5-0.4c0.9-0.6,1.5-1.1,0.8-2.2c-0.7-1-0.9-1.3-2-1.5c-1.1-0.2-1.2-1-1.8,0
		c-0.6,1,0.2,0.3-0.6,1c-0.8,0.7-1.5,0.8-0.7,1.9C197.9,416.9,197.9,416.9,197.9,416.9L197.9,416.9z"/>
	<path class="st0" d="M207.1,414.5c1.7,1,2.6,0.2,3.5-0.4c0.9-0.6,1.5-1.1,0.8-2.2c-0.7-1-0.9-1.3-2-1.5c-1.1-0.2-1.2-1-1.8,0
		c-0.6,1,0.2,0.3-0.6,1c-0.8,0.7-1.5,0.8-0.7,1.9C207,414.5,207.1,414.5,207.1,414.5L207.1,414.5z"/>
	<path class="st0" d="M192.6,427c1.7,1,2.6,0.2,3.5-0.4c0.9-0.6,1.5-1.1,0.8-2.2c-0.7-1-0.9-1.3-2-1.5c-1.1-0.2-1.2-1-1.8,0
		c-0.6,1,0.2,0.3-0.6,1c-0.8,0.7-1.5,0.8-0.7,1.9C192.6,427,192.6,427,192.6,427L192.6,427z"/>
	<path class="st0" d="M157,416.9c1.7,1,2.6,0.2,3.5-0.4c0.9-0.6,1.5-1.1,0.8-2.2c-0.7-1-0.9-1.3-2-1.5c-1.1-0.2-1.2-1-1.8,0
		c-0.6,1,0.2,0.3-0.6,1c-0.8,0.7-1.5,0.8-0.7,1.9C157,416.9,157,416.9,157,416.9L157,416.9z"/>
	<path class="st0" d="M174.2,409.2c1.7,1,2.6,0.2,3.5-0.4c0.9-0.6,1.5-1.1,0.8-2.2c-0.7-1-0.9-1.3-2-1.5c-1.1-0.2-1.2-1-1.8,0
		c-0.6,1,0.2,0.3-0.6,1c-0.8,0.7-1.5,0.8-0.7,1.9C174.2,409.2,174.2,409.2,174.2,409.2L174.2,409.2z"/>
	<path class="st0" d="M198,404.4c-0.2,2.5,0.4,2.8,1.4,2.8c1,0,1.5-0.2,1.8-0.8c0.3-0.6,0-1.6,0-1.6s0.4-2-0.8-1.7
		c-1.2,0.3-1.2-0.5-1.8,0.4L198,404.4L198,404.4z"/>
	<path class="st0" d="M180.6,417.3c-0.2,2.5,0.4,2.8,1.4,2.8s1.5-0.2,1.8-0.8c0.3-0.6,0-1.6,0-1.6s0.4-2-0.8-1.7
		c-1.2,0.3-1.2-0.5-1.8,0.4C180.6,417.3,180.6,417.3,180.6,417.3L180.6,417.3z"/>
	<path class="st0" d="M188.3,405.1c1.3,0.6,2.5-0.2,4.1-1.3c1.5-1.1,0.7-1.5,0.5-2.2c-0.2-0.6,0.1-0.8-0.5-1.6
		c-2.8-1.9-3.4-2.2-4.6-1.5c-1.2,0.6-3.7,1.2-3.2,3c0.5,1.8,2.6,1,2.9,1.7c0.3,0.7,0,0,0,0C187.5,403.2,186.9,404.5,188.3,405.1
		L188.3,405.1z"/>
	<path class="st0" d="M222.1,405.3c-1,0.2-1.3,1-1.1,1.7c0.2,0.7-0.2,0.9,0.8,1.1s0.8,1.8,3.1,0.5c2.3-1.3,4.8-1,2.8-1.8
		c-2-0.8-3-0.7-3-0.7s-0.4-1-1-1.1C223.1,405,222.1,405.3,222.1,405.3L222.1,405.3z"/>
	<path class="st0" d="M208.6,397.5c-1,0.2-1.3,1-1.1,1.7c0.2,0.7-0.2,0.9,0.8,1.1c0.9,0.2,0.8,1.8,3.1,0.5c2.3-1.3,4.8-1,2.8-1.8
		c-2-0.8-3.1-0.7-3.1-0.7s-0.4-1-1-1.1C209.6,397,208.6,397.5,208.6,397.5L208.6,397.5z"/>
	<path class="st0" d="M216.7,419.9c-1.2-2.2-1.8-2.2-2.8-1.5c-0.8,0.5-1.1,1-1,1.6c0.1,0.6,0.9,1.3,0.9,1.3s0.8,1.9,1.6,1
		c0.8-0.9,1.2-0.3,1.2-1.3L216.7,419.9L216.7,419.9z"/>
	<path class="st0" d="M224.4,413.9c-1.4,0.3-1.9,1.5-2.7,3.4c-0.7,1.8,0.2,1.6,0.7,2c0.5,0.3,0.3,0.8,1.3,1c3.4,0,4-0.1,4.7-1.3
		c0.7-1.2,2.5-3.1,1-4.3c-1.4-1.2-2.8,0.5-3.4,0.2c-0.6-0.3,0,0,0,0S225.9,413.6,224.4,413.9L224.4,413.9z"/>
	<path class="st0" d="M235.1,397.1c-1.4,0.3-2,1.5-2.7,3.4c-0.7,1.8,0.2,1.6,0.7,2c0.5,0.3,0.3,0.8,1.3,1c3.4,0,4-0.1,4.7-1.3
		c0.7-1.2,2.5-3.1,1-4.3c-1.4-1.2-2.8,0.5-3.4,0.2c-0.6-0.3,0,0,0,0C236.8,398.2,236.5,396.9,235.1,397.1L235.1,397.1z"/>
</g>
<g>
	<path class="st0" d="M281.2,341.1c1.7,1,2.6,0.2,3.5-0.4c0.9-0.6,1.5-1.1,0.8-2.2c-0.7-1-0.9-1.3-2-1.5c-1.1-0.2-1.2-1-1.8,0
		c-0.6,1,0.2,0.3-0.6,1c-0.8,0.7-1.5,0.8-0.7,1.9C281.2,341.1,281.2,341.1,281.2,341.1L281.2,341.1z"/>
	<path class="st0" d="M290.4,338.6c1.7,1,2.6,0.2,3.5-0.4c0.9-0.6,1.5-1.1,0.8-2.2c-0.7-1-0.9-1.3-2-1.5c-1.1-0.2-1.2-1-1.8,0
		c-0.6,1,0.2,0.3-0.6,1c-0.8,0.7-1.5,0.8-0.7,1.9C290.3,338.6,290.4,338.6,290.4,338.6L290.4,338.6z"/>
	<path class="st0" d="M275.9,351.2c1.7,1,2.6,0.2,3.5-0.4c0.9-0.6,1.5-1.1,0.8-2.2c-0.7-1-0.9-1.3-2-1.5c-1.1-0.2-1.2-1-1.8,0
		c-0.6,1,0.2,0.3-0.6,1c-0.8,0.7-1.5,0.8-0.7,1.9C275.9,351.2,275.9,351.2,275.9,351.2L275.9,351.2z"/>
	<path class="st0" d="M240.4,341.1c1.7,1,2.6,0.2,3.5-0.4c0.9-0.6,1.5-1.1,0.8-2.2c-0.7-1-0.9-1.3-2-1.5c-1.1-0.2-1.2-1-1.8,0
		s0.2,0.3-0.6,1c-0.8,0.7-1.5,0.8-0.7,1.9C240.4,341.1,240.4,341.1,240.4,341.1L240.4,341.1z"/>
	<path class="st0" d="M257.6,333.4c1.7,1,2.6,0.2,3.5-0.4c0.9-0.6,1.5-1.1,0.8-2.2c-0.7-1-0.9-1.3-2-1.5c-1.1-0.2-1.2-1-1.8,0
		c-0.6,1,0.2,0.3-0.6,1c-0.8,0.7-1.5,0.8-0.7,1.9C257.6,333.4,257.6,333.4,257.6,333.4L257.6,333.4z"/>
	<path class="st0" d="M281.3,328.6c-0.2,2.5,0.4,2.8,1.4,2.8c1,0,1.5-0.2,1.8-0.8c0.3-0.6,0-1.6,0-1.6s0.4-2-0.8-1.7
		c-1.2,0.3-1.2-0.5-1.8,0.4L281.3,328.6L281.3,328.6z"/>
	<path class="st0" d="M263.9,341.5c-0.2,2.5,0.4,2.8,1.4,2.8c1,0,1.5-0.2,1.8-0.8c0.3-0.6,0-1.6,0-1.6s0.4-2-0.8-1.7
		c-1.2,0.3-1.2-0.5-1.8,0.4C263.9,341.5,263.9,341.5,263.9,341.5L263.9,341.5z"/>
	<path class="st0" d="M271.6,329.3c1.3,0.6,2.5-0.2,4.1-1.3c1.5-1.1,0.7-1.5,0.5-2.2c-0.2-0.6,0.1-0.8-0.5-1.6
		c-2.8-1.9-3.4-2.2-4.6-1.5c-1.2,0.6-3.7,1.2-3.2,3c0.5,1.8,2.6,1,2.9,1.7c0.3,0.7,0,0,0,0C270.8,327.4,270.3,328.7,271.6,329.3
		L271.6,329.3z"/>
	<path class="st0" d="M305.4,329.5c-1,0.2-1.3,1-1.1,1.7c0.2,0.7-0.2,0.9,0.8,1.1s0.8,1.8,3.1,0.5c2.3-1.3,4.8-1,2.8-1.8
		c-2-0.8-3-0.7-3-0.7s-0.4-1-1-1.1C306.4,329.2,305.4,329.5,305.4,329.5L305.4,329.5z"/>
	<path class="st0" d="M292,321.6c-1,0.2-1.3,1-1.1,1.7c0.2,0.7-0.2,0.9,0.8,1.1c0.9,0.2,0.8,1.8,3.1,0.5c2.3-1.3,4.8-1,2.8-1.8
		c-2-0.8-3.1-0.7-3.1-0.7s-0.4-1-1-1.1C292.9,321.2,292,321.6,292,321.6L292,321.6z"/>
	<path class="st0" d="M300.1,344.1c-1.2-2.2-1.8-2.2-2.8-1.5c-0.8,0.5-1.1,1-1,1.6c0.1,0.6,0.9,1.3,0.9,1.3s0.8,1.9,1.6,1
		c0.8-0.9,1.2-0.3,1.2-1.3L300.1,344.1L300.1,344.1z"/>
	<path class="st0" d="M307.8,338.1c-1.4,0.3-1.9,1.5-2.7,3.4c-0.7,1.8,0.2,1.6,0.7,2c0.5,0.3,0.3,0.8,1.3,1c3.4,0,4-0.1,4.7-1.3
		c0.7-1.2,2.5-3.1,1-4.3c-1.4-1.2-2.8,0.5-3.4,0.2c-0.6-0.3,0,0,0,0S309.2,337.8,307.8,338.1L307.8,338.1z"/>
	<path class="st0" d="M318.4,321.3c-1.4,0.3-2,1.5-2.7,3.4c-0.7,1.8,0.2,1.6,0.7,2c0.5,0.3,0.3,0.8,1.3,1c3.4,0,4-0.1,4.7-1.3
		c0.7-1.2,2.5-3.1,1-4.3c-1.4-1.2-2.8,0.5-3.4,0.2c-0.6-0.3,0,0,0,0C320.1,322.4,319.8,321.1,318.4,321.3L318.4,321.3z"/>
</g>
<g>
	<path class="st0" d="M308.8,463.7c1.7,1,2.6,0.2,3.5-0.4c0.9-0.6,1.5-1.1,0.8-2.2c-0.7-1-0.9-1.3-2-1.5c-1.1-0.2-1.2-1-1.8,0
		c-0.6,1,0.2,0.3-0.6,1c-0.8,0.7-1.5,0.8-0.7,1.9C308.8,463.7,308.8,463.7,308.8,463.7L308.8,463.7z"/>
	<path class="st0" d="M318,461.2c1.7,1,2.6,0.2,3.5-0.4c0.9-0.6,1.5-1.1,0.8-2.2c-0.7-1-0.9-1.3-2-1.5c-1.1-0.2-1.2-1-1.8,0
		c-0.6,1,0.2,0.3-0.6,1c-0.8,0.7-1.5,0.8-0.7,1.9C317.9,461.2,318,461.2,318,461.2L318,461.2z"/>
	<path class="st0" d="M303.5,473.8c1.7,1,2.6,0.2,3.5-0.4c0.9-0.6,1.5-1.1,0.8-2.2c-0.7-1-0.9-1.3-2-1.5c-1.1-0.2-1.2-1-1.8,0
		c-0.6,1,0.2,0.3-0.6,1c-0.8,0.7-1.5,0.8-0.7,1.9C303.5,473.8,303.5,473.8,303.5,473.8L303.5,473.8z"/>
	<path class="st0" d="M267.9,463.7c1.7,1,2.6,0.2,3.5-0.4c0.9-0.6,1.5-1.1,0.8-2.2c-0.7-1-0.9-1.3-2-1.5c-1.1-0.2-1.2-1-1.8,0
		c-0.6,1,0.2,0.3-0.6,1c-0.8,0.7-1.5,0.8-0.7,1.9C267.9,463.7,267.9,463.7,267.9,463.7L267.9,463.7z"/>
	<path class="st0" d="M285.1,456c1.7,1,2.6,0.2,3.5-0.4c0.9-0.6,1.5-1.1,0.8-2.2c-0.7-1-0.9-1.3-2-1.5c-1.1-0.2-1.2-1-1.8,0
		c-0.6,1,0.2,0.3-0.6,1c-0.8,0.7-1.5,0.8-0.7,1.9C285.1,456,285.1,456,285.1,456L285.1,456z"/>
	<path class="st0" d="M308.9,451.2c-0.2,2.5,0.4,2.8,1.4,2.8s1.5-0.2,1.8-0.8c0.3-0.6,0-1.6,0-1.6s0.4-2-0.8-1.7
		c-1.2,0.3-1.2-0.5-1.8,0.4L308.9,451.2L308.9,451.2z"/>
	<path class="st0" d="M291.5,464.1c-0.2,2.5,0.4,2.8,1.4,2.8c1,0,1.5-0.2,1.8-0.8c0.3-0.6,0-1.6,0-1.6s0.4-2-0.8-1.7
		c-1.2,0.3-1.2-0.5-1.8,0.4C291.5,464.1,291.5,464.1,291.5,464.1L291.5,464.1z"/>
	<path class="st0" d="M299.1,451.9c1.3,0.6,2.5-0.2,4.1-1.3c1.5-1.1,0.7-1.5,0.5-2.2c-0.2-0.6,0.1-0.8-0.5-1.6
		c-2.8-1.9-3.4-2.2-4.6-1.5c-1.2,0.6-3.7,1.2-3.2,3c0.5,1.8,2.6,1,2.9,1.7c0.3,0.7,0,0,0,0C298.3,449.9,297.8,451.3,299.1,451.9
		L299.1,451.9z"/>
	<path class="st0" d="M332.9,452.1c-1,0.2-1.3,1-1.1,1.7c0.2,0.7-0.2,0.9,0.8,1.1c1,0.2,0.8,1.8,3.1,0.5c2.3-1.3,4.8-1,2.8-1.8
		c-2-0.8-3-0.7-3-0.7s-0.4-1-1-1.1C334,451.8,332.9,452.1,332.9,452.1L332.9,452.1z"/>
	<path class="st0" d="M319.5,444.2c-1,0.2-1.3,1-1.1,1.7c0.2,0.7-0.2,0.9,0.8,1.1c0.9,0.2,0.8,1.8,3.1,0.5c2.3-1.3,4.8-1,2.8-1.8
		c-2-0.8-3.1-0.7-3.1-0.7s-0.4-1-1-1.1C320.4,443.8,319.5,444.2,319.5,444.2L319.5,444.2z"/>
	<path class="st0" d="M327.6,466.6c-1.2-2.2-1.8-2.2-2.8-1.5c-0.8,0.5-1.1,1-1,1.6c0.1,0.6,0.9,1.3,0.9,1.3s0.8,1.9,1.6,1
		c0.8-0.9,1.2-0.3,1.2-1.3L327.6,466.6L327.6,466.6z"/>
	<path class="st0" d="M335.3,460.7c-1.4,0.3-1.9,1.5-2.7,3.4c-0.7,1.8,0.2,1.6,0.7,2c0.5,0.3,0.3,0.8,1.3,1c3.4,0,4-0.1,4.7-1.3
		c0.7-1.2,2.5-3.1,1-4.3c-1.4-1.2-2.8,0.5-3.4,0.2c-0.6-0.3,0,0,0,0S336.7,460.4,335.3,460.7L335.3,460.7z"/>
	<path class="st0" d="M345.9,443.9c-1.4,0.3-2,1.5-2.7,3.4c-0.7,1.8,0.2,1.6,0.7,2c0.5,0.3,0.3,0.8,1.3,1c3.4,0,4-0.1,4.7-1.3
		c0.7-1.2,2.5-3.1,1-4.3c-1.4-1.2-2.8,0.5-3.4,0.2c-0.6-0.3,0,0,0,0C347.7,444.9,347.4,443.7,345.9,443.9L345.9,443.9z"/>
</g>
<g>
	<path class="st0" d="M424.4,297.8c1.7,1,2.6,0.2,3.5-0.4c0.9-0.6,1.5-1.1,0.8-2.2c-0.7-1-0.9-1.3-2-1.5c-1.1-0.2-1.2-1-1.8,0
		c-0.6,1,0.2,0.3-0.6,1c-0.8,0.7-1.5,0.8-0.7,1.9C424.4,297.8,424.4,297.8,424.4,297.8L424.4,297.8z"/>
	<path class="st0" d="M433.6,295.4c1.7,1,2.6,0.2,3.5-0.4c0.9-0.6,1.5-1.1,0.8-2.2c-0.7-1-0.9-1.3-2-1.5c-1.1-0.2-1.2-1-1.8,0
		s0.2,0.3-0.6,1c-0.8,0.7-1.5,0.8-0.7,1.9C433.5,295.4,433.6,295.4,433.6,295.4L433.6,295.4z"/>
	<path class="st0" d="M419.1,308c1.7,1,2.6,0.2,3.5-0.4c0.9-0.6,1.5-1.1,0.8-2.2c-0.7-1-0.9-1.3-2-1.5c-1.1-0.2-1.2-1-1.8,0
		c-0.6,1,0.2,0.3-0.6,1c-0.8,0.7-1.5,0.8-0.7,1.9C419.1,308,419.1,308,419.1,308L419.1,308z"/>
	<path class="st0" d="M383.5,297.8c1.7,1,2.6,0.2,3.5-0.4c0.9-0.6,1.5-1.1,0.8-2.2c-0.7-1-0.9-1.3-2-1.5c-1.1-0.2-1.2-1-1.8,0
		c-0.6,1,0.2,0.3-0.6,1c-0.8,0.7-1.5,0.8-0.7,1.9C383.5,297.8,383.5,297.8,383.5,297.8L383.5,297.8z"/>
	<path class="st0" d="M400.7,290.1c1.7,1,2.6,0.2,3.5-0.4c0.9-0.6,1.5-1.1,0.8-2.2c-0.7-1-0.9-1.3-2-1.5c-1.1-0.2-1.2-1-1.8,0
		c-0.6,1,0.2,0.3-0.6,1c-0.8,0.7-1.5,0.8-0.7,1.9C400.7,290.1,400.7,290.1,400.7,290.1L400.7,290.1z"/>
	<path class="st0" d="M424.5,285.3c-0.2,2.5,0.4,2.8,1.4,2.8c1,0,1.5-0.2,1.8-0.8c0.3-0.6,0-1.6,0-1.6s0.4-2-0.8-1.7
		c-1.2,0.3-1.2-0.5-1.8,0.4L424.5,285.3L424.5,285.3z"/>
	<path class="st0" d="M407.1,298.2c-0.2,2.5,0.4,2.8,1.4,2.8c1,0,1.5-0.2,1.8-0.8c0.3-0.6,0-1.6,0-1.6s0.4-2-0.8-1.7
		c-1.2,0.3-1.2-0.5-1.8,0.4C407.1,298.2,407.1,298.2,407.1,298.2L407.1,298.2z"/>
	<path class="st0" d="M414.8,286c1.3,0.6,2.5-0.2,4.1-1.3c1.5-1.1,0.7-1.5,0.5-2.2c-0.2-0.6,0.1-0.8-0.5-1.6
		c-2.8-1.9-3.4-2.2-4.6-1.5c-1.2,0.6-3.7,1.2-3.2,3c0.5,1.8,2.6,1,2.9,1.7c0.3,0.7,0,0,0,0C413.9,284.1,413.4,285.4,414.8,286
		L414.8,286z"/>
	<path class="st0" d="M448.5,286.3c-1,0.2-1.3,1-1.1,1.7c0.2,0.7-0.2,0.9,0.8,1.1c1,0.2,0.8,1.8,3.1,0.5c2.3-1.3,4.8-1,2.8-1.8
		c-2-0.8-3-0.7-3-0.7s-0.4-1-1-1.1C449.6,285.9,448.5,286.3,448.5,286.3L448.5,286.3z"/>
	<path class="st0" d="M435.1,278.4c-1,0.2-1.3,1-1.1,1.7c0.2,0.7-0.2,0.9,0.8,1.1c0.9,0.2,0.8,1.8,3.1,0.5c2.3-1.3,4.8-1,2.8-1.8
		c-2-0.8-3.1-0.7-3.1-0.7s-0.4-1-1-1.1C436.1,278,435.1,278.4,435.1,278.4L435.1,278.4z"/>
	<path class="st0" d="M443.2,300.8c-1.2-2.2-1.8-2.2-2.8-1.5c-0.8,0.5-1.1,1-1,1.6c0.1,0.6,0.9,1.3,0.9,1.3s0.8,1.9,1.6,1
		c0.8-0.9,1.2-0.3,1.2-1.3L443.2,300.8L443.2,300.8z"/>
	<path class="st0" d="M450.9,294.9c-1.4,0.3-1.9,1.5-2.7,3.4c-0.7,1.8,0.2,1.6,0.7,2c0.5,0.3,0.3,0.8,1.3,1c3.4,0,4-0.1,4.7-1.3
		c0.7-1.2,2.5-3.1,1-4.3c-1.4-1.2-2.8,0.5-3.4,0.2c-0.6-0.3,0,0,0,0S452.3,294.5,450.9,294.9L450.9,294.9z"/>
	<path class="st0" d="M461.5,278.1c-1.4,0.3-2,1.5-2.7,3.4c-0.7,1.8,0.2,1.6,0.7,2c0.5,0.3,0.3,0.8,1.3,1c3.4,0,4-0.1,4.7-1.3
		c0.7-1.2,2.5-3.1,1-4.3c-1.4-1.2-2.8,0.5-3.4,0.2c-0.6-0.3,0,0,0,0C463.3,279.1,463,277.9,461.5,278.1L461.5,278.1z"/>
</g>
<g>
	<path class="st0" d="M450.7,468.5c1.7,1,2.6,0.2,3.5-0.4c0.9-0.6,1.5-1.1,0.8-2.2c-0.7-1-0.9-1.3-2-1.5c-1.1-0.2-1.2-1-1.8,0
		c-0.6,1,0.2,0.3-0.6,1c-0.8,0.7-1.5,0.8-0.7,1.9C450.7,468.5,450.7,468.5,450.7,468.5L450.7,468.5z"/>
	<path class="st0" d="M460,466c1.7,1,2.6,0.2,3.5-0.4c0.9-0.6,1.5-1.1,0.8-2.2c-0.7-1-0.9-1.3-2-1.5c-1.1-0.2-1.2-1-1.8,0
		c-0.6,1,0.2,0.3-0.6,1c-0.8,0.7-1.5,0.8-0.7,1.9C459.9,466,460,466,460,466L460,466z"/>
	<path class="st0" d="M445.4,478.6c1.7,1,2.6,0.2,3.5-0.4c0.9-0.6,1.5-1.1,0.8-2.2c-0.7-1-0.9-1.3-2-1.5c-1.1-0.2-1.2-1-1.8,0
		c-0.6,1,0.2,0.3-0.6,1c-0.8,0.7-1.5,0.8-0.7,1.9C445.4,478.6,445.4,478.6,445.4,478.6L445.4,478.6z"/>
	<path class="st0" d="M409.9,468.5c1.7,1,2.6,0.2,3.5-0.4c0.9-0.6,1.5-1.1,0.8-2.2c-0.7-1-0.9-1.3-2-1.5c-1.1-0.2-1.2-1-1.8,0
		c-0.6,1,0.2,0.3-0.6,1c-0.8,0.7-1.5,0.8-0.7,1.9C409.9,468.5,409.9,468.5,409.9,468.5L409.9,468.5z"/>
	<path class="st0" d="M427.1,460.8c1.7,1,2.6,0.2,3.5-0.4c0.9-0.6,1.5-1.1,0.8-2.2c-0.7-1-0.9-1.3-2-1.5c-1.1-0.2-1.2-1-1.8,0
		c-0.6,1,0.2,0.3-0.6,1c-0.8,0.7-1.5,0.8-0.7,1.9C427.1,460.8,427.1,460.8,427.1,460.8L427.1,460.8z"/>
	<path class="st0" d="M450.8,456c-0.2,2.5,0.4,2.8,1.4,2.8c1,0,1.5-0.2,1.8-0.8c0.3-0.6,0-1.6,0-1.6s0.4-2-0.8-1.7
		c-1.2,0.3-1.2-0.5-1.8,0.4L450.8,456L450.8,456z"/>
	<path class="st0" d="M433.4,468.9c-0.2,2.5,0.4,2.8,1.4,2.8c1,0,1.5-0.2,1.8-0.8c0.3-0.6,0-1.6,0-1.6s0.4-2-0.8-1.7
		c-1.2,0.3-1.2-0.5-1.8,0.4C433.4,468.9,433.4,468.9,433.4,468.9L433.4,468.9z"/>
	<path class="st0" d="M441.1,456.7c1.3,0.6,2.5-0.2,4.1-1.3c1.5-1.1,0.7-1.5,0.5-2.2c-0.2-0.6,0.1-0.8-0.5-1.6
		c-2.8-1.9-3.4-2.2-4.6-1.5c-1.2,0.6-3.7,1.2-3.2,3c0.5,1.8,2.6,1,2.9,1.7c0.3,0.7,0,0,0,0C440.3,454.8,439.8,456.1,441.1,456.7
		L441.1,456.7z"/>
	<path class="st0" d="M474.9,456.9c-1,0.2-1.3,1-1.1,1.7c0.2,0.7-0.2,0.9,0.8,1.1c1,0.2,0.8,1.8,3.1,0.5c2.3-1.3,4.8-1,2.8-1.8
		c-2-0.8-3-0.7-3-0.7s-0.4-1-1-1.1C475.9,456.6,474.9,456.9,474.9,456.9L474.9,456.9z"/>
	<path class="st0" d="M461.5,449c-1,0.2-1.3,1-1.1,1.7c0.2,0.7-0.2,0.9,0.8,1.1c0.9,0.2,0.8,1.8,3.1,0.5c2.3-1.3,4.8-1,2.8-1.8
		c-2-0.8-3.1-0.7-3.1-0.7s-0.4-1-1-1.1C462.4,448.6,461.5,449,461.5,449L461.5,449z"/>
	<path class="st0" d="M469.6,471.4c-1.2-2.2-1.8-2.2-2.8-1.5c-0.8,0.5-1.1,1-1,1.6c0.1,0.6,0.9,1.3,0.9,1.3s0.8,1.9,1.6,1
		c0.8-0.9,1.2-0.3,1.2-1.3L469.6,471.4L469.6,471.4z"/>
	<path class="st0" d="M477.3,465.5c-1.4,0.3-1.9,1.5-2.7,3.4c-0.7,1.8,0.2,1.6,0.7,2c0.5,0.3,0.3,0.8,1.3,1c3.4,0,4-0.1,4.7-1.3
		c0.7-1.2,2.5-3.1,1-4.3c-1.4-1.2-2.8,0.5-3.4,0.2c-0.6-0.3,0,0,0,0S478.7,465.2,477.3,465.5L477.3,465.5z"/>
	<path class="st0" d="M487.9,448.7c-1.4,0.3-2,1.5-2.7,3.4c-0.7,1.8,0.2,1.6,0.7,2c0.5,0.3,0.3,0.8,1.3,1c3.4,0,4-0.1,4.7-1.3
		c0.7-1.2,2.5-3.1,1-4.3c-1.4-1.2-2.8,0.5-3.4,0.2c-0.6-0.3,0,0,0,0C489.7,449.7,489.3,448.5,487.9,448.7L487.9,448.7z"/>
</g>
<g>
	<path class="st0" d="M212.6,142.8c1.7,1,2.6,0.2,3.5-0.4c0.9-0.6,1.5-1.1,0.8-2.2c-0.7-1-0.9-1.3-2-1.5c-1.1-0.2-1.2-1-1.8,0
		s0.2,0.3-0.6,1c-0.8,0.7-1.5,0.8-0.7,1.9C212.6,142.8,212.6,142.8,212.6,142.8L212.6,142.8z"/>
	<path class="st0" d="M221.8,140.4c1.7,1,2.6,0.2,3.5-0.4c0.9-0.6,1.5-1.1,0.8-2.2c-0.7-1-0.9-1.3-2-1.5c-1.1-0.2-1.2-1-1.8,0
		c-0.6,1,0.2,0.3-0.6,1c-0.8,0.7-1.5,0.8-0.7,1.9C221.7,140.4,221.8,140.4,221.8,140.4L221.8,140.4z"/>
	<path class="st0" d="M207.3,153c1.7,1,2.6,0.2,3.5-0.4c0.9-0.6,1.5-1.1,0.8-2.2c-0.7-1-0.9-1.3-2-1.5c-1.1-0.2-1.2-1-1.8,0
		s0.2,0.3-0.6,1c-0.8,0.7-1.5,0.8-0.7,1.9C207.3,153,207.3,153,207.3,153L207.3,153z"/>
	<path class="st0" d="M171.7,142.8c1.7,1,2.6,0.2,3.5-0.4c0.9-0.6,1.5-1.1,0.8-2.2c-0.7-1-0.9-1.3-2-1.5c-1.1-0.2-1.2-1-1.8,0
		s0.2,0.3-0.6,1c-0.8,0.7-1.5,0.8-0.7,1.9C171.7,142.8,171.7,142.8,171.7,142.8L171.7,142.8z"/>
	<path class="st0" d="M188.9,135.1c1.7,1,2.6,0.2,3.5-0.4c0.9-0.6,1.5-1.1,0.8-2.2c-0.7-1-0.9-1.3-2-1.5c-1.1-0.2-1.2-1-1.8,0
		c-0.6,1,0.2,0.3-0.6,1c-0.8,0.7-1.5,0.8-0.7,1.9C188.9,135.1,188.9,135.1,188.9,135.1L188.9,135.1z"/>
	<path class="st0" d="M212.7,130.3c-0.2,2.5,0.4,2.8,1.4,2.8c1,0,1.5-0.2,1.8-0.8c0.3-0.6,0-1.6,0-1.6s0.4-2-0.8-1.7
		c-1.2,0.3-1.2-0.5-1.8,0.4L212.7,130.3L212.7,130.3z"/>
	<path class="st0" d="M195.3,143.2c-0.2,2.5,0.4,2.8,1.4,2.8c1,0,1.5-0.2,1.8-0.8c0.3-0.6,0-1.6,0-1.6s0.4-2-0.8-1.7
		c-1.2,0.3-1.2-0.5-1.8,0.4C195.3,143.2,195.3,143.2,195.3,143.2L195.3,143.2z"/>
	<path class="st0" d="M203,131c1.3,0.6,2.5-0.2,4.1-1.3c1.5-1.1,0.7-1.5,0.5-2.2c-0.2-0.6,0.1-0.8-0.5-1.6c-2.8-1.9-3.4-2.2-4.6-1.5
		c-1.2,0.6-3.7,1.2-3.2,3c0.5,1.8,2.6,1,2.9,1.7c0.3,0.7,0,0,0,0C202.1,129.1,201.6,130.4,203,131L203,131z"/>
	<path class="st0" d="M236.7,131.2c-1,0.2-1.3,1-1.1,1.7c0.2,0.7-0.2,0.9,0.8,1.1s0.8,1.8,3.1,0.5c2.3-1.3,4.8-1,2.8-1.8
		c-2-0.8-3-0.7-3-0.7s-0.4-1-1-1.1C237.8,130.9,236.7,131.2,236.7,131.2L236.7,131.2z"/>
	<path class="st0" d="M223.3,123.4c-1,0.2-1.3,1-1.1,1.7c0.2,0.7-0.2,0.9,0.8,1.1c0.9,0.2,0.8,1.8,3.1,0.5c2.3-1.3,4.8-1,2.8-1.8
		c-2-0.8-3.1-0.7-3.1-0.7s-0.4-1-1-1.1C224.3,122.9,223.3,123.4,223.3,123.4L223.3,123.4z"/>
	<path class="st0" d="M231.4,145.8c-1.2-2.2-1.8-2.2-2.8-1.5c-0.8,0.5-1.1,1-1,1.6c0.1,0.6,0.9,1.3,0.9,1.3s0.8,1.9,1.6,1
		c0.8-0.9,1.2-0.3,1.2-1.3L231.4,145.8L231.4,145.8z"/>
	<path class="st0" d="M239.1,139.8c-1.4,0.3-1.9,1.5-2.7,3.4c-0.7,1.8,0.2,1.6,0.7,2c0.5,0.3,0.3,0.8,1.3,1c3.4,0,4-0.1,4.7-1.3
		c0.7-1.2,2.5-3.1,1-4.3c-1.4-1.2-2.8,0.5-3.4,0.2c-0.6-0.3,0,0,0,0S240.5,139.5,239.1,139.8L239.1,139.8z"/>
	<path class="st0" d="M249.8,123c-1.4,0.3-2,1.5-2.7,3.4c-0.7,1.8,0.2,1.6,0.7,2c0.5,0.3,0.3,0.8,1.3,1c3.4,0,4-0.1,4.7-1.3
		c0.7-1.2,2.5-3.1,1-4.3c-1.4-1.2-2.8,0.5-3.4,0.2c-0.6-0.3,0,0,0,0C251.5,124.1,251.2,122.8,249.8,123L249.8,123z"/>
</g>
<g>
	<path class="st0" d="M444.2,178.3c1.7,1,2.6,0.2,3.5-0.4c0.9-0.6,1.5-1.1,0.8-2.2c-0.7-1-0.9-1.3-2-1.5c-1.1-0.2-1.2-1-1.8,0
		c-0.6,1,0.2,0.3-0.6,1c-0.8,0.7-1.5,0.8-0.7,1.9C444.2,178.3,444.2,178.3,444.2,178.3L444.2,178.3z"/>
	<path class="st0" d="M453.5,175.8c1.7,1,2.6,0.2,3.5-0.4c0.9-0.6,1.5-1.1,0.8-2.2c-0.7-1-0.9-1.3-2-1.5c-1.1-0.2-1.2-1-1.8,0
		c-0.6,1,0.2,0.3-0.6,1c-0.8,0.7-1.5,0.8-0.7,1.9C453.4,175.8,453.5,175.8,453.5,175.8L453.5,175.8z"/>
	<path class="st0" d="M438.9,188.4c1.7,1,2.6,0.2,3.5-0.4c0.9-0.6,1.5-1.1,0.8-2.2c-0.7-1-0.9-1.3-2-1.5c-1.1-0.2-1.2-1-1.8,0
		c-0.6,1,0.2,0.3-0.6,1c-0.8,0.7-1.5,0.8-0.7,1.9C438.9,188.4,438.9,188.4,438.9,188.4L438.9,188.4z"/>
	<path class="st0" d="M403.4,178.3c1.7,1,2.6,0.2,3.5-0.4c0.9-0.6,1.5-1.1,0.8-2.2c-0.7-1-0.9-1.3-2-1.5c-1.1-0.2-1.2-1-1.8,0
		c-0.6,1,0.2,0.3-0.6,1c-0.8,0.7-1.5,0.8-0.7,1.9C403.4,178.3,403.4,178.3,403.4,178.3L403.4,178.3z"/>
	<path class="st0" d="M420.6,170.6c1.7,1,2.6,0.2,3.5-0.4c0.9-0.6,1.5-1.1,0.8-2.2c-0.7-1-0.9-1.3-2-1.5c-1.1-0.2-1.2-1-1.8,0
		c-0.6,1,0.2,0.3-0.6,1c-0.8,0.7-1.5,0.8-0.7,1.9C420.6,170.6,420.6,170.6,420.6,170.6L420.6,170.6z"/>
	<path class="st0" d="M444.3,165.8c-0.2,2.5,0.4,2.8,1.4,2.8c1,0,1.5-0.2,1.8-0.8c0.3-0.6,0-1.6,0-1.6s0.4-2-0.8-1.7
		c-1.2,0.3-1.2-0.5-1.8,0.4L444.3,165.8L444.3,165.8z"/>
	<path class="st0" d="M426.9,178.7c-0.2,2.5,0.4,2.8,1.4,2.8c1,0,1.5-0.2,1.8-0.8c0.3-0.6,0-1.6,0-1.6s0.4-2-0.8-1.7
		c-1.2,0.3-1.2-0.5-1.8,0.4C426.9,178.7,426.9,178.7,426.9,178.7L426.9,178.7z"/>
	<path class="st0" d="M434.6,166.5c1.3,0.6,2.5-0.2,4.1-1.3c1.5-1.1,0.7-1.5,0.5-2.2c-0.2-0.6,0.1-0.8-0.5-1.6
		c-2.8-1.9-3.4-2.2-4.6-1.5c-1.2,0.6-3.7,1.2-3.2,3c0.5,1.8,2.6,1,2.9,1.7c0.3,0.7,0,0,0,0C433.8,164.6,433.3,165.9,434.6,166.5
		L434.6,166.5z"/>
	<path class="st0" d="M468.4,166.7c-1,0.2-1.3,1-1.1,1.7c0.2,0.7-0.2,0.9,0.8,1.1c1,0.2,0.8,1.8,3.1,0.5c2.3-1.3,4.8-1,2.8-1.8
		c-2-0.8-3-0.7-3-0.7s-0.4-1-1-1.1C469.4,166.4,468.4,166.7,468.4,166.7L468.4,166.7z"/>
	<path class="st0" d="M455,158.8c-1,0.2-1.3,1-1.1,1.7c0.2,0.7-0.2,0.9,0.8,1.1c0.9,0.2,0.8,1.8,3.1,0.5c2.3-1.3,4.8-1,2.8-1.8
		c-2-0.8-3.1-0.7-3.1-0.7s-0.4-1-1-1.1C455.9,158.4,455,158.8,455,158.8L455,158.8z"/>
	<path class="st0" d="M463.1,181.3c-1.2-2.2-1.8-2.2-2.8-1.5c-0.8,0.5-1.1,1-1,1.6c0.1,0.6,0.9,1.3,0.9,1.3s0.8,1.9,1.6,1
		c0.8-0.9,1.2-0.3,1.2-1.3L463.1,181.3L463.1,181.3z"/>
	<path class="st0" d="M470.8,175.3c-1.4,0.3-1.9,1.5-2.7,3.4c-0.7,1.8,0.2,1.6,0.7,2c0.5,0.3,0.3,0.8,1.3,1c3.4,0,4-0.1,4.7-1.3
		c0.7-1.2,2.5-3.1,1-4.3c-1.4-1.2-2.8,0.5-3.4,0.2c-0.6-0.3,0,0,0,0S472.2,175,470.8,175.3L470.8,175.3z"/>
	<path class="st0" d="M481.4,158.5c-1.4,0.3-2,1.5-2.7,3.4c-0.7,1.8,0.2,1.6,0.7,2c0.5,0.3,0.3,0.8,1.3,1c3.4,0,4-0.1,4.7-1.3
		c0.7-1.2,2.5-3.1,1-4.3c-1.4-1.2-2.8,0.5-3.4,0.2c-0.6-0.3,0,0,0,0C483.2,159.6,482.8,158.3,481.4,158.5L481.4,158.5z"/>
</g>
<g>
	<path class="st0" d="M223.1,69.8c1.7,1,2.6,0.2,3.5-0.4c0.9-0.6,1.5-1.1,0.8-2.2c-0.7-1-0.9-1.3-2-1.5c-1.1-0.2-1.2-1-1.8,0
		c-0.6,1,0.2,0.3-0.6,1c-0.8,0.7-1.5,0.8-0.7,1.9C223.1,69.8,223.1,69.8,223.1,69.8L223.1,69.8z"/>
	<path class="st0" d="M232.3,67.3c1.7,1,2.6,0.2,3.5-0.4c0.9-0.6,1.5-1.1,0.8-2.2c-0.7-1-0.9-1.3-2-1.5c-1.1-0.2-1.2-1-1.8,0
		c-0.6,1,0.2,0.3-0.6,1c-0.8,0.7-1.5,0.8-0.7,1.9C232.2,67.3,232.3,67.3,232.3,67.3L232.3,67.3z"/>
	<path class="st0" d="M217.8,79.9c1.7,1,2.6,0.2,3.5-0.4c0.9-0.6,1.5-1.1,0.8-2.2c-0.7-1-0.9-1.3-2-1.5c-1.1-0.2-1.2-1-1.8,0
		c-0.6,1,0.2,0.3-0.6,1c-0.8,0.7-1.5,0.8-0.7,1.9C217.8,79.9,217.8,79.9,217.8,79.9L217.8,79.9z"/>
	<path class="st0" d="M182.3,69.8c1.7,1,2.6,0.2,3.5-0.4c0.9-0.6,1.5-1.1,0.8-2.2c-0.7-1-0.9-1.3-2-1.5c-1.1-0.2-1.2-1-1.8,0
		c-0.6,1,0.2,0.3-0.6,1c-0.8,0.7-1.5,0.8-0.7,1.9C182.3,69.8,182.3,69.8,182.3,69.8L182.3,69.8z"/>
	<path class="st0" d="M199.5,62.1c1.7,1,2.6,0.2,3.5-0.4c0.9-0.6,1.5-1.1,0.8-2.2c-0.7-1-0.9-1.3-2-1.5c-1.1-0.2-1.2-1-1.8,0
		s0.2,0.3-0.6,1c-0.8,0.7-1.5,0.8-0.7,1.9C199.5,62.1,199.5,62.1,199.5,62.1L199.5,62.1z"/>
	<path class="st0" d="M223.2,57.3c-0.2,2.5,0.4,2.8,1.4,2.8c1,0,1.5-0.2,1.8-0.8c0.3-0.6,0-1.6,0-1.6s0.4-2-0.8-1.7
		c-1.2,0.3-1.2-0.5-1.8,0.4L223.2,57.3L223.2,57.3z"/>
	<path class="st0" d="M205.8,70.2c-0.2,2.5,0.4,2.8,1.4,2.8c1,0,1.5-0.2,1.8-0.8c0.3-0.6,0-1.6,0-1.6s0.4-2-0.8-1.7
		c-1.2,0.3-1.2-0.5-1.8,0.4C205.8,70.2,205.8,70.2,205.8,70.2L205.8,70.2z"/>
	<path class="st0" d="M213.5,58c1.3,0.6,2.5-0.2,4.1-1.3c1.5-1.1,0.7-1.5,0.5-2.2c-0.2-0.6,0.1-0.8-0.5-1.6
		c-2.8-1.9-3.4-2.2-4.6-1.5c-1.2,0.6-3.7,1.2-3.2,3c0.5,1.8,2.6,1,2.9,1.7c0.3,0.7,0,0,0,0C212.7,56.1,212.2,57.4,213.5,58L213.5,58
		z"/>
	<path class="st0" d="M247.3,58.2c-1,0.2-1.3,1-1.1,1.7c0.2,0.7-0.2,0.9,0.8,1.1s0.8,1.8,3.1,0.5c2.3-1.3,4.8-1,2.8-1.8
		c-2-0.8-3-0.7-3-0.7s-0.4-1-1-1.1C248.3,57.9,247.3,58.2,247.3,58.2L247.3,58.2z"/>
	<path class="st0" d="M233.9,50.3c-1,0.2-1.3,1-1.1,1.7c0.2,0.7-0.2,0.9,0.8,1.1c0.9,0.2,0.8,1.8,3.1,0.5c2.3-1.3,4.8-1,2.8-1.8
		c-2-0.8-3.1-0.7-3.1-0.7s-0.4-1-1-1.1C234.8,49.9,233.9,50.3,233.9,50.3L233.9,50.3z"/>
	<path class="st0" d="M242,72.8c-1.2-2.2-1.8-2.2-2.8-1.5c-0.8,0.5-1.1,1-1,1.6c0.1,0.6,0.9,1.3,0.9,1.3s0.8,1.9,1.6,1
		c0.8-0.9,1.2-0.3,1.2-1.3L242,72.8L242,72.8z"/>
	<path class="st0" d="M249.6,66.8c-1.4,0.3-1.9,1.5-2.7,3.4c-0.7,1.8,0.2,1.6,0.7,2c0.5,0.3,0.3,0.8,1.3,1c3.4,0,4-0.1,4.7-1.3
		c0.7-1.2,2.5-3.1,1-4.3c-1.4-1.2-2.8,0.5-3.4,0.2c-0.6-0.3,0,0,0,0S251.1,66.5,249.6,66.8L249.6,66.8z"/>
	<path class="st0" d="M260.3,50c-1.4,0.3-2,1.5-2.7,3.4c-0.7,1.8,0.2,1.6,0.7,2c0.5,0.3,0.3,0.8,1.3,1c3.4,0,4-0.1,4.7-1.3
		c0.7-1.2,2.5-3.1,1-4.3c-1.4-1.2-2.8,0.5-3.4,0.2c-0.6-0.3,0,0,0,0C262,51.1,261.7,49.8,260.3,50L260.3,50z"/>
</g>
<g>
	<path class="st0" d="M351.3,44c1.7,1,2.6,0.2,3.5-0.4c0.9-0.6,1.5-1.1,0.8-2.2c-0.7-1-0.9-1.3-2-1.5c-1.1-0.2-1.2-1-1.8,0
		c-0.6,1,0.2,0.3-0.6,1c-0.8,0.7-1.5,0.8-0.7,1.9C351.3,44,351.3,44,351.3,44L351.3,44z"/>
	<path class="st0" d="M360.5,41.6c1.7,1,2.6,0.2,3.5-0.4c0.9-0.6,1.5-1.1,0.8-2.2c-0.7-1-0.9-1.3-2-1.5c-1.1-0.2-1.2-1-1.8,0
		c-0.6,1,0.2,0.3-0.6,1c-0.8,0.7-1.5,0.8-0.7,1.9C360.4,41.6,360.5,41.6,360.5,41.6L360.5,41.6z"/>
	<path class="st0" d="M345.9,54.2c1.7,1,2.6,0.2,3.5-0.4c0.9-0.6,1.5-1.1,0.8-2.2c-0.7-1-0.9-1.3-2-1.5c-1.1-0.2-1.2-1-1.8,0
		c-0.6,1,0.2,0.3-0.6,1c-0.8,0.7-1.5,0.8-0.7,1.9C345.9,54.2,345.9,54.2,345.9,54.2L345.9,54.2z"/>
	<path class="st0" d="M310.4,44c1.7,1,2.6,0.2,3.5-0.4c0.9-0.6,1.5-1.1,0.8-2.2c-0.7-1-0.9-1.3-2-1.5c-1.1-0.2-1.2-1-1.8,0
		c-0.6,1,0.2,0.3-0.6,1c-0.8,0.7-1.5,0.8-0.7,1.9C310.4,44,310.4,44,310.4,44L310.4,44z"/>
	<path class="st0" d="M327.6,36.3c1.7,1,2.6,0.2,3.5-0.4c0.9-0.6,1.5-1.1,0.8-2.2c-0.7-1-0.9-1.3-2-1.5c-1.1-0.2-1.2-1-1.8,0
		c-0.6,1,0.2,0.3-0.6,1c-0.8,0.7-1.5,0.8-0.7,1.9C327.6,36.3,327.6,36.3,327.6,36.3L327.6,36.3z"/>
	<path class="st0" d="M351.4,31.5c-0.2,2.5,0.4,2.8,1.4,2.8c1,0,1.5-0.2,1.8-0.8c0.3-0.6,0-1.6,0-1.6s0.4-2-0.8-1.7
		c-1.2,0.3-1.2-0.5-1.8,0.4L351.4,31.5L351.4,31.5z"/>
	<path class="st0" d="M334,44.4c-0.2,2.5,0.4,2.8,1.4,2.8c1,0,1.5-0.2,1.8-0.8c0.3-0.6,0-1.6,0-1.6s0.4-2-0.8-1.7
		c-1.2,0.3-1.2-0.5-1.8,0.4C334,44.4,334,44.4,334,44.4L334,44.4z"/>
	<path class="st0" d="M341.6,32.2c1.3,0.6,2.5-0.2,4.1-1.3c1.5-1.1,0.7-1.5,0.5-2.2c-0.2-0.6,0.1-0.8-0.5-1.6
		c-2.8-1.9-3.4-2.2-4.6-1.5c-1.2,0.6-3.7,1.2-3.2,3c0.5,1.8,2.6,1,2.9,1.7c0.3,0.7,0,0,0,0C340.8,30.3,340.3,31.6,341.6,32.2
		L341.6,32.2z"/>
	<path class="st0" d="M375.4,32.5c-1,0.2-1.3,1-1.1,1.7c0.2,0.7-0.2,0.9,0.8,1.1s0.8,1.8,3.1,0.5c2.3-1.3,4.8-1,2.8-1.8
		c-2-0.8-3-0.7-3-0.7s-0.4-1-1-1.1C376.5,32.1,375.4,32.5,375.4,32.5L375.4,32.5z"/>
	<path class="st0" d="M362,24.6c-1,0.2-1.3,1-1.1,1.7c0.2,0.7-0.2,0.9,0.8,1.1c0.9,0.2,0.8,1.8,3.1,0.5c2.3-1.3,4.8-1,2.8-1.8
		c-2-0.8-3.1-0.7-3.1-0.7s-0.4-1-1-1.1C362.9,24.2,362,24.6,362,24.6L362,24.6z"/>
	<path class="st0" d="M370.1,47c-1.2-2.2-1.8-2.2-2.8-1.5c-0.8,0.5-1.1,1-1,1.6c0.1,0.6,0.9,1.3,0.9,1.3s0.8,1.9,1.6,1
		c0.8-0.9,1.2-0.3,1.2-1.3L370.1,47L370.1,47z"/>
	<path class="st0" d="M377.8,41.1c-1.4,0.3-1.9,1.5-2.7,3.4c-0.7,1.8,0.2,1.6,0.7,2c0.5,0.3,0.3,0.8,1.3,1c3.4,0,4-0.1,4.7-1.3
		c0.7-1.2,2.5-3.1,1-4.3c-1.4-1.2-2.8,0.5-3.4,0.2c-0.6-0.3,0,0,0,0S379.2,40.7,377.8,41.1L377.8,41.1z"/>
	<path class="st0" d="M388.4,24.3c-1.4,0.3-2,1.5-2.7,3.4c-0.7,1.8,0.2,1.6,0.7,2c0.5,0.3,0.3,0.8,1.3,1c3.4,0,4-0.1,4.7-1.3
		c0.7-1.2,2.5-3.1,1-4.3c-1.4-1.2-2.8,0.5-3.4,0.2c-0.6-0.3,0,0,0,0C390.2,25.3,389.9,24.1,388.4,24.3L388.4,24.3z"/>
</g>
<g>
	<path class="st0" d="M328.4,151c1.7,1,2.6,0.2,3.5-0.4c0.9-0.6,1.5-1.1,0.8-2.2c-0.7-1-0.9-1.3-2-1.5c-1.1-0.2-1.2-1-1.8,0
		c-0.6,1,0.2,0.3-0.6,1c-0.8,0.7-1.5,0.8-0.7,1.9C328.4,151,328.4,151,328.4,151L328.4,151z"/>
	<path class="st0" d="M337.6,148.6c1.7,1,2.6,0.2,3.5-0.4c0.9-0.6,1.5-1.1,0.8-2.2c-0.7-1-0.9-1.3-2-1.5c-1.1-0.2-1.2-1-1.8,0
		c-0.6,1,0.2,0.3-0.6,1c-0.8,0.7-1.5,0.8-0.7,1.9C337.5,148.6,337.6,148.6,337.6,148.6L337.6,148.6z"/>
	<path class="st0" d="M323.1,161.2c1.7,1,2.6,0.2,3.5-0.4c0.9-0.6,1.5-1.1,0.8-2.2c-0.7-1-0.9-1.3-2-1.5c-1.1-0.2-1.2-1-1.8,0
		c-0.6,1,0.2,0.3-0.6,1c-0.8,0.7-1.5,0.8-0.7,1.9C323.1,161.2,323.1,161.2,323.1,161.2L323.1,161.2z"/>
	<path class="st0" d="M287.6,151c1.7,1,2.6,0.2,3.5-0.4c0.9-0.6,1.5-1.1,0.8-2.2c-0.7-1-0.9-1.3-2-1.5c-1.1-0.2-1.2-1-1.8,0
		c-0.6,1,0.2,0.3-0.6,1c-0.8,0.7-1.5,0.8-0.7,1.9C287.6,151,287.6,151,287.6,151L287.6,151z"/>
	<path class="st0" d="M304.8,143.4c1.7,1,2.6,0.2,3.5-0.4c0.9-0.6,1.5-1.1,0.8-2.2c-0.7-1-0.9-1.3-2-1.5c-1.1-0.2-1.2-1-1.8,0
		c-0.6,1,0.2,0.3-0.6,1c-0.8,0.7-1.5,0.8-0.7,1.9C304.8,143.4,304.8,143.4,304.8,143.4L304.8,143.4z"/>
	<path class="st0" d="M328.5,138.5c-0.2,2.5,0.4,2.8,1.4,2.8c1,0,1.5-0.2,1.8-0.8c0.3-0.6,0-1.6,0-1.6s0.4-2-0.8-1.7
		c-1.2,0.3-1.2-0.5-1.8,0.4L328.5,138.5L328.5,138.5z"/>
	<path class="st0" d="M311.1,151.4c-0.2,2.5,0.4,2.8,1.4,2.8c1,0,1.5-0.2,1.8-0.8c0.3-0.6,0-1.6,0-1.6s0.4-2-0.8-1.7
		c-1.2,0.3-1.2-0.5-1.8,0.4C311.1,151.4,311.1,151.4,311.1,151.4L311.1,151.4z"/>
	<path class="st0" d="M318.8,139.3c1.3,0.6,2.5-0.2,4.1-1.3c1.5-1.1,0.7-1.5,0.5-2.2c-0.2-0.6,0.1-0.8-0.5-1.6
		c-2.8-1.9-3.4-2.2-4.6-1.5c-1.2,0.6-3.7,1.2-3.2,3c0.5,1.8,2.6,1,2.9,1.7c0.3,0.7,0,0,0,0C318,137.3,317.5,138.6,318.8,139.3
		L318.8,139.3z"/>
	<path class="st0" d="M352.6,139.5c-1,0.2-1.3,1-1.1,1.7c0.2,0.7-0.2,0.9,0.8,1.1c1,0.2,0.8,1.8,3.1,0.5c2.3-1.3,4.8-1,2.8-1.8
		c-2-0.8-3-0.7-3-0.7s-0.4-1-1-1.1C353.6,139.2,352.6,139.5,352.6,139.5L352.6,139.5z"/>
	<path class="st0" d="M339.2,131.6c-1,0.2-1.3,1-1.1,1.7c0.2,0.7-0.2,0.9,0.8,1.1c0.9,0.2,0.8,1.8,3.1,0.5c2.3-1.3,4.8-1,2.8-1.8
		c-2-0.8-3.1-0.7-3.1-0.7s-0.4-1-1-1.1C340.1,131.2,339.2,131.6,339.2,131.6L339.2,131.6z"/>
	<path class="st0" d="M347.3,154c-1.2-2.2-1.8-2.2-2.8-1.5c-0.8,0.5-1.1,1-1,1.6c0.1,0.6,0.9,1.3,0.9,1.3s0.8,1.9,1.6,1
		c0.8-0.9,1.2-0.3,1.2-1.3L347.3,154L347.3,154z"/>
	<path class="st0" d="M354.9,148.1c-1.4,0.3-1.9,1.5-2.7,3.4c-0.7,1.8,0.2,1.6,0.7,2c0.5,0.3,0.3,0.8,1.3,1c3.4,0,4-0.1,4.7-1.3
		c0.7-1.2,2.5-3.1,1-4.3c-1.4-1.2-2.8,0.5-3.4,0.2c-0.6-0.3,0,0,0,0S356.4,147.8,354.9,148.1L354.9,148.1z"/>
	<path class="st0" d="M365.6,131.3c-1.4,0.3-2,1.5-2.7,3.4c-0.7,1.8,0.2,1.6,0.7,2c0.5,0.3,0.3,0.8,1.3,1c3.4,0,4-0.1,4.7-1.3
		c0.7-1.2,2.5-3.1,1-4.3c-1.4-1.2-2.8,0.5-3.4,0.2c-0.6-0.3,0,0,0,0C367.3,132.3,367,131.1,365.6,131.3L365.6,131.3z"/>
</g>
</svg>
