<?xml version="1.0" encoding="utf-8"?>
<!-- Generator: Adobe Illustrator 26.4.1, SVG Export Plug-In . SVG Version: 6.00 Build 0)  -->
<svg version="1.1" id="Calque_1" xmlns="http://www.w3.org/2000/svg" xmlns:xlink="http://www.w3.org/1999/xlink" x="0px" y="0px"
	 viewBox="0 0 512 512" style="enable-background:new 0 0 512 512;" xml:space="preserve">
<style type="text/css">
	.st0{fill:#6F8F9B;stroke:#000000;stroke-miterlimit:10;}
	.st1{fill:#A3BAC4;stroke:#000000;stroke-miterlimit:10;}
</style>
<polygon class="st0" points="311.6,124.4 295.8,117.1 235.5,158.4 214,185.4 197,209.7 205.4,235 197,243 172,250.9 163,265.4 
	166.9,279.9 229,334.1 243,349 256.4,344.6 277.5,303.2 295.8,308 339.2,286 365.3,256 386,224.4 385.4,198.8 397.6,183.9 "/>
<polygon class="st1" points="327.9,109.9 243,185.4 197,250.9 177.9,293 84,329 83.9,340.6 152,357 166.9,411 177.9,428 189,427.1 
	215.4,334.1 254.1,323.6 327.9,268.9 382.6,206 415,158.4 429,117.1 424.6,93 407,84 373.2,84 "/>
<path d="M426,87.4c-18.4-18.5-61.4-7.3-112.9,29.1c-17.7-9.7-52.8,10.6-78.8,36.6c-27.2,27.3-48.1,64.2-35.1,80.9
	c-0.9,1.4-1.9,2.9-2.8,4.3c-25,5.1-41.6,19.1-39.6,33.9h0c1.6,7.8,7,14.2,14.4,17c-1.4,1.8-3.3,3.2-5.5,4L83.9,322h0
	c-4,1.3-6.7,5.1-6.7,9.3c0,4.2,2.7,7.9,6.7,9.3l54.4,17.8c7.8,2.6,13.9,8.8,16.4,16.6l16,51.8v0c1.2,4.1,5,6.8,9.2,6.9
	c4.1,0,7.8-2.6,9.2-6.5l27.6-78.9c1.3-3.6,4.4-6.4,8.1-7.5l1.3-0.5c2.8,7.4,9.3,12.8,17,14.3c0.8,0.1,1.6,0.1,2.4,0
	c13.6,0,26.4-15.8,31.3-39c1.5-0.9,3-1.8,4.5-2.9v0c2.3,0.7,4.7,1.1,7.1,1.1c17.6,0,43.6-14.6,68-39.1
	c26.3-25.9,41.4-54.5,38.7-71.7C432.9,150.4,444.8,106.2,426,87.4L426,87.4z M241.7,160.4c24.2-24.1,48.4-36.6,61.2-36.2
	c-37.2,28.3-70,62.1-97.1,100.1c-2.5-11.8,10.4-38.6,35.8-63.9L241.7,160.4z M167,270.9c-0.9-6.4,7.5-14.9,22-20
	c-5.3,9.3-9.8,19-13.5,29C170.5,277.5,167.4,274.3,167,270.9L167,270.9z M244.3,344.6c-4-1-7.2-3.8-8.8-7.5
	c9.7-3.8,19.1-8.2,28.2-13.4C258.8,337.9,250.6,345.3,244.3,344.6L244.3,344.6z M349,267.8c-19.8,19.8-39.6,31.5-53.2,35l0,0
	c18.6-13.7,36-28.7,52.3-45c12.2-12.2,23.7-25,34.5-38.5C375,237.7,363.5,254.2,349,267.8L349,267.8z M385.4,198.7L385.4,198.7
	c-13.5,18.4-28.3,35.7-44.5,51.7c-19.4,19.6-40.6,37.2-63.3,52.7c-2.7,1.8-5.4,3.5-8.1,5.1v0c-13.1,8.6-27.3,15.6-42,20.8
	c-1.8,0.7-3.6,1.2-5.1,1.7c-6.9,1.9-12.5,7.1-14.9,13.9l-27.5,77.4l-3.2-10.2l20.2-54.4l0,0c1-2.7-0.4-5.6-3-6.6
	c-2.7-1-5.6,0.4-6.6,3l-15.4,42l-3.3-10.2l15.8-33.3c0.8-1.2,1-2.8,0.6-4.2c-0.4-1.4-1.4-2.6-2.8-3.2c-1.3-0.6-2.9-0.6-4.2,0
	c-1.3,0.6-2.4,1.8-2.8,3.2l-11.3,22.7c-1.4-4-3.4-7.8-6.1-11.1l12.9-12.8v0c2-2,2-5.2,0-7.2c-1-1-2.3-1.5-3.6-1.5
	c-1.4,0-2.7,0.5-3.6,1.5l-13.1,13.1v0c-2.8-1.9-5.8-3.4-9.1-4.5l-2.3-0.7l24.1-12v0c2.4-1.3,3.4-4.3,2.2-6.8
	c-1.2-2.5-4.2-3.5-6.7-2.4L125,343l-10.9-3.5l43.1-16v0c2.5-1.1,3.7-3.9,2.7-6.5c-1-2.5-3.7-3.9-6.3-3.1l-55.2,20.5l-10.2-3.3
	l80.8-28.4c6.7-2.4,11.9-7.8,14.1-14.6c5.1-15,12-29.3,20.5-42.6c1.9-3.1,3.9-6.3,6-9.5c15.7-22.9,33.5-44.2,53.3-63.6
	c16.5-16.6,34.2-31.8,53.1-45.6c46.8-33.9,88.1-46.8,102.7-32.3C433.4,109.2,420.1,151.2,385.4,198.7L385.4,198.7z M381.9,180.7
	c-0.2,2.7-2.4,4.7-5.1,4.7h-0.4c-12.1-2-23.1-8.1-31.3-17.2c-9.1-8.2-15.1-19.2-17.2-31.3c-0.2-2.8,1.9-5.3,4.7-5.6
	c2.8-0.2,5.3,1.9,5.6,4.7c1.9,9.6,6.9,18.4,14.2,24.9c6.5,7.3,15.3,12.3,24.9,14.2C380,175.5,382.2,177.9,381.9,180.7L381.9,180.7z
	 M372.6,124.4c3.5,0,6.5-2.5,7.1-5.9s-1.2-6.8-4.4-8.1c-3.2-1.3-6.9-0.2-8.8,2.7c-1.9,2.9-1.5,6.7,1,9.2c1.4,1.3,3.2,2,5.1,1.9
	L372.6,124.4z M348.2,205.9c-3.5,0.9-7.1,0.4-10.2-1.3c-0.4-0.3-0.9-0.6-1.2-1c-2.4-3.2-3.2-7.3-2.3-11.2c0.4-2.6-0.6-5.3-2.6-7
	c-2-1.5-4.6-2-6.9-1.2c-10.2,4.1-19.5,10.3-27.1,18.2c-8.6,8.2-15.1,18.4-19,29.6c-3.5,11.1-2.3,20.5,3.6,26.3h0
	c1.1,1,2.2,2,3.5,2.7c3.4,1.9,7.3,2.9,11.2,2.8c12.2,0,27.9-7.6,41-20.9c7.9-7.7,14.1-16.9,18.2-27.1c0.9-2.5,0.5-5.2-1.2-7.3
	C353.4,206.5,350.8,205.5,348.2,205.9L348.2,205.9z M331,235.5c-15.4,15.4-32.9,20.7-39.8,16.6c-0.6-0.3-1.1-0.7-1.6-1.2
	c-3-3-3.4-8.8-1.1-16c3.4-9.7,9.1-18.5,16.5-25.6c5.6-5.7,12.1-10.4,19.3-14c-0.4,5.7,1.7,11.2,5.6,15.4c0.9,0.9,1.9,1.7,2.9,2.4
	c3.7,2.2,8,3.3,12.3,3.2C341.5,223.4,336.7,229.9,331,235.5L331,235.5z"/>
</svg>
