<?xml version="1.0" encoding="utf-8"?>
<!-- Generator: Adobe Illustrator 26.4.1, SVG Export Plug-In . SVG Version: 6.00 Build 0)  -->
<svg version="1.1" id="Calque_1" xmlns="http://www.w3.org/2000/svg" xmlns:xlink="http://www.w3.org/1999/xlink" x="0px" y="0px"
	 viewBox="0 0 512 512" style="enable-background:new 0 0 512 512;" xml:space="preserve">
<style type="text/css">
	.st0{fill:#EFCD25;stroke:#000000;stroke-miterlimit:10;}
	.st1{fill:#35044F;stroke:#000000;stroke-miterlimit:10;}
	.st2{fill:#8820AF;stroke:#000000;stroke-miterlimit:10;}
</style>
<polyline class="st0" points="142,287.8 163.1,213.7 192,151.6 212,112 222.9,104.7 243.3,122 258,86.1 277.7,86.1 288,94 304,82 
	316.7,82 324,97 317.4,112 330.5,118 343.9,121.1 348.7,101.1 367.8,99 384.2,109.8 407,104.6 421.6,119.1 405,144 421.6,151.6 
	421.6,171 374.9,219 377.1,225.2 392,238.6 374.9,269.2 317.4,320 289,340.9 269.6,335 258.3,341.3 224,281 208.9,269.8 201,270.3 
	149.4,284.9 "/>
<polyline class="st1" points="277.7,347.7 269.6,335 252,352 252,376.3 278.3,354.3 "/>
<polygon class="st1" points="135,394.9 185.2,344.2 192,344.2 191.8,379.3 182.2,411 "/>
<polygon class="st2" points="142,287.8 126.6,307.5 94.8,347.7 94.8,357.1 110,376.3 135,394.9 146.9,384 185.2,344.2 192,344.2 
	192,363.8 182.2,411 212,426.1 245.8,433.1 245.8,394.9 252,352 243.3,319 229.3,281.4 212.2,260.1 177.1,273.3 "/>
<path d="M411.7,141.9l4.4-4.7c1.5-1.5,2.8-3.2,3.7-5.1c2-4,2.6-8.6,1.8-13c-0.8-4.4-3-8.5-6.3-11.5c-4.1-3.8-9.4-5.9-15-5.7
	c-5.6,0.2-10.8,2.5-14.7,6.5l-1.4,1.5c-1-3.7-3-7-5.8-9.6c-4-3.8-9.4-5.9-15-5.7c-5.6,0.2-10.9,2.5-14.7,6.6L336.5,114l-0.8-0.5h0
	c-3.4-1.6-7.3-2.3-11.1-1.9l3-5.8c3-6.7,2.3-14.5-1.9-20.6c-4.2-6-11.3-9.5-18.6-9c-7.4,0.5-13.9,4.8-17.3,11.3l-0.9,1.9
	c-2.1-3.2-5.1-5.8-8.6-7.4c-5-2.4-10.8-2.8-16.1-0.9c-5.3,1.8-9.6,5.7-12,10.7l-10.9,22.5c-2-3.2-4.9-5.8-8.3-7.4
	c-5-2.5-10.8-2.8-16.1-1c-5.3,1.8-9.6,5.7-12.1,10.7l-37.3,77.3c-10.5,23-18.5,47-23.9,71.7c-1.9,9.4-4.6,18.5-8.1,27.4
	c-12.4,25.6-49.6,58-49.9,58.3c-0.2,0.2-0.4,0.5-0.6,0.8c-0.2,0.2-0.4,0.5-0.6,0.8c-7.6,15.8,54.2,47,73.3,56.2
	c15.4,7.3,57.9,27,78.6,27c3.4,0.3,6.8-0.8,9.4-3c0.4-0.3,0.7-0.7,0.9-1.2l0.3-0.4v0c0.2-0.4,0.3-0.8,0.3-1.3v-0.7
	c0-0.3,0.5-12.6,2.6-28.2c7-17.1,16.6-33,28.5-47.2c5.4-5,11.3-9.3,17.7-13c23.1-13.9,44.1-30.9,62.4-50.6l29-30.7v0
	c3.8-4,5.8-9.4,5.7-14.9c-0.1-5.5-2.4-10.8-6.3-14.6c-1.5-1.5-3.2-2.7-5.1-3.7c-1.5-0.7-3-1.2-4.6-1.5l45.5-48.1v0
	c1.5-1.5,2.8-3.2,3.7-5.1c2.8-5.8,2.8-12.6,0-18.4c-2.8-5.8-8.2-10-14.5-11.3L411.7,141.9z M393,115.4L393,115.4
	c2-2.1,4.7-3.3,7.5-3.4c2.9-0.1,5.6,1,7.7,3c3.4,3.2,4.4,8.3,2.3,12.5c-0.5,1-1.1,1.9-1.9,2.7l-74.1,78.3
	c-4.4-5.2-11.1-7.9-17.9-7.2l5.1-10.6l57.8-61L393,115.4z M356.1,108.1c3.6-3.9,9.6-4.6,14.1-1.6c4.4,3.1,5.9,8.9,3.5,13.7
	c-0.4,0.9-0.9,1.7-1.6,2.4l-35.8,37.7l9-18.7v0c3.1-6.6,2.6-14.4-1.4-20.5L356.1,108.1z M176.9,198.3l37.3-77.3
	c2.6-5.4,9-7.7,14.4-5.1c5.4,2.6,7.7,9,5.1,14.4l-31.1,64.3c-0.6,1.2-0.7,2.7-0.3,4c0.4,1.3,1.4,2.4,2.6,3c1.2,0.6,2.7,0.7,4,0.2
	c1.3-0.5,2.4-1.4,2.9-2.7l49.5-102.4l0,0c1.2-2.6,3.4-4.6,6.2-5.6c2.7-1,5.7-0.8,8.3,0.4c5.4,2.6,7.7,9,5.1,14.4l-47.5,98.3
	c-0.6,1.2-0.7,2.6-0.2,3.9c0.5,1.3,1.4,2.3,2.6,2.9c0.7,0.3,1.4,0.5,2.1,0.5c0.5,0,1.1-0.1,1.6-0.3h0.4h0c0.5-0.3,0.9-0.8,1.2-1.3
	l0.4-0.3c0.4-0.4,0.8-0.9,1.1-1.4l47.5-98.3l8.7-17.7c1.9-3.9,6-6.3,10.4-6.1c4.4,0.3,8.1,3.1,9.6,7.2c0.9,2.7,0.8,5.7-0.5,8.2
	L260,222c-0.6,1.2-0.7,2.6-0.2,3.9c0.4,1.3,1.4,2.3,2.6,2.9c0.7,0.3,1.4,0.5,2.2,0.5c2,0,3.8-1.1,4.6-2.9l47.6-98.4
	c2.7-5.2,9-7.3,14.3-4.7c5.2,2.5,7.6,8.8,5.2,14.1l-36.8,75.9l-30,62.2c-1.1,2.5-0.1,5.5,2.4,6.7s5.5,0.2,6.8-2.3l30.1-62.4
	c1.2-2.6,3.4-4.6,6.1-5.5c2.7-1,5.7-0.8,8.2,0.5c2.6,1.2,4.5,3.4,5.5,6.1c0.9,2.7,0.8,5.6-0.5,8.2l-18.4,38v0
	C299,288,285,309.5,268.3,328.9l-0.8,0.9c-3.5,4.2-6.6,7.9-9.2,11.5L224,270.5c-2.4-4.9-6.6-8.7-11.8-10.5
	c-5.2-1.8-10.9-1.4-15.8,1.1l-47,23.8c1.4-5.1,2.8-10.6,4.4-16.9v0c5.1-24,12.9-47.4,23.1-69.7L176.9,198.3z M146.9,392.2l8.8-9.3
	l23.8,11.3l-1.7,12.6c-5.1-2.2-10.2-4.6-15.4-7.2C157.2,397.1,151.7,394.7,146.9,392.2L146.9,392.2z M183.6,363.8l-6.6-3.2l8.2-8.5
	L183.6,363.8z M182.2,374.4l-1.3,9.6l-17.8-8.6l6.5-6.8L182.2,374.4z M187.3,411.2l1.8-11.9l7.5,3.6c0.7,0.3,1.4,0.5,2.2,0.5
	c2.4,0,4.5-1.6,5-4c0.5-2.3-0.6-4.7-2.8-5.8l-10.5-5.1l1.3-9.3l7.4,3.5l0,0c0.7,0.3,1.4,0.5,2.2,0.5c2.4,0,4.4-1.7,5-4
	c0.5-2.3-0.6-4.7-2.8-5.7l-10.2-5.1l3.2-23.8v-0.7c0.1-3-1.5-5.7-4.2-7c-2.7-1.3-5.9-0.8-8.1,1.1l-17.1,17.8l-10.2-5.1v0
	c-2.5-1.1-5.5-0.1-6.7,2.4c-1.2,2.5-0.2,5.5,2.3,6.8l7.4,3.6l-6.4,6.9l-10.2-5.1h0c-2.5-1.1-5.5-0.1-6.7,2.4s-0.2,5.5,2.3,6.8
	l7.3,3.5l-8.5,8.9c-24.4-13.5-39.5-24.9-42.9-29.9c8.3-7.4,37.2-34.2,49.4-58.1l56.8-28.7c2.4-1.2,5.3-1.4,7.9-0.6
	c2.6,0.9,4.7,2.7,5.9,5.1L252,352c-10.9,24.4-13.8,63.2-14.4,74.1c-6,0.6-24.4-4.2-50.1-14.8L187.3,411.2z M262.2,354.2
	c1.9-3.5,4.1-6.9,6.7-9.9l0.7,5.1v0c-4.2,4.8-8.1,9.9-11.5,15.4C259.2,361.1,260.6,357.6,262.2,354.2L262.2,354.2z M380,237.7
	c2.1,2,3.3,4.7,3.3,7.5c0.1,2.9-0.9,5.6-2.9,7.7l-29,30.7l0,0c-17.7,19.1-38,35.7-60.4,49.2c-4.7,3-8.7,5.5-12.3,8.1l-1-7.2
	c12-14.1,22.6-29.3,31.6-45.4c0,0,0,0.4,0.4,0.5h0c2,2,5.2,2,7.2,0l47.5-50.2l0.6-0.5c3.1-3.3,7.9-4.4,12-2.7c1,0.6,2,1.3,2.8,2.2
	L380,237.7z M417.1,167.1L417.1,167.1c-0.5,1-1.1,1.9-1.9,2.7l-57.8,60.9l-0.7,0.5v0.4l-39.3,41.6l1.9-3.9l18.4-38
	c1.9-4,2.5-8.5,1.7-12.8l60-63.6c2-2.1,4.7-3.3,7.6-3.3c3.8-0.2,7.4,1.6,9.5,4.8c2.1,3.1,2.4,7.2,0.8,10.6L417.1,167.1z"/>
</svg>
