<?xml version="1.0" encoding="utf-8"?>
<!-- Generator: $$$/GeneralStr/196=Adobe Illustrator 27.6.0, SVG Export Plug-In . SVG Version: 6.00 Build 0)  -->
<svg version="1.1" id="Calque_1" xmlns="http://www.w3.org/2000/svg" xmlns:xlink="http://www.w3.org/1999/xlink" x="0px" y="0px"
	 viewBox="0 0 512 512" style="enable-background:new 0 0 512 512;" xml:space="preserve">
<style type="text/css">
	.st0{fill:#09915A;}
	.st1{fill:#12563C;}
</style>
<polygon class="st0" points="134.8,109 133.6,102.2 130.6,97.9 128.5,95.2 133,95.2 137.4,96.5 139.5,97.4 137.1,92.9 134,89.9 
	132.1,88.9 135.4,88 141.4,89.9 144.6,91.9 144.6,87.5 141,83.5 139.2,81.2 144.6,81.2 148.9,84.1 151.2,87.7 151.9,89 156.7,86.5 
	161.2,85.4 159.4,89 156.7,93.2 155.5,97.1 160.2,95.2 164.3,95.2 167.2,95.2 163.6,98.8 161.1,102.7 160,106.4 159.9,109 "/>
<path class="st1" d="M126.2,109.5c0,0.7,0.5,1.2,1.2,1.2h40.1c0.7,0,1.2-0.5,1.2-1.2s-0.5-1.2-1.2-1.2H161c0.2-4.8,2.9-9.4,7-11.8
	c0.4-0.2,0.7-0.7,0.6-1.2c-0.1-0.5-0.4-0.9-0.9-1c-3.5-0.9-7.4-0.4-10.6,1.3c0.8-2.9,2.7-6.3,6.7-9.5c0.4-0.4,0.6-1,0.3-1.5
	c-0.2-0.4-0.6-0.6-1.1-0.6c-1.4,0-6.1,0.3-10.4,3.6c-0.1,0.1-0.2,0.2-0.3,0.2c-0.8-2-2.1-3.8-3.8-5.2c-3-2.4-7-3.5-10.8-2.7
	c-0.4,0.1-0.8,0.4-0.9,0.8c-0.2,0.5,0,1.1,0.5,1.4c3.8,2.5,5.3,5.5,5.8,7.9c-3.2-2.4-7.6-3.8-12.5-2.2c-0.4,0.1-0.8,0.5-0.8,1
	c-0.1,0.6,0.3,1.2,0.9,1.3c2.9,0.8,4.9,2.9,6.4,5.3c-3.1-1.5-6.7-1.9-10.1-1.1c-0.5,0.1-0.8,0.5-0.9,1s0.2,1,0.6,1.2
	c4.1,2.4,6.9,7,7,11.8h-6.4C126.7,108.3,126.2,108.8,126.2,109.5L126.2,109.5z M136.2,108.3c-0.1-4.5-2.3-9-5.7-12h0.1
	c2.5,0,5,0.7,7.1,2.2c0.5,0.3,1,0.7,1.4,1.2c0.1,0.4,0.3,0.8,0.4,1.2c0.2,0.6,0.7,0.9,1.3,0.8l0,0c0.7-0.1,1.1-0.8,0.9-1.5
	c-1.1-3.8-3.2-8.1-6.8-10.6c1.7,0,3.3,0.4,4.9,1.3c1.5,0.8,2.7,1.8,3.5,2.6c0,0.5-0.1,1-0.2,1.4c-0.1,0.6,0.2,1.1,0.7,1.3l0,0
	c0.7,0.3,1.5-0.1,1.6-0.9c0.2-1.3,0.3-2.8,0.1-4.3c-0.3-2.5-1.4-5.8-4.5-8.8c2.1,0.2,4.2,1,5.8,2.4c1.6,1.3,2.8,3.1,3.4,5.1
	c-0.5,0.6-1,1.2-1.5,1.9c-0.4,0.6-0.1,1.5,0.6,1.8l0,0c0.5,0.2,1.1,0,1.4-0.5c0.8-1.3,1.9-2.4,3.1-3.4c1.7-1.3,3.6-2.1,5.3-2.6
	c-3.5,3.8-4.8,7.6-5.1,10.7c-1.2,1.1-2.3,2.4-3.1,3.8c-0.3,0.6-0.1,1.3,0.5,1.6c0.6,0.3,1.3,0.1,1.6-0.5c0.9-1.7,2.2-3.1,3.8-4.2
	c2.1-1.4,4.6-2.2,7.2-2.2c-3.4,3-5.5,7.5-5.7,12L136.2,108.3L136.2,108.3z"/>
<polygon class="st0" points="27.1,484.9 25.9,478.2 22.8,473.8 20.8,471.1 25.3,471.1 29.7,472.5 31.8,473.4 29.4,468.9 26.3,465.9 
	24.4,464.8 27.7,463.9 33.7,465.9 36.9,467.8 36.9,463.5 33.3,459.4 31.5,457.2 36.9,457.2 41.2,460 43.5,463.6 44.2,465 49,462.4 
	53.5,461.4 51.7,465 49,469.2 47.8,473.1 52.5,471.1 56.6,471.1 59.5,471.1 55.9,474.7 53.4,478.6 52.3,482.4 52.2,484.9 "/>
<path class="st1" d="M18.5,485.5c0,0.7,0.5,1.2,1.2,1.2h40.1c0.7,0,1.2-0.5,1.2-1.2s-0.5-1.2-1.2-1.2h-6.4c0.2-4.8,2.9-9.4,7-11.8
	c0.4-0.2,0.7-0.7,0.6-1.2c-0.1-0.5-0.4-0.9-0.9-1c-3.5-0.9-7.4-0.4-10.6,1.3c0.8-2.9,2.7-6.3,6.7-9.5c0.4-0.4,0.6-1,0.3-1.5
	c-0.2-0.4-0.6-0.6-1.1-0.6c-1.4,0-6.1,0.3-10.4,3.6c-0.1,0.1-0.2,0.2-0.3,0.2c-0.8-2-2.1-3.8-3.8-5.2c-3-2.4-7-3.5-10.8-2.7
	c-0.4,0.1-0.8,0.4-0.9,0.8c-0.2,0.5,0,1.1,0.5,1.4c3.8,2.5,5.3,5.5,5.8,7.9c-3.2-2.4-7.6-3.8-12.5-2.2c-0.4,0.1-0.8,0.5-0.8,1
	c-0.1,0.6,0.3,1.2,0.9,1.3c2.9,0.8,4.9,2.9,6.4,5.3c-3.1-1.5-6.7-1.9-10.1-1.1c-0.5,0.1-0.8,0.5-0.9,1s0.2,1,0.6,1.2
	c4.1,2.4,6.9,7,7,11.8h-6.4C19,484.3,18.5,484.8,18.5,485.5L18.5,485.5z M28.5,484.3c-0.1-4.5-2.3-9-5.7-12h0.1c2.5,0,5,0.7,7.1,2.2
	c0.5,0.3,1,0.7,1.4,1.2c0.1,0.4,0.3,0.8,0.4,1.2c0.2,0.6,0.7,0.9,1.3,0.8l0,0c0.7-0.1,1.1-0.8,0.9-1.5c-1.1-3.8-3.2-8.1-6.8-10.6
	c1.7,0,3.3,0.4,4.9,1.3c1.5,0.8,2.7,1.8,3.5,2.6c0,0.5-0.1,1-0.2,1.4c-0.1,0.6,0.2,1.1,0.7,1.3l0,0c0.7,0.3,1.5-0.1,1.6-0.9
	c0.2-1.3,0.3-2.8,0.1-4.3c-0.3-2.5-1.4-5.8-4.5-8.8c2.1,0.2,4.2,1,5.8,2.4c1.6,1.3,2.8,3.1,3.4,5.1c-0.5,0.6-1,1.2-1.5,1.9
	c-0.4,0.6-0.1,1.5,0.6,1.8l0,0c0.5,0.2,1.1,0,1.4-0.5c0.8-1.3,1.9-2.4,3.1-3.4c1.7-1.3,3.6-2.1,5.3-2.6c-3.5,3.8-4.8,7.6-5.1,10.7
	c-1.2,1.1-2.3,2.4-3.1,3.8c-0.3,0.6-0.1,1.3,0.5,1.6c0.6,0.3,1.3,0.1,1.6-0.5c0.9-1.7,2.2-3.1,3.8-4.2c2.1-1.4,4.6-2.2,7.2-2.2
	c-3.4,3-5.5,7.5-5.7,12L28.5,484.3L28.5,484.3z"/>
<polygon class="st0" points="323,331 321.8,324.2 318.7,319.9 316.7,317.2 321.2,317.2 325.5,318.5 327.6,319.4 325.2,314.9 
	322.1,311.9 320.3,310.9 323.6,310 329.6,311.9 332.7,313.9 332.7,309.5 329.1,305.5 327.3,303.2 332.7,303.2 337.1,306.1 
	339.3,309.7 340.1,311 344.9,308.5 349.4,307.4 347.6,311 344.9,315.2 343.7,319.1 348.3,317.2 352.4,317.2 355.4,317.2 
	351.8,320.8 349.2,324.7 348.2,328.4 348,331 "/>
<path class="st1" d="M314.3,331.5c0,0.7,0.5,1.2,1.2,1.2h40.1c0.7,0,1.2-0.5,1.2-1.2s-0.5-1.2-1.2-1.2h-6.4c0.2-4.8,2.9-9.4,7-11.8
	c0.4-0.2,0.7-0.7,0.6-1.2s-0.4-0.9-0.9-1c-3.5-0.9-7.4-0.4-10.6,1.3c0.8-2.9,2.7-6.3,6.7-9.5c0.4-0.4,0.6-1,0.3-1.5
	c-0.2-0.4-0.6-0.6-1.1-0.6c-1.4,0-6.1,0.3-10.4,3.6c-0.1,0.1-0.2,0.2-0.3,0.2c-0.8-2-2.1-3.8-3.8-5.2c-3-2.4-7-3.5-10.8-2.7
	c-0.4,0.1-0.8,0.4-0.9,0.8c-0.2,0.5,0,1.1,0.5,1.4c3.8,2.5,5.3,5.5,5.8,7.9c-3.2-2.4-7.6-3.8-12.5-2.2c-0.4,0.1-0.8,0.5-0.8,1
	c-0.1,0.6,0.3,1.2,0.9,1.3c2.9,0.8,4.9,2.9,6.4,5.3c-3.1-1.5-6.7-1.9-10.1-1.1c-0.5,0.1-0.8,0.5-0.9,1s0.2,1,0.6,1.2
	c4.1,2.4,6.9,7,7,11.8h-6.4C314.9,330.3,314.3,330.8,314.3,331.5L314.3,331.5z M324.4,330.3c-0.1-4.5-2.3-9-5.7-12h0.1
	c2.5,0,5,0.7,7.1,2.2c0.5,0.3,1,0.7,1.4,1.2c0.1,0.4,0.3,0.8,0.4,1.2c0.2,0.6,0.7,0.9,1.3,0.8l0,0c0.7-0.1,1.1-0.8,0.9-1.5
	c-1.1-3.8-3.2-8.1-6.8-10.6c1.7,0,3.3,0.4,4.9,1.3c1.5,0.8,2.7,1.8,3.5,2.6c0,0.5-0.1,1-0.2,1.4c-0.1,0.6,0.2,1.1,0.7,1.3l0,0
	c0.7,0.3,1.5-0.1,1.6-0.9c0.2-1.3,0.3-2.8,0.1-4.3c-0.3-2.5-1.4-5.8-4.5-8.8c2.1,0.2,4.2,1,5.8,2.4c1.6,1.3,2.8,3.1,3.4,5.1
	c-0.5,0.6-1,1.2-1.5,1.9c-0.4,0.6-0.1,1.5,0.6,1.8l0,0c0.5,0.2,1.1,0,1.4-0.5c0.8-1.3,1.9-2.4,3.1-3.4c1.7-1.3,3.6-2.1,5.3-2.6
	c-3.5,3.8-4.8,7.6-5.1,10.7c-1.2,1.1-2.3,2.4-3.1,3.8c-0.3,0.6-0.1,1.3,0.5,1.6c0.6,0.3,1.3,0.1,1.6-0.5c0.9-1.7,2.2-3.1,3.8-4.2
	c2.1-1.4,4.6-2.2,7.2-2.2c-3.4,3-5.5,7.5-5.7,12L324.4,330.3L324.4,330.3z"/>
<polygon class="st0" points="62.3,242.4 61.1,235.7 58,231.3 56,228.6 60.5,228.6 64.8,230 66.9,230.9 64.5,226.4 61.5,223.4 
	59.6,222.3 62.9,221.4 68.9,223.4 72,225.3 72,221 68.4,216.9 66.6,214.7 72,214.7 76.4,217.5 78.6,221.1 79.4,222.5 84.2,219.9 
	88.7,218.9 86.9,222.5 84.2,226.7 83,230.6 87.6,228.6 91.8,228.6 94.7,228.6 91.1,232.2 88.5,236.1 87.5,239.9 87.3,242.4 "/>
<path class="st1" d="M53.7,242.9c0,0.7,0.5,1.2,1.2,1.2H95c0.7,0,1.2-0.5,1.2-1.2s-0.5-1.2-1.2-1.2h-6.4c0.2-4.8,2.9-9.4,7-11.8
	c0.4-0.2,0.7-0.7,0.6-1.2s-0.4-0.9-0.9-1c-3.5-0.9-7.4-0.4-10.6,1.3c0.8-2.9,2.7-6.3,6.7-9.5c0.4-0.4,0.6-1,0.3-1.5
	c-0.2-0.4-0.6-0.6-1.1-0.6c-1.4,0-6.1,0.3-10.4,3.6c-0.1,0.1-0.2,0.2-0.3,0.2c-0.8-2-2.1-3.8-3.8-5.2c-3-2.4-7-3.5-10.8-2.7
	c-0.4,0.1-0.8,0.4-0.9,0.8c-0.2,0.5,0,1.1,0.5,1.4c3.8,2.5,5.3,5.5,5.8,7.9c-3.2-2.4-7.6-3.8-12.5-2.2c-0.4,0.1-0.8,0.5-0.8,1
	c-0.1,0.6,0.3,1.2,0.9,1.3c2.9,0.8,4.9,2.9,6.4,5.3c-3.1-1.5-6.7-1.9-10.1-1.1c-0.5,0.1-0.8,0.5-0.9,1c-0.1,0.5,0.2,1,0.6,1.2
	c4.1,2.4,6.9,7,7,11.8h-6.4C54.2,241.7,53.7,242.3,53.7,242.9L53.7,242.9z M63.7,241.7c-0.1-4.5-2.3-9-5.7-12h0.1
	c2.5,0,5,0.7,7.1,2.2c0.5,0.3,1,0.7,1.4,1.2c0.1,0.4,0.3,0.8,0.4,1.2c0.2,0.6,0.7,0.9,1.3,0.8l0,0c0.7-0.1,1.1-0.8,0.9-1.5
	c-1.1-3.8-3.2-8.1-6.8-10.6c1.7,0,3.3,0.4,4.9,1.3c1.5,0.8,2.7,1.8,3.5,2.6c0,0.5-0.1,1-0.2,1.4c-0.1,0.6,0.2,1.1,0.7,1.3l0,0
	c0.7,0.3,1.5-0.1,1.6-0.9c0.2-1.3,0.3-2.8,0.1-4.3c-0.3-2.5-1.4-5.8-4.5-8.8c2.1,0.2,4.2,1,5.8,2.4c1.6,1.3,2.8,3.1,3.4,5.1
	c-0.5,0.6-1,1.2-1.5,1.9c-0.4,0.6-0.1,1.5,0.6,1.8l0,0c0.5,0.2,1.1,0,1.4-0.5c0.8-1.3,1.9-2.4,3.1-3.4c1.7-1.3,3.6-2.1,5.3-2.6
	c-3.5,3.8-4.8,7.6-5.1,10.7c-1.2,1.1-2.3,2.4-3.1,3.8c-0.3,0.6-0.1,1.3,0.5,1.6s1.3,0.1,1.6-0.5c0.9-1.7,2.2-3.1,3.8-4.2
	c2.1-1.4,4.6-2.2,7.2-2.2c-3.4,3-5.5,7.5-5.7,12L63.7,241.7L63.7,241.7z"/>
<polygon class="st0" points="455.9,484.9 454.7,478.2 451.6,473.8 449.6,471.2 454.1,471.1 458.4,472.5 460.5,473.4 458.1,468.9 
	455,465.9 453.2,464.8 456.5,463.9 462.5,465.9 465.6,467.8 465.6,463.5 462,459.4 460.2,457.2 465.6,457.2 470,460 472.2,463.6 
	473,465 477.8,462.4 482.3,461.4 480.5,465 477.8,469.2 476.6,473.1 481.2,471.2 485.3,471.2 488.3,471.2 484.7,474.7 482.1,478.6 
	481.1,482.4 480.9,484.9 "/>
<path class="st1" d="M447.2,485.5c0,0.7,0.5,1.2,1.2,1.2h40.1c0.7,0,1.2-0.5,1.2-1.2s-0.5-1.2-1.2-1.2h-6.4c0.2-4.8,2.9-9.4,7-11.8
	c0.4-0.2,0.7-0.7,0.6-1.2s-0.4-0.9-0.9-1c-3.5-0.9-7.4-0.4-10.6,1.3c0.8-2.9,2.7-6.3,6.7-9.5c0.4-0.4,0.6-1,0.3-1.5
	c-0.2-0.4-0.6-0.6-1.1-0.6c-1.4,0-6.1,0.3-10.4,3.6c-0.1,0.1-0.2,0.2-0.3,0.2c-0.8-2-2.1-3.8-3.8-5.2c-3-2.4-7-3.5-10.8-2.7
	c-0.4,0.1-0.8,0.4-0.9,0.8c-0.2,0.5,0,1.1,0.5,1.4c3.8,2.5,5.3,5.5,5.8,7.9c-3.2-2.4-7.6-3.8-12.5-2.2c-0.4,0.1-0.8,0.5-0.8,1
	c-0.1,0.6,0.3,1.2,0.9,1.3c2.9,0.8,4.9,2.9,6.4,5.3c-3.1-1.5-6.7-1.9-10.1-1.1c-0.5,0.1-0.8,0.5-0.9,1s0.2,1,0.6,1.2
	c4.1,2.4,6.9,7,7,11.8h-6.4C447.8,484.3,447.2,484.8,447.2,485.5L447.2,485.5z M457.3,484.3c-0.1-4.5-2.3-9-5.7-12h0.1
	c2.5,0,5,0.7,7.1,2.2c0.5,0.3,1,0.7,1.4,1.2c0.1,0.4,0.3,0.8,0.4,1.2c0.2,0.6,0.7,0.9,1.3,0.8l0,0c0.7-0.1,1.1-0.8,0.9-1.5
	c-1.1-3.8-3.2-8.1-6.8-10.6c1.7,0,3.3,0.4,4.9,1.3c1.5,0.8,2.7,1.8,3.5,2.6c0,0.5-0.1,1-0.2,1.4c-0.1,0.6,0.2,1.1,0.7,1.3l0,0
	c0.7,0.3,1.5-0.1,1.6-0.9c0.2-1.3,0.3-2.8,0.1-4.3c-0.3-2.5-1.4-5.8-4.5-8.8c2.1,0.2,4.2,1,5.8,2.4c1.6,1.3,2.8,3.1,3.4,5.1
	c-0.5,0.6-1,1.2-1.5,1.9c-0.4,0.6-0.1,1.5,0.6,1.8l0,0c0.5,0.2,1.1,0,1.4-0.5c0.8-1.3,1.9-2.4,3.1-3.4c1.7-1.3,3.6-2.1,5.3-2.6
	c-3.5,3.8-4.8,7.6-5.1,10.7c-1.2,1.1-2.3,2.4-3.1,3.8c-0.3,0.6-0.1,1.3,0.5,1.6c0.6,0.3,1.3,0.1,1.6-0.5c0.9-1.7,2.2-3.1,3.8-4.2
	c2.1-1.4,4.6-2.2,7.2-2.2c-3.4,3-5.5,7.5-5.7,12L457.3,484.3L457.3,484.3z"/>
<polygon class="st0" points="259.5,192.6 258.3,185.8 255.2,181.5 253.2,178.8 257.7,178.8 262,180.1 264.1,181 261.7,176.5 
	258.7,173.5 256.8,172.5 260.1,171.6 266.1,173.5 269.2,175.5 269.2,171.1 265.6,167.1 263.8,164.8 269.2,164.8 273.6,167.7 
	275.8,171.3 276.6,172.6 281.4,170.1 285.9,169 284.1,172.6 281.4,176.8 280.2,180.7 284.8,178.8 289,178.8 291.9,178.8 
	288.3,182.4 285.7,186.3 284.7,190 284.5,192.6 "/>
<path class="st1" d="M250.9,193.1c0,0.7,0.5,1.2,1.2,1.2h40.1c0.7,0,1.2-0.5,1.2-1.2s-0.5-1.2-1.2-1.2h-6.4c0.2-4.8,2.9-9.4,7-11.8
	c0.4-0.2,0.7-0.7,0.6-1.2s-0.4-0.9-0.9-1c-3.5-0.9-7.4-0.4-10.6,1.3c0.8-2.9,2.7-6.3,6.7-9.5c0.4-0.4,0.6-1,0.3-1.5
	c-0.2-0.4-0.6-0.6-1.1-0.6c-1.4,0-6.1,0.3-10.4,3.6c-0.1,0.1-0.2,0.2-0.3,0.2c-0.8-2-2.1-3.8-3.8-5.2c-3-2.4-7-3.5-10.8-2.7
	c-0.4,0.1-0.8,0.4-0.9,0.8c-0.2,0.5,0,1.1,0.5,1.4c3.8,2.5,5.3,5.5,5.8,7.9c-3.2-2.4-7.6-3.8-12.5-2.2c-0.4,0.1-0.8,0.5-0.8,1
	c-0.1,0.6,0.3,1.2,0.9,1.3c2.9,0.8,4.9,2.9,6.4,5.3c-3.1-1.5-6.7-1.9-10.1-1.1c-0.5,0.1-0.8,0.5-0.9,1c-0.1,0.5,0.2,1,0.6,1.2
	c4.1,2.4,6.9,7,7,11.8h-6.4C251.4,191.9,250.9,192.4,250.9,193.1L250.9,193.1z M260.9,191.9c-0.1-4.5-2.3-9-5.7-12h0.1
	c2.5,0,5,0.7,7.1,2.2c0.5,0.3,1,0.7,1.4,1.2c0.1,0.4,0.3,0.8,0.4,1.2c0.2,0.6,0.7,0.9,1.3,0.8l0,0c0.7-0.1,1.1-0.8,0.9-1.5
	c-1.1-3.8-3.2-8.1-6.8-10.6c1.7,0,3.3,0.4,4.9,1.3c1.5,0.8,2.7,1.8,3.5,2.6c0,0.5-0.1,1-0.2,1.4c-0.1,0.6,0.2,1.1,0.7,1.3l0,0
	c0.7,0.3,1.5-0.1,1.6-0.9c0.2-1.3,0.3-2.8,0.1-4.3c-0.3-2.5-1.4-5.8-4.5-8.8c2.1,0.2,4.2,1,5.8,2.4c1.6,1.3,2.8,3.1,3.4,5.1
	c-0.5,0.6-1,1.2-1.5,1.9c-0.4,0.6-0.1,1.5,0.6,1.8l0,0c0.5,0.2,1.1,0,1.4-0.5c0.8-1.3,1.9-2.4,3.1-3.4c1.7-1.3,3.6-2.1,5.3-2.6
	c-3.5,3.8-4.8,7.6-5.1,10.7c-1.2,1.1-2.3,2.4-3.1,3.8c-0.3,0.6-0.1,1.3,0.5,1.6s1.3,0.1,1.6-0.5c0.9-1.7,2.2-3.1,3.8-4.2
	c2.1-1.4,4.6-2.2,7.2-2.2c-3.4,3-5.5,7.5-5.7,12L260.9,191.9L260.9,191.9z"/>
<polygon class="st0" points="453,61 451.8,54.3 448.7,49.9 446.7,47.2 451.2,47.2 455.6,48.6 457.7,49.5 455.3,45 452.2,42 
	450.3,40.9 453.6,40 459.6,42 462.8,43.9 462.8,39.6 459.2,35.5 457.4,33.3 462.8,33.3 467.1,36.1 469.4,39.7 470.1,41.1 
	474.9,38.5 479.4,37.5 477.6,41.1 474.9,45.3 473.7,49.2 478.4,47.2 482.5,47.2 485.4,47.2 481.8,50.8 479.3,54.7 478.2,58.5 
	478.1,61 "/>
<path class="st1" d="M444.4,61.5c0,0.7,0.5,1.2,1.2,1.2h40.1c0.7,0,1.2-0.5,1.2-1.2s-0.5-1.2-1.2-1.2h-6.4c0.2-4.8,2.9-9.4,7-11.8
	c0.4-0.2,0.7-0.7,0.6-1.2s-0.4-0.9-0.9-1c-3.5-0.9-7.4-0.4-10.6,1.3c0.8-2.9,2.7-6.3,6.7-9.5c0.4-0.4,0.6-1,0.3-1.5
	c-0.2-0.4-0.6-0.6-1.1-0.6c-1.4,0-6.1,0.3-10.4,3.6c-0.1,0.1-0.2,0.2-0.3,0.2c-0.8-2-2.1-3.8-3.8-5.2c-3-2.4-7-3.5-10.8-2.7
	c-0.4,0.1-0.8,0.4-0.9,0.8c-0.2,0.5,0,1.1,0.5,1.4c3.8,2.5,5.3,5.5,5.8,7.9c-3.2-2.4-7.6-3.8-12.5-2.2c-0.4,0.1-0.8,0.5-0.8,1
	c-0.1,0.6,0.3,1.2,0.9,1.3c2.9,0.8,4.9,2.9,6.4,5.3c-3.1-1.5-6.7-1.9-10.1-1.1c-0.5,0.1-0.8,0.5-0.9,1s0.2,1,0.6,1.2
	c4.1,2.4,6.9,7,7,11.8h-6.4C444.9,60.3,444.4,60.9,444.4,61.5L444.4,61.5z M454.4,60.3c-0.1-4.5-2.3-9-5.7-12h0.1
	c2.5,0,5,0.7,7.1,2.2c0.5,0.3,1,0.7,1.4,1.2c0.1,0.4,0.3,0.8,0.4,1.2c0.2,0.6,0.7,0.9,1.3,0.8l0,0c0.7-0.1,1.1-0.8,0.9-1.5
	c-1.1-3.8-3.2-8.1-6.8-10.6c1.7,0,3.3,0.4,4.9,1.3c1.5,0.8,2.7,1.8,3.5,2.6c0,0.5-0.1,1-0.2,1.4c-0.1,0.6,0.2,1.1,0.7,1.3l0,0
	c0.7,0.3,1.5-0.1,1.6-0.9c0.2-1.3,0.3-2.8,0.1-4.3c-0.3-2.5-1.4-5.8-4.5-8.8c2.1,0.2,4.2,1,5.8,2.4c1.6,1.3,2.8,3.1,3.4,5.1
	c-0.5,0.6-1,1.2-1.5,1.9c-0.4,0.6-0.1,1.5,0.6,1.8l0,0c0.5,0.2,1.1,0,1.4-0.5c0.8-1.3,1.9-2.4,3.1-3.4c1.7-1.3,3.6-2.1,5.3-2.6
	c-3.5,3.8-4.8,7.6-5.1,10.7c-1.2,1.1-2.3,2.4-3.1,3.8c-0.3,0.6-0.1,1.3,0.5,1.6s1.3,0.1,1.6-0.5c0.9-1.7,2.2-3.1,3.8-4.2
	c2.1-1.4,4.6-2.2,7.2-2.2c-3.4,3-5.5,7.5-5.7,12L454.4,60.3L454.4,60.3z"/>
<polygon class="st0" points="133.9,369.5 132.7,362.7 129.6,358.4 127.6,355.7 132.1,355.7 136.4,357 138.5,357.9 136.1,353.4 
	133,350.4 131.2,349.4 134.5,348.5 140.5,350.4 143.6,352.4 143.6,348 140,344 138.2,341.7 143.6,341.7 148,344.6 150.2,348.2 
	151,349.5 155.8,347 160.3,345.9 158.5,349.5 155.8,353.7 154.6,357.6 159.2,355.7 163.3,355.7 166.3,355.7 162.7,359.3 
	160.1,363.2 159.1,366.9 158.9,369.5 "/>
<path class="st1" d="M125.2,370c0,0.7,0.5,1.2,1.2,1.2h40.1c0.7,0,1.2-0.5,1.2-1.2s-0.5-1.2-1.2-1.2h-6.4c0.2-4.8,2.9-9.4,7-11.8
	c0.4-0.2,0.7-0.7,0.6-1.2s-0.4-0.9-0.9-1c-3.5-0.9-7.4-0.4-10.6,1.3c0.8-2.9,2.7-6.3,6.7-9.5c0.4-0.4,0.6-1,0.3-1.5
	c-0.2-0.4-0.6-0.6-1.1-0.6c-1.4,0-6.1,0.3-10.4,3.6c-0.1,0.1-0.2,0.2-0.3,0.2c-0.8-2-2.1-3.8-3.8-5.2c-3-2.4-7-3.5-10.8-2.7
	c-0.4,0.1-0.8,0.4-0.9,0.8c-0.2,0.5,0,1.1,0.5,1.4c3.8,2.5,5.3,5.5,5.8,7.9c-3.2-2.4-7.6-3.8-12.5-2.2c-0.4,0.1-0.8,0.5-0.8,1
	c-0.1,0.6,0.3,1.2,0.9,1.3c2.9,0.8,4.9,2.9,6.4,5.3c-3.1-1.5-6.7-1.9-10.1-1.1c-0.5,0.1-0.8,0.5-0.9,1s0.2,1,0.6,1.2
	c4.1,2.4,6.9,7,7,11.8h-6.4C125.8,368.8,125.2,369.3,125.2,370L125.2,370z M135.3,368.8c-0.1-4.5-2.3-9-5.7-12h0.1
	c2.5,0,5,0.7,7.1,2.2c0.5,0.3,1,0.7,1.4,1.2c0.1,0.4,0.3,0.8,0.4,1.2c0.2,0.6,0.7,0.9,1.3,0.8l0,0c0.7-0.1,1.1-0.8,0.9-1.5
	c-1.1-3.8-3.2-8.1-6.8-10.6c1.7,0,3.3,0.4,4.9,1.3c1.5,0.8,2.7,1.8,3.5,2.6c0,0.5-0.1,1-0.2,1.4c-0.1,0.6,0.2,1.1,0.7,1.3l0,0
	c0.7,0.3,1.5-0.1,1.6-0.9c0.2-1.3,0.3-2.8,0.1-4.3c-0.3-2.5-1.4-5.8-4.5-8.8c2.1,0.2,4.2,1,5.8,2.4c1.6,1.3,2.8,3.1,3.4,5.1
	c-0.5,0.6-1,1.2-1.5,1.9c-0.4,0.6-0.1,1.5,0.6,1.8l0,0c0.5,0.2,1.1,0,1.4-0.5c0.8-1.3,1.9-2.4,3.1-3.4c1.7-1.3,3.6-2.1,5.3-2.6
	c-3.5,3.8-4.8,7.6-5.1,10.7c-1.2,1.1-2.3,2.4-3.1,3.8c-0.3,0.6-0.1,1.3,0.5,1.6c0.6,0.3,1.3,0.1,1.6-0.5c0.9-1.7,2.2-3.1,3.8-4.2
	c2.1-1.4,4.6-2.2,7.2-2.2c-3.4,3-5.5,7.5-5.7,12L135.3,368.8L135.3,368.8z"/>
<polygon class="st0" points="327.4,471 326.2,464.2 323.1,459.9 321.1,457.2 325.6,457.2 329.9,458.5 332,459.4 329.6,454.9 
	326.5,451.9 324.7,450.9 328,450 334,451.9 337.1,453.9 337.1,449.5 333.5,445.5 331.7,443.2 337.1,443.2 341.5,446.1 343.7,449.7 
	344.5,451 349.3,448.5 353.8,447.4 352,451 349.3,455.2 348.1,459.1 352.7,457.2 356.8,457.2 359.8,457.2 356.2,460.8 353.6,464.7 
	352.6,468.4 352.4,471 "/>
<path class="st1" d="M318.7,471.5c0,0.7,0.5,1.2,1.2,1.2H360c0.7,0,1.2-0.5,1.2-1.2s-0.5-1.2-1.2-1.2h-6.4c0.2-4.8,2.9-9.4,7-11.8
	c0.4-0.2,0.7-0.7,0.6-1.2s-0.4-0.9-0.9-1c-3.5-0.9-7.4-0.4-10.6,1.3c0.8-2.9,2.7-6.3,6.7-9.5c0.4-0.4,0.6-1,0.3-1.5
	c-0.2-0.4-0.6-0.6-1.1-0.6c-1.4,0-6.1,0.3-10.4,3.6c-0.1,0.1-0.2,0.2-0.3,0.2c-0.8-2-2.1-3.8-3.8-5.2c-3-2.4-7-3.5-10.8-2.7
	c-0.4,0.1-0.8,0.4-0.9,0.8c-0.2,0.5,0,1.1,0.5,1.4c3.8,2.5,5.3,5.5,5.8,7.9c-3.2-2.4-7.6-3.8-12.5-2.2c-0.4,0.1-0.8,0.5-0.8,1
	c-0.1,0.6,0.3,1.2,0.9,1.3c2.9,0.8,4.9,2.9,6.4,5.3c-3.1-1.5-6.7-1.9-10.1-1.1c-0.5,0.1-0.8,0.5-0.9,1s0.2,1,0.6,1.2
	c4.1,2.4,6.9,7,7,11.8h-6.4C319.3,470.3,318.7,470.8,318.7,471.5L318.7,471.5z M328.8,470.3c-0.1-4.5-2.3-9-5.7-12h0.1
	c2.5,0,5,0.7,7.1,2.2c0.5,0.3,1,0.7,1.4,1.2c0.1,0.4,0.3,0.8,0.4,1.2c0.2,0.6,0.7,0.9,1.3,0.8l0,0c0.7-0.1,1.1-0.8,0.9-1.5
	c-1.1-3.8-3.2-8.1-6.8-10.6c1.7,0,3.3,0.4,4.9,1.3c1.5,0.8,2.7,1.8,3.5,2.6c0,0.5-0.1,1-0.2,1.4c-0.1,0.6,0.2,1.1,0.7,1.3l0,0
	c0.7,0.3,1.5-0.1,1.6-0.9c0.2-1.3,0.3-2.8,0.1-4.3c-0.3-2.5-1.4-5.8-4.5-8.8c2.1,0.2,4.2,1,5.8,2.4c1.6,1.3,2.8,3.1,3.4,5.1
	c-0.5,0.6-1,1.2-1.5,1.9c-0.4,0.6-0.1,1.5,0.6,1.8l0,0c0.5,0.2,1.1,0,1.4-0.5c0.8-1.3,1.9-2.4,3.1-3.4c1.7-1.3,3.6-2.1,5.3-2.6
	c-3.5,3.8-4.8,7.6-5.1,10.7c-1.2,1.1-2.3,2.4-3.1,3.8c-0.3,0.6-0.1,1.3,0.5,1.6c0.6,0.3,1.3,0.1,1.6-0.5c0.9-1.7,2.2-3.1,3.8-4.2
	c2.1-1.4,4.6-2.2,7.2-2.2c-3.4,3-5.5,7.5-5.7,12L328.8,470.3L328.8,470.3z"/>
<polygon class="st0" points="426.4,177.1 425.2,170.3 422.1,166 420.1,163.3 424.6,163.3 428.9,164.6 431,165.5 428.6,161 
	425.5,158 423.7,157 427,156.1 433,158 436.1,160 436.1,155.6 432.5,151.6 430.7,149.3 436.1,149.3 440.5,152.2 442.7,155.8 
	443.5,157.1 448.3,154.6 452.8,153.5 451,157.1 448.3,161.3 447.1,165.2 451.7,163.3 455.8,163.3 458.8,163.3 455.2,166.9 
	452.6,170.8 451.6,174.5 451.4,177.1 "/>
<path class="st1" d="M417.7,177.6c0,0.7,0.5,1.2,1.2,1.2H459c0.7,0,1.2-0.5,1.2-1.2s-0.5-1.2-1.2-1.2h-6.4c0.2-4.8,2.9-9.4,7-11.8
	c0.4-0.2,0.7-0.7,0.6-1.2s-0.4-0.9-0.9-1c-3.5-0.9-7.4-0.4-10.6,1.3c0.8-2.9,2.7-6.3,6.7-9.5c0.4-0.4,0.6-1,0.3-1.5
	c-0.2-0.4-0.6-0.6-1.1-0.6c-1.4,0-6.1,0.3-10.4,3.6c-0.1,0.1-0.2,0.2-0.3,0.2c-0.8-2-2.1-3.8-3.8-5.2c-3-2.4-7-3.5-10.8-2.7
	c-0.4,0.1-0.8,0.4-0.9,0.8c-0.2,0.5,0,1.1,0.5,1.4c3.8,2.5,5.3,5.5,5.8,7.9c-3.2-2.4-7.6-3.8-12.5-2.2c-0.4,0.1-0.8,0.5-0.8,1
	c-0.1,0.6,0.3,1.2,0.9,1.3c2.9,0.8,4.9,2.9,6.4,5.3c-3.1-1.5-6.7-1.9-10.1-1.1c-0.5,0.1-0.8,0.5-0.9,1s0.2,1,0.6,1.2
	c4.1,2.4,6.9,7,7,11.8h-6.4C418.3,176.4,417.7,176.9,417.7,177.6L417.7,177.6z M427.8,176.4c-0.1-4.5-2.3-9-5.7-12h0.1
	c2.5,0,5,0.7,7.1,2.2c0.5,0.3,1,0.7,1.4,1.2c0.1,0.4,0.3,0.8,0.4,1.2c0.2,0.6,0.7,0.9,1.3,0.8l0,0c0.7-0.1,1.1-0.8,0.9-1.5
	c-1.1-3.8-3.2-8.1-6.8-10.6c1.7,0,3.3,0.4,4.9,1.3c1.5,0.8,2.7,1.8,3.5,2.6c0,0.5-0.1,1-0.2,1.4c-0.1,0.6,0.2,1.1,0.7,1.3l0,0
	c0.7,0.3,1.5-0.1,1.6-0.9c0.2-1.3,0.3-2.8,0.1-4.3c-0.3-2.5-1.4-5.8-4.5-8.8c2.1,0.2,4.2,1,5.8,2.4c1.6,1.3,2.8,3.1,3.4,5.1
	c-0.5,0.6-1,1.2-1.5,1.9c-0.4,0.6-0.1,1.5,0.6,1.8l0,0c0.5,0.2,1.1,0,1.4-0.5c0.8-1.3,1.9-2.4,3.1-3.4c1.7-1.3,3.6-2.1,5.3-2.6
	c-3.5,3.8-4.8,7.6-5.1,10.7c-1.2,1.1-2.3,2.4-3.1,3.8c-0.3,0.6-0.1,1.3,0.5,1.6c0.6,0.3,1.3,0.1,1.6-0.5c0.9-1.7,2.2-3.1,3.8-4.2
	c2.1-1.4,4.6-2.2,7.2-2.2c-3.4,3-5.5,7.5-5.7,12L427.8,176.4L427.8,176.4z"/>
<polygon class="st0" points="48.5,45.5 47.3,38.7 44.2,34.4 42.2,31.7 46.7,31.7 51,33 53.1,33.9 50.7,29.4 47.6,26.4 45.8,25.4 
	49.1,24.5 55.1,26.4 58.2,28.4 58.2,24 54.6,20 52.8,17.7 58.2,17.7 62.6,20.6 64.8,24.2 65.6,25.5 70.4,23 74.9,21.9 73.1,25.5 
	70.4,29.7 69.2,33.6 73.8,31.7 77.9,31.7 80.9,31.7 77.3,35.3 74.7,39.2 73.7,42.9 73.5,45.5 "/>
<path class="st1" d="M39.8,46c0,0.7,0.5,1.2,1.2,1.2h40.1c0.7,0,1.2-0.5,1.2-1.2s-0.5-1.2-1.2-1.2h-6.4c0.2-4.8,2.9-9.4,7-11.8
	c0.4-0.2,0.7-0.7,0.6-1.2s-0.4-0.9-0.9-1c-3.5-0.9-7.4-0.4-10.6,1.3c0.8-2.9,2.7-6.3,6.7-9.5c0.4-0.4,0.6-1,0.3-1.5
	c-0.2-0.4-0.6-0.6-1.1-0.6c-1.4,0-6.1,0.3-10.4,3.6c-0.1,0.1-0.2,0.2-0.3,0.2c-0.8-2-2.1-3.8-3.8-5.2c-3-2.4-7-3.5-10.8-2.7
	c-0.4,0.1-0.8,0.4-0.9,0.8c-0.2,0.5,0,1.1,0.5,1.4c3.8,2.5,5.3,5.5,5.8,7.9c-3.2-2.4-7.6-3.8-12.5-2.2c-0.4,0.1-0.8,0.5-0.8,1
	c-0.1,0.6,0.3,1.2,0.9,1.3c2.9,0.8,4.9,2.9,6.4,5.3c-3.1-1.5-6.7-1.9-10.1-1.1c-0.5,0.1-0.8,0.5-0.9,1s0.2,1,0.6,1.2
	c4.1,2.4,6.9,7,7,11.8H41C40.4,44.8,39.8,45.3,39.8,46L39.8,46z M49.9,44.8c-0.1-4.5-2.3-9-5.7-12h0.1c2.5,0,5,0.7,7.1,2.2
	c0.5,0.3,1,0.7,1.4,1.2c0.1,0.4,0.3,0.8,0.4,1.2c0.2,0.6,0.7,0.9,1.3,0.8l0,0c0.7-0.1,1.1-0.8,0.9-1.5c-1.1-3.8-3.2-8.1-6.8-10.6
	c1.7,0,3.3,0.4,4.9,1.3c1.5,0.8,2.7,1.8,3.5,2.6c0,0.5-0.1,1-0.2,1.4c-0.1,0.6,0.2,1.1,0.7,1.3l0,0c0.7,0.3,1.5-0.1,1.6-0.9
	c0.2-1.3,0.3-2.8,0.1-4.3c-0.3-2.5-1.4-5.8-4.5-8.8c2.1,0.2,4.2,1,5.8,2.4c1.6,1.3,2.8,3.1,3.4,5.1c-0.5,0.6-1,1.2-1.5,1.9
	c-0.4,0.6-0.1,1.5,0.6,1.8l0,0c0.5,0.2,1.1,0,1.4-0.5c0.8-1.3,1.9-2.4,3.1-3.4c1.7-1.3,3.6-2.1,5.3-2.6c-3.5,3.8-4.8,7.6-5.1,10.7
	c-1.2,1.1-2.3,2.4-3.1,3.8c-0.3,0.6-0.1,1.3,0.5,1.6c0.6,0.3,1.3,0.1,1.6-0.5c0.9-1.7,2.2-3.1,3.8-4.2c2.1-1.4,4.6-2.2,7.2-2.2
	c-3.4,3-5.5,7.5-5.7,12L49.9,44.8L49.9,44.8z"/>
<polygon class="st0" points="297.4,61.1 296.2,54.3 293.1,50 291.1,47.3 295.6,47.3 299.9,48.6 302,49.5 299.6,45 296.5,42 
	294.7,41 298,40.1 304,42 307.1,44 307.1,39.6 303.5,35.6 301.7,33.3 307.1,33.3 311.5,36.2 313.7,39.8 314.5,41.1 319.3,38.6 
	323.8,37.5 322,41.1 319.3,45.3 318.1,49.2 322.7,47.3 326.8,47.3 329.8,47.3 326.2,50.9 323.6,54.8 322.6,58.5 322.4,61.1 "/>
<path class="st1" d="M288.7,61.6c0,0.7,0.5,1.2,1.2,1.2H330c0.7,0,1.2-0.5,1.2-1.2s-0.5-1.2-1.2-1.2h-6.4c0.2-4.8,2.9-9.4,7-11.8
	c0.4-0.2,0.7-0.7,0.6-1.2s-0.4-0.9-0.9-1c-3.5-0.9-7.4-0.4-10.6,1.3c0.8-2.9,2.7-6.3,6.7-9.5c0.4-0.4,0.6-1,0.3-1.5
	c-0.2-0.4-0.6-0.6-1.1-0.6c-1.4,0-6.1,0.3-10.4,3.6c-0.1,0.1-0.2,0.2-0.3,0.2c-0.8-2-2.1-3.8-3.8-5.2c-3-2.4-7-3.5-10.8-2.7
	c-0.4,0.1-0.8,0.4-0.9,0.8c-0.2,0.5,0,1.1,0.5,1.4c3.8,2.5,5.3,5.5,5.8,7.9c-3.2-2.4-7.6-3.8-12.5-2.2c-0.4,0.1-0.8,0.5-0.8,1
	c-0.1,0.6,0.3,1.2,0.9,1.3c2.9,0.8,4.9,2.9,6.4,5.3c-3.1-1.5-6.7-1.9-10.1-1.1c-0.5,0.1-0.8,0.5-0.9,1s0.2,1,0.6,1.2
	c4.1,2.4,6.9,7,7,11.8h-6.4C289.3,60.4,288.7,60.9,288.7,61.6L288.7,61.6z M298.8,60.4c-0.1-4.5-2.3-9-5.7-12h0.1
	c2.5,0,5,0.7,7.1,2.2c0.5,0.3,1,0.7,1.4,1.2c0.1,0.4,0.3,0.8,0.4,1.2c0.2,0.6,0.7,0.9,1.3,0.8l0,0c0.7-0.1,1.1-0.8,0.9-1.5
	c-1.1-3.8-3.2-8.1-6.8-10.6c1.7,0,3.3,0.4,4.9,1.3c1.5,0.8,2.7,1.8,3.5,2.6c0,0.5-0.1,1-0.2,1.4c-0.1,0.6,0.2,1.1,0.7,1.3l0,0
	c0.7,0.3,1.5-0.1,1.6-0.9c0.2-1.3,0.3-2.8,0.1-4.3c-0.3-2.5-1.4-5.8-4.5-8.8c2.1,0.2,4.2,1,5.8,2.4c1.6,1.3,2.8,3.1,3.4,5.1
	c-0.5,0.6-1,1.2-1.5,1.9c-0.4,0.6-0.1,1.5,0.6,1.8l0,0c0.5,0.2,1.1,0,1.4-0.5c0.8-1.3,1.9-2.4,3.1-3.4c1.7-1.3,3.6-2.1,5.3-2.6
	c-3.5,3.8-4.8,7.6-5.1,10.7c-1.2,1.1-2.3,2.4-3.1,3.8c-0.3,0.6-0.1,1.3,0.5,1.6c0.6,0.3,1.3,0.1,1.6-0.5c0.9-1.7,2.2-3.1,3.8-4.2
	c2.1-1.4,4.6-2.2,7.2-2.2c-3.4,3-5.5,7.5-5.7,12L298.8,60.4L298.8,60.4z"/>
<polygon class="st0" points="178.6,289.4 177,278.9 173,272.3 170.4,268.1 176.2,268.1 181.8,270.1 184.5,271.5 181.4,264.5 
	177.4,259.9 175,258.4 179.3,257 187.1,259.9 191.2,263 191.2,256.2 186.5,250.1 184.2,246.5 191.2,246.5 196.9,251 199.8,256.5 
	200.8,258.5 207.1,254.7 212.9,253 210.6,258.5 207.1,265 205.5,271 211.5,268.1 216.8,268.1 220.7,268.1 216.1,273.6 212.7,279.7 
	211.4,285.4 211.1,289.4 "/>
<path class="st1" d="M167.2,290.1c0,1.1,0.6,1.9,1.5,1.9h50.7c0.9,0,1.5-0.8,1.5-1.9s-0.6-1.9-1.5-1.9h-8.1
	c0.3-7.4,3.7-14.5,8.9-18.2c0.5-0.3,0.9-1.1,0.8-1.9c-0.1-0.8-0.5-1.4-1.1-1.5c-4.4-1.4-9.4-0.6-13.4,2c1-4.5,3.4-9.7,8.5-14.7
	c0.5-0.6,0.8-1.5,0.4-2.3c-0.3-0.6-0.8-0.9-1.4-0.9c-1.8,0-7.7,0.5-13.2,5.6c-0.1,0.2-0.3,0.3-0.4,0.3c-1-3.1-2.7-5.9-4.8-8
	c-3.8-3.7-8.9-5.4-13.7-4.2c-0.5,0.2-1,0.6-1.1,1.2c-0.3,0.8,0,1.7,0.6,2.2c4.8,3.9,6.7,8.5,7.3,12.2c-4-3.7-9.6-5.9-15.8-3.4
	c-0.5,0.2-1,0.8-1,1.5c-0.1,0.9,0.4,1.9,1.1,2c3.7,1.2,6.2,4.5,8.1,8.2c-3.9-2.3-8.5-2.9-12.8-1.7c-0.6,0.2-1,0.8-1.1,1.5
	s0.3,1.5,0.8,1.9c5.2,3.7,8.7,10.8,8.9,18.2h-8.1C168,288.3,167.2,289.1,167.2,290.1L167.2,290.1z M180,288.3
	c-0.1-6.9-2.9-13.9-7.2-18.5h0.1c3.2,0,6.3,1.1,9,3.4c0.6,0.5,1.3,1.1,1.8,1.9c0.1,0.6,0.4,1.2,0.5,1.9c0.3,0.9,0.9,1.4,1.6,1.2l0,0
	c0.9-0.2,1.4-1.2,1.1-2.3c-1.4-5.9-4-12.5-8.6-16.3c2.2,0,4.2,0.6,6.2,2c1.9,1.2,3.4,2.8,4.4,4c0,0.8-0.1,1.5-0.3,2.2
	c-0.1,0.9,0.3,1.7,0.9,2l0,0c0.9,0.5,1.9-0.2,2-1.4c0.3-2,0.4-4.3,0.1-6.6c-0.4-3.9-1.8-8.9-5.7-13.6c2.7,0.3,5.3,1.5,7.3,3.7
	c2,2,3.5,4.8,4.3,7.9c-0.6,0.9-1.3,1.9-1.9,2.9c-0.5,0.9-0.1,2.3,0.8,2.8l0,0c0.6,0.3,1.4,0,1.8-0.8c1-2,2.4-3.7,3.9-5.2
	c2.2-2,4.6-3.2,6.7-4c-4.4,5.9-6.1,11.7-6.5,16.5c-1.5,1.7-2.9,3.7-3.9,5.9c-0.4,0.9-0.1,2,0.6,2.5c0.8,0.5,1.6,0.2,2-0.8
	c1.1-2.6,2.8-4.8,4.8-6.5c2.7-2.2,5.8-3.4,9.1-3.4c-4.3,4.6-7,11.6-7.2,18.5L180,288.3L180,288.3z"/>
<polygon class="st0" points="42.2,147.9 40.8,139.1 37.4,133.6 35.1,130.1 40.2,130.1 45,131.8 47.4,133 44.7,127.2 41.2,123.3 
	39.2,122.1 42.9,120.9 49.6,123.3 53.1,125.9 53.1,120.3 49.1,115.1 47,112.2 53.1,112.2 58,115.9 60.5,120.5 61.4,122.2 66.8,119 
	71.9,117.6 69.8,122.2 66.8,127.6 65.5,132.6 70.6,130.1 75.2,130.1 78.6,130.1 74.6,134.8 71.6,139.8 70.5,144.5 70.3,147.9 "/>
<path class="st1" d="M32.4,148.5c0,0.9,0.6,1.5,1.3,1.5h45.1c0.8,0,1.3-0.6,1.3-1.5c0-0.9-0.6-1.5-1.3-1.5h-7.2
	c0.2-6.2,3.3-12.1,7.9-15.2c0.4-0.3,0.8-0.9,0.7-1.5s-0.4-1.2-1-1.3c-3.9-1.2-8.3-0.5-11.9,1.7c0.9-3.7,3-8.1,7.5-12.2
	c0.4-0.5,0.7-1.3,0.3-1.9c-0.2-0.5-0.7-0.8-1.2-0.8c-1.6,0-6.9,0.4-11.7,4.6c-0.1,0.1-0.2,0.3-0.3,0.3c-0.9-2.6-2.4-4.9-4.3-6.7
	c-3.4-3.1-7.9-4.5-12.1-3.5c-0.4,0.1-0.9,0.5-1,1c-0.2,0.6,0,1.4,0.6,1.8c4.3,3.2,6,7.1,6.5,10.1c-3.6-3.1-8.5-4.9-14-2.8
	c-0.4,0.1-0.9,0.6-0.9,1.3c-0.1,0.8,0.3,1.5,1,1.7c3.3,1,5.5,3.7,7.2,6.8c-3.5-1.9-7.5-2.4-11.3-1.4c-0.6,0.1-0.9,0.6-1,1.3
	c-0.1,0.6,0.2,1.3,0.7,1.5c4.6,3.1,7.8,9,7.9,15.2h-7.2C33.1,147,32.4,147.6,32.4,148.5L32.4,148.5z M43.8,147
	c-0.1-5.8-2.6-11.6-6.4-15.4h0.1c2.8,0,5.6,0.9,8,2.8c0.6,0.4,1.1,0.9,1.6,1.5c0.1,0.5,0.3,1,0.4,1.5c0.2,0.8,0.8,1.2,1.5,1l0,0
	c0.8-0.1,1.2-1,1-1.9c-1.2-4.9-3.6-10.4-7.6-13.6c1.9,0,3.7,0.5,5.5,1.7c1.7,1,3,2.3,3.9,3.3c0,0.6-0.1,1.3-0.2,1.8
	c-0.1,0.8,0.2,1.4,0.8,1.7l0,0c0.8,0.4,1.7-0.1,1.8-1.2c0.2-1.7,0.3-3.6,0.1-5.5c-0.3-3.2-1.6-7.5-5.1-11.3c2.4,0.3,4.7,1.3,6.5,3.1
	c1.8,1.7,3.1,4,3.8,6.6c-0.6,0.8-1.1,1.5-1.7,2.4c-0.4,0.8-0.1,1.9,0.7,2.3l0,0c0.6,0.3,1.2,0,1.6-0.6c0.9-1.7,2.1-3.1,3.5-4.4
	c1.9-1.7,4-2.7,6-3.3c-3.9,4.9-5.4,9.8-5.7,13.7c-1.3,1.4-2.6,3.1-3.5,4.9c-0.3,0.8-0.1,1.7,0.6,2.1c0.7,0.4,1.5,0.1,1.8-0.6
	c1-2.2,2.5-4,4.3-5.4c2.4-1.8,5.2-2.8,8.1-2.8c-3.8,3.9-6.2,9.6-6.4,15.4L43.8,147L43.8,147z"/>
<polygon class="st0" points="194.8,455.1 193.4,446.4 189.9,440.9 187.7,437.4 192.7,437.4 197.6,439.1 199.9,440.2 197.2,434.4 
	193.7,430.6 191.7,429.3 195.4,428.1 202.2,430.6 205.7,433.1 205.7,427.5 201.6,422.4 199.6,419.4 205.7,419.4 210.6,423.1 
	213.1,427.8 214,429.4 219.4,426.2 224.4,424.8 222.4,429.4 219.4,434.8 218,439.8 223.2,437.4 227.8,437.4 231.2,437.4 227.1,442 
	224.2,447 223.1,451.8 222.8,455.1 "/>
<path class="st1" d="M185,455.8c0,0.9,0.6,1.5,1.3,1.5h45.1c0.8,0,1.3-0.6,1.3-1.5c0-0.9-0.6-1.5-1.3-1.5h-7.2
	c0.2-6.2,3.3-12.1,7.9-15.2c0.4-0.3,0.8-0.9,0.7-1.5c-0.1-0.6-0.4-1.2-1-1.3c-3.9-1.2-8.3-0.5-11.9,1.7c0.9-3.7,3-8.1,7.5-12.2
	c0.4-0.5,0.7-1.3,0.3-1.9c-0.2-0.5-0.7-0.8-1.2-0.8c-1.6,0-6.9,0.4-11.7,4.6c-0.1,0.1-0.2,0.3-0.3,0.3c-0.9-2.6-2.4-4.9-4.3-6.7
	c-3.4-3.1-7.9-4.5-12.1-3.5c-0.4,0.1-0.9,0.5-1,1c-0.2,0.6,0,1.4,0.6,1.8c4.3,3.2,6,7.1,6.5,10.1c-3.6-3.1-8.5-4.9-14-2.8
	c-0.4,0.1-0.9,0.6-0.9,1.3c-0.1,0.8,0.3,1.5,1,1.7c3.3,1,5.5,3.7,7.2,6.8c-3.5-1.9-7.5-2.4-11.3-1.4c-0.6,0.1-0.9,0.6-1,1.3
	c-0.1,0.6,0.2,1.3,0.7,1.5c4.6,3.1,7.8,9,7.9,15.2h-7.2C185.7,454.2,185,454.9,185,455.8L185,455.8z M196.3,454.2
	c-0.1-5.8-2.6-11.6-6.4-15.4h0.1c2.8,0,5.6,0.9,8,2.8c0.6,0.4,1.1,0.9,1.6,1.5c0.1,0.5,0.3,1,0.4,1.5c0.2,0.8,0.8,1.2,1.5,1l0,0
	c0.8-0.1,1.2-1,1-1.9c-1.2-4.9-3.6-10.4-7.6-13.6c1.9,0,3.7,0.5,5.5,1.7c1.7,1,3,2.3,3.9,3.3c0,0.6-0.1,1.3-0.2,1.8
	c-0.1,0.8,0.2,1.4,0.8,1.7l0,0c0.8,0.4,1.7-0.1,1.8-1.2c0.2-1.7,0.3-3.6,0.1-5.5c-0.3-3.2-1.6-7.5-5.1-11.3c2.4,0.3,4.7,1.3,6.5,3.1
	c1.8,1.7,3.1,4,3.8,6.6c-0.6,0.8-1.1,1.5-1.7,2.4c-0.4,0.8-0.1,1.9,0.7,2.3l0,0c0.6,0.3,1.2,0,1.6-0.6c0.9-1.7,2.1-3.1,3.5-4.4
	c1.9-1.7,4-2.7,6-3.3c-3.9,4.9-5.4,9.8-5.7,13.7c-1.3,1.4-2.6,3.1-3.5,4.9c-0.3,0.8-0.1,1.7,0.6,2.1c0.7,0.4,1.5,0.1,1.8-0.6
	c1-2.2,2.5-4,4.3-5.4c2.4-1.8,5.2-2.8,8.1-2.8c-3.8,3.9-6.2,9.6-6.4,15.4L196.3,454.2L196.3,454.2z"/>
<polygon class="st0" points="429.5,273.4 427.9,263 423.7,256.4 421,252.3 427.1,252.3 432.9,254.3 435.8,255.7 432.5,248.8 
	428.3,244.2 425.9,242.7 430.3,241.3 438.5,244.2 442.7,247.3 442.7,240.5 437.8,234.4 435.4,230.9 442.7,230.9 448.7,235.4 
	451.7,240.8 452.8,242.8 459.3,239 465.4,237.3 463,242.8 459.3,249.2 457.7,255.2 463.9,252.3 469.5,252.3 473.6,252.3 
	468.7,257.8 465.1,263.7 463.8,269.4 463.5,273.4 "/>
<path class="st1" d="M417.7,274.1c0,1.1,0.7,1.8,1.6,1.8h54.5c1,0,1.6-0.8,1.6-1.8c0-1.1-0.7-1.8-1.6-1.8h-8.7
	c0.3-7.3,3.9-14.3,9.5-18c0.5-0.3,1-1.1,0.8-1.8c-0.1-0.8-0.5-1.4-1.2-1.5c-4.8-1.4-10.1-0.6-14.4,2c1.1-4.4,3.7-9.6,9.1-14.5
	c0.5-0.6,0.8-1.5,0.4-2.3c-0.3-0.6-0.8-0.9-1.5-0.9c-1.9,0-8.3,0.5-14.1,5.5c-0.1,0.2-0.3,0.3-0.4,0.3c-1.1-3.1-2.9-5.8-5.2-7.9
	c-4.1-3.7-9.5-5.3-14.7-4.1c-0.5,0.2-1.1,0.6-1.2,1.2c-0.3,0.8,0,1.7,0.7,2.1c5.2,3.8,7.2,8.4,7.9,12.1c-4.3-3.7-10.3-5.8-17-3.4
	c-0.5,0.2-1.1,0.8-1.1,1.5c-0.1,0.9,0.4,1.8,1.2,2c3.9,1.2,6.7,4.4,8.7,8.1c-4.2-2.3-9.1-2.9-13.7-1.7c-0.7,0.2-1.1,0.8-1.2,1.5
	s0.3,1.5,0.8,1.8c5.6,3.7,9.4,10.7,9.5,18h-8.7C418.5,272.3,417.7,273.1,417.7,274.1L417.7,274.1z M431.4,272.3
	c-0.1-6.9-3.1-13.7-7.7-18.3h0.1c3.4,0,6.8,1.1,9.7,3.4c0.7,0.5,1.4,1.1,1.9,1.8c0.1,0.6,0.4,1.2,0.5,1.8c0.3,0.9,1,1.4,1.8,1.2l0,0
	c1-0.2,1.5-1.2,1.2-2.3c-1.5-5.8-4.3-12.4-9.2-16.2c2.3,0,4.5,0.6,6.7,2c2,1.2,3.7,2.7,4.8,4c0,0.8-0.1,1.5-0.3,2.1
	c-0.1,0.9,0.3,1.7,1,2l0,0c1,0.5,2-0.2,2.2-1.4c0.3-2,0.4-4.3,0.1-6.6c-0.4-3.8-1.9-8.9-6.1-13.4c2.9,0.3,5.7,1.5,7.9,3.7
	c2.2,2,3.8,4.7,4.6,7.8c-0.7,0.9-1.4,1.8-2,2.9c-0.5,0.9-0.1,2.3,0.8,2.7l0,0c0.7,0.3,1.5,0,1.9-0.8c1.1-2,2.6-3.7,4.2-5.2
	c2.3-2,4.9-3.2,7.2-4c-4.8,5.8-6.5,11.6-6.9,16.3c-1.6,1.7-3.1,3.7-4.2,5.8c-0.4,0.9-0.1,2,0.7,2.4c0.8,0.5,1.8,0.2,2.2-0.8
	c1.2-2.6,3-4.7,5.2-6.4c2.9-2.1,6.3-3.4,9.8-3.4c-4.6,4.6-7.5,11.4-7.7,18.3L431.4,272.3L431.4,272.3z"/>
</svg>
