<?xml version="1.0" encoding="utf-8"?>
<!-- Generator: Adobe Illustrator 26.4.1, SVG Export Plug-In . SVG Version: 6.00 Build 0)  -->
<svg version="1.1" id="Calque_1" xmlns="http://www.w3.org/2000/svg" xmlns:xlink="http://www.w3.org/1999/xlink" x="0px" y="0px"
	 viewBox="0 0 512 512" style="enable-background:new 0 0 512 512;" xml:space="preserve">
<style type="text/css">
	.st0{fill:#A2A37B;stroke:#000000;stroke-miterlimit:10;}
	.st1{fill:#AAAAA7;stroke:#000000;stroke-miterlimit:10;}
</style>
<polygon class="st0" points="219,258.6 411,469 432,469 480,416 480,399 266,204 "/>
<polygon class="st1" points="36,242 32,258.6 84,314 105,314 141,278 141,256 147,234 175,228 206.3,245 219,258.6 266,204 248,178 
	247,139 266,106 307,85 366,79 382,74 370.3,62 320,49 277,49 233,57.6 202,76 169,109 130,150 114,168 120,190 116,204 94,211 
	76,204 "/>
<path d="M88.7,200.8c-9-4-18.7-2.7-24.7,3.3l-30.1,30.2c-5.3,5.4-8.3,12.5-8.3,20.2c0,7.6,2.9,14.8,8.3,20.2L74,314.9
	c5.5,5.6,12.8,8.3,20.1,8.3c7.3,0,14.6-2.8,20.1-8.3l30.1-30.2c6-6,7.3-15.8,3.3-24.8c-2.7-6.1-1.5-11.5,3.8-16.8
	c4.6-4.6,10.1-6.9,16.5-6.7c12,0.3,26.6,8.9,40.1,23.7l189.2,205.8c5.9,6.5,14,10.1,22.6,10.3c0.2,0,0.4,0,0.6,0
	c8.4,0,16.3-3.3,22.3-9.4l34.3-34.4c6.2-6.2,9.5-14.4,9.3-23c-0.2-8.7-3.8-16.7-10.2-22.7l-205-190c-31.3-28.8-10-64.6-7.5-68.5
	c24.1-37.8,67.8-41.7,100.2-38.3c12.5,1.3,29.5,1.7,32.5-9.6c2.8-10.7-9.9-17.8-21.3-22.7c-57.2-25-139-26.1-192.5,27.6l-70,70.3
	c-6,6-7.3,15.7-3.3,24.8c2.7,6.1,1.5,11.5-3.8,16.8C100.1,202.3,94.8,203.5,88.7,200.8L88.7,200.8z M268.6,217l196.3,181.9
	c3.1,2.9,4.8,6.7,4.9,10.8c0.1,4.1-1.5,8-4.5,10.9L431.1,455c-3,3-6.9,4.5-10.9,4.5c-4.1-0.1-7.9-1.8-10.7-4.9L228.2,257.5
	L268.6,217z M117.1,208.7c10.2-10.2,12.8-22.8,7.2-35.3c-1.1-2.5-1.1-5.3-0.1-6.3l70-70.3c48-48.2,122-46.8,174.1-24.1
	c0.7,0.3,1.3,0.6,1.9,0.9c-1.4-0.1-3-0.2-4.8-0.4c-53.1-5.5-93.2,10.4-115.9,46c-11.5,18.2-22.3,56,6.9,86.3l-39.7,39.8
	c-15.9-16.2-33-25.3-48.6-25.6c-10.9-0.2-20.8,3.8-28.6,11.6c-10.2,10.2-12.8,22.8-7.2,35.3c1.1,2.4,1.1,5.3,0.1,6.3l-30.1,30.2
	c-4.4,4.5-12.3,4.5-16.7,0l-40.1-40.3c-2.2-2.2-3.4-5.2-3.4-8.4c0-3.2,1.2-6.2,3.4-8.4l30.1-30.2c1-1,3.8-1,6.2,0.1
	C94.5,221.5,106.9,218.9,117.1,208.7L117.1,208.7z"/>
</svg>
