<?xml version="1.0" encoding="utf-8"?>
<!-- Generator: Adobe Illustrator 26.4.1, SVG Export Plug-In . SVG Version: 6.00 Build 0)  -->
<svg version="1.1" id="Calque_1" xmlns="http://www.w3.org/2000/svg" xmlns:xlink="http://www.w3.org/1999/xlink" x="0px" y="0px"
	 viewBox="0 0 512 512" style="enable-background:new 0 0 512 512;" xml:space="preserve">
<style type="text/css">
	.st0{fill:#DCEEF4;stroke:#000000;stroke-miterlimit:10;}
	.st1{fill:#E90034;}
	.st2{fill:#A30A32;}
	.st3{fill:#967565;}
</style>
<polygon class="st0" points="209.9,108 199.7,117.8 193.4,127.2 209.9,139.7 235,147 264.9,142.8 282,139.7 291.8,130.3 
	291.8,117.8 276.9,108 266.2,121.3 253.5,130.3 230.4,125.6 213.1,117.8 "/>
<polygon class="st0" points="221.3,139.7 220.2,190 204.8,215.7 176,242 153.6,267 143.3,293.5 139,339.6 163.9,390 189.4,418.2 
	231.7,436 281,426.7 315.5,407.8 344,373.8 354,322.6 348,282.4 322.8,242.1 291.8,215.7 276.9,191 268.3,156 270.2,139.7 
	250.9,151.1 "/>
<polygon class="st1" points="171.4,291.5 159,327.7 165.2,363.5 189.4,394 220.2,407.8 250.9,412 281,407.8 310,384 327.9,359 
	333,332.8 333,307.2 315.5,282.5 286.7,301.2 242.6,299 203.6,293.5 "/>
<polygon class="st2" points="220.2,265 189.4,271.4 176,278 176,287.8 214.7,295 242.6,299 276.9,299 320.4,291.5 320.4,282 
	311,271.4 276.9,265 "/>
<polygon class="st3" points="206.6,79.8 220.2,121 242.6,130.3 268.3,125.6 276.9,102.1 284.5,79.8 270.4,80.8 248.9,74 230.4,74 
	"/>
<path d="M308.9,231c-20.3-13.7-32.4-36.5-32.5-60.9v-21.6c13.7-4.7,21.5-12.3,21.5-21.1c0-7.6-5.9-14.4-16.5-19.2l4.5-13.5l0,0
	c1.7-5,1.1-10.4-1.5-14.9c-2.6-4.5-7-7.7-12.1-8.8c-17.7-3.2-35.8-3.2-53.6,0c-5.1,1.1-9.5,4.3-12.1,8.8c-2.6,4.5-3.1,10-1.5,14.9
	l4.8,13.3c-10.5,4.8-16.5,11.6-16.5,19.2c0,8.8,7.8,16.4,21.5,21.1v21c0.3,24.5-11.6,47.6-31.7,61.4c-26.8,17.9-44.6,46.5-48.9,78.4
	s5.2,64.2,26.2,88.6c21,24.4,51.5,38.7,83.7,39.2h1.5c32.3,0,63.1-13.9,84.5-38.2c21.4-24.3,31.3-56.6,27.2-88.7
	C353.4,278,335.7,249.2,308.9,231L308.9,231z M215.7,84.7c1.2-2,3.1-3.5,5.4-3.9c16.3-2.9,33-2.9,49.3,0c2.3,0.5,4.3,1.9,5.4,3.9
	c1.2,2,1.4,4.4,0.7,6.6l-10.2,30h0c-6.3,3.2-13.4,4.7-20.5,4.2c-7.1,0.5-14.2-1-20.5-4.2L215,91.1h0C214.3,89,214.6,86.7,215.7,84.7
	L215.7,84.7z M203.6,127.2c0-3.1,3.6-6.6,9.5-9.4l1.9,5.4c1.1,8.8,16,12.7,30.7,12.7c14.7,0,29.8-3.9,30.7-12.8l1.9-5.4
	c5.9,2.8,9.5,6.3,9.5,9.4c0,3.1-5.5,9-17.8,12.5v0c-12.1,3.1-24.7,3.9-37.1,2.3c-2-0.3-4-0.6-6-1c-2-0.4-3.8-0.8-5.7-1.3
	C209,136.1,203.6,130.9,203.6,127.2L203.6,127.2z M317.7,397.2c-19.4,19.4-45.9,30-73.4,29.5c-29.3-0.4-57.1-13.3-76.2-35.6
	c-19.1-22.2-27.8-51.6-23.9-80.6c3.9-29.1,20.2-55,44.5-71.3c23.1-15.7,36.8-42,36.5-69.9v-18.2c2.9,0.6,5.8,1,8.9,1.3h1.7
	c3.2,0.3,6.5,0.5,9.7,0.5c3.3,0,6.6,0,9.7-0.5h1.7c3.1-0.3,6-0.7,8.9-1.3h0.3v19c0,27.8,13.7,53.8,36.8,69.4
	c25.4,17.2,41.7,44.9,44.5,75.4c2.8,30.5-8.2,60.7-30,82.2L317.7,397.2z M245.8,261.1c-7.9,0-74.5,0.6-79.9,19l0,0
	c-16.4,28.5-16.3,63.6,0.2,92.1c16.5,28.5,46.9,46,79.8,46c32.9,0,63.3-17.5,79.8-46c16.5-28.5,16.5-63.5,0.2-92.1
	C320.3,261.5,253.6,261.1,245.8,261.1L245.8,261.1z M245.8,271.4c41,0,65.8,6.9,69.8,11.2c-4,4.2-28.8,11-69.8,11
	c-41,0-65.8-6.8-69.8-11.2C180,278.1,204.8,271.4,245.8,271.4z M302.1,312.3L302.1,312.3c0,2.1-1.2,3.9-3.2,4.7
	c-1.9,0.8-4.1,0.4-5.6-1.1s-1.9-3.7-1.1-5.6c0.8-1.9,2.7-3.2,4.7-3.2c1.4,0,2.7,0.5,3.6,1.5C301.5,309.7,302.1,311,302.1,312.3
	L302.1,312.3z M245.8,407.8c-27.9,0-53.9-14.3-69-37.8c-15-23.5-17.1-53.1-5.3-78.5c17.4,11.8,67.6,12.2,74.3,12.2
	c13.7,0,27.4-0.9,41-2.6c-3.2,3-5,7.3-4.8,11.8c0.2,4.4,2.3,8.6,5.7,11.4c3.5,2.8,8,3.9,12.3,3.1c4.4-0.8,8.2-3.4,10.5-7.2
	c2.3-3.8,2.8-8.4,1.4-12.7c-1.4-4.2-4.5-7.6-8.6-9.4c6.1-1.3,11.8-3.5,17.2-6.7c11.7,25.4,9.7,55-5.4,78.6
	C299.8,393.6,273.7,407.8,245.8,407.8L245.8,407.8z M259.1,189c2.1,19.1,11.7,36.7,26.6,48.8c1,0.9,1.7,2.1,1.8,3.5
	c0.1,1.4-0.3,2.7-1.2,3.7c-1,1.2-2.4,1.9-3.9,1.9c-1.2,0-2.3-0.4-3.2-1.2c-17-13.9-27.8-33.8-30.3-55.6c-0.3-2.8,1.7-5.4,4.5-5.7
	c2.8-0.3,5.4,1.7,5.7,4.5L259.1,189z M248.4,173.3l0-7.3c0-2.8,2.3-5.1,5.1-5.1s5.1,2.3,5.1,5.1v7.3c0,2.8-2.3,5.1-5.1,5.1
	S248.4,176.1,248.4,173.3L248.4,173.3z M220.2,327.7c0-4.1-1.6-8-4.5-10.9c-2.9-2.9-6.8-4.5-10.9-4.5s-8,1.6-10.9,4.5
	c-2.9,2.9-4.5,6.8-4.5,10.9c0,4.1,1.6,8,4.5,10.9c2.9,2.9,6.8,4.5,10.9,4.5s8-1.6,10.9-4.5C218.5,335.7,220.2,331.8,220.2,327.7z
	 M204.8,332.8c-2.1,0-3.9-1.2-4.7-3.2c-0.8-1.9-0.4-4.1,1.1-5.6c1.5-1.5,3.7-1.9,5.6-1.1c1.9,0.8,3.2,2.7,3.2,4.7
	c0,1.4-0.5,2.7-1.5,3.6C207.5,332.3,206.2,332.8,204.8,332.8z M230.4,343L230.4,343c-5.4,0-10.6,2.2-14.5,6c-3.8,3.8-6,9.1-6,14.5
	c0,5.4,2.2,10.6,6,14.5c3.8,3.8,9.1,6,14.5,6c5.4,0,10.6-2.2,14.5-6c3.8-3.8,6-9,6-14.5c0-5.4-2.2-10.6-6-14.5
	C241,345.2,235.8,343,230.4,343L230.4,343z M230.4,373.8L230.4,373.8c-4.1,0-7.9-2.5-9.5-6.3c-1.6-3.8-0.7-8.2,2.2-11.2
	c2.9-2.9,7.3-3.8,11.2-2.2c3.8,1.6,6.3,5.3,6.3,9.5c0,2.7-1.1,5.3-3,7.2C235.7,372.7,233.1,373.8,230.4,373.8L230.4,373.8z"/>
</svg>
