<?xml version="1.0" encoding="utf-8"?>
<!-- Generator: Adobe Illustrator 26.4.1, SVG Export Plug-In . SVG Version: 6.00 Build 0)  -->
<svg version="1.1" id="Calque_1" xmlns="http://www.w3.org/2000/svg" xmlns:xlink="http://www.w3.org/1999/xlink" x="0px" y="0px"
	 viewBox="0 0 512 512" style="enable-background:new 0 0 512 512;" xml:space="preserve">
<style type="text/css">
	.st0{fill:#C1BCB8;}
	.st1{fill:#91CFE5;}
	.st2{fill:#FFD2AA;}
</style>
<g>
	<polygon class="st0" points="72.2,108 82.6,86.5 111.9,76.8 137.2,87.8 153.7,108 153.7,397.3 137.2,430.5 94.9,430.5 76.3,414.5 
		72.2,389 	"/>
	<polygon class="st1" points="153.7,275.4 153.7,397.3 137.2,430.5 181.9,421.6 201.5,377 245,371 259.1,336.7 299.6,336.7 
		323.2,352.6 352.7,347 359,316.6 379.9,292.6 440.6,297.7 440.6,132.5 392.2,123.6 341.8,119.1 320.6,119.1 284.3,146.6 256,138.1 
		230.9,151 242.1,196.6 221.8,226.9 194.8,226.3 183.2,231.2 167.8,269.8 	"/>
	<polygon class="st2" points="176.6,417.7 201.5,377 245,371 259.1,336.7 299.6,336.7 323.2,352.6 352.7,347 359,316.6 379.9,292.6 
		440.6,297.7 440.6,430.5 355.7,417.6 245.6,417.6 	"/>
	<polygon class="st2" points="153.7,130.7 153.7,275.4 167.8,269.8 183.2,231.2 221.8,226.9 236.5,197.5 230.9,151 256,138.1 
		284.3,146.6 320.6,119.1 	"/>
	<path d="M122,310.6h-0.6c-3.3,0-6,2.7-6,6c0,1.7,0.7,3.2,1.9,4.4c1.2,1.1,2.8,1.7,4.4,1.6c3.3,0,6-2.7,6-6s-2.7-6-6-6H122z"/>
	<path d="M122,280.6h-0.6c-3.3,0-6,2.7-6,6c0,1.7,0.7,3.2,1.9,4.4c1.2,1.1,2.8,1.7,4.4,1.6c3.3,0,6-2.7,6-6s-2.7-6-6-6H122z"/>
	<path d="M442.7,125.5c-93.5-17.8-189.5-18.2-283.2-1.3v-4.9c0.4-12.9-4.4-25.4-13.4-34.7c-8.9-9.2-21.3-14.5-34.2-14.5
		s-25.3,5.2-34.2,14.5c-9,9.2-13.8,21.8-13.4,34.7v271.8c0,8.6,2.3,17,6.8,24.4l0.4,0.6c8.7,14,24,22.5,40.5,22.5h0.6
		c2.5,0,4.9-0.2,7.3-0.7h2.6l0,0c2.7-0.2,5.3-0.8,7.9-1.6l44-6c83.3-11.9,168.1-9.8,250.8,6l15.4,2.8l0,0c1.8,0.3,3.6-0.1,5-1.3
		c1.3-1.2,2.2-2.9,2.1-4.7V131.3C447.6,128.5,445.5,126,442.7,125.5L442.7,125.5z M159.5,136.4h0.4l0,0
		c48.8-9.1,98.5-13.3,148.1-12.7l-6.8,4.9l-16.4,11.5l-27.1-8c-1.4-0.4-3-0.3-4.4,0.4l-24.4,12l0,0c-2.2,1.1-3.6,3.5-3.4,6l4.6,46
		l-11,25.2h-33.6c-2.6,0-5,1.7-5.7,4.2l-11.4,36.6l-9.1,3.9V136.4z M144.5,405.1c-3,6.9-8.1,12.7-14.5,16.5c0.2-0.3,0.5-0.6,0.8-0.9
		c5.6-8.6,7.1-19.3,4-29.1c-3.7-11.6-10.7-15.1-15.7-15.9c-6.4-1.4-13.1,0.2-18,4.5c-4.1,4.6-6.1,10.6-5.3,16.7
		c0.4,3.3,3.4,5.7,6.8,5.2c3.3-0.5,5.7-3.5,5.2-6.8c-0.2-2.4,0.4-4.7,1.9-6.7c2.3-1.4,5-1.7,7.6-1c1.1,0,4.1,0.7,6.3,7.6
		c2,6.3,1.1,13.2-2.6,18.8c-1.1,1.2-2.6,2.2-4.1,2.9c-4.9,2.2-10.2,3-15.5,2.4c-5.3-0.6-10.3-2.7-14.5-6l-6-4.4l0,0
		c-5.1-9.4-5.7-20.6-1.6-30.5c4-9.9,12.4-17.4,22.6-20.5c10.3-3.1,21.4-1.4,30.2,4.7c8.9,6.1,14.5,15.8,15.4,26.5
		C147.2,394.5,146.3,399.9,144.5,405.1L144.5,405.1z M147.5,131.3v228.3c-9-10.3-21.9-16.1-35.5-16.1s-26.6,5.8-35.6,16.1v-19.9
		c5.6-10.1,15.9-16.4,27.4-17c3.3-0.1,5.9-2.9,5.8-6.2c-0.2-3.3-2.9-5.9-6.2-5.8c-9.9,0.3-19.4,4-26.8,10.6v-11.5
		c5.5-10.1,15.9-16.4,27.4-17c3.3-0.1,5.9-2.9,5.8-6.2c-0.2-3.3-2.9-5.9-6.2-5.8c-9.9,0.3-19.4,4-26.9,10.6V119.3
		c-0.5-9.8,3-19.1,9.8-26.1c6.7-7,16-10.9,25.7-10.9s19,4,25.7,10.9s10.3,16.4,9.9,26.1V131.3z M435.5,425.3l-8.2-1.6
		c-78.1-14.9-158-17.6-236.9-8.1l14.3-33.2l41.2-5.6c2.2-0.3,4.1-1.8,4.8-3.9l11.2-30.5h36.6l17,15.8l0,0c1.3,1.2,3.1,1.8,4.9,1.6
		l32.8-4c2.5-0.3,4.7-2.2,5.2-4.7l7.1-34.3l16.5-18.8l53.3,4.1L435.5,425.3z M435.5,289.6l-55.4-4.3c-1.9-0.2-3.8,0.6-4.9,2
		l-19.7,22.4c-0.7,0.8-1.1,1.7-1.3,2.7l-6.6,31.7l-25.8,3.1L305,331.7l0,0c-1.1-1.1-2.5-1.6-4-1.6h-43.1c-2.5,0-4.8,1.6-5.6,4
		l-11.4,31.3l-40.9,5.6l0,0c-2.1,0.3-3.9,1.6-4.7,3.5l-18.5,43.1l-4.1,0.5l-22.3,3.2l0,0c1.3-1.9,2.4-3.9,3.3-6
		c0.8-1.7,1.4-3.5,1.9-5.2c2.6-5.9,3.8-12.3,3.8-18.8V279.2l16.4-7l0,0c1.6-0.7,2.8-2,3.4-3.8l10.8-34.9h33.1c2.4,0,4.6-1.4,5.6-3.7
		l13.1-30.3l0,0c0.4-0.9,0.5-1.9,0.4-2.9l-4.1-43.4l18.5-9l27.8,8.4c1.7,0.5,3.7,0.2,5.2-0.8l18.9-13.2l19.4-14.2l0,0
		c36.2,1.4,72.3,5.5,108,12L435.5,289.6z"/>
	<path d="M365.7,377c0,1.6,0.6,3.2,1.7,4.3s2.6,1.7,4.3,1.7h18v18c0,3.3,2.7,6,6,6s6-2.7,6-6v-18h18c3.3,0,6-2.7,6-6s-2.7-6-6-6h-18
		v-18c0-3.3-2.7-6-6-6s-6,2.7-6,6v18h-18C368.4,371,365.7,373.7,365.7,377z"/>
	<path d="M312.4,182.8c0,1.6,0.6,3.1,1.7,4.3s2.6,1.7,4.3,1.7h9.6c3.3,0,6-2.7,6-6c0-3.3-2.7-6-6-6h-9.6
		C315.1,176.8,312.4,179.5,312.4,182.8z"/>
	<path d="M347.8,188.8h1.9c3.3,0,6-2.7,6-6c0-3.3-2.7-6-6-6h-1.9c-3.3,0-6,2.7-6,6C341.8,186.1,344.5,188.8,347.8,188.8z"/>
	<path d="M328,235.3h-9.6c-3.3,0-6,2.7-6,6c0,3.3,2.7,6,6,6h9.6c3.3,0,6-2.7,6-6C334,238,331.3,235.3,328,235.3z"/>
	<path d="M349.7,235.3h-1.9c-3.3,0-6,2.7-6,6c0,3.3,2.7,6,6,6h1.9c3.3,0,6-2.7,6-6C355.7,238,353,235.3,349.7,235.3z"/>
	<path d="M320.6,210.2c0-1.6-0.6-3.1-1.7-4.3s-2.6-1.7-4.3-1.7h-30c-3.3,0-6,2.7-6,6c0,3.3,2.7,6,6,6h30c1.6,0,3.1-0.6,4.3-1.7
		S320.6,211.8,320.6,210.2z"/>
	<path d="M326.5,210.2c0,1.6,0.6,3.1,1.7,4.3s2.6,1.7,4.3,1.7h5c3.3,0,6-2.7,6-6c0-3.3-2.7-6-6-6h-5
		C329.2,204.2,326.5,206.8,326.5,210.2z"/>
	<path d="M352.7,210.2c0,1.6,0.6,3.1,1.7,4.3s2.6,1.7,4.3,1.7h7.2l0,0c3.3,0,6-2.7,6-6c0-3.3-2.7-6-6-6h-7.2l0,0
		C355.4,204.2,352.7,206.8,352.7,210.2z"/>
</g>
</svg>
