<?xml version="1.0" encoding="utf-8"?>
<!-- Generator: Adobe Illustrator 26.4.1, SVG Export Plug-In . SVG Version: 6.00 Build 0)  -->
<svg version="1.1" id="Calque_1" xmlns="http://www.w3.org/2000/svg" xmlns:xlink="http://www.w3.org/1999/xlink" x="0px" y="0px"
	 viewBox="0 0 512 512" style="enable-background:new 0 0 512 512;" xml:space="preserve">
<style type="text/css">
	.st0{fill:#F76DF0;stroke:#000000;stroke-miterlimit:10;}
	.st1{fill:#FFFFFF;stroke:#000000;stroke-miterlimit:10;}
	.st2{fill:#755020;stroke:#000000;stroke-miterlimit:10;}
</style>
<polygon class="st0" points="99.3,243.1 70.1,286.7 84.7,342.1 110.8,385.6 153,409.8 192.3,415 234.4,397.9 250.9,371 250.9,342.1 
	243.2,312.5 223.5,280.8 192.3,257.6 171,243.1 143,238 "/>
<polyline class="st1" points="144,319 157.8,349.2 185.7,355 192.3,342.1 182.1,316.2 160.5,308 149,308 144,314.4 "/>
<polygon class="st2" points="121,238 162.2,211.2 237.5,185 303.7,174 342.8,182 352,218.5 329.6,262.8 306.3,302.2 278.4,342.1 
	256,366.1 250.9,371 246.2,342.1 250.9,326.4 237.5,302.2 218,272.5 192.3,257.6 171,243.1 143,238 "/>
<polyline class="st1" points="329.6,167 369.3,132.9 364.9,120.1 361.6,102.3 381,97 398,102.3 399.6,111.4 407,122 407,132 
	420,132 432.4,143 437,162 432.4,174 414.7,176.1 399,176.1 388,179.2 369,197.1 352,205 343,191 329.6,173.5 "/>
<path d="M139.1,357.3c1.5,1.5,1.9,3.7,1.1,5.6c-0.8,1.9-2.7,3.2-4.8,3.2c-1.4,0-2.7-0.6-3.6-1.5c-14.6-14.1-25.1-31.9-30.5-51.5
	c-4.4-17.7-1.9-32.8,6.7-41.4c10.2-10.2,29.6-11.6,50.8-3.8l0,0c2.6,1,4,3.9,3,6.6c-1,2.6-3.9,4-6.6,3c-17.2-6.2-32.9-5.7-40,1.4
	c-5.9,5.9-7.4,17.8-4,31.7C116.2,328.4,125.8,344.5,139.1,357.3L139.1,357.3z M193.8,295.4c-2,2-2,5.2,0,7.2
	c25.2,25.2,29.7,49.7,12.3,67.1c-11.1,11.1-25.2,13.3-41,6.4c-1.3-0.6-2.7-0.7-4-0.2c-1.3,0.5-2.4,1.5-3,2.8c-0.6,1.3-0.6,2.8,0,4
	s1.6,2.3,2.9,2.8c6.7,3.1,14,4.7,21.4,4.8c11.6-0.1,22.7-4.9,30.7-13.3c21.9-21.7,17.3-52.1-12.1-81.5
	C199,293.4,195.8,293.4,193.8,295.4L193.8,295.4z M180.3,359.6c-10.7-1-20.6-6-27.8-14c-13.9-13.9-18-30.7-9.6-39.1
	c8.4-8.3,25.2-4.3,39.1,9.6c13.9,13.9,18,30.7,9.6,39.1C188.7,358.2,184.6,359.7,180.3,359.6L180.3,359.6z M159.8,338.4
	c10.2,10.2,21.6,12.6,24.6,9.6c3-3,0.8-14.2-9.6-24.6c-5.3-6-12.6-9.9-20.5-10.9c-1.5-0.1-2.9,0.3-4,1.3
	C147.2,316.8,149.4,327.7,159.8,338.4L159.8,338.4z M440.3,146.9c3.5,8.5,2.6,18.1-2.3,25.9c-4.5,7-11.8,11.7-20.1,13
	c-8.2,1.2-16.6-1.1-23-6.5c-7.2,5.7-25.1,20.1-42.3,34.2c-4.5,58.3-90.7,156.6-116.8,183.1c-0.5,0.5-0.9,1-1.4,1.5
	c-13.8,14-32.6,21.9-52.2,21.9c-22.2,0-47.1-9.9-71.4-34.2c-25.3-25.6-39.5-56.3-41-83.8h0c-1.9-18.7,4.3-37.3,17.2-51
	c27.2-27.3,167.4-91.6,230.4-80.5c12.9-10.9,33-28.1,41-34.8v0c-4.8-8.4-5.1-18.6-0.8-27.2c4.3-8.6,12.6-14.6,22.2-15.8
	c9.6-1.2,19.1,2.5,25.4,9.8c6.3,7.3,8.5,17.3,5.9,26.6c4.5-0.4,9.1,0.3,13.3,1.9C431.6,133.9,437.4,139.7,440.3,146.9L440.3,146.9z
	 M215,281.6c-25.2-24.9-55.8-38.5-81.9-38.5c-12.6-0.4-24.9,3.6-35,11.1l-0.3,0.3c-1.3,1-2.5,2.2-3.7,3.3
	c-12.5,12.5-16.7,31-13.7,51.2h0c5,26.5,18.1,50.7,37.6,69.3c36.9,36.8,79.6,41.7,109,12.3l0.6-0.6
	C256.4,360.8,251.4,318.3,215,281.6L215,281.6z M255,360.3c35.2-41,86.4-108.6,87.9-149.7v0c0.9-7.9-1.7-15.8-7.1-21.6
	c-4.9-4.5-10.9-7.4-17.5-8.6c-5.7-1-11.5-1.5-17.3-1.3c-46.9,0-122.3,29.1-169,54.1c29-0.4,62.8,14,90.1,41.3
	c29.7,29.6,37.8,60.3,32.6,85.8L255,360.3z M431,150.8c-1.8-4.8-5.5-8.6-10.2-10.5c-4.7-1.9-9.9-1.8-14.5,0.3
	c-2.5,1.2-5.4,0.5-7.2-1.6c-1.7-2.1-1.8-5.1-0.2-7.3c2.7-3.8,3.8-8.5,3.2-13.1c-0.6-4.6-2.9-8.8-6.5-11.8c-3.6-3-8.1-4.5-12.8-4.3
	c-4.7,0.2-9.1,2.2-12.3,5.4c-3.3,3.3-5.2,7.7-5.4,12.4c-0.2,4.7,1.3,9.2,4.3,12.8l1.3,1.5v1.9c0,2.5,0,2.6-41,37.1l3,1.3l0.6,0.3h0
	c1.6,0.8,3.1,1.7,4.6,2.8l1,0.7c1.4,1,2.7,2.2,4,3.4c1.1,1.1,2.1,2.3,3,3.5l0.8,1.1c0.7,1,1.3,2.1,1.9,3.2c0.2,0.3,0.4,0.6,0.5,1
	c0.7,1.4,1.3,2.9,1.8,4.4c0.1,0.3,0.2,0.7,0.3,1c0.4,1.3,0.7,2.6,1,3.9c0,0.3,0,0.5,0,0.8l24.4-19.8c19.1-15.4,19.1-15.4,22.4-12
	c3.8,4.8,9.7,7.5,15.8,7.1c6.1-0.4,11.7-3.7,14.9-8.9C432.7,162.3,433.2,156.2,431,150.8L431,150.8z M268.1,281.6
	c0,1.4,0.5,2.7,1.5,3.6c1,1,2.3,1.5,3.6,1.5c1.4,0,2.7-0.5,3.6-1.5c1-1,1.5-2.3,1.5-3.6c-0.3-7.2-2.7-14.2-6.7-20.1
	c-9.6-15.7-24.1-27.7-41.3-34.2c-2.6-1-5.6,0.3-6.6,3c-1,2.6,0.3,5.6,3,6.6c15,5.7,27.7,16.2,36.1,30
	C265.9,271.2,267.7,276.3,268.1,281.6L268.1,281.6z M293.7,253.9L293.7,253.9c0.7,2.3,2.8,3.8,5.1,3.7c0.5,0.1,1,0.1,1.4,0
	c1.3-0.5,2.4-1.4,2.9-2.7c0.6-1.3,0.6-2.7,0.1-4c-4.1-14-16.6-25.6-23.7-31.3h0c-1.1-0.9-2.4-1.3-3.8-1.1c-1.4,0.1-2.6,0.8-3.5,1.9
	c-0.9,1.1-1.2,2.4-1.1,3.8c0.2,1.4,0.8,2.6,1.9,3.4c9.2,6.6,16.2,15.8,20.3,26.3L293.7,253.9z M296.4,206.5L296.4,206.5
	c5.6,3.7,9.9,9.1,12.1,15.4c1,2.7,3.9,4,6.6,3.1c2.7-1,4-3.9,3.1-6.6c-3-8.4-8.7-15.6-16.2-20.5c-1.1-0.7-2.5-1-3.9-0.7
	c-1.3,0.3-2.5,1.1-3.2,2.2C293.3,201.8,294,205,296.4,206.5L296.4,206.5z"/>
</svg>
