<?xml version="1.0" encoding="utf-8"?>
<!-- Generator: Adobe Illustrator 26.4.1, SVG Export Plug-In . SVG Version: 6.00 Build 0)  -->
<svg version="1.1" id="Calque_1" xmlns="http://www.w3.org/2000/svg" xmlns:xlink="http://www.w3.org/1999/xlink" x="0px" y="0px"
	 viewBox="0 0 512 512" style="enable-background:new 0 0 512 512;" xml:space="preserve">
<style type="text/css">
	.st0{fill:#A0BC62;stroke:#000000;stroke-miterlimit:10;}
	.st1{fill:#428E60;stroke:#000000;stroke-miterlimit:10;}
</style>
<polygon class="st0" points="215.8,175 208.7,202 231,222 250,281.1 250,376 250,419 253.9,426.3 256,434 273,428.4 273,281.1 
	273,222 285,184.4 320.2,142.9 310,118.7 285.3,142.9 265.3,184 256,217 "/>
<polygon class="st1" points="164.9,151.1 142.1,132.8 117,151.1 103.6,178 99,226 103.6,262 108,281.1 115,286 156.1,266 
	189.6,228.7 208.7,202 215.8,175 208.7,152.8 191,144.1 "/>
<polyline class="st1" points="364,92 332,92 320.2,96 314.8,113 325,152.8 339.4,186.6 372.7,209.4 410,222 418,226 425.3,185 
	431,132.8 425.3,102 407,83.6 388.4,83.7 378,83.6 366,96 "/>
<path d="M386.8,73.6c-11.6,1.8-19.1,12-22.8,18.4c-14.3-7.3-37.9-13.2-49.7,5.1c-3.6,6.6-5.1,14.2-4.3,21.7
	c-28.5,22.5-48.7,53.9-57.1,89.2c-8.8-14.6-20.4-27.4-34.2-37.4c-0.2-5-1.6-9.9-4.2-14.3c-11.8-18.3-35.4-12.4-49.7-5.1
	c-3.6-6.4-11.2-16.6-22.8-18.4c-11.6-1.8-22.7,4.7-34.4,19c-30.2,37-3.2,133.1-2,137l1.3,4.7l4.7-1.1v0
	c45.5-9.7,83.2-41.4,100.4-84.7c13.9,14.7,28.7,39.7,31,80.7c1.9,34.5,0.8,107.8,0,137.7c-0.1,3.4,1.3,6.7,3.7,9
	c2.4,2.4,5.7,3.6,9.1,3.5h9.6c3.3,0,6.5-1.3,8.8-3.7s3.6-5.6,3.5-8.9c-0.8-36.8-2.3-127,0-169.5c3-53.2,22.9-84.8,41-102.9
	c18.2,40.6,54.7,70.1,98.2,79.4l4.7,1.1l1.3-4.7c1.2-4.1,28.2-100-2-137.1C409.6,78.2,397.9,71.7,386.8,73.6L386.8,73.6z
	 M114.2,281.1c-5.1-19.6-21.9-94.4,1.4-122.9c5.9-7.2,14.5-15.4,22.9-15.4v0c0.6-0.1,1.3-0.1,1.9,0c8.2,1.2,13.9,10.2,16.3,14.7
	c-16,20.3-25.8,44.7-28.4,70.5l-1.6,16.5l0,0c-0.3,2.8,1.8,5.3,4.6,5.6h0.5c2.6,0,4.9-2,5.1-4.6l1.6-16.5v0
	c2.5-24.5,12.1-47.8,27.6-66.9c4.5-2.6,29.5-16.2,39.8-0.3v0c1.9,3.5,2.9,7.5,2.8,11.5c0.1,6.3-0.6,12.5-2.3,18.5
	c-0.4,1.6-0.8,3.2-1.3,5.1l-0.3,0.8l0,0C190.9,239.3,156.7,270.7,114.2,281.1L114.2,281.1z M267.8,256.1c-2.5,42.9-1,133.4,0,170.3
	c0,0.5-0.2,1.1-0.6,1.5c-0.4,0.4-1,0.6-1.5,0.6H256c-0.6,0-1.1-0.2-1.5-0.6c-0.4-0.4-0.6-0.9-0.6-1.5c0.6-30.1,1.7-103.6,0-138.5
	c-3-47.7-21.9-75.6-38.1-91l0.5-1.9c0-1.1,0.6-2.2,0.8-3.3s0.5-2.7,0.7-3.9l0.5-2.7v-1.6h0c13.5,11.3,24.3,25.4,31.7,41.3l6.7,14.1
	l3-15.4c9.6-47.4,32.2-76,51.8-92.6c0,0.6,0,1.1,0.4,1.6s0.5,2.2,0.7,3.2c0.3,1.1,0.6,2,0.9,3.1c0.3,1.1,0.6,2.2,1,3.2
	s0.3,1,0.4,1.5c-20.2,18.8-43.7,53.2-47.2,112.5L267.8,256.1z M414.7,222c-40.6-10-73.8-39.2-88.9-78.1v-0.7
	c-0.6-1.5-1.1-3.1-1.6-4.7l-0.4-0.9c0-0.6-0.3-1.1-0.4-1.6c-0.4-1.4-0.8-2.7-1.1-4.1c-0.9-3.6-1.5-7.3-1.8-11.1
	c-1-6.2-0.1-12.5,2.6-18.1c3.2-5,8.8-7.8,14.7-7.6c8.8,0.7,17.4,3.4,24.9,7.9c15.4,19.1,24.9,42.2,27.3,66.6l1.7,16.5h0
	c0.3,2.6,2.5,4.6,5.1,4.6h0.5c2.8-0.3,4.9-2.8,4.6-5.6l-1.7-16.5c-2.6-25.6-12.3-49.9-28.2-70.2c2.4-4.5,8-13.5,16.2-14.7
	c9-1.4,18.5,7.5,24.8,15.4C436.5,127.6,419.8,202.3,414.7,222L414.7,222z"/>
</svg>
