<?xml version="1.0" encoding="utf-8"?>
<!-- Generator: Adobe Illustrator 26.4.1, SVG Export Plug-In . SVG Version: 6.00 Build 0)  -->
<svg version="1.1" id="Calque_1" xmlns="http://www.w3.org/2000/svg" xmlns:xlink="http://www.w3.org/1999/xlink" x="0px" y="0px"
	 viewBox="0 0 512 512" style="enable-background:new 0 0 512 512;" xml:space="preserve">
<style type="text/css">
	.st0{fill:#BFAF94;stroke:#000000;stroke-miterlimit:10;}
	.st1{fill:#93AAC1;stroke:#000000;stroke-miterlimit:10;}
</style>
<polygon class="st0" points="194,280 161.1,311 151,351 161.1,388.7 187,410 218.8,416.9 260.5,404.6 282,380.1 288,342 276.4,314 
	249,280 "/>
<polygon class="st1" points="207,317 188,342 197.5,371 223.9,380.1 247,364.9 247,342 242,323 "/>
<polygon class="st1" points="151,45 128,75 128,120 136.7,163.2 161.1,188 187,209 187,252 187,280 249,280 249,198 283,178 
	306,147 319.8,101 300.8,69 284,45 260.5,59.1 245,77 249,95 256,131 245,146 223.9,155 200.7,147 181,126 177,101 194,77 "/>
<polygon class="st1" points="288,364.9 260.5,409 268,423 351,474 382,419.5 "/>
<g>
	<path d="M399.1,417.3l-20.3-12.4l-79.2-48.6c0.4-3.1,0.6-6.2,0.6-9.3c0-30.1-16.5-56.4-40.9-70.5v-66.2
		c38.8-16.2,65.3-54.6,65.3-97.7c0-24.4-8.5-48.2-24-67l-15.1-18.4l-18.4,15L244.1,61l-18.4,15.1l15.1,18.4c4.3,5.2,6.4,11.3,6.4,18
		c0,15.7-12.8,28.5-28.4,28.5c-15.7,0-28.5-12.8-28.5-28.5c0-6.8,2.4-13.4,6.9-18.5l15.4-18l-18-15.5l-22.7-19.4l-18-15.5l-15.5,18
		c-16.4,19.2-25.5,43.6-25.5,68.9c0,43.1,26.5,81.6,65.3,97.7v66.2c-24.4,14.1-40.9,40.4-40.9,70.5c0,44.9,36.5,81.4,81.4,81.4
		c11.5,0,22.4-2.4,32.3-6.7l85.4,52.4l20.3,12.4l12.4-20.2l17.6-28.6L399.1,417.3z M136.7,112.5c0-19.6,7-38.6,19.7-53.4l22.7,19.4
		c-8.1,9.5-12.6,21.5-12.6,34c0,28.8,23.4,52.2,52.2,52.2c28.8,0,52.2-23.4,52.2-52.2c0-12.2-4.1-23.6-11.8-33.1l23.1-18.9
		c12,14.6,18.6,33.1,18.6,52c0,39.5-28,72.6-65.3,80.3v74.4c-5.4-1.1-11-1.8-16.8-1.8s-11.4,0.6-16.8,1.8v-74.4
		C164.8,185.1,136.7,152,136.7,112.5L136.7,112.5z M218.8,404.6c-31.8,0-57.6-25.8-57.6-57.6c0-31.8,25.8-57.6,57.6-57.6
		c31.8,0,57.6,25.8,57.6,57.6C276.4,378.7,250.6,404.6,218.8,404.6z M348.8,453.7l-75.7-46.4c8.4-7.6,15.2-16.8,19.9-27.2l73.4,45
		L348.8,453.7z"/>
	<path d="M218.8,305.1c-23,0-41.8,18.7-41.8,41.8s18.7,41.8,41.8,41.8s41.8-18.7,41.8-41.8S241.8,305.1,218.8,305.1z M218.8,364.9
		c-9.9,0-18-8.1-18-18c0-10,8.1-18,18-18c10,0,18,8.1,18,18S228.7,364.9,218.8,364.9z"/>
</g>
</svg>
