<?xml version="1.0" encoding="utf-8"?>
<!-- Generator: Adobe Illustrator 26.4.1, SVG Export Plug-In . SVG Version: 6.00 Build 0)  -->
<svg version="1.1" id="Calque_1" xmlns="http://www.w3.org/2000/svg" xmlns:xlink="http://www.w3.org/1999/xlink" x="0px" y="0px"
	 viewBox="0 0 512 512" style="enable-background:new 0 0 512 512;" xml:space="preserve">
<style type="text/css">
	.st0{fill:#AAA8A7;stroke:#000000;stroke-miterlimit:10;}
	.st1{fill:#848484;stroke:#000000;stroke-miterlimit:10;}
</style>
<polygon class="st0" points="132,293.8 94.2,329 60.4,396 55,420 65,439.4 94.2,446.5 149,451 187,439.4 254.5,430 278.3,411.4 
	279.5,361.7 254.5,310.5 210,276.4 171.6,271.4 "/>
<polygon class="st1" points="134,276.4 139,229 165.6,190 197.9,156 254.5,136 293.7,149 334,157 360,172 392.4,211 425,246.1 
	448.6,318 455,353.1 438,390.2 413.5,424 365,439.4 332,446.5 293.7,439.4 254.5,430 278.3,411.4 270,376.9 270.8,353.1 256,323.5 
	244,299 228.8,283.8 197.9,274.8 171.6,271.4 149,284 132,293.8 "/>
<g>
	<path d="M460.2,350.9c-0.4-14.4-3.5-28.6-9-41.8c-5.8-15.2-10.9-30.4-16-45.7c-3.8-14.2-11-27.3-21.1-38.1
		c-15.5-15.2-29.8-31.6-42.9-48.9c-11.1-15.2-28-25.2-46.7-27.6c-18.4-2.2-36.5-6.7-53.8-13.5c-11.2-4.4-23.6-4.3-34.7,0.4
		c-8.1,3.1-16,6.7-24.2,9.6c-16.8,6-31.6,16.6-42.6,30.7c-8.6,10.8-17.2,21.7-25.2,32.9c-3.5,4.8-6.1,10.1-7.7,15.8
		c-5.1,18.6-11.1,37.3-8.9,57c1.2,10.8-3.3,16.6-12.1,21.6v0c-13.7,7.4-24.9,18.6-32.4,32.2c-8.9,16.7-18,33.4-25.6,50.7l0,0
		c-4.1,10.2-6.8,20.9-8.1,31.8c-0.7,5.4,0.3,10.8,2.8,15.6s6.6,8.6,11.5,10.9c6.6,3.5,13.7,5.8,21.1,6.9c15.6,2.3,31.4,3.4,47.1,4.8
		c11.4,1,23.1,2.4,33.8-3.1c25.6-13.2,54.2-9.2,81.1-15.1c1.1,0,2.3,0.5,3.4,0.7c23.7,4.1,47.3,8.1,71.1,11.9
		c4.7,0.8,9.4,0.8,14.1,0c20.5-3.9,41-8.2,61.4-12.5c10.6-2.2,20-8.2,26.4-16.8c9.1-11.9,18.1-23.9,27-35.8h0
		C457.3,375.5,461,363.3,460.2,350.9L460.2,350.9z M234.2,428.5c-6.3,1-12.6,1.6-18.9,1.9c-18.2,0.4-36.1,4.3-52.9,11.4
		c-6.7,2.2-13.5,3.7-20.5,4.7l-0.3-1.4c-19.7-1.7-39.4-3.1-59-5.1c-17.2-1.9-24.8-12.9-21.6-29.7c2.7-14.1,31.6-71.7,41.6-81.9
		c4.9-5.2,10.4-9.7,16.5-13.5c11.8-7.2,22.8-15.6,32.9-24.9c1.8-1.6,3.7-3,5.5-4.5c4.6-4.6,10.6-7.6,17-8.6c6.4-1,13,0.1,18.8,3.1
		c10.2,5.1,21,9.1,30.7,15.1c17.3,10.1,30.2,26.3,36.2,45.4c3.7,12,6.7,24.3,9.6,36.6v0c0.7,3.9,1,7.8,0.7,11.8
		C270.1,412.5,258.2,425.5,234.2,428.5L234.2,428.5z M435.2,385.3c-7.3,8.3-13.5,17.6-20,26.5c-5.2,7.6-13.1,12.9-22.1,14.9
		c-19.7,4.1-39.4,8.2-59.1,12v0c-3.5,0.7-7.1,0.8-10.6,0.3c-17.1-2.8-34.2-5.8-51.2-9c-1.7-0.6-3.3-1.3-4.8-2.3
		c18.4-19.7,17.3-42.6,12.1-66v0c-2.2-9.2-4.9-18.3-8.2-27.1c-7.5-21.5-22.6-39.6-42.5-50.8c-11.8-6.3-24-11.9-36.6-16.7
		c-5.8-2.6-12.3-3.5-18.6-2.7c-6.3,0.8-12.3,3.4-17.3,7.4c-5.1,3.8-10.2,7.4-17.2,12.4c0-5.1-0.5-7.9-0.5-10.9
		c0-17.2,5.6-33.4,10.2-49.7h0c0.4-1.5,1.1-3,2-4.2c12-15.4,23.1-31.2,36.4-45.2c7.1-7.7,17.8-12.4,27.6-17.6
		c6.9-3.7,14.6-5.8,21.9-8.9c10.1-4.8,21.8-5.1,32.2-0.7c16.9,6.8,34.6,11.2,52.7,13.1c16,1.8,30.4,10.2,40,23.1
		c13.6,18,28.4,34.9,44.5,50.7c8.3,9.2,14.2,20.2,17.3,32.2c5.1,15.7,11,31.2,16.4,46.9c2.2,6.3,4.4,12.7,6.1,19.1
		C451.2,351.5,449,369.5,435.2,385.3L435.2,385.3z"/>
	<path d="M371.2,231.3c-9.5-7.1-17.6-15.9-23.8-26.1c-6-10-16.8-16.3-28.5-16.5c-6.7-0.1-13.3-1.8-19.1-5.1
		c-12.3-8.6-26.3-12.3-40.1-16.9c-7.5-2.9-15.8-2.4-23,1.2c-11.3,6.3-22.1,13.7-33,20.5v0c-1.4,0.8-2.6,1.9-3.5,3.2
		c-1,2.6-1.8,5.3-2.4,8.1c12.3-7.9,22.6-14.2,32.6-21.1c7.1-5.1,14.5-9.3,23-6.9c12.8,3.6,26.4,5.4,37.5,13.9l0,0
		c7.9,6.1,17.6,9.5,27.6,9.6c5-0.1,9.9,1.2,14.2,3.7c4.3,2.5,7.9,6.1,10.3,10.4c2.1,3.8,4.6,7.4,7.5,10.6c9.1,9,18.7,17.6,28.1,26.3
		l3.2-3.1h0C378.7,238.8,375.2,234.8,371.2,231.3L371.2,231.3z"/>
	<path d="M393.8,271.4c-3.4,4.1,0,7.4,1.4,10.8c6.9,19.6,16.4,38.6,14.2,60.4h0c0.2,2.5,0.9,4.9,1.9,7.1
		C418.3,326.6,407.1,282.1,393.8,271.4L393.8,271.4z"/>
	<path d="M399.4,388.1c10.6-5.1,11.9-7,9.7-17.1L399.4,388.1z"/>
	<path d="M155.6,309.3c-5.1,4-11.4,6.9-17.1,10.2c-5.1,2.9-9.9,6.2-14.5,9.8c-5.9,5-11.6,10.3-16.9,16c-0.9,0.9-0.4,3.3-0.8,7.8
		c4-4,5.9-6.2,8.1-8l0,0c4.3-3.9,8.8-7.6,13.5-11c10.7-7.2,21.9-13.6,32.5-20.9c3.9-3.2,7.3-6.9,10.2-11.1c1-1.2,0.5-3.7,0.8-8.3
		l0,0C166.5,299.3,161.2,304.4,155.6,309.3L155.6,309.3z"/>
	<path d="M95,390.2c7.6-8.4,5.1-18.5,10.5-28.6C95.2,367.8,92.6,376,95,390.2z"/>
</g>
</svg>
