<?xml version="1.0" encoding="utf-8"?>
<!-- Generator: Adobe Illustrator 26.4.1, SVG Export Plug-In . SVG Version: 6.00 Build 0)  -->
<svg version="1.1" id="Calque_1" xmlns="http://www.w3.org/2000/svg" xmlns:xlink="http://www.w3.org/1999/xlink" x="0px" y="0px"
	 viewBox="0 0 512 512" style="enable-background:new 0 0 512 512;" xml:space="preserve">
<style type="text/css">
	.st0{fill:#A8A82F;}
</style>
<g>
	<path class="st0" d="M131.6,438.7c-5.2-9-12.3-19.5-15.7-18.9c-0.8,0.1-2.2,0.9-5,4.9c-7.2-10.4-10-11.2-11.4-10.9
		c-4.4,0.8-12.8,16.7-16.2,23.5c-0.4,0.9-0.1,1.9,0.8,2.4c4.7,2.4,11.6,3.3,20.6,2.5c1.8-0.1,3.6-0.1,5.5,0.2
		c1.8,0.2,3.6,0.4,5.3,0.4c6.5,0,12.9-1.3,15-1.8c0.5-0.1,0.9-0.4,1.1-0.9C131.8,439.7,131.8,439.2,131.6,438.7L131.6,438.7z
		 M110.4,440.7c-1.3-0.2-2.6-0.2-3.8-0.2c-0.7,0-1.3,0.1-2,0.1c-8.7,0.6-15.2-0.1-19.7-2.4c5.2-10.5,12.1-22,14.8-22.5
		c0.4-0.1,2.7,0.1,10.3,11.2c0.2,0.2,0.5,0.4,0.8,0.4c0.3,0,0.6-0.1,0.7-0.4c3-4.6,4.3-5.2,4.6-5.2c1.4-0.2,6.6,5.9,13.6,17.7
		C126.8,440,117.8,441.8,110.4,440.7L110.4,440.7z"/>
	<path class="st0" d="M96.4,425.1c0,0.5-0.3,0.8-0.8,0.8c-0.4,0-0.8-0.4-0.8-0.8c0-0.4,0.3-0.8,0.8-0.8S96.4,424.6,96.4,425.1"/>
	<path class="st0" d="M98.9,432.5c0,0.5-0.3,0.8-0.8,0.8c-0.5,0-0.8-0.4-0.8-0.8c0-0.4,0.3-0.8,0.8-0.8
		C98.5,431.7,98.9,432.1,98.9,432.5"/>
	<path class="st0" d="M91,436.2c0,0.5-0.3,0.8-0.8,0.8c-0.5,0-0.8-0.4-0.8-0.8c0-0.4,0.3-0.8,0.8-0.8C90.6,435.4,91,435.7,91,436.2"
		/>
	<path class="st0" d="M102.7,427.9c0,0.4-0.3,0.8-0.8,0.8c-0.4,0-0.8-0.4-0.8-0.8c0-0.5,0.3-0.8,0.8-0.8S102.7,427.4,102.7,427.9"/>
	<path class="st0" d="M100.9,419.2c0,0.4-0.3,0.8-0.8,0.8c-0.5,0-0.8-0.4-0.8-0.8c0-0.5,0.3-0.8,0.8-0.8
		C100.5,418.4,100.9,418.8,100.9,419.2"/>
	<path class="st0" d="M101.1,423.7c0,0.4-0.3,0.6-0.7,0.6c-0.3,0-0.7-0.3-0.7-0.6c0-0.4,0.3-0.6,0.7-0.6
		C100.8,423.1,101.1,423.4,101.1,423.7"/>
	<path class="st0" d="M93.6,430.7c0,0.4-0.3,0.6-0.7,0.6c-0.3,0-0.7-0.3-0.7-0.6s0.3-0.6,0.7-0.6C93.3,430,93.6,430.3,93.6,430.7"/>
	<path class="st0" d="M97.3,437.8c0,0.4-0.3,0.6-0.7,0.6s-0.7-0.3-0.7-0.6c0-0.3,0.3-0.6,0.7-0.6C97,437.1,97.3,437.4,97.3,437.8"/>
	<path class="st0" d="M105.8,432.3c0,0.4-0.3,0.6-0.7,0.6c-0.3,0-0.7-0.3-0.7-0.6c0-0.3,0.3-0.6,0.7-0.6
		C105.5,431.7,105.8,432,105.8,432.3"/>
	<path class="st0" d="M109.2,429.6c0,0.4-0.3,0.6-0.7,0.6s-0.7-0.3-0.7-0.6c0-0.4,0.3-0.6,0.7-0.6
		C108.9,429,109.2,429.3,109.2,429.6"/>
	<path class="st0" d="M105.8,425.1c0,0.4-0.3,0.6-0.7,0.6c-0.3,0-0.7-0.3-0.7-0.6c0-0.3,0.3-0.6,0.7-0.6
		C105.5,424.4,105.8,424.7,105.8,425.1"/>
	<path class="st0" d="M104.4,437.2c0,0.4-0.3,0.8-0.8,0.8c-0.5,0-0.8-0.4-0.8-0.8c0-0.5,0.3-0.8,0.8-0.8
		C104,436.4,104.4,436.8,104.4,437.2"/>
	<path class="st0" d="M117.2,425.1c0,0.5-0.3,0.8-0.8,0.8c-0.4,0-0.8-0.4-0.8-0.8c0-0.4,0.3-0.8,0.8-0.8S117.2,424.6,117.2,425.1"/>
	<path class="st0" d="M116.2,433.7c0,0.5-0.3,0.8-0.8,0.8c-0.4,0-0.8-0.4-0.8-0.8c0-0.4,0.3-0.8,0.8-0.8S116.2,433.2,116.2,433.7"/>
	<path class="st0" d="M110.6,435.4c0,0.4-0.3,0.8-0.8,0.8c-0.5,0-0.8-0.4-0.8-0.8c0-0.5,0.3-0.8,0.8-0.8
		C110.2,434.5,110.6,434.9,110.6,435.4"/>
	<path class="st0" d="M126.1,437c0,0.4-0.3,0.8-0.8,0.8c-0.4,0-0.8-0.4-0.8-0.8c0-0.5,0.3-0.8,0.8-0.8
		C125.7,436.1,126.1,436.5,126.1,437"/>
	<path class="st0" d="M120.4,430c0,0.4-0.3,0.6-0.7,0.6s-0.7-0.3-0.7-0.6c0-0.3,0.3-0.6,0.7-0.6S120.4,429.7,120.4,430"/>
	<path class="st0" d="M119.7,438.1c0,0.4-0.3,0.6-0.7,0.6s-0.7-0.3-0.7-0.6c0-0.3,0.3-0.6,0.7-0.6S119.7,437.7,119.7,438.1"/>
	<path class="st0" d="M114.4,438.2c0,0.4-0.3,0.6-0.7,0.6c-0.3,0-0.7-0.3-0.7-0.6c0-0.4,0.3-0.6,0.7-0.6
		C114.1,437.6,114.4,437.9,114.4,438.2"/>
	<path class="st0" d="M115,429c0,0.4-0.3,0.6-0.7,0.6s-0.7-0.3-0.7-0.6c0-0.3,0.3-0.6,0.7-0.6C114.7,428.4,115,428.6,115,429"/>
	<path class="st0" d="M121.8,434.3c0,0.4-0.3,0.6-0.7,0.6s-0.7-0.3-0.7-0.6c0-0.3,0.3-0.6,0.7-0.6S121.8,434,121.8,434.3"/>
</g>
<g>
	<path class="st0" d="M111.7,89.4c-6.3-10.7-14.8-23.3-18.8-22.6c-1,0.2-2.7,1-6.1,5.9c-8.7-12.4-11.9-13.4-13.7-13.1
		c-5.3,1-15.3,20-19.4,28.2c-0.5,1-0.1,2.3,0.9,2.8c5.6,2.9,14,4,24.8,3.1c2.1-0.2,4.3-0.1,6.6,0.2c2.1,0.3,4.3,0.4,6.4,0.4
		c7.8,0,15.4-1.6,18-2.2c0.6-0.1,1.1-0.5,1.3-1.1C112.1,90.6,112.1,90,111.7,89.4L111.7,89.4z M86.4,91.8c-1.6-0.2-3.1-0.3-4.6-0.3
		c-0.8,0-1.6,0.1-2.4,0.1c-10.4,0.8-18.3-0.2-23.6-2.8C62,76.2,70.3,62.4,73.6,61.7c0.5-0.1,3.2,0.2,12.4,13.5
		c0.2,0.3,0.5,0.4,0.9,0.5c0.4,0,0.7-0.2,0.8-0.5c3.6-5.6,5.2-6.2,5.5-6.3c1.7-0.2,7.9,7,16.3,21.2C106,91,95.3,93.1,86.4,91.8
		L86.4,91.8z"/>
	<path class="st0" d="M69.6,73c0,0.5-0.4,1-1,1c-0.5,0-1-0.4-1-1s0.4-1,1-1C69.2,72.1,69.6,72.5,69.6,73"/>
	<path class="st0" d="M72.5,82c0,0.5-0.4,1-1,1s-1-0.4-1-1s0.4-1,1-1C72.1,81,72.5,81.5,72.5,82"/>
	<path class="st0" d="M63,86.4c0,0.5-0.4,1-1,1c-0.5,0-1-0.4-1-1s0.4-1,1-1S63,85.8,63,86.4"/>
	<path class="st0" d="M77.1,76.4c0,0.5-0.4,1-1,1s-1-0.4-1-1s0.4-1,1-1C76.7,75.4,77.1,75.9,77.1,76.4"/>
	<path class="st0" d="M74.9,66c0,0.5-0.4,1-1,1s-1-0.4-1-1s0.4-1,1-1S74.9,65.5,74.9,66"/>
	<path class="st0" d="M75.2,71.4c0,0.4-0.4,0.8-0.8,0.8c-0.4,0-0.8-0.4-0.8-0.8s0.4-0.8,0.8-0.8C74.8,70.6,75.2,71,75.2,71.4"/>
	<path class="st0" d="M66.2,79.8c0,0.4-0.4,0.8-0.8,0.8c-0.4,0-0.8-0.4-0.8-0.8c0-0.4,0.4-0.8,0.8-0.8
		C65.9,78.9,66.2,79.3,66.2,79.8"/>
	<path class="st0" d="M70.5,88.3c0,0.4-0.4,0.8-0.8,0.8S69,88.7,69,88.3s0.4-0.8,0.8-0.8S70.5,87.9,70.5,88.3"/>
	<path class="st0" d="M80.8,81.7c0,0.4-0.4,0.8-0.8,0.8c-0.4,0-0.8-0.4-0.8-0.8S79.6,81,80,81C80.4,81,80.8,81.3,80.8,81.7"/>
	<path class="st0" d="M84.9,78.5c0,0.4-0.4,0.8-0.8,0.8c-0.4,0-0.8-0.4-0.8-0.8c0-0.4,0.4-0.8,0.8-0.8S84.9,78.1,84.9,78.5"/>
	<path class="st0" d="M80.8,73c0,0.4-0.4,0.8-0.8,0.8c-0.4,0-0.8-0.4-0.8-0.8s0.4-0.8,0.8-0.8C80.4,72.3,80.8,72.6,80.8,73"/>
	<path class="st0" d="M79.1,87.6c0,0.5-0.4,1-1,1s-1-0.4-1-1s0.4-1,1-1C78.6,86.6,79.1,87.1,79.1,87.6"/>
	<path class="st0" d="M94.5,73c0,0.5-0.4,1-1,1s-1-0.4-1-1s0.4-1,1-1C94,72.1,94.5,72.5,94.5,73"/>
	<path class="st0" d="M93.3,83.4c0,0.5-0.4,1-1,1s-1-0.4-1-1s0.4-1,1-1S93.3,82.8,93.3,83.4"/>
	<path class="st0" d="M86.6,85.4c0,0.5-0.4,1-1,1s-1-0.4-1-1s0.4-1,1-1C86.1,84.4,86.6,84.9,86.6,85.4"/>
	<path class="st0" d="M105.2,87.3c0,0.5-0.4,1-1,1s-1-0.4-1-1s0.4-1,1-1C104.7,86.3,105.2,86.8,105.2,87.3"/>
	<path class="st0" d="M98.3,79c0,0.4-0.4,0.8-0.8,0.8c-0.4,0-0.8-0.4-0.8-0.8c0-0.4,0.4-0.8,0.8-0.8C98,78.2,98.3,78.6,98.3,79"/>
	<path class="st0" d="M97.5,88.6c0,0.4-0.4,0.8-0.8,0.8S96,89.1,96,88.6c0-0.4,0.4-0.8,0.8-0.8C97.2,87.9,97.5,88.2,97.5,88.6"/>
	<path class="st0" d="M91.1,88.8c0,0.4-0.4,0.8-0.8,0.8s-0.8-0.4-0.8-0.8c0-0.4,0.4-0.8,0.8-0.8C90.7,88,91.1,88.4,91.1,88.8"/>
	<path class="st0" d="M91.9,77.8c0,0.4-0.4,0.8-0.8,0.8c-0.4,0-0.8-0.4-0.8-0.8s0.4-0.8,0.8-0.8C91.5,77,91.9,77.4,91.9,77.8"/>
	<path class="st0" d="M100,84.1c0,0.4-0.4,0.8-0.8,0.8c-0.4,0-0.8-0.4-0.8-0.8s0.4-0.8,0.8-0.8C99.6,83.4,100,83.7,100,84.1"/>
</g>
<g>
	<path class="st0" d="M416,399.1c-5.2-9-12.3-19.5-15.6-18.9c-0.8,0.1-2.2,0.9-5,4.9c-7.2-10.4-10-11.2-11.4-10.9
		c-4.4,0.8-12.8,16.7-16.2,23.5c-0.4,0.9-0.1,1.9,0.8,2.4c4.7,2.4,11.6,3.3,20.6,2.5c1.8-0.1,3.6-0.1,5.5,0.2
		c1.8,0.2,3.6,0.4,5.3,0.4c6.5,0,12.9-1.3,15-1.8c0.5-0.1,0.9-0.4,1.1-0.9C416.2,400.1,416.2,399.5,416,399.1L416,399.1z
		 M394.8,401.1c-1.3-0.2-2.6-0.2-3.9-0.2c-0.6,0-1.4,0.1-2,0.1c-8.6,0.6-15.2-0.1-19.6-2.4c5.2-10.5,12.1-22,14.9-22.5
		c0.4-0.1,2.7,0.1,10.4,11.2c0.1,0.2,0.4,0.4,0.8,0.4c0.3,0,0.5-0.1,0.7-0.4c3-4.6,4.3-5.2,4.6-5.2c1.4-0.2,6.6,5.9,13.6,17.7
		C411.2,400.4,402.2,402.1,394.8,401.1L394.8,401.1z"/>
	<path class="st0" d="M380.8,385.5c0,0.4-0.4,0.8-0.8,0.8c-0.4,0-0.8-0.4-0.8-0.8c0-0.5,0.4-0.8,0.8-0.8
		C380.5,384.6,380.8,385,380.8,385.5"/>
	<path class="st0" d="M383.3,392.9c0,0.5-0.4,0.8-0.8,0.8c-0.4,0-0.8-0.4-0.8-0.8c0-0.4,0.4-0.8,0.8-0.8
		C382.9,392.1,383.3,392.5,383.3,392.9"/>
	<path class="st0" d="M375.4,396.6c0,0.5-0.4,0.8-0.8,0.8c-0.5,0-0.8-0.4-0.8-0.8c0-0.4,0.4-0.8,0.8-0.8
		C375,395.7,375.4,396.1,375.4,396.6"/>
	<path class="st0" d="M387.1,388.3c0,0.4-0.4,0.8-0.8,0.8c-0.4,0-0.8-0.4-0.8-0.8c0-0.5,0.4-0.8,0.8-0.8
		C386.7,387.5,387.1,387.8,387.1,388.3"/>
	<path class="st0" d="M385.3,379.6c0,0.4-0.4,0.8-0.8,0.8c-0.4,0-0.8-0.4-0.8-0.8c0-0.5,0.4-0.8,0.8-0.8
		C384.9,378.8,385.3,379.2,385.3,379.6"/>
	<path class="st0" d="M385.5,384.1c0,0.4-0.3,0.6-0.6,0.6c-0.4,0-0.6-0.3-0.6-0.6c0-0.4,0.3-0.6,0.6-0.6
		C385.2,383.5,385.5,383.8,385.5,384.1"/>
	<path class="st0" d="M378,391c0,0.4-0.3,0.6-0.6,0.6c-0.4,0-0.6-0.3-0.6-0.6c0-0.4,0.3-0.6,0.6-0.6C377.7,390.4,378,390.7,378,391"
		/>
	<path class="st0" d="M381.7,398.2c0,0.4-0.3,0.6-0.6,0.6c-0.4,0-0.6-0.3-0.6-0.6c0-0.3,0.3-0.6,0.6-0.6
		C381.4,397.5,381.7,397.8,381.7,398.2"/>
	<path class="st0" d="M390.2,392.7c0,0.4-0.3,0.6-0.6,0.6c-0.3,0-0.6-0.3-0.6-0.6c0-0.4,0.3-0.6,0.6-0.6
		C389.9,392.1,390.2,392.4,390.2,392.7"/>
	<path class="st0" d="M393.6,390c0,0.4-0.3,0.6-0.6,0.6c-0.4,0-0.6-0.3-0.6-0.6c0-0.4,0.3-0.6,0.6-0.6
		C393.3,389.3,393.6,389.6,393.6,390"/>
	<path class="st0" d="M390.2,385.5c0,0.4-0.3,0.6-0.6,0.6c-0.3,0-0.6-0.3-0.6-0.6c0-0.4,0.3-0.6,0.6-0.6
		C389.9,384.8,390.2,385.1,390.2,385.5"/>
	<path class="st0" d="M388.8,397.6c0,0.5-0.4,0.8-0.8,0.8c-0.4,0-0.8-0.4-0.8-0.8c0-0.4,0.4-0.8,0.8-0.8
		C388.4,396.8,388.8,397.1,388.8,397.6"/>
	<path class="st0" d="M401.6,385.5c0,0.4-0.4,0.8-0.8,0.8c-0.4,0-0.8-0.4-0.8-0.8c0-0.5,0.4-0.8,0.8-0.8
		C401.2,384.6,401.6,385,401.6,385.5"/>
	<path class="st0" d="M400.6,394.1c0,0.5-0.4,0.8-0.8,0.8c-0.5,0-0.8-0.4-0.8-0.8c0-0.4,0.4-0.8,0.8-0.8
		C400.2,393.2,400.6,393.6,400.6,394.1"/>
	<path class="st0" d="M395,395.7c0,0.4-0.4,0.8-0.8,0.8c-0.4,0-0.8-0.4-0.8-0.8c0-0.5,0.4-0.8,0.8-0.8
		C394.7,394.9,395,395.3,395,395.7"/>
	<path class="st0" d="M410.5,397.3c0,0.5-0.4,0.8-0.8,0.8c-0.5,0-0.8-0.4-0.8-0.8c0-0.4,0.4-0.8,0.8-0.8
		C410.1,396.5,410.5,396.9,410.5,397.3"/>
	<path class="st0" d="M404.8,390.4c0,0.4-0.3,0.6-0.6,0.6c-0.4,0-0.6-0.3-0.6-0.6c0-0.3,0.3-0.6,0.6-0.6S404.8,390.1,404.8,390.4"/>
	<path class="st0" d="M404.1,398.5c0,0.4-0.3,0.6-0.6,0.6s-0.6-0.3-0.6-0.6c0-0.4,0.3-0.6,0.6-0.6
		C403.8,397.8,404.1,398.1,404.1,398.5"/>
	<path class="st0" d="M398.8,398.6c0,0.4-0.3,0.6-0.6,0.6c-0.4,0-0.6-0.3-0.6-0.6c0-0.4,0.3-0.6,0.6-0.6
		C398.5,398,398.8,398.2,398.8,398.6"/>
	<path class="st0" d="M399.4,389.4c0,0.4-0.3,0.6-0.6,0.6c-0.4,0-0.6-0.3-0.6-0.6c0-0.3,0.3-0.6,0.6-0.6
		C399.1,388.7,399.4,389,399.4,389.4"/>
	<path class="st0" d="M406.2,394.7c0,0.4-0.3,0.6-0.6,0.6c-0.4,0-0.6-0.3-0.6-0.6c0-0.4,0.3-0.6,0.6-0.6
		C405.9,394.1,406.2,394.4,406.2,394.7"/>
</g>
<g>
	<path class="st0" d="M417.5,118.5c-6.3-10.7-14.8-23.3-18.8-22.6c-1,0.2-2.7,1-6.1,5.9c-8.6-12.4-11.9-13.4-13.6-13.1
		c-5.3,1-15.3,20-19.4,28.2c-0.5,1-0.1,2.3,0.9,2.8c5.6,2.9,14,4,24.8,3.1c2.1-0.2,4.3-0.1,6.6,0.2c2.1,0.3,4.3,0.4,6.4,0.4
		c7.8,0,15.4-1.6,18-2.2c0.6-0.1,1.1-0.5,1.3-1.1C417.9,119.6,417.9,119,417.5,118.5L417.5,118.5z M392.1,120.8
		c-1.6-0.2-3.1-0.3-4.6-0.3c-0.8,0-1.6,0.1-2.4,0.1c-10.4,0.8-18.3-0.2-23.6-2.8c6.2-12.6,14.5-26.4,17.8-27.1
		c0.5-0.1,3.2,0.2,12.4,13.5c0.2,0.3,0.5,0.4,0.9,0.5c0.4,0,0.7-0.2,0.8-0.5c3.6-5.6,5.2-6.2,5.5-6.3c1.7-0.2,7.9,7,16.3,21.2
		C411.8,120,401.1,122.1,392.1,120.8L392.1,120.8z"/>
	<path class="st0" d="M375.4,102c0,0.5-0.4,1-1,1s-1-0.4-1-1s0.4-1,1-1S375.4,101.5,375.4,102"/>
	<path class="st0" d="M378.3,111c0,0.5-0.4,1-1,1c-0.5,0-1-0.4-1-1s0.4-1,1-1C377.9,110,378.3,110.5,378.3,111"/>
	<path class="st0" d="M368.8,115.4c0,0.5-0.4,1-1,1c-0.5,0-1-0.4-1-1s0.4-1,1-1C368.4,114.4,368.8,114.8,368.8,115.4"/>
	<path class="st0" d="M382.9,105.5c0,0.5-0.4,1-1,1s-1-0.4-1-1s0.4-1,1-1S382.9,104.9,382.9,105.5"/>
	<path class="st0" d="M380.7,95c0,0.5-0.4,1-1,1s-1-0.4-1-1s0.4-1,1-1S380.7,94.5,380.7,95"/>
	<path class="st0" d="M381,100.5c0,0.4-0.4,0.8-0.8,0.8c-0.4,0-0.8-0.4-0.8-0.8c0-0.4,0.4-0.8,0.8-0.8C380.6,99.6,381,100,381,100.5
		"/>
	<path class="st0" d="M372,108.8c0,0.4-0.4,0.8-0.8,0.8s-0.8-0.4-0.8-0.8c0-0.4,0.4-0.8,0.8-0.8S372,108.3,372,108.8"/>
	<path class="st0" d="M376.4,117.3c0,0.4-0.4,0.8-0.8,0.8s-0.8-0.4-0.8-0.8s0.4-0.8,0.8-0.8S376.4,116.9,376.4,117.3"/>
	<path class="st0" d="M386.6,110.8c0,0.4-0.4,0.8-0.8,0.8c-0.4,0-0.8-0.4-0.8-0.8c0-0.4,0.4-0.8,0.8-0.8
		C386.3,110,386.6,110.3,386.6,110.8"/>
	<path class="st0" d="M390.7,107.5c0,0.4-0.4,0.8-0.8,0.8c-0.4,0-0.8-0.4-0.8-0.8c0-0.4,0.4-0.8,0.8-0.8S390.7,107.1,390.7,107.5"/>
	<path class="st0" d="M386.6,102c0,0.4-0.4,0.8-0.8,0.8c-0.4,0-0.8-0.4-0.8-0.8s0.4-0.8,0.8-0.8C386.3,101.3,386.6,101.6,386.6,102"
		/>
	<path class="st0" d="M384.9,116.6c0,0.5-0.4,1-1,1c-0.5,0-1-0.4-1-1s0.4-1,1-1C384.5,115.7,384.9,116.1,384.9,116.6"/>
	<path class="st0" d="M400.3,102c0,0.5-0.4,1-1,1c-0.5,0-1-0.4-1-1s0.4-1,1-1C399.8,101.1,400.3,101.5,400.3,102"/>
	<path class="st0" d="M399.1,112.4c0,0.5-0.4,1-1,1c-0.5,0-1-0.4-1-1s0.4-1,1-1C398.7,111.4,399.1,111.8,399.1,112.4"/>
	<path class="st0" d="M392.4,114.4c0,0.5-0.4,1-1,1c-0.5,0-1-0.4-1-1s0.4-1,1-1C392,113.4,392.4,113.9,392.4,114.4"/>
	<path class="st0" d="M411,116.3c0,0.5-0.4,1-1,1c-0.5,0-1-0.4-1-1s0.4-1,1-1C410.5,115.3,411,115.8,411,116.3"/>
	<path class="st0" d="M404.1,108c0,0.4-0.4,0.8-0.8,0.8c-0.4,0-0.8-0.4-0.8-0.8c0-0.4,0.4-0.8,0.8-0.8
		C403.8,107.2,404.1,107.6,404.1,108"/>
	<path class="st0" d="M403.4,117.6c0,0.4-0.4,0.8-0.8,0.8c-0.4,0-0.8-0.4-0.8-0.8c0-0.4,0.4-0.8,0.8-0.8S403.4,117.2,403.4,117.6"/>
	<path class="st0" d="M396.9,117.8c0,0.4-0.4,0.8-0.8,0.8s-0.8-0.4-0.8-0.8c0-0.4,0.4-0.8,0.8-0.8
		C396.5,117,396.9,117.4,396.9,117.8"/>
	<path class="st0" d="M397.7,106.8c0,0.4-0.4,0.8-0.8,0.8s-0.8-0.4-0.8-0.8s0.4-0.8,0.8-0.8C397.4,106,397.7,106.4,397.7,106.8"/>
	<path class="st0" d="M405.8,113.2c0,0.4-0.4,0.8-0.8,0.8s-0.8-0.4-0.8-0.8c0-0.4,0.4-0.8,0.8-0.8S405.8,112.7,405.8,113.2"/>
</g>
<g>
	<path class="st0" d="M233.7,265.9c-6.3-10.7-14.8-23.3-18.8-22.6c-1,0.2-2.7,1-6.1,5.9c-8.6-12.4-11.9-13.4-13.6-13.1
		c-5.3,1-15.3,20-19.4,28.2c-0.5,1-0.1,2.3,0.9,2.8c5.6,2.9,14,4,24.8,3.1c2.1-0.2,4.3-0.1,6.6,0.2c2.1,0.3,4.3,0.4,6.4,0.4
		c7.8,0,15.4-1.6,18-2.2c0.6-0.1,1.1-0.5,1.3-1.1C234,267,234,266.4,233.7,265.9L233.7,265.9z M208.3,268.2
		c-1.6-0.2-3.1-0.3-4.6-0.3c-0.8,0-1.6,0.1-2.4,0.1c-10.4,0.8-18.3-0.2-23.6-2.8c6.2-12.6,14.5-26.4,17.8-27.1
		c0.5-0.1,3.2,0.2,12.4,13.5c0.2,0.3,0.5,0.4,0.9,0.5c0.4,0,0.7-0.2,0.8-0.5c3.6-5.6,5.2-6.2,5.5-6.3c1.7-0.2,7.9,7,16.3,21.2
		C227.9,267.4,217.2,269.5,208.3,268.2L208.3,268.2z"/>
	<path class="st0" d="M191.5,249.4c0,0.5-0.4,1-1,1c-0.5,0-1-0.4-1-1c0-0.5,0.4-1,1-1C191.1,248.5,191.5,248.9,191.5,249.4"/>
	<path class="st0" d="M194.5,258.4c0,0.5-0.4,1-1,1c-0.5,0-1-0.4-1-1c0-0.5,0.4-1,1-1C194,257.5,194.5,257.9,194.5,258.4"/>
	<path class="st0" d="M185,262.8c0,0.5-0.4,1-1,1c-0.5,0-1-0.4-1-1s0.4-1,1-1C184.5,261.8,185,262.3,185,262.8"/>
	<path class="st0" d="M199,252.9c0,0.5-0.4,1-1,1c-0.5,0-1-0.4-1-1c0-0.5,0.4-1,1-1C198.6,251.9,199,252.3,199,252.9"/>
	<path class="st0" d="M196.9,242.5c0,0.5-0.4,1-1,1c-0.5,0-1-0.4-1-1c0-0.5,0.4-1,1-1C196.4,241.5,196.9,241.9,196.9,242.5"/>
	<path class="st0" d="M197.1,247.9c0,0.4-0.4,0.8-0.8,0.8s-0.8-0.4-0.8-0.8s0.4-0.8,0.8-0.8S197.1,247.4,197.1,247.9"/>
	<path class="st0" d="M188.2,256.2c0,0.4-0.4,0.8-0.8,0.8s-0.8-0.4-0.8-0.8s0.4-0.8,0.8-0.8S188.2,255.7,188.2,256.2"/>
	<path class="st0" d="M192.5,264.7c0,0.4-0.4,0.8-0.8,0.8s-0.8-0.4-0.8-0.8c0-0.4,0.4-0.8,0.8-0.8
		C192.2,263.9,192.5,264.3,192.5,264.7"/>
	<path class="st0" d="M202.8,258.2c0,0.4-0.4,0.8-0.8,0.8s-0.8-0.4-0.8-0.8c0-0.4,0.4-0.8,0.8-0.8S202.8,257.8,202.8,258.2"/>
	<path class="st0" d="M206.8,255c0,0.4-0.4,0.8-0.8,0.8s-0.8-0.4-0.8-0.8s0.4-0.8,0.8-0.8C206.5,254.1,206.8,254.5,206.8,255"/>
	<path class="st0" d="M202.8,249.4c0,0.4-0.4,0.8-0.8,0.8s-0.8-0.4-0.8-0.8s0.4-0.8,0.8-0.8S202.8,249,202.8,249.4"/>
	<path class="st0" d="M201.1,264c0,0.5-0.4,1-1,1c-0.5,0-1-0.4-1-1c0-0.5,0.4-1,1-1C200.6,263.1,201.1,263.5,201.1,264"/>
	<path class="st0" d="M216.4,249.4c0,0.5-0.4,1-1,1c-0.5,0-1-0.4-1-1c0-0.5,0.4-1,1-1S216.4,248.9,216.4,249.4"/>
	<path class="st0" d="M215.2,259.8c0,0.5-0.4,1-1,1c-0.5,0-1-0.4-1-1s0.4-1,1-1C214.8,258.9,215.2,259.2,215.2,259.8"/>
	<path class="st0" d="M208.6,261.8c0,0.5-0.4,1-1,1c-0.5,0-1-0.4-1-1c0-0.5,0.4-1,1-1C208.1,260.8,208.6,261.3,208.6,261.8"/>
	<path class="st0" d="M227.1,263.7c0,0.5-0.4,1-1,1c-0.5,0-1-0.4-1-1c0-0.5,0.4-1,1-1C226.7,262.8,227.1,263.2,227.1,263.7"/>
	<path class="st0" d="M220.3,255.4c0,0.4-0.4,0.8-0.8,0.8s-0.8-0.4-0.8-0.8c0-0.4,0.4-0.8,0.8-0.8
		C219.9,254.6,220.3,255,220.3,255.4"/>
	<path class="st0" d="M219.5,265.1c0,0.4-0.4,0.8-0.8,0.8s-0.8-0.4-0.8-0.8s0.4-0.8,0.8-0.8C219.1,264.3,219.5,264.6,219.5,265.1"/>
	<path class="st0" d="M213.1,265.3c0,0.4-0.4,0.8-0.8,0.8s-0.8-0.4-0.8-0.8c0-0.4,0.4-0.8,0.8-0.8
		C212.7,264.4,213.1,264.8,213.1,265.3"/>
	<path class="st0" d="M213.8,254.2c0,0.4-0.4,0.8-0.8,0.8s-0.8-0.4-0.8-0.8s0.4-0.8,0.8-0.8C213.5,253.4,213.8,253.8,213.8,254.2"/>
	<path class="st0" d="M221.9,260.6c0,0.4-0.4,0.8-0.8,0.8s-0.8-0.4-0.8-0.8c0-0.4,0.4-0.8,0.8-0.8S221.9,260.1,221.9,260.6"/>
</g>
<g>
	<path class="st0" d="M414.2,255.1c-4.2-7.2-9.8-15.6-12.5-15.1c-0.7,0.1-1.8,0.7-4.1,4c-5.8-8.3-7.9-9-9.1-8.8
		c-3.5,0.7-10.2,13.4-12.9,18.8c-0.3,0.7-0.1,1.5,0.6,1.9c3.8,1.9,9.3,2.6,16.5,2c1.4-0.1,2.9-0.1,4.4,0.2c1.4,0.2,2.8,0.3,4.3,0.3
		c5.2,0,10.3-1,12-1.4c0.4-0.1,0.7-0.4,0.9-0.7C414.4,255.9,414.4,255.5,414.2,255.1L414.2,255.1z M397.3,256.7
		c-1-0.2-2.1-0.2-3.1-0.2c-0.5,0-1.1,0-1.6,0.1c-6.9,0.5-12.2-0.1-15.7-1.9c4.2-8.4,9.7-17.6,11.9-18c0.3-0.1,2.2,0.1,8.3,9
		c0.1,0.2,0.4,0.3,0.6,0.3s0.5-0.1,0.6-0.3c2.4-3.7,3.4-4.2,3.7-4.2c1.1-0.2,5.3,4.7,10.9,14.2C410.4,256.2,403.2,257.6,397.3,256.7
		L397.3,256.7z"/>
	<path class="st0" d="M386.1,244.2c0,0.4-0.3,0.7-0.7,0.7c-0.4,0-0.7-0.3-0.7-0.7s0.3-0.7,0.7-0.7
		C385.8,243.5,386.1,243.8,386.1,244.2"/>
	<path class="st0" d="M388.1,250.2c0,0.4-0.3,0.7-0.7,0.7c-0.4,0-0.7-0.3-0.7-0.7s0.3-0.7,0.7-0.7
		C387.8,249.5,388.1,249.8,388.1,250.2"/>
	<path class="st0" d="M381.7,253.1c0,0.4-0.3,0.7-0.7,0.7c-0.4,0-0.7-0.3-0.7-0.7s0.3-0.7,0.7-0.7
		C381.5,252.4,381.7,252.7,381.7,253.1"/>
	<path class="st0" d="M391.1,246.5c0,0.4-0.3,0.7-0.7,0.7s-0.7-0.3-0.7-0.7s0.3-0.7,0.7-0.7S391.1,246.1,391.1,246.5"/>
	<path class="st0" d="M389.7,239.5c0,0.4-0.3,0.7-0.7,0.7c-0.4,0-0.7-0.3-0.7-0.7s0.3-0.7,0.7-0.7
		C389.4,238.9,389.7,239.2,389.7,239.5"/>
	<path class="st0" d="M389.9,243.1c0,0.3-0.2,0.5-0.5,0.5s-0.5-0.2-0.5-0.5s0.2-0.5,0.5-0.5C389.6,242.6,389.9,242.8,389.9,243.1"/>
	<path class="st0" d="M383.9,248.7c0,0.3-0.2,0.5-0.5,0.5s-0.5-0.2-0.5-0.5s0.2-0.5,0.5-0.5C383.6,248.1,383.9,248.4,383.9,248.7"/>
	<path class="st0" d="M386.8,254.4c0,0.3-0.2,0.5-0.5,0.5s-0.5-0.2-0.5-0.5s0.2-0.5,0.5-0.5C386.5,253.8,386.8,254.1,386.8,254.4"/>
	<path class="st0" d="M393.6,250c0,0.3-0.2,0.5-0.5,0.5s-0.5-0.2-0.5-0.5s0.2-0.5,0.5-0.5S393.6,249.7,393.6,250"/>
	<path class="st0" d="M396.3,247.8c0,0.3-0.2,0.5-0.5,0.5s-0.5-0.2-0.5-0.5s0.2-0.5,0.5-0.5C396.1,247.3,396.3,247.5,396.3,247.8"/>
	<path class="st0" d="M393.6,244.2c0,0.3-0.2,0.5-0.5,0.5s-0.5-0.2-0.5-0.5s0.2-0.5,0.5-0.5S393.6,243.9,393.6,244.2"/>
	<path class="st0" d="M392.5,253.9c0,0.4-0.3,0.7-0.7,0.7c-0.4,0-0.7-0.3-0.7-0.7s0.3-0.7,0.7-0.7S392.5,253.5,392.5,253.9"/>
	<path class="st0" d="M402.7,244.2c0,0.4-0.3,0.7-0.7,0.7c-0.4,0-0.7-0.3-0.7-0.7s0.3-0.7,0.7-0.7
		C402.4,243.5,402.7,243.8,402.7,244.2"/>
	<path class="st0" d="M401.9,251.1c0,0.4-0.3,0.7-0.7,0.7s-0.7-0.3-0.7-0.7s0.3-0.7,0.7-0.7S401.9,250.7,401.9,251.1"/>
	<path class="st0" d="M397.5,252.4c0,0.4-0.3,0.7-0.7,0.7c-0.4,0-0.7-0.3-0.7-0.7s0.3-0.7,0.7-0.7
		C397.2,251.8,397.5,252.1,397.5,252.4"/>
	<path class="st0" d="M409.8,253.7c0,0.4-0.3,0.7-0.7,0.7c-0.4,0-0.7-0.3-0.7-0.7s0.3-0.7,0.7-0.7
		C409.6,253,409.8,253.3,409.8,253.7"/>
	<path class="st0" d="M405.3,248.2c0,0.3-0.2,0.5-0.5,0.5s-0.5-0.2-0.5-0.5s0.2-0.5,0.5-0.5C405.1,247.6,405.3,247.9,405.3,248.2"/>
	<path class="st0" d="M404.8,254.6c0,0.3-0.2,0.5-0.5,0.5s-0.5-0.2-0.5-0.5s0.2-0.5,0.5-0.5S404.8,254.3,404.8,254.6"/>
	<path class="st0" d="M400.5,254.7c0,0.3-0.2,0.5-0.5,0.5s-0.5-0.2-0.5-0.5s0.2-0.5,0.5-0.5S400.5,254.4,400.5,254.7"/>
	<path class="st0" d="M401,247.4c0,0.3-0.2,0.5-0.5,0.5s-0.5-0.2-0.5-0.5s0.2-0.5,0.5-0.5S401,247.1,401,247.4"/>
	<path class="st0" d="M406.4,251.6c0,0.3-0.2,0.5-0.5,0.5s-0.5-0.2-0.5-0.5s0.2-0.5,0.5-0.5C406.2,251.1,406.4,251.3,406.4,251.6"/>
</g>
<g>
	<path class="st0" d="M258,416.4c-4.2-7.2-9.8-15.6-12.5-15.1c-0.7,0.1-1.8,0.7-4.1,4c-5.8-8.3-7.9-9-9.1-8.8
		c-3.5,0.7-10.2,13.4-12.9,18.8c-0.3,0.7-0.1,1.5,0.6,1.9c3.8,1.9,9.3,2.6,16.5,2c1.4-0.1,2.9-0.1,4.4,0.2c1.4,0.2,2.8,0.3,4.3,0.3
		c5.2,0,10.3-1,12-1.4c0.4-0.1,0.7-0.4,0.9-0.7C258.2,417.1,258.2,416.7,258,416.4L258,416.4z M241.1,417.9c-1-0.2-2.1-0.2-3.1-0.2
		c-0.5,0-1.1,0-1.6,0.1c-6.9,0.5-12.2-0.1-15.7-1.9c4.2-8.4,9.7-17.6,11.9-18c0.3-0.1,2.2,0.1,8.3,9c0.1,0.2,0.4,0.3,0.6,0.3
		c0.2,0,0.5-0.1,0.6-0.3c2.4-3.7,3.4-4.2,3.7-4.2c1.1-0.2,5.3,4.7,10.9,14.2C254.2,417.4,247.1,418.8,241.1,417.9L241.1,417.9z"/>
	<path class="st0" d="M229.9,405.4c0,0.4-0.3,0.7-0.7,0.7s-0.7-0.3-0.7-0.7c0-0.4,0.3-0.7,0.7-0.7
		C229.6,404.8,229.9,405.1,229.9,405.4"/>
	<path class="st0" d="M231.9,411.4c0,0.4-0.3,0.7-0.7,0.7s-0.7-0.3-0.7-0.7c0-0.4,0.3-0.7,0.7-0.7
		C231.6,410.7,231.9,411,231.9,411.4"/>
	<path class="st0" d="M225.6,414.3c0,0.4-0.3,0.7-0.7,0.7s-0.7-0.3-0.7-0.7s0.3-0.7,0.7-0.7C225.3,413.7,225.6,413.9,225.6,414.3"/>
	<path class="st0" d="M234.9,407.7c0,0.4-0.3,0.7-0.7,0.7s-0.7-0.3-0.7-0.7c0-0.4,0.3-0.7,0.7-0.7S234.9,407.3,234.9,407.7"/>
	<path class="st0" d="M233.5,400.8c0,0.4-0.3,0.7-0.7,0.7s-0.7-0.3-0.7-0.7s0.3-0.7,0.7-0.7C233.2,400.1,233.5,400.4,233.5,400.8"/>
	<path class="st0" d="M233.7,404.4c0,0.3-0.2,0.5-0.5,0.5s-0.5-0.2-0.5-0.5s0.2-0.5,0.5-0.5C233.4,403.8,233.7,404.1,233.7,404.4"/>
	<path class="st0" d="M227.7,409.9c0,0.3-0.2,0.5-0.5,0.5s-0.5-0.2-0.5-0.5s0.2-0.5,0.5-0.5S227.7,409.6,227.7,409.9"/>
	<path class="st0" d="M230.6,415.6c0,0.3-0.2,0.5-0.5,0.5s-0.5-0.2-0.5-0.5s0.2-0.5,0.5-0.5S230.6,415.3,230.6,415.6"/>
	<path class="st0" d="M237.4,411.2c0,0.3-0.2,0.5-0.5,0.5s-0.5-0.2-0.5-0.5s0.2-0.5,0.5-0.5S237.4,410.9,237.4,411.2"/>
	<path class="st0" d="M240.1,409.1c0,0.3-0.2,0.5-0.5,0.5s-0.5-0.2-0.5-0.5s0.2-0.5,0.5-0.5C239.9,408.5,240.1,408.8,240.1,409.1"/>
	<path class="st0" d="M237.4,405.4c0,0.3-0.2,0.5-0.5,0.5s-0.5-0.2-0.5-0.5s0.2-0.5,0.5-0.5S237.4,405.1,237.4,405.4"/>
	<path class="st0" d="M236.3,415.1c0,0.4-0.3,0.7-0.7,0.7s-0.7-0.3-0.7-0.7c0-0.4,0.3-0.7,0.7-0.7
		C236,414.5,236.3,414.8,236.3,415.1"/>
	<path class="st0" d="M246.5,405.4c0,0.4-0.3,0.7-0.7,0.7s-0.7-0.3-0.7-0.7c0-0.4,0.3-0.7,0.7-0.7
		C246.2,404.8,246.5,405.1,246.5,405.4"/>
	<path class="st0" d="M245.8,412.3c0,0.4-0.3,0.7-0.7,0.7s-0.7-0.3-0.7-0.7c0-0.4,0.3-0.7,0.7-0.7S245.8,411.9,245.8,412.3"/>
	<path class="st0" d="M241.3,413.7c0,0.4-0.3,0.7-0.7,0.7s-0.7-0.3-0.7-0.7s0.3-0.7,0.7-0.7S241.3,413.3,241.3,413.7"/>
	<path class="st0" d="M253.7,414.9c0,0.4-0.3,0.7-0.7,0.7s-0.7-0.3-0.7-0.7c0-0.4,0.3-0.7,0.7-0.7
		C253.4,414.3,253.7,414.6,253.7,414.9"/>
	<path class="st0" d="M249.1,409.4c0,0.3-0.2,0.5-0.5,0.5s-0.5-0.2-0.5-0.5s0.2-0.5,0.5-0.5S249.1,409.1,249.1,409.4"/>
	<path class="st0" d="M248.6,415.8c0,0.3-0.2,0.5-0.5,0.5s-0.5-0.2-0.5-0.5s0.2-0.5,0.5-0.5C248.3,415.3,248.6,415.5,248.6,415.8"/>
	<path class="st0" d="M244.3,416c0,0.3-0.2,0.5-0.5,0.5s-0.5-0.2-0.5-0.5s0.2-0.5,0.5-0.5C244,415.4,244.3,415.7,244.3,416"/>
	<path class="st0" d="M244.8,408.6c0,0.3-0.2,0.5-0.5,0.5s-0.5-0.2-0.5-0.5s0.2-0.5,0.5-0.5C244.6,408,244.8,408.3,244.8,408.6"/>
	<path class="st0" d="M250.2,412.8c0,0.3-0.2,0.5-0.5,0.5s-0.5-0.2-0.5-0.5s0.2-0.5,0.5-0.5S250.2,412.5,250.2,412.8"/>
</g>
<g>
	<path class="st0" d="M77.4,261.8c-4.2-7.2-9.8-15.6-12.5-15.1c-0.7,0.1-1.8,0.7-4.1,4c-5.8-8.3-7.9-9-9.1-8.8
		c-3.5,0.7-10.2,13.4-12.9,18.8c-0.3,0.7-0.1,1.5,0.6,1.9c3.8,1.9,9.3,2.6,16.5,2c1.4-0.1,2.9-0.1,4.4,0.2c1.4,0.2,2.8,0.3,4.3,0.3
		c5.2,0,10.3-1,12-1.4c0.4-0.1,0.7-0.4,0.9-0.7C77.6,262.6,77.6,262.1,77.4,261.8L77.4,261.8z M60.5,263.4c-1-0.2-2.1-0.2-3.1-0.2
		c-0.5,0-1.1,0-1.6,0.1c-6.9,0.5-12.2-0.1-15.7-1.9c4.2-8.4,9.7-17.6,11.9-18c0.3-0.1,2.2,0.1,8.3,9c0.1,0.2,0.4,0.3,0.6,0.3
		c0.2,0,0.5-0.1,0.6-0.3c2.4-3.7,3.4-4.2,3.7-4.2c1.1-0.2,5.3,4.7,10.9,14.2C73.6,262.8,66.4,264.2,60.5,263.4L60.5,263.4z"/>
	<path class="st0" d="M49.3,250.9c0,0.4-0.3,0.7-0.7,0.7s-0.7-0.3-0.7-0.7s0.3-0.7,0.7-0.7S49.3,250.5,49.3,250.9"/>
	<path class="st0" d="M51.2,256.9c0,0.4-0.3,0.7-0.7,0.7s-0.7-0.3-0.7-0.7s0.3-0.7,0.7-0.7S51.2,256.5,51.2,256.9"/>
	<path class="st0" d="M44.9,259.8c0,0.4-0.3,0.7-0.7,0.7s-0.7-0.3-0.7-0.7s0.3-0.7,0.7-0.7C44.6,259.1,44.9,259.4,44.9,259.8"/>
	<path class="st0" d="M54.3,253.1c0,0.4-0.3,0.7-0.7,0.7s-0.7-0.3-0.7-0.7s0.3-0.7,0.7-0.7C54,252.5,54.3,252.8,54.3,253.1"/>
	<path class="st0" d="M52.8,246.2c0,0.4-0.3,0.7-0.7,0.7s-0.7-0.3-0.7-0.7s0.3-0.7,0.7-0.7C52.5,245.6,52.8,245.8,52.8,246.2"/>
	<path class="st0" d="M53,249.8c0,0.3-0.2,0.5-0.5,0.5s-0.5-0.2-0.5-0.5s0.2-0.5,0.5-0.5S53,249.5,53,249.8"/>
	<path class="st0" d="M47,255.3c0,0.3-0.2,0.5-0.5,0.5s-0.5-0.2-0.5-0.5s0.2-0.5,0.5-0.5S47,255,47,255.3"/>
	<path class="st0" d="M49.9,261c0,0.3-0.2,0.5-0.5,0.5s-0.5-0.2-0.5-0.5s0.2-0.5,0.5-0.5S49.9,260.7,49.9,261"/>
	<path class="st0" d="M56.8,256.7c0,0.3-0.2,0.5-0.5,0.5s-0.5-0.2-0.5-0.5s0.2-0.5,0.5-0.5C56.5,256.2,56.8,256.4,56.8,256.7"/>
	<path class="st0" d="M59.5,254.5c0,0.3-0.2,0.5-0.5,0.5s-0.5-0.2-0.5-0.5s0.2-0.5,0.5-0.5C59.2,254,59.5,254.2,59.5,254.5"/>
	<path class="st0" d="M56.8,250.9c0,0.3-0.2,0.5-0.5,0.5s-0.5-0.2-0.5-0.5s0.2-0.5,0.5-0.5C56.5,250.3,56.8,250.6,56.8,250.9"/>
	<path class="st0" d="M55.6,260.6c0,0.4-0.3,0.7-0.7,0.7s-0.7-0.3-0.7-0.7c0-0.4,0.3-0.7,0.7-0.7S55.6,260.2,55.6,260.6"/>
	<path class="st0" d="M65.9,250.9c0,0.4-0.3,0.7-0.7,0.7c-0.4,0-0.7-0.3-0.7-0.7s0.3-0.7,0.7-0.7S65.9,250.5,65.9,250.9"/>
	<path class="st0" d="M65.1,257.8c0,0.4-0.3,0.7-0.7,0.7c-0.4,0-0.7-0.3-0.7-0.7c0-0.4,0.3-0.7,0.7-0.7
		C64.8,257.1,65.1,257.4,65.1,257.8"/>
	<path class="st0" d="M60.6,259.1c0,0.4-0.3,0.7-0.7,0.7s-0.7-0.3-0.7-0.7s0.3-0.7,0.7-0.7C60.3,258.5,60.6,258.7,60.6,259.1"/>
	<path class="st0" d="M73,260.4c0,0.4-0.3,0.7-0.7,0.7s-0.7-0.3-0.7-0.7c0-0.4,0.3-0.7,0.7-0.7S73,260,73,260.4"/>
	<path class="st0" d="M68.4,254.9c0,0.3-0.2,0.5-0.5,0.5s-0.5-0.2-0.5-0.5s0.2-0.5,0.5-0.5C68.2,254.3,68.4,254.6,68.4,254.9"/>
	<path class="st0" d="M67.9,261.3c0,0.3-0.2,0.5-0.5,0.5s-0.5-0.2-0.5-0.5s0.2-0.5,0.5-0.5C67.7,260.7,67.9,261,67.9,261.3"/>
	<path class="st0" d="M63.6,261.4c0,0.3-0.2,0.5-0.5,0.5s-0.5-0.2-0.5-0.5s0.2-0.5,0.5-0.5C63.4,260.9,63.6,261.1,63.6,261.4"/>
	<path class="st0" d="M64.1,254c0,0.3-0.2,0.5-0.5,0.5s-0.5-0.2-0.5-0.5s0.2-0.5,0.5-0.5C63.9,253.5,64.1,253.7,64.1,254"/>
	<path class="st0" d="M69.6,258.3c0,0.3-0.2,0.5-0.5,0.5s-0.5-0.2-0.5-0.5s0.2-0.5,0.5-0.5C69.3,257.8,69.6,258,69.6,258.3"/>
</g>
<g>
	<path class="st0" d="M247.9,94.6c-4.2-7.2-9.8-15.6-12.5-15.1c-0.7,0.1-1.8,0.7-4.1,4c-5.8-8.3-7.9-9-9.1-8.8
		c-3.5,0.7-10.2,13.4-12.9,18.8c-0.3,0.7-0.1,1.5,0.6,1.9c3.8,1.9,9.3,2.6,16.5,2c1.4-0.1,2.9-0.1,4.4,0.2c1.4,0.2,2.8,0.3,4.3,0.3
		c5.2,0,10.3-1,12-1.4c0.4-0.1,0.7-0.4,0.9-0.7C248.1,95.3,248.1,94.9,247.9,94.6L247.9,94.6z M231,96.1c-1-0.2-2.1-0.2-3.1-0.2
		c-0.5,0-1.1,0-1.6,0.1c-6.9,0.5-12.2-0.1-15.7-1.9c4.2-8.4,9.7-17.6,11.9-18c0.3-0.1,2.2,0.1,8.3,9c0.1,0.2,0.4,0.3,0.6,0.3
		c0.2,0,0.5-0.1,0.6-0.3c2.4-3.7,3.4-4.2,3.7-4.2c1.1-0.2,5.3,4.7,10.9,14.2C244.1,95.6,237,97,231,96.1L231,96.1z"/>
	<path class="st0" d="M219.8,83.6c0,0.4-0.3,0.7-0.7,0.7s-0.7-0.3-0.7-0.7c0-0.4,0.3-0.7,0.7-0.7C219.5,83,219.8,83.3,219.8,83.6"/>
	<path class="st0" d="M221.8,89.6c0,0.4-0.3,0.7-0.7,0.7s-0.7-0.3-0.7-0.7s0.3-0.7,0.7-0.7C221.5,89,221.8,89.2,221.8,89.6"/>
	<path class="st0" d="M215.5,92.5c0,0.4-0.3,0.7-0.7,0.7s-0.7-0.3-0.7-0.7s0.3-0.7,0.7-0.7C215.2,91.9,215.5,92.2,215.5,92.5"/>
	<path class="st0" d="M224.8,85.9c0,0.4-0.3,0.7-0.7,0.7s-0.7-0.3-0.7-0.7c0-0.4,0.3-0.7,0.7-0.7C224.5,85.2,224.8,85.5,224.8,85.9"
		/>
	<path class="st0" d="M223.4,79c0,0.4-0.3,0.7-0.7,0.7S222,79.4,222,79c0-0.4,0.3-0.7,0.7-0.7C223.1,78.3,223.4,78.6,223.4,79"/>
	<path class="st0" d="M223.6,82.6c0,0.3-0.2,0.5-0.5,0.5s-0.5-0.2-0.5-0.5s0.2-0.5,0.5-0.5S223.6,82.3,223.6,82.6"/>
	<path class="st0" d="M217.6,88.1c0,0.3-0.2,0.5-0.5,0.5s-0.5-0.2-0.5-0.5s0.2-0.5,0.5-0.5S217.6,87.8,217.6,88.1"/>
	<path class="st0" d="M220.5,93.8c0,0.3-0.2,0.5-0.5,0.5s-0.5-0.2-0.5-0.5s0.2-0.5,0.5-0.5S220.5,93.5,220.5,93.8"/>
	<path class="st0" d="M227.3,89.4c0,0.3-0.2,0.5-0.5,0.5s-0.5-0.2-0.5-0.5s0.2-0.5,0.5-0.5S227.3,89.2,227.3,89.4"/>
	<path class="st0" d="M230,87.3c0,0.3-0.2,0.5-0.5,0.5s-0.5-0.2-0.5-0.5s0.2-0.5,0.5-0.5C229.8,86.7,230,87,230,87.3"/>
	<path class="st0" d="M227.3,83.6c0,0.3-0.2,0.5-0.5,0.5s-0.5-0.2-0.5-0.5s0.2-0.5,0.5-0.5S227.3,83.3,227.3,83.6"/>
	<path class="st0" d="M226.2,93.3c0,0.4-0.3,0.7-0.7,0.7s-0.7-0.3-0.7-0.7c0-0.4,0.3-0.7,0.7-0.7C225.9,92.7,226.2,93,226.2,93.3"/>
	<path class="st0" d="M236.4,83.6c0,0.4-0.3,0.7-0.7,0.7S235,84,235,83.6c0-0.4,0.3-0.7,0.7-0.7C236.1,83,236.4,83.3,236.4,83.6"/>
	<path class="st0" d="M235.6,90.5c0,0.4-0.3,0.7-0.7,0.7s-0.7-0.3-0.7-0.7c0-0.4,0.3-0.7,0.7-0.7C235.4,89.9,235.6,90.2,235.6,90.5"
		/>
	<path class="st0" d="M231.2,91.9c0,0.4-0.3,0.7-0.7,0.7s-0.7-0.3-0.7-0.7s0.3-0.7,0.7-0.7C230.9,91.2,231.2,91.5,231.2,91.9"/>
	<path class="st0" d="M243.6,93.1c0,0.4-0.3,0.7-0.7,0.7s-0.7-0.3-0.7-0.7c0-0.4,0.3-0.7,0.7-0.7S243.6,92.8,243.6,93.1"/>
	<path class="st0" d="M239,87.6c0,0.3-0.2,0.5-0.5,0.5s-0.5-0.2-0.5-0.5s0.2-0.5,0.5-0.5S239,87.3,239,87.6"/>
	<path class="st0" d="M238.5,94c0,0.3-0.2,0.5-0.5,0.5s-0.5-0.2-0.5-0.5s0.2-0.5,0.5-0.5C238.2,93.5,238.5,93.7,238.5,94"/>
	<path class="st0" d="M234.2,94.2c0,0.3-0.2,0.5-0.5,0.5s-0.5-0.2-0.5-0.5s0.2-0.5,0.5-0.5C233.9,93.6,234.2,93.9,234.2,94.2"/>
	<path class="st0" d="M234.7,86.8c0,0.3-0.2,0.5-0.5,0.5s-0.5-0.2-0.5-0.5s0.2-0.5,0.5-0.5S234.7,86.5,234.7,86.8"/>
	<path class="st0" d="M240.1,91c0,0.3-0.2,0.5-0.5,0.5S239,91.3,239,91s0.2-0.5,0.5-0.5S240.1,90.8,240.1,91"/>
</g>
</svg>
