<?xml version="1.0" encoding="utf-8"?>
<!-- Generator: Adobe Illustrator 26.4.1, SVG Export Plug-In . SVG Version: 6.00 Build 0)  -->
<svg version="1.1" id="Calque_1" xmlns="http://www.w3.org/2000/svg" xmlns:xlink="http://www.w3.org/1999/xlink" x="0px" y="0px"
	 viewBox="0 0 512 512" style="enable-background:new 0 0 512 512;" xml:space="preserve">
<style type="text/css">
	.st0{fill:#E4F0F4;stroke:#000000;stroke-miterlimit:10;}
</style>
<polygon class="st0" points="219,98 149,123 111,153 85,179 67,225 67,280 90,323 115,354 107,384 82,407.3 100,414 149,414 
	195,392 256,397 333.3,384 396,350 428,312 445,270 445,226 431,186 396,144 354,117 311,98 271,98 "/>
<path d="M256,89.4c-108.7,0-197.1,71-197.1,158.3c0,38.9,17.5,75.9,49.4,104.8c-7.1,30.1-15.6,40.4-20.1,43.9l-14.4,11.1
	c-2.5,1.9-3.6,5.3-2.7,8.3c0.9,3.1,3.7,5.2,6.9,5.4l18.1,1.1c0,0,3.5,0.2,9.3,0.2c18.4,0,63.1-2.4,91.7-23.9
	c19,4.8,38.9,7.2,59.1,7.2c108.7,0,197.1-71,197.1-158.3C453.1,160.4,364.7,89.4,256,89.4L256,89.4z M256,390.6
	c-20.2,0-40-2.6-58.9-7.7c-2.4-0.7-5-0.1-6.9,1.5c-24.5,20.6-67.6,22.8-85,22.8c-2.6,0-4.6,0-6-0.1c10.6-9.3,19-28.1,25-55.8
	c0.6-2.8-0.4-5.6-2.5-7.4c-30.6-26.4-47.5-60.6-47.5-96.3c0-78.8,81.5-142.9,181.8-142.9s181.8,64.1,181.8,142.9
	C437.8,326.5,356.2,390.6,256,390.6L256,390.6z M325.6,242.3H193.8c-4.2,0-7.7,3.4-7.7,7.7s3.4,7.7,7.7,7.7h131.8
	c4.2,0,7.7-3.4,7.7-7.7C333.3,245.7,329.9,242.3,325.6,242.3L325.6,242.3z"/>
</svg>
