<?xml version="1.0" encoding="utf-8"?>
<!-- Generator: Adobe Illustrator 26.4.1, SVG Export Plug-In . SVG Version: 6.00 Build 0)  -->
<svg version="1.1" id="Calque_1" xmlns="http://www.w3.org/2000/svg" xmlns:xlink="http://www.w3.org/1999/xlink" x="0px" y="0px"
	 viewBox="0 0 512 512" style="enable-background:new 0 0 512 512;" xml:space="preserve">
<style type="text/css">
	.st0{fill:#3F2C14;stroke:#000000;stroke-miterlimit:10;}
	.st1{fill:#93693B;stroke:#000000;stroke-miterlimit:10;}
</style>
<polygon class="st0" points="171.4,298.9 171.4,457 192,467 237,472.6 272,469.5 302,462.6 312.6,453.9 312.6,412.6 372,362 
	351.4,342 332.6,357 315.1,367 312,372 312,333.2 312,298.9 287,307 247,313.2 217,311.4 "/>
<polygon class="st1" points="237,272 194.5,277 177,286.4 171.4,295.1 192,307 232,312.2 270.8,309.5 302.6,302 312,292 307,282 
	272,272 "/>
<path d="M375.5,358.5l-20-20c-1.8-1.9-4.5-2-6.5-0.5l-32,24v-70c0-17.2-38.9-25-75-25s-75,7.8-75,25v160c0,17.2,38.9,25,75,25
	s75-7.8,75-25v-37.6l58.1-48.5c1.1-1,1.9-2.2,1.9-3.8C377,360.8,376.4,359.5,375.5,358.5L375.5,358.5z M242,277
	c42.9,0,65,10.5,65,15s-22.1,15-65,15s-65-10.5-65-15S199.1,277,242,277z M308.9,408.2c-1.1,1-1.9,2.2-1.9,3.8v40
	c0,4.5-22.1,15-65,15s-65-10.5-65-15V305.2c20.5,8.8,42.8,12.6,65,11.8c22.2,1,44.5-3,65-11.8V372c0,1.9,1.1,3.6,2.8,4.5
	c1.6,0.9,3.8,0.8,5.3-0.5l37-27.4l12.6,13.4L308.9,408.2z M197,322v120c0,2.8-2.2,5-5,5s-5-2.2-5-5V322c0-2.8,2.2-5,5-5
	S197,319.2,197,322L197,322z M217,382v70c0,2.8-2.2,5-5,5s-5-2.2-5-5v-70c0-2.8,2.2-5,5-5S217,379.2,217,382z M217,332v30
	c0,2.8-2.2,5-5,5s-5-2.2-5-5v-30c0-2.8,2.2-5,5-5S217,329.2,217,332z M237,412v40c0,2.8-2.2,5-5,5s-5-2.2-5-5v-40c0-2.8,2.2-5,5-5
	S237,409.2,237,412z M237,332v50c0,2.8-2.2,5-5,5s-5-2.2-5-5v-50c0-2.8,2.2-5,5-5S237,329.2,237,332z M257,332v120c0,2.8-2.2,5-5,5
	s-5-2.2-5-5V332c0-2.8,2.2-5,5-5S257,329.2,257,332z M277,362v90c0,2.8-2.2,5-5,5s-5-2.2-5-5v-90c0-2.8,2.2-5,5-5S277,359.2,277,362
	z M277,332v10c0,2.8-2.2,5-5,5s-5-2.2-5-5v-10c0-2.8,2.2-5,5-5S277,329.2,277,332z M297,422v20c0,2.8-2.2,5-5,5s-5-2.2-5-5v-20
	c0-2.8,2.2-5,5-5S297,419.2,297,422z M297,322v80c0,2.8-2.2,5-5,5s-5-2.2-5-5v-80c0-2.8,2.2-5,5-5S297,319.2,297,322z"/>
</svg>
