<?xml version="1.0" encoding="utf-8"?>
<!-- Generator: Adobe Illustrator 26.4.1, SVG Export Plug-In . SVG Version: 6.00 Build 0)  -->
<svg version="1.1" id="Calque_1" xmlns="http://www.w3.org/2000/svg" xmlns:xlink="http://www.w3.org/1999/xlink" x="0px" y="0px"
	 viewBox="0 0 512 512" style="enable-background:new 0 0 512 512;" xml:space="preserve">
<style type="text/css">
	.st0{fill:#EF2534;stroke:#000000;stroke-miterlimit:10;}
	.st1{fill:#3A8E44;stroke:#000000;stroke-miterlimit:10;}
	.st2{fill:#FFFFFF;}
</style>
<polygon class="st0" points="178.5,144 134,173.3 99.3,199.6 89.1,248 85,284.6 97,348.7 131.8,383 178.5,410 212,418.4 263,424 
	319,418.4 369.6,384.7 390.9,365.3 417.3,344.6 427,296 427,261 422.9,226 402.2,185.3 376.1,162 333,144 "/>
<polygon class="st1" points="265.6,86.2 249,124 230,133.4 170,128 186,150.9 178.5,168 226,158 255.8,178 278.7,155 333,166 
	323,150.9 350.1,125.6 281.3,134.9 272.7,124.5 268,128 268,116 283,93.5 276.1,83.3 "/>
<path d="M340.6,143.8l28.9-19.8l-19.4,1.6h0c-22.8,0.9-45.7,0.7-68.5-0.8l-8.9-0.4v0c1.6-6.1,5-11.6,9.8-15.8
	c3.1-2.2,5.2-5.6,5.7-9.3c0.6-3.8-0.4-7.6-2.7-10.6c-2.3-3-5.7-5-9.5-5.5c-3.8-0.5-7.6,0.6-10.5,3c-11.6,9.6-19.4,23.1-21.8,38
	c-27.1,0.7-59.1,1.1-76-1.4l-12.7-1.8l17.6,22.4c-60.5,22.2-93.9,68.7-93.9,131.9c0,91.8,71.2,153.6,177.1,153.6
	s177.1-61.4,177.1-153.6C433.1,212.5,400.3,166.2,340.6,143.8L340.6,143.8z M248.5,134.4h4.2l0.7-4.2c1.7-11.1,6.3-26.3,18.6-35.8h0
	c0.9-0.7,2.1-0.9,3.2-0.7c1.1,0.3,2.1,1,2.7,2.1c0.8,1.8,0.2,3.8-1.4,4.9c-8.3,7.1-13.7,17-15.4,27.8l-1.1,5.9h5.9l15.4,0.6
	c16.3,0.7,35.5,1.6,51.7,1.4l-16.2,11.6l6.2,11.3l-32.3-5.6c-6.5-1.2-13.1,0.7-18,5.1L256,173.3l-14.7-14.6
	c-5.1-5.1-12.5-7.2-19.5-5.6l-34.9,7.9l8.8-12.5l-13.9-10.2l-3.3-4.1c19.4,1.4,46.7,0.9,69.7,0.3L248.5,134.4z M256,418.4
	c-83,0-166.9-44.2-166.9-143.4c0-60.3,32.8-104.3,92.2-124.2l-17.9,25.6l60.7-13.7c3.7-0.9,7.6,0.2,10.2,2.9l21.8,21.6l23.8-21.2
	c2.5-2.3,5.9-3.2,9.3-2.6l53.6,9.9l-12.4-22.3c59.8,19.6,92.7,63.9,92.7,124.2C422.9,374.2,339,418.4,256,418.4L256,418.4z"/>
<ellipse transform="matrix(0.7071 -0.7071 0.7071 0.7071 -47.7829 312.642)" class="st2" cx="353.5" cy="214" rx="11" ry="20.5"/>
</svg>
