<?xml version="1.0" encoding="utf-8"?>
<!-- Generator: Adobe Illustrator 26.4.1, SVG Export Plug-In . SVG Version: 6.00 Build 0)  -->
<svg version="1.1" id="Calque_1" xmlns="http://www.w3.org/2000/svg" xmlns:xlink="http://www.w3.org/1999/xlink" x="0px" y="0px"
	 viewBox="0 0 512 512" style="enable-background:new 0 0 512 512;" xml:space="preserve">
<style type="text/css">
	.st0{fill:#507F5E;stroke:#000000;stroke-miterlimit:10;}
	.st1{fill:#3F2C14;stroke:#000000;stroke-miterlimit:10;}
</style>
<polygon class="st0" points="148,129 108,129 78,168 95,214 134,229 168,256 212,245 242,271 289,260.8 301,243 338,256 
	373.8,249.4 381,220 411,224 435,200 424,168 401,152.6 390,114 364,95 321,101 311.6,63 278,35 231,35 202,61 168,71 146,93 "/>
<polygon class="st1" points="207,477 217,348 159,319 159,301.6 217,318 222,264 256,272 289,260.8 289,316 306,301.6 336,264 
	349,253.9 364,260.8 335,323 296.3,344 296.3,387 303,477 "/>
<path d="M407.2,152.6c0.5-2.9,0.8-5.7,0.8-8.6c0-19.2-9.9-37-26.1-47.3c-16.2-10.3-36.6-11.5-53.9-3.3c-0.7-20.4-10-39.6-25.7-52.7
	c-15.7-13.1-36.2-18.9-56.4-16c-20.2,2.9-38.2,14.4-49.5,31.4H192c-14.8,0-29,5.9-39.5,16.3C142,83,136,97.2,136,112
	c-0.2,2.9-0.2,5.8,0,8.6c-2.6-0.4-5.3-0.6-8-0.6c-20-0.4-38.7,9.8-49.1,27c-10.4,17.1-10.8,38.5-1.2,56s27.9,28.6,47.9,29
	c4.5,9.6,11.6,17.6,20.6,23.3c8.9,5.7,19.3,8.7,29.8,8.7c11.5-0.1,22.7-3.8,32-10.6c2.1,3.3,4.5,6.3,7.2,9.1l-3.4,46.2l-50.4-12.6v0
	c-2.4-0.5-4.9,0.1-6.9,1.6c-1.8,1.6-2.7,3.9-2.6,6.2v16c0,3,1.8,5.8,4.5,7.2l52.6,26.4L200.6,472l-24.6,0c-4.4,0-8,3.6-8,8
	s3.6,8,8,8h160c4.4,0,8-3.6,8-8s-3.6-8-8-8h-24.6l-8.5-117.3c40.1-20.7,66.8-60.4,70.9-105.3c5.9-5.5,10.6-12.1,13.8-19.5
	c4,1.4,8.2,2.1,12.5,2.1c14.3,1.3,28.2-5.1,36.4-16.9c8.3-11.7,9.6-27,3.6-40c-6-13-18.6-21.8-32.8-23.1L407.2,152.6z M290.9,343
	c-2.8,1.5-4.5,4.5-4.3,7.7l8.8,121.3h-78.7l8.8-122.7c0.3-3.2-1.4-6.2-4.3-7.7L168,315v-0.8l49.8,12.5c2.3,0.5,4.6,0,6.6-1.3
	c1.9-1.4,3.2-3.6,3.4-5.9l3.4-45.6v0c15.7,8,34.2,8,49.9,0l3.2,43.7c0.3,2.9,2.1,5.4,4.6,6.7c2.7,1.3,5.8,1,8.2-0.8
	c13-9.6,41.6-33.4,46.4-60c3.8-0.5,7.6-1.4,11.2-2.7C347.8,296.9,324.1,327.5,290.9,343L290.9,343z M296.3,263
	c2.7-2.8,5.1-5.8,7.2-9.1c6.9,5.1,14.9,8.4,23.4,9.8c-5.6,15-15.3,28.1-27.8,37.9L296.3,263z M400,216c-4.6,0-9.1-1.3-13-3.8
	c-2.3-1.2-5.1-1.2-7.4,0c-2.3,1.1-4.1,3.1-4.8,5.6c-2,8.6-6.8,16.3-13.6,21.9c-5.2,4.3-11.5,7.2-18.2,8.3c-2.3,0.2-4.6,0.2-6.9,0
	c-11.1,0-21.8-4.7-29.3-13c-1.9-2-4.7-2.9-7.4-2.3c-2.7,0.6-4.9,2.5-5.9,5c-3.8,10.3-11.6,18.6-21.7,23c-10.1,4.3-21.5,4.3-31.6,0
	c-10.1-4.3-17.9-12.7-21.7-23c-1-2.6-3.2-4.5-5.9-5c-2.7-0.6-5.5,0.3-7.4,2.3c-9.5,10.4-23.7,15-37.4,12.1
	c-13.7-2.9-24.9-12.8-29.5-26c-1-3.5-4.4-5.8-8-5.4L128,216c-14.3,0-27.5-7.6-34.6-20s-7.1-27.6,0-40s20.4-20,34.6-20
	c6.1,0.1,12.1,1.5,17.6,4.2c3,1.6,6.7,1,9.1-1.4c2.4-2.4,3.1-6,1.6-9.1c-2.8-5.4-4.3-11.5-4.3-17.6c0-10.6,4.2-20.8,11.7-28.3
	C171.2,76.2,181.4,72,192,72c2.3-0.2,4.7-0.2,7,0c3.4,1.1,7-0.2,9-3.2c8.3-14.1,22.3-23.9,38.4-26.7c16.1-2.9,32.6,1.5,45.2,11.8
	C304.2,64.3,311.7,79.7,312,96c0,4-0.5,8.1-1.4,12c-0.6,3.5,1,7,4,8.8c3.1,1.6,6.9,1.1,9.4-1.3c7.4-7.4,17.5-11.6,28-11.5
	c10.6,0,20.8,4.2,28.3,11.7c7.5,7.5,11.7,17.7,11.7,28.3c0,4.6-0.9,9.3-2.6,13.6c-0.8,2.7-0.1,5.6,1.8,7.7c1.9,2.3,4.9,3.4,7.8,2.9
	h1c8.6,0,16.5,4.6,20.8,12c4.3,7.4,4.3,16.6,0,24c-4.3,7.4-12.2,12-20.8,12L400,216z"/>
</svg>
