<?xml version="1.0" encoding="utf-8"?>
<!-- Generator: Adobe Illustrator 26.4.1, SVG Export Plug-In . SVG Version: 6.00 Build 0)  -->
<svg version="1.1" id="Calque_1" xmlns="http://www.w3.org/2000/svg" xmlns:xlink="http://www.w3.org/1999/xlink" x="0px" y="0px"
	 viewBox="0 0 512 512" style="enable-background:new 0 0 512 512;" xml:space="preserve">
<style type="text/css">
	.st0{fill:#033C66;}
	.st1{fill:#1071AD;}
	.st2{fill:#29ADEF;}
</style>
<path class="st0" d="M263.3,32.6c-6.5,0.1-12.6,3-16.8,8c-2.7,3.5-6.8,5.6-11.2,5.6c-4.4,0-8.6-2.1-11.2-5.6
	c-4.2-5-10.3-7.8-16.8-7.8s-12.6,2.9-16.8,7.8c-2.6,3.5-6.8,5.6-11.2,5.6s-8.6-2.1-11.2-5.6c-4.2-5-10.3-7.9-16.8-8
	c-6.5,0.1-12.6,3-16.7,8c-2.7,3.5-6.8,5.6-11.2,5.6c-4.4,0-8.6-2.1-11.2-5.6c-4.2-5-10.3-7.8-16.8-7.8c-6.5,0-12.6,2.9-16.8,7.8
	c-2.7,3.4-6.8,5.5-11.2,5.6c-4.4-0.1-8.5-2.2-11.2-5.6c-4.2-5-10.3-7.9-16.8-8c-2.2,0-4,1.8-4,4c0,2.2,1.8,4,4,4
	c4.4,0.1,8.5,2.2,11.2,5.6c4.2,5,10.3,7.8,16.8,7.8c6.5,0,12.6-2.9,16.8-7.8c2.7-3.5,6.8-5.6,11.2-5.6c4.4,0,8.6,2.1,11.2,5.6
	c4.2,5,10.3,7.8,16.8,7.8c6.5,0,12.6-2.9,16.8-7.8c2.6-3.5,6.8-5.6,11.2-5.6c4.4,0,8.6,2.1,11.2,5.6c4.2,5,10.3,7.8,16.8,7.8
	s12.6-2.9,16.8-7.8c2.7-3.5,6.8-5.5,11.2-5.6c4.4,0.1,8.5,2.2,11.3,5.6c4.2,5,10.3,7.8,16.8,7.8c6.5,0,12.6-2.9,16.8-7.8h0
	c2.7-3.5,6.9-5.5,11.3-5.6c2.2,0,4-1.8,4-4C267.3,34.3,265.5,32.6,263.3,32.6z"/>
<path class="st0" d="M432,149.5c-6.5,0.1-12.6,3-16.8,8c-2.7,3.5-6.8,5.6-11.2,5.6c-4.4,0-8.6-2.1-11.2-5.6
	c-4.2-5-10.3-7.8-16.8-7.8s-12.6,2.9-16.8,7.8c-2.6,3.5-6.8,5.6-11.2,5.6s-8.6-2.1-11.2-5.6c-4.2-5-10.3-7.9-16.8-8
	c-6.5,0.1-12.6,3-16.7,8c-2.7,3.5-6.8,5.6-11.2,5.6c-4.4,0-8.6-2.1-11.2-5.6c-4.2-5-10.3-7.8-16.8-7.8c-6.5,0-12.6,2.9-16.8,7.8
	c-2.7,3.4-6.8,5.5-11.2,5.6c-4.4-0.1-8.5-2.2-11.2-5.6c-4.2-5-10.3-7.9-16.8-8c-2.2,0-4,1.8-4,4c0,2.2,1.8,4,4,4
	c4.4,0.1,8.5,2.2,11.2,5.6c4.2,5,10.3,7.8,16.8,7.8c6.5,0,12.6-2.9,16.8-7.8c2.7-3.5,6.8-5.6,11.2-5.6c4.4,0,8.6,2.1,11.2,5.6
	c4.2,5,10.3,7.8,16.8,7.8c6.5,0,12.6-2.9,16.8-7.8c2.6-3.5,6.8-5.6,11.2-5.6c4.4,0,8.6,2.1,11.2,5.6c4.2,5,10.3,7.8,16.8,7.8
	s12.6-2.9,16.8-7.8c2.7-3.5,6.8-5.5,11.2-5.6c4.4,0.1,8.5,2.2,11.3,5.6c4.2,5,10.3,7.8,16.8,7.8c6.5,0,12.6-2.9,16.8-7.8h0
	c2.7-3.5,6.9-5.5,11.3-5.6c2.2,0,4-1.8,4-4C436,151.2,434.2,149.5,432,149.5z"/>
<path class="st0" d="M325.1,314c-6.5,0.1-12.6,3-16.8,8c-2.7,3.5-6.8,5.6-11.2,5.6c-4.4,0-8.6-2.1-11.2-5.6
	c-4.2-5-10.3-7.8-16.8-7.8s-12.6,2.9-16.8,7.8c-2.6,3.5-6.8,5.6-11.2,5.6s-8.6-2.1-11.2-5.6c-4.2-5-10.3-7.9-16.8-8
	c-6.5,0.1-12.6,3-16.7,8c-2.7,3.5-6.8,5.6-11.2,5.6c-4.4,0-8.6-2.1-11.2-5.6c-4.2-5-10.3-7.8-16.8-7.8c-6.5,0-12.6,2.9-16.8,7.8
	c-2.7,3.4-6.8,5.5-11.2,5.6c-4.4-0.1-8.5-2.2-11.2-5.6c-4.2-5-10.3-7.9-16.8-8c-2.2,0-4,1.8-4,4c0,2.2,1.8,4,4,4
	c4.4,0.1,8.5,2.2,11.2,5.6c4.2,5,10.3,7.8,16.8,7.8c6.5,0,12.6-2.9,16.8-7.8c2.7-3.5,6.8-5.6,11.2-5.6c4.4,0,8.6,2.1,11.2,5.6
	c4.2,5,10.3,7.8,16.8,7.8c6.5,0,12.6-2.9,16.8-7.8c2.6-3.5,6.8-5.6,11.2-5.6c4.4,0,8.6,2.1,11.2,5.6c4.2,5,10.3,7.8,16.8,7.8
	s12.6-2.9,16.8-7.8c2.7-3.5,6.8-5.5,11.2-5.6c4.4,0.1,8.5,2.2,11.3,5.6c4.2,5,10.3,7.8,16.8,7.8c6.5,0,12.6-2.9,16.8-7.8h0
	c2.7-3.5,6.9-5.5,11.3-5.6c2.2,0,4-1.8,4-4C329.1,315.8,327.3,314,325.1,314z"/>
<path class="st0" d="M112,437.4c-6.5,0.1-12.6,3-16.8,8c-2.7,3.5-6.8,5.6-11.2,5.6c-4.4,0-8.6-2.1-11.2-5.6
	c-4.2-5-10.3-7.8-16.8-7.8s-12.6,2.9-16.8,7.8c-2.6,3.5-6.8,5.6-11.2,5.6s-8.6-2.1-11.2-5.6c-4.2-5-10.3-7.9-16.8-8
	c-6.5,0.1-12.6,3-16.7,8c-2.7,3.5-6.8,5.6-11.2,5.6c-4.4,0-8.6-2.1-11.2-5.6c-4.2-5-10.3-7.8-16.8-7.8c-6.5,0-12.6,2.9-16.8,7.8
	c-2.7,3.4-6.8,5.5-11.2,5.6c-4.4-0.1-8.5-2.2-11.2-5.6c-4.2-5-10.3-7.9-16.8-8c-2.2,0-4,1.8-4,4c0,2.2,1.8,4,4,4
	c4.4,0.1,8.5,2.2,11.2,5.6c4.2,5,10.3,7.8,16.8,7.8c6.5,0,12.6-2.9,16.8-7.8c2.7-3.5,6.8-5.6,11.2-5.6c4.4,0,8.6,2.1,11.2,5.6
	c4.2,5,10.3,7.8,16.8,7.8c6.5,0,12.6-2.9,16.8-7.8c2.6-3.5,6.8-5.6,11.2-5.6c4.4,0,8.6,2.1,11.2,5.6c4.2,5,10.3,7.8,16.8,7.8
	s12.6-2.9,16.8-7.8c2.7-3.5,6.8-5.5,11.2-5.6c4.4,0.1,8.5,2.2,11.3,5.6c4.2,5,10.3,7.8,16.8,7.8c6.5,0,12.6-2.9,16.8-7.8h0
	c2.7-3.5,6.9-5.5,11.3-5.6c2.2,0,4-1.8,4-4C116,439.2,114.2,437.4,112,437.4z"/>
<path class="st0" d="M624,437.4c-6.5,0.1-12.6,3-16.8,8c-2.7,3.5-6.8,5.6-11.2,5.6c-4.4,0-8.6-2.1-11.2-5.6
	c-4.2-5-10.3-7.8-16.8-7.8s-12.6,2.9-16.8,7.8c-2.6,3.5-6.8,5.6-11.2,5.6s-8.6-2.1-11.2-5.6c-4.2-5-10.3-7.9-16.8-8
	c-6.5,0.1-12.6,3-16.7,8c-2.7,3.5-6.8,5.6-11.2,5.6c-4.4,0-8.6-2.1-11.2-5.6c-4.2-5-10.3-7.8-16.8-7.8c-6.5,0-12.6,2.9-16.8,7.8
	c-2.7,3.4-6.8,5.5-11.2,5.6c-4.4-0.1-8.5-2.2-11.2-5.6c-4.2-5-10.3-7.9-16.8-8c-2.2,0-4,1.8-4,4c0,2.2,1.8,4,4,4
	c4.4,0.1,8.5,2.2,11.2,5.6c4.2,5,10.3,7.8,16.8,7.8c6.5,0,12.6-2.9,16.8-7.8c2.7-3.5,6.8-5.6,11.2-5.6c4.4,0,8.6,2.1,11.2,5.6
	c4.2,5,10.3,7.8,16.8,7.8c6.5,0,12.6-2.9,16.8-7.8c2.6-3.5,6.8-5.6,11.2-5.6c4.4,0,8.6,2.1,11.2,5.6c4.2,5,10.3,7.8,16.8,7.8
	s12.6-2.9,16.8-7.8c2.7-3.5,6.8-5.5,11.2-5.6c4.4,0.1,8.5,2.2,11.3,5.6c4.2,5,10.3,7.8,16.8,7.8c6.5,0,12.6-2.9,16.8-7.8l0,0
	c2.7-3.5,6.9-5.5,11.3-5.6c2.2,0,4-1.8,4-4C628,439.2,626.2,437.4,624,437.4z"/>
<path class="st1" d="M368,85.4c-6.5,0.1-12.6,3-16.8,8c-2.7,3.5-6.8,5.6-11.2,5.6c-4.4,0-8.6-2.1-11.2-5.6c-4.2-5-10.3-7.8-16.8-7.8
	s-12.6,2.9-16.8,7.8c-2.6,3.5-6.8,5.6-11.2,5.6s-8.6-2.1-11.2-5.6c-4.2-5-10.3-7.9-16.8-8c-6.5,0.1-12.6,3-16.7,8
	c-2.7,3.5-6.8,5.6-11.2,5.6c-4.4,0-8.6-2.1-11.2-5.6c-4.2-5-10.3-7.8-16.8-7.8c-6.5,0-12.6,2.9-16.8,7.8c-2.7,3.4-6.8,5.5-11.2,5.6
	c-4.4-0.1-8.5-2.2-11.2-5.6c-4.2-5-10.3-7.9-16.8-8c-2.2,0-4,1.8-4,4c0,2.2,1.8,4,4,4c4.4,0.1,8.5,2.2,11.2,5.6
	c4.2,5,10.3,7.8,16.8,7.8c6.5,0,12.6-2.9,16.8-7.8c2.7-3.5,6.8-5.6,11.2-5.6c4.4,0,8.6,2.1,11.2,5.6c4.2,5,10.3,7.8,16.8,7.8
	c6.5,0,12.6-2.9,16.8-7.8c2.6-3.5,6.8-5.6,11.2-5.6c4.4,0,8.6,2.1,11.2,5.6c4.2,5,10.3,7.8,16.8,7.8s12.6-2.9,16.8-7.8
	c2.7-3.5,6.8-5.5,11.2-5.6c4.4,0.1,8.5,2.2,11.3,5.6c4.2,5,10.3,7.8,16.8,7.8c6.5,0,12.6-2.9,16.8-7.8h0c2.7-3.5,6.9-5.5,11.3-5.6
	c2.2,0,4-1.8,4-4C372,87.2,370.2,85.4,368,85.4z"/>
<path class="st1" d="M236.3,212c-6.5,0.1-12.6,3-16.8,8c-2.7,3.5-6.8,5.6-11.2,5.6c-4.4,0-8.6-2.1-11.2-5.6
	c-4.2-5-10.3-7.8-16.8-7.8s-12.6,2.9-16.8,7.8c-2.6,3.5-6.8,5.6-11.2,5.6s-8.6-2.1-11.2-5.6c-4.2-5-10.3-7.9-16.8-8
	c-6.5,0.1-12.6,3-16.7,8c-2.7,3.5-6.8,5.6-11.2,5.6c-4.4,0-8.6-2.1-11.2-5.6c-4.2-5-10.3-7.8-16.8-7.8c-6.5,0-12.6,2.9-16.8,7.8
	c-2.7,3.4-6.8,5.5-11.2,5.6c-4.4-0.1-8.5-2.2-11.2-5.6c-4.2-5-10.3-7.9-16.8-8c-2.2,0-4,1.8-4,4c0,2.2,1.8,4,4,4
	c4.4,0.1,8.5,2.2,11.2,5.6c4.2,5,10.3,7.8,16.8,7.8c6.5,0,12.6-2.9,16.8-7.8c2.7-3.5,6.8-5.6,11.2-5.6c4.4,0,8.6,2.1,11.2,5.6
	c4.2,5,10.3,7.8,16.8,7.8c6.5,0,12.6-2.9,16.8-7.8c2.6-3.5,6.8-5.6,11.2-5.6c4.4,0,8.6,2.1,11.2,5.6c4.2,5,10.3,7.8,16.8,7.8
	s12.6-2.9,16.8-7.8c2.7-3.5,6.8-5.5,11.2-5.6c4.4,0.1,8.5,2.2,11.3,5.6c4.2,5,10.3,7.8,16.8,7.8c6.5,0,12.6-2.9,16.8-7.8h0
	c2.7-3.5,6.9-5.5,11.3-5.6c2.2,0,4-1.8,4-4C240.3,213.8,238.5,212,236.3,212z"/>
<path class="st1" d="M473.1,381c-6.5,0.1-12.6,3-16.8,8c-2.7,3.5-6.8,5.6-11.2,5.6c-4.4,0-8.6-2.1-11.2-5.6
	c-4.2-5-10.3-7.8-16.8-7.8s-12.6,2.9-16.8,7.8c-2.6,3.5-6.8,5.6-11.2,5.6s-8.6-2.1-11.2-5.6c-4.2-5-10.3-7.9-16.8-8
	c-6.5,0.1-12.6,3-16.7,8c-2.7,3.5-6.8,5.6-11.2,5.6c-4.4,0-8.6-2.1-11.2-5.6c-4.2-5-10.3-7.8-16.8-7.8c-6.5,0-12.6,2.9-16.8,7.8
	c-2.7,3.4-6.8,5.5-11.2,5.6c-4.4-0.1-8.5-2.2-11.2-5.6c-4.2-5-10.3-7.9-16.8-8c-2.2,0-4,1.8-4,4c0,2.2,1.8,4,4,4
	c4.4,0.1,8.5,2.2,11.2,5.6c4.2,5,10.3,7.8,16.8,7.8c6.5,0,12.6-2.9,16.8-7.8c2.7-3.5,6.8-5.6,11.2-5.6c4.4,0,8.6,2.1,11.2,5.6
	c4.2,5,10.3,7.8,16.8,7.8c6.5,0,12.6-2.9,16.8-7.8c2.6-3.5,6.8-5.6,11.2-5.6c4.4,0,8.6,2.1,11.2,5.6c4.2,5,10.3,7.8,16.8,7.8
	s12.6-2.9,16.8-7.8c2.7-3.5,6.8-5.5,11.2-5.6c4.4,0.1,8.5,2.2,11.3,5.6c4.2,5,10.3,7.8,16.8,7.8c6.5,0,12.6-2.9,16.8-7.8h0
	c2.7-3.5,6.9-5.5,11.3-5.6c2.2,0,4-1.8,4-4C477.1,382.8,475.3,381,473.1,381z"/>
<path class="st1" d="M368,475.4c-6.5,0.1-12.6,3-16.8,8c-2.7,3.5-6.8,5.6-11.2,5.6c-4.4,0-8.6-2.1-11.2-5.6
	c-4.2-5-10.3-7.8-16.8-7.8s-12.6,2.9-16.8,7.8c-2.6,3.5-6.8,5.6-11.2,5.6s-8.6-2.1-11.2-5.6c-4.2-5-10.3-7.9-16.8-8
	c-6.5,0.1-12.6,3-16.7,8c-2.7,3.5-6.8,5.6-11.2,5.6c-4.4,0-8.6-2.1-11.2-5.6c-4.2-5-10.3-7.8-16.8-7.8c-6.5,0-12.6,2.9-16.8,7.8
	c-2.7,3.4-6.8,5.5-11.2,5.6c-4.4-0.1-8.5-2.2-11.2-5.6c-4.2-5-10.3-7.9-16.8-8c-2.2,0-4,1.8-4,4c0,2.2,1.8,4,4,4
	c4.4,0.1,8.5,2.2,11.2,5.6c4.2,5,10.3,7.8,16.8,7.8c6.5,0,12.6-2.9,16.8-7.8c2.7-3.5,6.8-5.6,11.2-5.6c4.4,0,8.6,2.1,11.2,5.6
	c4.2,5,10.3,7.8,16.8,7.8c6.5,0,12.6-2.9,16.8-7.8c2.6-3.5,6.8-5.6,11.2-5.6c4.4,0,8.6,2.1,11.2,5.6c4.2,5,10.3,7.8,16.8,7.8
	s12.6-2.9,16.8-7.8c2.7-3.5,6.8-5.5,11.2-5.6c4.4,0.1,8.5,2.2,11.3,5.6c4.2,5,10.3,7.8,16.8,7.8c6.5,0,12.6-2.9,16.8-7.8h0
	c2.7-3.5,6.9-5.5,11.3-5.6c2.2,0,4-1.8,4-4C372,477.2,370.2,475.4,368,475.4z"/>
<path class="st2" d="M624,265.2c-6.5,0.1-12.6,3-16.8,8c-2.7,3.5-6.8,5.6-11.2,5.6c-4.4,0-8.6-2.1-11.2-5.6
	c-4.2-5-10.3-7.8-16.8-7.8s-12.6,2.9-16.8,7.8c-2.6,3.5-6.8,5.6-11.2,5.6s-8.6-2.1-11.2-5.6c-4.2-5-10.3-7.9-16.8-8
	c-6.5,0.1-12.6,3-16.7,8c-2.7,3.5-6.8,5.6-11.2,5.6c-4.4,0-8.6-2.1-11.2-5.6c-4.2-5-10.3-7.8-16.8-7.8c-6.5,0-12.6,2.9-16.8,7.8
	c-2.7,3.4-6.8,5.5-11.2,5.6c-4.4-0.1-8.5-2.2-11.2-5.6c-4.2-5-10.3-7.9-16.8-8c-2.2,0-4,1.8-4,4c0,2.2,1.8,4,4,4
	c4.4,0.1,8.5,2.2,11.2,5.6c4.2,5,10.3,7.8,16.8,7.8c6.5,0,12.6-2.9,16.8-7.8c2.7-3.5,6.8-5.6,11.2-5.6c4.4,0,8.6,2.1,11.2,5.6
	c4.2,5,10.3,7.8,16.8,7.8c6.5,0,12.6-2.9,16.8-7.8c2.6-3.5,6.8-5.6,11.2-5.6c4.4,0,8.6,2.1,11.2,5.6c4.2,5,10.3,7.8,16.8,7.8
	s12.6-2.9,16.8-7.8c2.7-3.5,6.8-5.5,11.2-5.6c4.4,0.1,8.5,2.2,11.3,5.6c4.2,5,10.3,7.8,16.8,7.8c6.5,0,12.6-2.9,16.8-7.8h0
	c2.7-3.5,6.9-5.5,11.3-5.6c2.2,0,4-1.8,4-4C628,267,626.2,265.2,624,265.2z"/>
<path class="st2" d="M112,265.2c-6.5,0.1-12.6,3-16.8,8c-2.7,3.5-6.8,5.6-11.2,5.6c-4.4,0-8.6-2.1-11.2-5.6
	c-4.2-5-10.3-7.8-16.8-7.8s-12.6,2.9-16.8,7.8c-2.6,3.5-6.8,5.6-11.2,5.6s-8.6-2.1-11.2-5.6c-4.2-5-10.3-7.9-16.8-8
	c-6.5,0.1-12.6,3-16.7,8c-2.7,3.5-6.8,5.6-11.2,5.6c-4.4,0-8.6-2.1-11.2-5.6c-4.2-5-10.3-7.8-16.8-7.8c-6.5,0-12.6,2.9-16.8,7.8
	c-2.7,3.4-6.8,5.5-11.2,5.6c-4.4-0.1-8.5-2.2-11.2-5.6c-4.2-5-10.3-7.9-16.8-8c-2.2,0-4,1.8-4,4c0,2.2,1.8,4,4,4
	c4.4,0.1,8.5,2.2,11.2,5.6c4.2,5,10.3,7.8,16.8,7.8c6.5,0,12.6-2.9,16.8-7.8c2.7-3.5,6.8-5.6,11.2-5.6c4.4,0,8.6,2.1,11.2,5.6
	c4.2,5,10.3,7.8,16.8,7.8c6.5,0,12.6-2.9,16.8-7.8c2.6-3.5,6.8-5.6,11.2-5.6c4.4,0,8.6,2.1,11.2,5.6c4.2,5,10.3,7.8,16.8,7.8
	s12.6-2.9,16.8-7.8c2.7-3.5,6.8-5.5,11.2-5.6c4.4,0.1,8.5,2.2,11.3,5.6c4.2,5,10.3,7.8,16.8,7.8c6.5,0,12.6-2.9,16.8-7.8h0
	c2.7-3.5,6.9-5.5,11.3-5.6c2.2,0,4-1.8,4-4C116,267,114.2,265.2,112,265.2z"/>
</svg>
